<?xml version="1.0" encoding="UTF-8"?>

<!DOCTYPE svg PUBLIC '-//W3C//DTD SVG 20001102//EN' 'http://www.w3.org/TR/2000/CR-SVG-20001102/DTD/svg-20001102.dtd'>
<svg style="fill-opacity:1; color-rendering:auto; color-interpolation:sRGB; text-rendering:auto; stroke:black; stroke-linecap:square; stroke-miterlimit:10; shape-rendering:auto; stroke-opacity:1; fill:black; stroke-dasharray:none; font-weight:normal; stroke-width:1; font-family:&apos;sansserif&apos;; font-style:normal; stroke-linejoin:miter; font-size:12; stroke-dashoffset:0; image-rendering:auto;" width="614" height="312">
  <!--Generated by the Batik Graphics2D SVG Generator-->
  <defs id="genericDefs" />
  <g>
    <defs id="defs1">
      <clipPath clipPathUnits="userSpaceOnUse" id="clipPath1">
        <path d="M0 0 L614 0 L614 312 L0 312 L0 0 Z" />
      </clipPath>
      <clipPath clipPathUnits="userSpaceOnUse" id="clipPath2">
        <path d="M500 150 L500 299 L601 299 L601 150 Z" />
      </clipPath>
      <clipPath clipPathUnits="userSpaceOnUse" id="clipPath3">
        <path d="M501 151 L501 167 L601 167 L601 151 Z" />
      </clipPath>
      <clipPath clipPathUnits="userSpaceOnUse" id="clipPath4">
        <path d="M500 179 L500 213 L601 213 L601 179 Z" />
      </clipPath>
      <clipPath clipPathUnits="userSpaceOnUse" id="clipPath5">
        <path d="M502 181 L502 212 L600 212 L600 181 Z" />
      </clipPath>
      <clipPath clipPathUnits="userSpaceOnUse" id="clipPath6">
        <path d="M500 225 L500 289 L601 289 L601 225 Z" />
      </clipPath>
      <clipPath clipPathUnits="userSpaceOnUse" id="clipPath7">
        <path d="M502 227 L502 288 L600 288 L600 227 Z" />
      </clipPath>
      <clipPath clipPathUnits="userSpaceOnUse" id="clipPath8">
        <path d="M230 143 L230 247 L418 247 L418 143 Z" />
      </clipPath>
      <clipPath clipPathUnits="userSpaceOnUse" id="clipPath9">
        <path d="M231 144 L231 160 L418 160 L418 144 Z" />
      </clipPath>
      <clipPath clipPathUnits="userSpaceOnUse" id="clipPath10">
        <path d="M230 172 L230 191 L418 191 L418 172 Z" />
      </clipPath>
      <clipPath clipPathUnits="userSpaceOnUse" id="clipPath11">
        <path d="M232 174 L232 190 L417 190 L417 174 Z" />
      </clipPath>
      <clipPath clipPathUnits="userSpaceOnUse" id="clipPath12">
        <path d="M230 203 L230 237 L418 237 L418 203 Z" />
      </clipPath>
      <clipPath clipPathUnits="userSpaceOnUse" id="clipPath13">
        <path d="M232 205 L232 236 L417 236 L417 205 Z" />
      </clipPath>
    </defs>
    <g style="fill:rgb(0,0,130); stroke:rgb(0,0,130);">
      <line x1="420" x2="500" y1="199" style="clip-path:url(#clipPath1); fill:none;" y2="199" />
      <polygon style="fill:white; clip-path:url(#clipPath1); stroke:none;" points=" 420 199 428 195 436 199 428 203" />
      <polygon style="fill:none; clip-path:url(#clipPath1);" points=" 420 199 428 195 436 199 428 203" />
      <line x1="428" x2="420" y1="203" style="clip-path:url(#clipPath1); fill:none;" y2="199" />
      <line x1="500" x2="488" y1="199" style="clip-path:url(#clipPath1); fill:none;" y2="194" />
      <line x1="500" x2="488" y1="199" style="clip-path:url(#clipPath1); fill:none;" y2="204" />
      <rect x="503" y="153" width="100" style="clip-path:url(#clipPath1); fill:navy; stroke:none;" height="148" />
      <rect x="500" y="150" width="100" style="clip-path:url(#clipPath1); fill:white; stroke:none;" height="148" />
      <rect x="500" y="150" width="100" style="clip-path:url(#clipPath1); fill:none; stroke:black;" height="148" />
    </g>
    <g style="font-weight:bold; font-family:sans-serif;">
      <text x="510" y="163" style="clip-path:url(#clipPath3); stroke:none;">CCoordinate
      </text>
    </g>
    <g>
      <line x1="500" x2="600" y1="172" style="clip-path:url(#clipPath2); fill:none;" y2="172" />
    </g>
    <g style="font-family:sans-serif;">
      <text x="506" y="193" style="clip-path:url(#clipPath5); stroke:none;">-m_x:int
      </text>
      <text x="506" y="208" style="clip-path:url(#clipPath5); stroke:none;">-m_y:int
      </text>
    </g>
    <g>
      <line x1="500" x2="600" y1="218" style="clip-path:url(#clipPath2); fill:none;" y2="218" />
    </g>
    <g style="font-family:sans-serif;">
      <text x="506" y="239" style="clip-path:url(#clipPath7); stroke:none;">+CCoordinate
      </text>
      <text x="506" y="254" style="clip-path:url(#clipPath7); stroke:none;">+~CCoordinate
      </text>
      <text x="506" y="269" style="clip-path:url(#clipPath7); stroke:none;">+print:void
      </text>
      <text x="506" y="284" style="clip-path:url(#clipPath7); stroke:none;">+set:bool
      </text>
    </g>
    <g style="fill:navy; stroke:navy;">
      <rect x="233" y="146" width="187" style="clip-path:url(#clipPath1); stroke:none;" height="103" />
      <rect x="230" y="143" width="187" style="clip-path:url(#clipPath1); fill:white; stroke:none;" height="103" />
      <rect x="230" y="143" width="187" style="clip-path:url(#clipPath1); fill:none; stroke:black;" height="103" />
    </g>
    <g style="font-weight:bold; font-family:sans-serif;">
      <text x="293" y="156" style="clip-path:url(#clipPath9); stroke:none;">CTriangle
      </text>
    </g>
    <g>
      <line x1="230" x2="417" y1="165" style="clip-path:url(#clipPath8); fill:none;" y2="165" />
    </g>
    <g style="font-family:sans-serif;">
      <text x="236" y="186" style="clip-path:url(#clipPath11); stroke:none;">-m_coordinate:CCoordinate[3]
      </text>
    </g>
    <g>
      <line x1="230" x2="417" y1="196" style="clip-path:url(#clipPath8); fill:none;" y2="196" />
    </g>
    <g style="font-family:sans-serif;">
      <text x="236" y="217" style="clip-path:url(#clipPath13); stroke:none;">+set:bool
      </text>
      <text x="236" y="232" style="clip-path:url(#clipPath13); stroke:none;">+print:void
      </text>
    </g>
  </g>
</svg>
