<?xml version="1.0" encoding="UTF-8"?>

<!DOCTYPE svg PUBLIC '-//W3C//DTD SVG 20001102//EN' 'http://www.w3.org/TR/2000/CR-SVG-20001102/DTD/svg-20001102.dtd'>
<svg style="fill-opacity:1; color-rendering:auto; color-interpolation:sRGB; text-rendering:auto; stroke:black; stroke-linecap:square; stroke-miterlimit:10; shape-rendering:auto; stroke-opacity:1; fill:black; stroke-dasharray:none; font-weight:normal; stroke-width:1; font-family:&apos;sansserif&apos;; font-style:normal; stroke-linejoin:miter; font-size:12; stroke-dashoffset:0; image-rendering:auto;" width="592" height="539">
  <!--Generated by the Batik Graphics2D SVG Generator-->
  <defs id="genericDefs" />
  <g>
    <defs id="defs1">
      <clipPath clipPathUnits="userSpaceOnUse" id="clipPath1">
        <path d="M0 0 L592 0 L592 539 L0 539 L0 0 Z" />
      </clipPath>
      <clipPath clipPathUnits="userSpaceOnUse" id="clipPath2">
        <path d="M481 419 L481 500 L579 500 L579 419 Z" />
      </clipPath>
      <clipPath clipPathUnits="userSpaceOnUse" id="clipPath3">
        <path d="M482 420 L482 436 L579 436 L579 420 Z" />
      </clipPath>
      <clipPath clipPathUnits="userSpaceOnUse" id="clipPath4">
        <path d="M481 471 L481 490 L579 490 L579 471 Z" />
      </clipPath>
      <clipPath clipPathUnits="userSpaceOnUse" id="clipPath5">
        <path d="M483 473 L483 489 L578 489 L578 473 Z" />
      </clipPath>
      <clipPath clipPathUnits="userSpaceOnUse" id="clipPath6">
        <path d="M293 419 L293 515 L401 515 L401 419 Z" />
      </clipPath>
      <clipPath clipPathUnits="userSpaceOnUse" id="clipPath7">
        <path d="M294 420 L294 436 L401 436 L401 420 Z" />
      </clipPath>
      <clipPath clipPathUnits="userSpaceOnUse" id="clipPath8">
        <path d="M293 471 L293 505 L401 505 L401 471 Z" />
      </clipPath>
      <clipPath clipPathUnits="userSpaceOnUse" id="clipPath9">
        <path d="M295 473 L295 504 L400 504 L400 473 Z" />
      </clipPath>
      <clipPath clipPathUnits="userSpaceOnUse" id="clipPath10">
        <path d="M160 20 L160 184 L275 184 L275 20 Z" />
      </clipPath>
      <clipPath clipPathUnits="userSpaceOnUse" id="clipPath11">
        <path d="M161 21 L161 37 L275 37 L275 21 Z" />
      </clipPath>
      <clipPath clipPathUnits="userSpaceOnUse" id="clipPath12">
        <path d="M160 49 L160 98 L275 98 L275 49 Z" />
      </clipPath>
      <clipPath clipPathUnits="userSpaceOnUse" id="clipPath13">
        <path d="M162 51 L162 97 L274 97 L274 51 Z" />
      </clipPath>
      <clipPath clipPathUnits="userSpaceOnUse" id="clipPath14">
        <path d="M160 110 L160 174 L275 174 L275 110 Z" />
      </clipPath>
      <clipPath clipPathUnits="userSpaceOnUse" id="clipPath15">
        <path d="M162 112 L162 173 L274 173 L274 112 Z" />
      </clipPath>
      <clipPath clipPathUnits="userSpaceOnUse" id="clipPath16">
        <path d="M61 419 L61 498 L191 498 L191 419 Z" />
      </clipPath>
      <clipPath clipPathUnits="userSpaceOnUse" id="clipPath17">
        <path d="M62 420 L62 436 L191 436 L191 420 Z" />
      </clipPath>
      <clipPath clipPathUnits="userSpaceOnUse" id="clipPath18">
        <path d="M123 255 L123 334 L204 334 L204 255 Z" />
      </clipPath>
      <clipPath clipPathUnits="userSpaceOnUse" id="clipPath19">
        <path d="M124 256 L124 272 L204 272 L204 256 Z" />
      </clipPath>
      <clipPath clipPathUnits="userSpaceOnUse" id="clipPath20">
        <path d="M20 255 L20 334 L101 334 L101 255 Z" />
      </clipPath>
      <clipPath clipPathUnits="userSpaceOnUse" id="clipPath21">
        <path d="M21 256 L21 272 L101 272 L101 256 Z" />
      </clipPath>
      <clipPath clipPathUnits="userSpaceOnUse" id="clipPath22">
        <path d="M226 255 L226 334 L307 334 L307 255 Z" />
      </clipPath>
      <clipPath clipPathUnits="userSpaceOnUse" id="clipPath23">
        <path d="M227 256 L227 272 L307 272 L307 256 Z" />
      </clipPath>
      <clipPath clipPathUnits="userSpaceOnUse" id="clipPath24">
        <path d="M329 255 L329 357 L433 357 L433 255 Z" />
      </clipPath>
      <clipPath clipPathUnits="userSpaceOnUse" id="clipPath25">
        <path d="M330 256 L330 272 L433 272 L433 256 Z" />
      </clipPath>
      <clipPath clipPathUnits="userSpaceOnUse" id="clipPath26">
        <path d="M329 284 L329 318 L433 318 L433 284 Z" />
      </clipPath>
      <clipPath clipPathUnits="userSpaceOnUse" id="clipPath27">
        <path d="M331 286 L331 317 L432 317 L432 286 Z" />
      </clipPath>
    </defs>
    <g style="fill:rgb(0,64,64); stroke:rgb(0,64,64);">
      <line x1="243" x2="243" y1="255" style="clip-path:url(#clipPath1); fill:none;" y2="186" />
      <line x1="61" x2="176" y1="255" style="clip-path:url(#clipPath1); fill:none;" y2="186" />
      <line x1="193" x2="193" y1="255" style="clip-path:url(#clipPath1); fill:none;" y2="186" />
      <line x1="169" x2="267" y1="419" style="clip-path:url(#clipPath1); fill:none; stroke:rgb(0,0,130);" y2="336" />
      <line x1="71" x2="71" y1="419" style="clip-path:url(#clipPath1); fill:none; stroke:rgb(0,0,130);" y2="336" />
      <line x1="146" x2="146" y1="419" style="clip-path:url(#clipPath1); fill:none; stroke:rgb(0,0,130);" y2="336" />
      <line x1="193" x2="293" y1="459" style="clip-path:url(#clipPath1); fill:none; stroke:rgb(0,0,130);" y2="459" />
      <line x1="193" x2="282" y1="484" style="clip-path:url(#clipPath1); fill:none; stroke:rgb(0,0,130);" y2="527" />
      <line x1="282" x2="414" y1="527" style="clip-path:url(#clipPath1); fill:none; stroke:rgb(0,0,130);" y2="527" />
      <line x1="414" x2="481" y1="527" style="clip-path:url(#clipPath1); fill:none; stroke:rgb(0,0,130);" y2="486" />
      <line x1="260" x2="382" y1="186" style="clip-path:url(#clipPath1); fill:none; stroke:rgb(0,0,130);" y2="255" />
      <line x1="366" x2="366" y1="419" style="clip-path:url(#clipPath1); fill:none;" y2="359" />
      <line x1="531" x2="400" y1="419" style="clip-path:url(#clipPath1); fill:none;" y2="359" />
      <polygon style="fill:white; clip-path:url(#clipPath1); stroke:none;" points=" 243 186 249 204 237 204" />
      <polygon style="fill:none; clip-path:url(#clipPath1);" points=" 243 186 249 204 237 204" />
      <line x1="237" x2="243" y1="204" style="clip-path:url(#clipPath1); fill:none;" y2="186" />
      <polygon style="fill:white; clip-path:url(#clipPath1); stroke:none;" points=" 176 186 164 200 157 190" />
      <polygon style="fill:none; clip-path:url(#clipPath1);" points=" 176 186 164 200 157 190" />
      <line x1="157" x2="176" y1="190" style="clip-path:url(#clipPath1); fill:none;" y2="186" />
      <polygon style="fill:white; clip-path:url(#clipPath1); stroke:none;" points=" 193 186 199 204 187 204" />
      <polygon style="fill:none; clip-path:url(#clipPath1);" points=" 193 186 199 204 187 204" />
      <line x1="187" x2="193" y1="204" style="clip-path:url(#clipPath1); fill:none;" y2="186" />
      <polygon style="fill:rgb(0,0,130); clip-path:url(#clipPath1); stroke:none;" points=" 169 419 173 411 181 409 178 417" />
      <polygon style="fill:none; clip-path:url(#clipPath1); stroke:rgb(0,0,130);" points=" 169 419 173 411 181 409 178 417" />
      <line x1="178" x2="169" y1="417" style="clip-path:url(#clipPath1); fill:none; stroke:rgb(0,0,130);" y2="419" />
      <polygon style="fill:rgb(0,0,130); clip-path:url(#clipPath1); stroke:none;" points=" 71 419 67 411 71 403 75 411" />
      <polygon style="fill:none; clip-path:url(#clipPath1); stroke:rgb(0,0,130);" points=" 71 419 67 411 71 403 75 411" />
      <line x1="75" x2="71" y1="411" style="clip-path:url(#clipPath1); fill:none; stroke:rgb(0,0,130);" y2="419" />
      <polygon style="fill:rgb(0,0,130); clip-path:url(#clipPath1); stroke:none;" points=" 146 419 142 411 146 403 150 411" />
      <polygon style="fill:none; clip-path:url(#clipPath1); stroke:rgb(0,0,130);" points=" 146 419 142 411 146 403 150 411" />
      <line x1="150" x2="146" y1="411" style="clip-path:url(#clipPath1); fill:none; stroke:rgb(0,0,130);" y2="419" />
      <polygon style="fill:rgb(0,0,130); clip-path:url(#clipPath1); stroke:none;" points=" 193 459 201 455 209 459 201 463" />
      <polygon style="fill:none; clip-path:url(#clipPath1); stroke:rgb(0,0,130);" points=" 193 459 201 455 209 459 201 463" />
      <line x1="201" x2="193" y1="463" style="clip-path:url(#clipPath1); fill:none; stroke:rgb(0,0,130);" y2="459" />
      <polygon style="fill:rgb(0,0,130); clip-path:url(#clipPath1); stroke:none;" points=" 193 484 202 484 207 491 198 491" />
      <polygon style="fill:none; clip-path:url(#clipPath1); stroke:rgb(0,0,130);" points=" 193 484 202 484 207 491 198 491" />
      <line x1="198" x2="193" y1="491" style="clip-path:url(#clipPath1); fill:none; stroke:rgb(0,0,130);" y2="484" />
      <text x="451" y="479" style="clip-path:url(#clipPath1); fill:rgb(0,0,130); font-family:sans-serif; stroke:none;">1..*
      </text>
      <polygon points=" 260 186 269 186 274 194 265 193" style="fill:white; clip-path:url(#clipPath1); font-family:sans-serif; stroke:none;" />
      <polygon points=" 260 186 269 186 274 194 265 193" style="fill:none; clip-path:url(#clipPath1); font-family:sans-serif; stroke:rgb(0,0,130);" />
      <line x1="265" x2="260" y1="193" style="clip-path:url(#clipPath1); fill:none; font-family:sans-serif; stroke:rgb(0,0,130);" y2="186" />
      <text x="319" y="248" style="clip-path:url(#clipPath1); fill:rgb(0,0,130); font-family:sans-serif; stroke:none;">1..*
      </text>
      <polygon points=" 366 359 372 377 360 377" style="fill:white; clip-path:url(#clipPath1); font-family:sans-serif; stroke:none;" />
      <polygon style="fill:none; clip-path:url(#clipPath1); font-family:sans-serif;" points=" 366 359 372 377 360 377" />
      <line x1="360" x2="366" y1="377" style="clip-path:url(#clipPath1); fill:none; font-family:sans-serif;" y2="359" />
      <polygon points=" 400 359 419 361 414 372" style="fill:white; clip-path:url(#clipPath1); font-family:sans-serif; stroke:none;" />
      <polygon style="fill:none; clip-path:url(#clipPath1); font-family:sans-serif;" points=" 400 359 419 361 414 372" />
      <line x1="414" x2="400" y1="372" style="clip-path:url(#clipPath1); fill:none; font-family:sans-serif;" y2="359" />
      <rect x="484" y="422" width="97" style="clip-path:url(#clipPath1); fill:navy; font-family:sans-serif; stroke:none;" height="80" />
      <rect x="481" y="419" width="97" style="clip-path:url(#clipPath1); fill:white; font-family:sans-serif; stroke:none;" height="80" />
      <rect x="481" y="419" width="97" style="clip-path:url(#clipPath1); fill:none; font-family:sans-serif; stroke:black;" height="80" />
    </g>
    <g style="font-weight:bold; font-family:sans-serif;">
      <text x="501" y="432" style="clip-path:url(#clipPath3); stroke:none;">CCaptain
      </text>
    </g>
    <g style="font-family:sans-serif;">
      <line x1="481" x2="578" y1="441" style="clip-path:url(#clipPath2); fill:none;" y2="441" />
      <line x1="481" x2="578" y1="464" style="clip-path:url(#clipPath2); fill:none;" y2="464" />
    </g>
    <g style="font-family:sans-serif;">
      <text x="487" y="485" style="clip-path:url(#clipPath5); stroke:none;">+navigate:void
      </text>
    </g>
    <g style="fill:navy; font-family:sans-serif; stroke:navy;">
      <rect x="296" y="422" width="107" style="clip-path:url(#clipPath1); stroke:none;" height="95" />
      <rect x="293" y="419" width="107" style="clip-path:url(#clipPath1); fill:white; stroke:none;" height="95" />
      <rect x="293" y="419" width="107" style="clip-path:url(#clipPath1); fill:none; stroke:black;" height="95" />
    </g>
    <g style="font-weight:bold; font-family:sans-serif;">
      <text x="324" y="432" style="clip-path:url(#clipPath7); stroke:none;">CSailor
      </text>
    </g>
    <g style="font-family:sans-serif;">
      <line x1="293" x2="400" y1="441" style="clip-path:url(#clipPath6); fill:none;" y2="441" />
      <line x1="293" x2="400" y1="464" style="clip-path:url(#clipPath6); fill:none;" y2="464" />
    </g>
    <g style="font-family:sans-serif;">
      <text x="299" y="485" style="clip-path:url(#clipPath9); stroke:none;">+raiseSails:void
      </text>
      <text x="299" y="500" style="clip-path:url(#clipPath9); stroke:none;">+climbMast:void
      </text>
    </g>
    <g style="fill:navy; font-family:sans-serif; stroke:navy;">
      <rect x="163" y="23" width="114" style="clip-path:url(#clipPath1); stroke:none;" height="163" />
      <rect x="160" y="20" width="114" style="clip-path:url(#clipPath1); fill:white; stroke:none;" height="163" />
      <rect x="160" y="20" width="114" style="clip-path:url(#clipPath1); fill:none; stroke:black;" height="163" />
    </g>
    <g style="font-weight:bold; font-family:sans-serif;">
      <text x="199" y="33" style="clip-path:url(#clipPath11); stroke:none;">CBoat
      </text>
    </g>
    <g style="font-family:sans-serif;">
      <line x1="160" x2="274" y1="42" style="clip-path:url(#clipPath10); fill:none;" y2="42" />
    </g>
    <g style="font-family:sans-serif;">
      <text x="166" y="63" style="clip-path:url(#clipPath13); stroke:none;">-m_speed:int
      </text>
      <text x="166" y="78" style="clip-path:url(#clipPath13); stroke:none;">-m_course:int
      </text>
      <text x="166" y="93" style="clip-path:url(#clipPath13); stroke:none;">-m_maxSpeed:int
      </text>
    </g>
    <g style="font-family:sans-serif;">
      <line x1="160" x2="274" y1="103" style="clip-path:url(#clipPath10); fill:none;" y2="103" />
    </g>
    <g style="font-family:sans-serif;">
      <text x="166" y="124" style="clip-path:url(#clipPath15); stroke:none;">+command:void
      </text>
      <text x="166" y="139" style="clip-path:url(#clipPath15); stroke:none;">+sail:void
      </text>
      <text x="166" y="154" style="clip-path:url(#clipPath15); stroke:none;">+leaveBoat:void
      </text>
      <text x="166" y="169" style="clip-path:url(#clipPath15); stroke:none;">+enterBoat:void
      </text>
    </g>
    <g style="fill:navy; font-family:sans-serif; stroke:navy;">
      <rect x="64" y="422" width="129" style="clip-path:url(#clipPath1); stroke:none;" height="78" />
      <rect x="61" y="419" width="129" style="clip-path:url(#clipPath1); fill:white; stroke:none;" height="78" />
      <rect x="61" y="419" width="129" style="clip-path:url(#clipPath1); fill:none; stroke:black;" height="78" />
    </g>
    <g style="font-weight:bold; font-family:sans-serif;">
      <text x="66" y="432" style="clip-path:url(#clipPath17); stroke:none;">CSailingSimulation
      </text>
    </g>
    <g style="font-family:sans-serif;">
      <line x1="61" x2="190" y1="441" style="clip-path:url(#clipPath16); fill:none;" y2="441" />
      <line x1="61" x2="190" y1="464" style="clip-path:url(#clipPath16); fill:none;" y2="464" />
    </g>
    <g style="fill:navy; font-family:sans-serif; stroke:navy;">
      <rect x="126" y="258" width="80" style="clip-path:url(#clipPath1); stroke:none;" height="78" />
      <rect x="123" y="255" width="80" style="clip-path:url(#clipPath1); fill:white; stroke:none;" height="78" />
      <rect x="123" y="255" width="80" style="clip-path:url(#clipPath1); fill:none; stroke:black;" height="78" />
    </g>
    <g style="font-weight:bold; font-family:sans-serif;">
      <text x="136" y="268" style="clip-path:url(#clipPath19); stroke:none;">CDinghy
      </text>
    </g>
    <g style="font-family:sans-serif;">
      <line x1="123" x2="203" y1="277" style="clip-path:url(#clipPath18); fill:none;" y2="277" />
      <line x1="123" x2="203" y1="300" style="clip-path:url(#clipPath18); fill:none;" y2="300" />
    </g>
    <g style="fill:navy; font-family:sans-serif; stroke:navy;">
      <rect x="23" y="258" width="80" style="clip-path:url(#clipPath1); stroke:none;" height="78" />
      <rect x="20" y="255" width="80" style="clip-path:url(#clipPath1); fill:white; stroke:none;" height="78" />
      <rect x="20" y="255" width="80" style="clip-path:url(#clipPath1); fill:none; stroke:black;" height="78" />
    </g>
    <g style="font-weight:bold; font-family:sans-serif;">
      <text x="26" y="268" style="clip-path:url(#clipPath21); stroke:none;">CLongboat
      </text>
    </g>
    <g style="font-family:sans-serif;">
      <line x1="20" x2="100" y1="277" style="clip-path:url(#clipPath20); fill:none;" y2="277" />
      <line x1="20" x2="100" y1="300" style="clip-path:url(#clipPath20); fill:none;" y2="300" />
    </g>
    <g style="fill:navy; font-family:sans-serif; stroke:navy;">
      <rect x="229" y="258" width="80" style="clip-path:url(#clipPath1); stroke:none;" height="78" />
      <rect x="226" y="255" width="80" style="clip-path:url(#clipPath1); fill:white; stroke:none;" height="78" />
      <rect x="226" y="255" width="80" style="clip-path:url(#clipPath1); fill:none; stroke:black;" height="78" />
    </g>
    <g style="font-weight:bold; font-family:sans-serif;">
      <text x="239" y="268" style="clip-path:url(#clipPath23); stroke:none;">CCruiser
      </text>
    </g>
    <g style="font-family:sans-serif;">
      <line x1="226" x2="306" y1="277" style="clip-path:url(#clipPath22); fill:none;" y2="277" />
      <line x1="226" x2="306" y1="300" style="clip-path:url(#clipPath22); fill:none;" y2="300" />
    </g>
    <g style="fill:navy; font-family:sans-serif; stroke:navy;">
      <rect x="332" y="258" width="103" style="clip-path:url(#clipPath1); stroke:none;" height="101" />
      <rect x="329" y="255" width="103" style="clip-path:url(#clipPath1); fill:white; stroke:none;" height="101" />
      <rect x="329" y="255" width="103" style="clip-path:url(#clipPath1); fill:none; stroke:black;" height="101" />
    </g>
    <g style="font-weight:bold; font-family:sans-serif;">
      <text x="355" y="268" style="clip-path:url(#clipPath25); stroke:none;">CPerson
      </text>
    </g>
    <g style="font-family:sans-serif;">
      <line x1="329" x2="432" y1="277" style="clip-path:url(#clipPath24); fill:none;" y2="277" />
    </g>
    <g style="font-family:sans-serif;">
      <text x="335" y="298" style="clip-path:url(#clipPath27); stroke:none;">-m_age:int
      </text>
      <text x="335" y="313" style="clip-path:url(#clipPath27); stroke:none;">-m_name:string
      </text>
    </g>
    <g style="font-family:sans-serif;">
      <line x1="329" x2="432" y1="323" style="clip-path:url(#clipPath24); fill:none;" y2="323" />
    </g>
  </g>
</svg>
