<?xml version="1.0" encoding="UTF-8"?>

<!DOCTYPE svg PUBLIC '-//W3C//DTD SVG 20001102//EN' 'http://www.w3.org/TR/2000/CR-SVG-20001102/DTD/svg-20001102.dtd'>
<svg style="fill-opacity:1; color-rendering:auto; color-interpolation:sRGB; text-rendering:auto; stroke:black; stroke-linecap:square; stroke-miterlimit:10; shape-rendering:auto; stroke-opacity:1; fill:black; stroke-dasharray:none; font-weight:normal; stroke-width:1; font-family:&apos;sansserif&apos;; font-style:normal; stroke-linejoin:miter; font-size:12; stroke-dashoffset:0; image-rendering:auto;" width="504" height="228">
  <!--Generated by the Batik Graphics2D SVG Generator-->
  <defs id="genericDefs" />
  <g>
    <defs id="defs1">
      <clipPath clipPathUnits="userSpaceOnUse" id="clipPath1">
        <path d="M0 0 L504 0 L504 228 L0 228 L0 0 Z" />
      </clipPath>
      <clipPath clipPathUnits="userSpaceOnUse" id="clipPath2">
        <path d="M20 20 L20 215 L183 215 L183 20 Z" />
      </clipPath>
      <clipPath clipPathUnits="userSpaceOnUse" id="clipPath3">
        <path d="M21 21 L21 37 L183 37 L183 21 Z" />
      </clipPath>
      <clipPath clipPathUnits="userSpaceOnUse" id="clipPath4">
        <path d="M20 49 L20 83 L183 83 L183 49 Z" />
      </clipPath>
      <clipPath clipPathUnits="userSpaceOnUse" id="clipPath5">
        <path d="M22 51 L22 82 L182 82 L182 51 Z" />
      </clipPath>
      <clipPath clipPathUnits="userSpaceOnUse" id="clipPath6">
        <path d="M20 95 L20 174 L183 174 L183 95 Z" />
      </clipPath>
      <clipPath clipPathUnits="userSpaceOnUse" id="clipPath7">
        <path d="M22 97 L22 173 L182 173 L182 97 Z" />
      </clipPath>
      <clipPath clipPathUnits="userSpaceOnUse" id="clipPath8">
        <path d="M20 186 L20 205 L183 205 L183 186 Z" />
      </clipPath>
      <clipPath clipPathUnits="userSpaceOnUse" id="clipPath9">
        <path d="M22 188 L22 204 L182 204 L182 188 Z" />
      </clipPath>
      <clipPath clipPathUnits="userSpaceOnUse" id="clipPath10">
        <path d="M293 20 L293 154 L491 154 L491 20 Z" />
      </clipPath>
      <clipPath clipPathUnits="userSpaceOnUse" id="clipPath11">
        <path d="M294 21 L294 37 L491 37 L491 21 Z" />
      </clipPath>
      <clipPath clipPathUnits="userSpaceOnUse" id="clipPath12">
        <path d="M293 49 L293 68 L491 68 L491 49 Z" />
      </clipPath>
      <clipPath clipPathUnits="userSpaceOnUse" id="clipPath13">
        <path d="M295 51 L295 67 L490 67 L490 51 Z" />
      </clipPath>
      <clipPath clipPathUnits="userSpaceOnUse" id="clipPath14">
        <path d="M293 80 L293 144 L491 144 L491 80 Z" />
      </clipPath>
      <clipPath clipPathUnits="userSpaceOnUse" id="clipPath15">
        <path d="M295 82 L295 143 L490 143 L490 82 Z" />
      </clipPath>
    </defs>
    <g style="fill:rgb(0,0,130); stroke:rgb(0,0,130);">
      <line x1="293" x2="185" y1="88" style="clip-path:url(#clipPath1); fill:none;" y2="88" />
      <polygon style="fill:white; clip-path:url(#clipPath1); stroke:none;" points=" 293 88 285 92 277 88 285 84" />
      <polygon style="fill:none; clip-path:url(#clipPath1);" points=" 293 88 285 92 277 88 285 84" />
      <line x1="285" x2="293" y1="84" style="clip-path:url(#clipPath1); fill:none;" y2="88" />
      <line x1="185" x2="197" y1="88" style="clip-path:url(#clipPath1); fill:none;" y2="93" />
      <line x1="185" x2="197" y1="88" style="clip-path:url(#clipPath1); fill:none;" y2="83" />
      <text x="193" y="81" style="clip-path:url(#clipPath1); font-family:sans-serif; stroke:none;">1..*
      </text>
      <rect x="23" y="23" width="162" style="clip-path:url(#clipPath1); fill:navy; font-family:sans-serif; stroke:none;" height="194" />
      <rect x="20" y="20" width="162" style="clip-path:url(#clipPath1); fill:white; font-family:sans-serif; stroke:none;" height="194" />
      <rect x="20" y="20" width="162" style="clip-path:url(#clipPath1); fill:none; font-family:sans-serif; stroke:black;" height="194" />
    </g>
    <g style="font-weight:bold; font-family:sans-serif;">
      <text x="68" y="33" style="clip-path:url(#clipPath3); stroke:none;">CComplex
      </text>
    </g>
    <g style="font-family:sans-serif;">
      <line x1="20" x2="182" y1="42" style="clip-path:url(#clipPath2); fill:none;" y2="42" />
    </g>
    <g style="font-family:sans-serif;">
      <text x="26" y="63" style="clip-path:url(#clipPath5); stroke:none;">-m_r:float
      </text>
      <text x="26" y="78" style="clip-path:url(#clipPath5); stroke:none;">-m_i:float
      </text>
    </g>
    <g style="font-family:sans-serif;">
      <line x1="20" x2="182" y1="88" style="clip-path:url(#clipPath2); fill:none;" y2="88" />
    </g>
    <g style="font-family:sans-serif;">
      <text x="26" y="109" style="clip-path:url(#clipPath7); stroke:none;">+CComplex
      </text>
      <text x="26" y="124" style="clip-path:url(#clipPath7); stroke:none;">+CComplex
      </text>
      <text x="26" y="139" style="clip-path:url(#clipPath7); stroke:none;">+operator+:CComplex
      </text>
      <text x="26" y="154" style="clip-path:url(#clipPath7); stroke:none;">+operator=:CComplex&amp;
      </text>
      <text x="26" y="169" style="clip-path:url(#clipPath7); stroke:none;">+operator+=:CComplex&amp;
      </text>
    </g>
    <g style="font-family:sans-serif;">
      <line x1="20" x2="182" y1="179" style="clip-path:url(#clipPath2); fill:none;" y2="179" />
    </g>
    <g style="font-family:sans-serif;">
      <text x="26" y="200" style="clip-path:url(#clipPath9); stroke:none;"> complex t
      </text>
    </g>
    <g style="fill:navy; font-family:sans-serif; stroke:navy;">
      <rect x="296" y="23" width="197" style="clip-path:url(#clipPath1); stroke:none;" height="133" />
      <rect x="293" y="20" width="197" style="clip-path:url(#clipPath1); fill:white; stroke:none;" height="133" />
      <rect x="293" y="20" width="197" style="clip-path:url(#clipPath1); fill:none; stroke:black;" height="133" />
    </g>
    <g style="font-weight:bold; font-family:sans-serif;">
      <text x="349" y="33" style="clip-path:url(#clipPath11); stroke:none;">CComplexSet
      </text>
    </g>
    <g style="font-family:sans-serif;">
      <line x1="293" x2="490" y1="42" style="clip-path:url(#clipPath10); fill:none;" y2="42" />
    </g>
    <g style="font-family:sans-serif;">
      <text x="299" y="63" style="clip-path:url(#clipPath13); stroke:none;">-m_data:std::vector&lt;CComplex&gt;
      </text>
    </g>
    <g style="font-family:sans-serif;">
      <line x1="293" x2="490" y1="73" style="clip-path:url(#clipPath10); fill:none;" y2="73" />
    </g>
    <g style="font-family:sans-serif;">
      <text x="299" y="94" style="clip-path:url(#clipPath15); stroke:none;">+CComplexSet
      </text>
      <text x="299" y="109" style="clip-path:url(#clipPath15); stroke:none;">+addElement:void
      </text>
      <text x="299" y="124" style="clip-path:url(#clipPath15); stroke:none;">+print:void
      </text>
      <text x="299" y="139" style="clip-path:url(#clipPath15); stroke:none;">+saveToFile:void
      </text>
    </g>
  </g>
</svg>
