<?xml version="1.0" encoding="UTF-8"?>

<!DOCTYPE svg PUBLIC '-//W3C//DTD SVG 20001102//EN' 'http://www.w3.org/TR/2000/CR-SVG-20001102/DTD/svg-20001102.dtd'>
<svg style="fill-opacity:1; color-rendering:auto; color-interpolation:sRGB; text-rendering:auto; stroke:black; stroke-linecap:square; stroke-miterlimit:10; shape-rendering:auto; stroke-opacity:1; fill:black; stroke-dasharray:none; font-weight:normal; stroke-width:1; font-family:&apos;sansserif&apos;; font-style:normal; stroke-linejoin:miter; font-size:12; stroke-dashoffset:0; image-rendering:auto;" width="205" height="262">
  <!--Generated by the Batik Graphics2D SVG Generator-->
  <defs id="genericDefs" />
  <g>
    <defs id="defs1">
      <clipPath clipPathUnits="userSpaceOnUse" id="clipPath1">
        <path d="M0 0 L205 0 L205 262 L0 262 L0 0 Z" />
      </clipPath>
      <clipPath clipPathUnits="userSpaceOnUse" id="clipPath2">
        <path d="M10 10 L10 249 L192 249 L192 10 Z" />
      </clipPath>
      <clipPath clipPathUnits="userSpaceOnUse" id="clipPath3">
        <path d="M11 11 L11 27 L192 27 L192 11 Z" />
      </clipPath>
      <clipPath clipPathUnits="userSpaceOnUse" id="clipPath4">
        <path d="M10 39 L10 88 L192 88 L192 39 Z" />
      </clipPath>
      <clipPath clipPathUnits="userSpaceOnUse" id="clipPath5">
        <path d="M12 41 L12 87 L191 87 L191 41 Z" />
      </clipPath>
      <clipPath clipPathUnits="userSpaceOnUse" id="clipPath6">
        <path d="M10 100 L10 239 L192 239 L192 100 Z" />
      </clipPath>
      <clipPath clipPathUnits="userSpaceOnUse" id="clipPath7">
        <path d="M12 102 L12 238 L191 238 L191 102 Z" />
      </clipPath>
    </defs>
    <g style="fill:navy; stroke:navy;">
      <rect x="13" y="13" width="181" style="clip-path:url(#clipPath1); stroke:none;" height="238" />
      <rect x="10" y="10" width="181" style="clip-path:url(#clipPath1); fill:white; stroke:none;" height="238" />
      <rect x="10" y="10" width="181" style="clip-path:url(#clipPath1); fill:none; stroke:black;" height="238" />
    </g>
    <g style="font-weight:bold; font-family:sans-serif;">
      <text x="15" y="23" style="clip-path:url(#clipPath3); stroke:none;">CSetOfMeasurementValues
      </text>
    </g>
    <g>
      <line x1="10" x2="191" y1="32" style="clip-path:url(#clipPath2); fill:none;" y2="32" />
    </g>
    <g style="font-family:sans-serif;">
      <text x="16" y="53" style="clip-path:url(#clipPath5); stroke:none;">-m_value:double [10]
      </text>
      <text x="16" y="68" style="clip-path:url(#clipPath5); stroke:none;">-m_unit:t_unit
      </text>
      <text x="16" y="83" style="clip-path:url(#clipPath5); stroke:none;">-m_name:std::string
      </text>
    </g>
    <g>
      <line x1="10" x2="191" y1="93" style="clip-path:url(#clipPath2); fill:none;" y2="93" />
    </g>
    <g style="font-family:sans-serif;">
      <text x="16" y="114" style="clip-path:url(#clipPath7); stroke:none;">+CSetOfMeasurementValues
      </text>
      <text x="16" y="129" style="clip-path:url(#clipPath7); stroke:none;">+setValue:void
      </text>
      <text x="16" y="144" style="clip-path:url(#clipPath7); stroke:none;">+setRandomValues:void
      </text>
      <text x="16" y="159" style="clip-path:url(#clipPath7); stroke:none;">+print:void
      </text>
      <text x="16" y="174" style="clip-path:url(#clipPath7); stroke:none;">+getValue:double
      </text>
      <text x="16" y="189" style="clip-path:url(#clipPath7); stroke:none;">+getAverage:double
      </text>
      <text x="16" y="204" style="clip-path:url(#clipPath7); stroke:none;">+getMax:double
      </text>
      <text x="16" y="219" style="clip-path:url(#clipPath7); stroke:none;">+getMin:double
      </text>
      <text x="16" y="234" style="clip-path:url(#clipPath7); stroke:none;">-printSingleValue:void
      </text>
    </g>
  </g>
</svg>
