<?xml version="1.0" encoding="UTF-8"?>

<!DOCTYPE svg PUBLIC '-//W3C//DTD SVG 20001102//EN' 'http://www.w3.org/TR/2000/CR-SVG-20001102/DTD/svg-20001102.dtd'>
<svg style="fill-opacity:1; color-rendering:auto; color-interpolation:sRGB; text-rendering:auto; stroke:black; stroke-linecap:square; stroke-miterlimit:10; shape-rendering:auto; stroke-opacity:1; fill:black; stroke-dasharray:none; font-weight:normal; stroke-width:1; font-family:&apos;sansserif&apos;; font-style:normal; stroke-linejoin:miter; font-size:12; stroke-dashoffset:0; image-rendering:auto;" width="357" height="407">
  <!--Generated by the Batik Graphics2D SVG Generator-->
  <defs id="genericDefs" />
  <g>
    <defs id="defs1">
      <clipPath clipPathUnits="userSpaceOnUse" id="clipPath1">
        <path d="M0 0 L357 0 L357 407 L0 407 L0 0 Z" />
      </clipPath>
      <clipPath clipPathUnits="userSpaceOnUse" id="clipPath2">
        <path d="M10 10 L10 253 L174 253 L174 10 Z" />
      </clipPath>
      <clipPath clipPathUnits="userSpaceOnUse" id="clipPath3">
        <path d="M10 10 L10 27 L174 27 L174 10 Z" />
      </clipPath>
      <clipPath clipPathUnits="userSpaceOnUse" id="clipPath4">
        <path d="M10 10 L10 27 L97 27 L97 10 Z" />
      </clipPath>
      <clipPath clipPathUnits="userSpaceOnUse" id="clipPath5">
        <path d="M96 10 L96 26 L174 26 L174 10 Z" />
      </clipPath>
      <clipPath clipPathUnits="userSpaceOnUse" id="clipPath6">
        <path d="M10 26 L10 253 L174 253 L174 26 Z" />
      </clipPath>
      <clipPath clipPathUnits="userSpaceOnUse" id="clipPath7">
        <path d="M10 26 L10 250 L161 250 L161 26 Z" />
      </clipPath>
      <clipPath clipPathUnits="userSpaceOnUse" id="clipPath8">
        <path d="M11 27 L11 43 L161 43 L161 27 Z" />
      </clipPath>
      <clipPath clipPathUnits="userSpaceOnUse" id="clipPath9">
        <path d="M10 55 L10 119 L161 119 L161 55 Z" />
      </clipPath>
      <clipPath clipPathUnits="userSpaceOnUse" id="clipPath10">
        <path d="M12 57 L12 118 L160 118 L160 57 Z" />
      </clipPath>
      <clipPath clipPathUnits="userSpaceOnUse" id="clipPath11">
        <path d="M10 131 L10 240 L161 240 L161 131 Z" />
      </clipPath>
      <clipPath clipPathUnits="userSpaceOnUse" id="clipPath12">
        <path d="M12 133 L12 239 L160 239 L160 133 Z" />
      </clipPath>
      <clipPath clipPathUnits="userSpaceOnUse" id="clipPath13">
        <path d="M193 10 L193 234 L344 234 L344 10 Z" />
      </clipPath>
      <clipPath clipPathUnits="userSpaceOnUse" id="clipPath14">
        <path d="M194 11 L194 27 L344 27 L344 11 Z" />
      </clipPath>
      <clipPath clipPathUnits="userSpaceOnUse" id="clipPath15">
        <path d="M193 39 L193 103 L344 103 L344 39 Z" />
      </clipPath>
      <clipPath clipPathUnits="userSpaceOnUse" id="clipPath16">
        <path d="M195 41 L195 102 L343 102 L343 41 Z" />
      </clipPath>
      <clipPath clipPathUnits="userSpaceOnUse" id="clipPath17">
        <path d="M193 115 L193 224 L344 224 L344 115 Z" />
      </clipPath>
      <clipPath clipPathUnits="userSpaceOnUse" id="clipPath18">
        <path d="M195 117 L195 223 L343 223 L343 117 Z" />
      </clipPath>
      <clipPath clipPathUnits="userSpaceOnUse" id="clipPath19">
        <path d="M10 290 L10 394 L103 394 L103 290 Z" />
      </clipPath>
      <clipPath clipPathUnits="userSpaceOnUse" id="clipPath20">
        <path d="M11 291 L11 307 L103 307 L103 291 Z" />
      </clipPath>
      <clipPath clipPathUnits="userSpaceOnUse" id="clipPath21">
        <path d="M10 319 L10 353 L103 353 L103 319 Z" />
      </clipPath>
      <clipPath clipPathUnits="userSpaceOnUse" id="clipPath22">
        <path d="M12 321 L12 352 L102 352 L102 321 Z" />
      </clipPath>
      <clipPath clipPathUnits="userSpaceOnUse" id="clipPath23">
        <path d="M10 365 L10 384 L103 384 L103 365 Z" />
      </clipPath>
      <clipPath clipPathUnits="userSpaceOnUse" id="clipPath24">
        <path d="M12 367 L12 383 L102 383 L102 367 Z" />
      </clipPath>
    </defs>
    <g style="fill:white; stroke:white;">
      <rect x="10" y="20" width="86" style="clip-path:url(#clipPath4); stroke:none;" height="6" />
      <line x1="10" x2="10" y1="20" style="clip-path:url(#clipPath4); fill:none; stroke:black;" y2="26" />
      <line x1="96" x2="96" y1="20" style="clip-path:url(#clipPath4); fill:none; stroke:black;" y2="26" />
      <line x1="10" x2="96" y1="20" style="clip-path:url(#clipPath4); fill:none; stroke:black;" y2="20" />
    </g>
    <g style="fill:white; stroke:white;">
      <rect x="96" y="10" width="77" style="clip-path:url(#clipPath5); stroke:none;" height="15" />
      <line x1="96" x2="106" y1="10" style="clip-path:url(#clipPath5); fill:none; stroke:black;" y2="10" />
      <line x1="111" x2="121" y1="10" style="clip-path:url(#clipPath5); fill:none; stroke:black;" y2="10" />
      <line x1="126" x2="136" y1="10" style="clip-path:url(#clipPath5); fill:none; stroke:black;" y2="10" />
      <line x1="141" x2="151" y1="10" style="clip-path:url(#clipPath5); fill:none; stroke:black;" y2="10" />
      <line x1="156" x2="166" y1="10" style="clip-path:url(#clipPath5); fill:none; stroke:black;" y2="10" />
      <line x1="171" x2="173" y1="10" style="clip-path:url(#clipPath5); fill:none; stroke:black;" y2="10" />
      <line x1="173" x2="173" y1="11" style="clip-path:url(#clipPath5); fill:none; stroke:black;" y2="21" />
      <line x1="172" x2="162" y1="25" style="clip-path:url(#clipPath5); fill:none; stroke:black;" y2="25" />
      <line x1="157" x2="147" y1="25" style="clip-path:url(#clipPath5); fill:none; stroke:black;" y2="25" />
      <line x1="142" x2="132" y1="25" style="clip-path:url(#clipPath5); fill:none; stroke:black;" y2="25" />
      <line x1="127" x2="117" y1="25" style="clip-path:url(#clipPath5); fill:none; stroke:black;" y2="25" />
      <line x1="112" x2="102" y1="25" style="clip-path:url(#clipPath5); fill:none; stroke:black;" y2="25" />
      <line x1="97" x2="96" y1="25" style="clip-path:url(#clipPath5); fill:none; stroke:black;" y2="25" />
      <line x1="96" x2="96" y1="24" style="clip-path:url(#clipPath5); fill:none; stroke:black;" y2="14" />
    </g>
    <g>
      <text x="100" y="22" style="clip-path:url(#clipPath5); stroke:none;">T:typename
      </text>
    </g>
    <g style="fill:navy; stroke:navy;">
      <rect x="13" y="29" width="151" style="clip-path:url(#clipPath6); stroke:none;" height="224" />
      <rect x="10" y="26" width="151" style="clip-path:url(#clipPath6); fill:white; stroke:none;" height="224" />
      <line x1="10" x2="10" y1="26" style="clip-path:url(#clipPath6); fill:none; stroke:black;" y2="250" />
      <line x1="161" x2="161" y1="26" style="clip-path:url(#clipPath6); fill:none; stroke:black;" y2="250" />
      <line x1="10" x2="161" y1="250" style="clip-path:url(#clipPath6); fill:none; stroke:black;" y2="250" />
    </g>
    <g style="font-weight:bold; font-family:sans-serif;">
      <text x="63" y="39" style="clip-path:url(#clipPath8); stroke:none;">CSort t
      </text>
    </g>
    <g>
      <line x1="10" x2="160" y1="48" style="clip-path:url(#clipPath7); fill:none;" y2="48" />
    </g>
    <g style="font-family:sans-serif;">
      <text x="16" y="69" style="clip-path:url(#clipPath10); stroke:none;">-m_numberElements:int
      </text>
      <text x="16" y="84" style="clip-path:url(#clipPath10); stroke:none;">-m_maxElements:int
      </text>
      <text x="16" y="99" style="clip-path:url(#clipPath10); stroke:none;">-m_addElements:int
      </text>
      <text x="16" y="114" style="clip-path:url(#clipPath10); stroke:none;">-m_pList:T*
      </text>
    </g>
    <g>
      <line x1="10" x2="160" y1="124" style="clip-path:url(#clipPath7); fill:none;" y2="124" />
    </g>
    <g style="font-family:sans-serif;">
      <text x="16" y="145" style="clip-path:url(#clipPath12); stroke:none;">+CSort_t
      </text>
      <text x="16" y="160" style="clip-path:url(#clipPath12); stroke:none;">+~CSort_t
      </text>
      <text x="16" y="175" style="clip-path:url(#clipPath12); stroke:none;">+addElement:void
      </text>
      <text x="16" y="190" style="clip-path:url(#clipPath12); stroke:none;">+printList:void
      </text>
      <text x="16" y="205" style="clip-path:url(#clipPath12); stroke:none;">+sortList:void
      </text>
      <text x="16" y="220" style="clip-path:url(#clipPath12); stroke:none;">-quicksort:void
      </text>
      <text x="16" y="235" style="clip-path:url(#clipPath12); stroke:none;">-partition:int
      </text>
    </g>
    <g style="fill:navy; stroke:navy;">
      <rect x="196" y="13" width="150" style="clip-path:url(#clipPath1); stroke:none;" height="223" />
      <rect x="193" y="10" width="150" style="clip-path:url(#clipPath1); fill:white; stroke:none;" height="223" />
      <rect x="193" y="10" width="150" style="clip-path:url(#clipPath1); fill:none; stroke:black;" height="223" />
    </g>
    <g style="font-weight:bold; font-family:sans-serif;">
      <text x="251" y="23" style="clip-path:url(#clipPath14); stroke:none;">CSort
      </text>
    </g>
    <g>
      <line x1="193" x2="343" y1="32" style="clip-path:url(#clipPath13); fill:none;" y2="32" />
    </g>
    <g style="font-family:sans-serif;">
      <text x="199" y="53" style="clip-path:url(#clipPath16); stroke:none;">-m_numberElements:int
      </text>
      <text x="199" y="68" style="clip-path:url(#clipPath16); stroke:none;">-m_maxElements:int
      </text>
      <text x="199" y="83" style="clip-path:url(#clipPath16); stroke:none;">-m_addElements:int
      </text>
      <text x="199" y="98" style="clip-path:url(#clipPath16); stroke:none;">-m_pList:int *
      </text>
    </g>
    <g>
      <line x1="193" x2="343" y1="108" style="clip-path:url(#clipPath13); fill:none;" y2="108" />
    </g>
    <g style="font-family:sans-serif;">
      <text x="199" y="129" style="clip-path:url(#clipPath18); stroke:none;">+CSort
      </text>
      <text x="199" y="144" style="clip-path:url(#clipPath18); stroke:none;">+~CSort
      </text>
      <text x="199" y="159" style="clip-path:url(#clipPath18); stroke:none;">+addElement:void
      </text>
      <text x="199" y="174" style="clip-path:url(#clipPath18); stroke:none;">+printList:void
      </text>
      <text x="199" y="189" style="clip-path:url(#clipPath18); stroke:none;">+sortList:void
      </text>
      <text x="199" y="204" style="clip-path:url(#clipPath18); stroke:none;">-quicksort:void
      </text>
      <text x="199" y="219" style="clip-path:url(#clipPath18); stroke:none;">-partition:int
      </text>
    </g>
    <g style="fill:navy; stroke:navy;">
      <rect x="13" y="293" width="92" style="clip-path:url(#clipPath1); stroke:none;" height="103" />
      <rect x="10" y="290" width="92" style="clip-path:url(#clipPath1); fill:white; stroke:none;" height="103" />
      <rect x="10" y="290" width="92" style="clip-path:url(#clipPath1); fill:none; stroke:black;" height="103" />
    </g>
    <g style="font-weight:bold; font-family:sans-serif;">
      <text x="16" y="303" style="clip-path:url(#clipPath20); stroke:none;">CCoordinate
      </text>
    </g>
    <g>
      <line x1="10" x2="102" y1="312" style="clip-path:url(#clipPath19); fill:none;" y2="312" />
    </g>
    <g style="font-family:sans-serif;">
      <text x="16" y="333" style="clip-path:url(#clipPath22); stroke:none;">-m_x:int
      </text>
      <text x="16" y="348" style="clip-path:url(#clipPath22); stroke:none;">-m_y:int
      </text>
    </g>
    <g>
      <line x1="10" x2="102" y1="358" style="clip-path:url(#clipPath19); fill:none;" y2="358" />
    </g>
    <g style="font-family:sans-serif;">
      <text x="16" y="379" style="clip-path:url(#clipPath24); stroke:none;">+CCoordinate
      </text>
    </g>
  </g>
</svg>
