<?xml version="1.0" encoding="UTF-8"?>

<!DOCTYPE svg PUBLIC '-//W3C//DTD SVG 20001102//EN' 'http://www.w3.org/TR/2000/CR-SVG-20001102/DTD/svg-20001102.dtd'>
<svg style="fill-opacity:1; color-rendering:auto; color-interpolation:sRGB; text-rendering:auto; stroke:black; stroke-linecap:square; stroke-miterlimit:10; shape-rendering:auto; stroke-opacity:1; fill:black; stroke-dasharray:none; font-weight:normal; stroke-width:1; font-family:&apos;sansserif&apos;; font-style:normal; stroke-linejoin:miter; font-size:12; stroke-dashoffset:0; image-rendering:auto;" width="761" height="561">
  <!--Generated by the Batik Graphics2D SVG Generator-->
  <defs id="genericDefs" />
  <g>
    <defs id="defs1">
      <clipPath clipPathUnits="userSpaceOnUse" id="clipPath1">
        <path d="M0 0 L761 0 L761 561 L0 561 L0 0 Z" />
      </clipPath>
      <clipPath clipPathUnits="userSpaceOnUse" id="clipPath2">
        <path d="M440 280 L440 548 L748 548 L748 280 Z" />
      </clipPath>
      <clipPath clipPathUnits="userSpaceOnUse" id="clipPath3">
        <path d="M441 281 L441 297 L748 297 L748 281 Z" />
      </clipPath>
      <clipPath clipPathUnits="userSpaceOnUse" id="clipPath4">
        <path d="M440 309 L440 358 L748 358 L748 309 Z" />
      </clipPath>
      <clipPath clipPathUnits="userSpaceOnUse" id="clipPath5">
        <path d="M442 311 L442 357 L747 357 L747 311 Z" />
      </clipPath>
      <clipPath clipPathUnits="userSpaceOnUse" id="clipPath6">
        <path d="M440 370 L440 494 L748 494 L748 370 Z" />
      </clipPath>
      <clipPath clipPathUnits="userSpaceOnUse" id="clipPath7">
        <path d="M442 372 L442 493 L747 493 L747 372 Z" />
      </clipPath>
      <clipPath clipPathUnits="userSpaceOnUse" id="clipPath8">
        <path d="M50 40 L50 159 L235 159 L235 40 Z" />
      </clipPath>
      <clipPath clipPathUnits="userSpaceOnUse" id="clipPath9">
        <path d="M51 41 L51 57 L235 57 L235 41 Z" />
      </clipPath>
      <clipPath clipPathUnits="userSpaceOnUse" id="clipPath10">
        <path d="M50 69 L50 88 L235 88 L235 69 Z" />
      </clipPath>
      <clipPath clipPathUnits="userSpaceOnUse" id="clipPath11">
        <path d="M52 71 L52 87 L234 87 L234 71 Z" />
      </clipPath>
      <clipPath clipPathUnits="userSpaceOnUse" id="clipPath12">
        <path d="M50 100 L50 149 L235 149 L235 100 Z" />
      </clipPath>
      <clipPath clipPathUnits="userSpaceOnUse" id="clipPath13">
        <path d="M52 102 L52 148 L234 148 L234 102 Z" />
      </clipPath>
      <clipPath clipPathUnits="userSpaceOnUse" id="clipPath14">
        <path d="M50 280 L50 548 L318 548 L318 280 Z" />
      </clipPath>
      <clipPath clipPathUnits="userSpaceOnUse" id="clipPath15">
        <path d="M51 281 L51 297 L318 297 L318 281 Z" />
      </clipPath>
      <clipPath clipPathUnits="userSpaceOnUse" id="clipPath16">
        <path d="M50 309 L50 358 L318 358 L318 309 Z" />
      </clipPath>
      <clipPath clipPathUnits="userSpaceOnUse" id="clipPath17">
        <path d="M52 311 L52 357 L317 357 L317 311 Z" />
      </clipPath>
      <clipPath clipPathUnits="userSpaceOnUse" id="clipPath18">
        <path d="M50 370 L50 494 L318 494 L318 370 Z" />
      </clipPath>
      <clipPath clipPathUnits="userSpaceOnUse" id="clipPath19">
        <path d="M52 372 L52 493 L317 493 L317 372 Z" />
      </clipPath>
    </defs>
    <g style="fill:blue; stroke:blue;">
      <line x1="320" x2="440" y1="370" style="clip-path:url(#clipPath1); fill:none;" y2="370" />
      <line x1="320" x2="440" y1="460" style="clip-path:url(#clipPath1); fill:none; stroke:rgb(0,0,130);" y2="460" />
      <line x1="174" x2="174" y1="161" style="clip-path:url(#clipPath1); fill:none; stroke:rgb(0,0,130);" y2="161" />
      <line x1="178" x2="187" y1="162" style="clip-path:url(#clipPath1); fill:none; stroke:rgb(0,0,130);" y2="165" />
      <line x1="192" x2="202" y1="166" style="clip-path:url(#clipPath1); fill:none; stroke:rgb(0,0,130);" y2="169" />
      <line x1="207" x2="216" y1="170" style="clip-path:url(#clipPath1); fill:none; stroke:rgb(0,0,130);" y2="173" />
      <line x1="221" x2="231" y1="174" style="clip-path:url(#clipPath1); fill:none; stroke:rgb(0,0,130);" y2="177" />
      <line x1="236" x2="245" y1="178" style="clip-path:url(#clipPath1); fill:none; stroke:rgb(0,0,130);" y2="181" />
      <line x1="250" x2="260" y1="182" style="clip-path:url(#clipPath1); fill:none; stroke:rgb(0,0,130);" y2="185" />
      <line x1="264" x2="274" y1="187" style="clip-path:url(#clipPath1); fill:none; stroke:rgb(0,0,130);" y2="189" />
      <line x1="279" x2="289" y1="191" style="clip-path:url(#clipPath1); fill:none; stroke:rgb(0,0,130);" y2="193" />
      <line x1="293" x2="303" y1="195" style="clip-path:url(#clipPath1); fill:none; stroke:rgb(0,0,130);" y2="197" />
      <line x1="308" x2="317" y1="199" style="clip-path:url(#clipPath1); fill:none; stroke:rgb(0,0,130);" y2="202" />
      <line x1="322" x2="332" y1="203" style="clip-path:url(#clipPath1); fill:none; stroke:rgb(0,0,130);" y2="206" />
      <line x1="337" x2="346" y1="207" style="clip-path:url(#clipPath1); fill:none; stroke:rgb(0,0,130);" y2="210" />
      <line x1="351" x2="361" y1="211" style="clip-path:url(#clipPath1); fill:none; stroke:rgb(0,0,130);" y2="214" />
      <line x1="365" x2="375" y1="215" style="clip-path:url(#clipPath1); fill:none; stroke:rgb(0,0,130);" y2="218" />
      <line x1="380" x2="390" y1="219" style="clip-path:url(#clipPath1); fill:none; stroke:rgb(0,0,130);" y2="222" />
      <line x1="394" x2="404" y1="223" style="clip-path:url(#clipPath1); fill:none; stroke:rgb(0,0,130);" y2="226" />
      <line x1="409" x2="418" y1="227" style="clip-path:url(#clipPath1); fill:none; stroke:rgb(0,0,130);" y2="230" />
      <line x1="423" x2="433" y1="231" style="clip-path:url(#clipPath1); fill:none; stroke:rgb(0,0,130);" y2="234" />
      <line x1="438" x2="447" y1="236" style="clip-path:url(#clipPath1); fill:none; stroke:rgb(0,0,130);" y2="238" />
      <line x1="452" x2="462" y1="240" style="clip-path:url(#clipPath1); fill:none; stroke:rgb(0,0,130);" y2="242" />
      <line x1="467" x2="476" y1="244" style="clip-path:url(#clipPath1); fill:none; stroke:rgb(0,0,130);" y2="246" />
      <line x1="481" x2="491" y1="248" style="clip-path:url(#clipPath1); fill:none; stroke:rgb(0,0,130);" y2="250" />
      <line x1="495" x2="505" y1="252" style="clip-path:url(#clipPath1); fill:none; stroke:rgb(0,0,130);" y2="255" />
      <line x1="510" x2="519" y1="256" style="clip-path:url(#clipPath1); fill:none; stroke:rgb(0,0,130);" y2="259" />
      <line x1="524" x2="534" y1="260" style="clip-path:url(#clipPath1); fill:none; stroke:rgb(0,0,130);" y2="263" />
      <line x1="539" x2="548" y1="264" style="clip-path:url(#clipPath1); fill:none; stroke:rgb(0,0,130);" y2="267" />
      <line x1="553" x2="563" y1="268" style="clip-path:url(#clipPath1); fill:none; stroke:rgb(0,0,130);" y2="271" />
      <line x1="568" x2="577" y1="272" style="clip-path:url(#clipPath1); fill:none; stroke:rgb(0,0,130);" y2="275" />
      <line x1="582" x2="592" y1="276" style="clip-path:url(#clipPath1); fill:none; stroke:rgb(0,0,130);" y2="279" />
      <line x1="112" x2="112" y1="161" style="clip-path:url(#clipPath1); fill:none;" y2="280" />
      <line x1="440" x2="428" y1="370" style="clip-path:url(#clipPath1); fill:none;" y2="365" />
      <line x1="440" x2="428" y1="370" style="clip-path:url(#clipPath1); fill:none;" y2="375" />
      <text x="328" y="362" style="clip-path:url(#clipPath1); font-family:sans-serif; stroke:none;">1
      </text>
      <text x="412" y="362" style="clip-path:url(#clipPath1); font-family:sans-serif; stroke:none;">0..1
      </text>
      <text x="328" y="382" style="clip-path:url(#clipPath1); font-family:sans-serif; stroke:none;">m_phone
      </text>
      <polygon points=" 320 460 328 456 336 460 328 464" style="fill:rgb(0,0,130); clip-path:url(#clipPath1); font-family:sans-serif; stroke:none;" />
      <polygon points=" 320 460 328 456 336 460 328 464" style="fill:none; clip-path:url(#clipPath1); font-family:sans-serif; stroke:rgb(0,0,130);" />
      <line x1="328" x2="320" y1="464" style="clip-path:url(#clipPath1); fill:none; font-family:sans-serif; stroke:rgb(0,0,130);" y2="460" />
      <line x1="440" x2="428" y1="460" style="clip-path:url(#clipPath1); fill:none; font-family:sans-serif; stroke:rgb(0,0,130);" y2="455" />
      <line x1="440" x2="428" y1="460" style="clip-path:url(#clipPath1); fill:none; font-family:sans-serif; stroke:rgb(0,0,130);" y2="465" />
      <text x="328" y="452" style="clip-path:url(#clipPath1); fill:rgb(0,0,130); font-family:sans-serif; stroke:none;">1
      </text>
      <text x="414" y="452" style="clip-path:url(#clipPath1); fill:rgb(0,0,130); font-family:sans-serif; stroke:none;">0..*
      </text>
      <line x1="595" x2="585" y1="280" style="clip-path:url(#clipPath1); fill:none; font-family:sans-serif; stroke:rgb(0,0,130);" y2="272" />
      <line x1="595" x2="582" y1="280" style="clip-path:url(#clipPath1); fill:none; font-family:sans-serif; stroke:rgb(0,0,130);" y2="282" />
      <line x1="112" x2="117" y1="280" style="clip-path:url(#clipPath1); fill:none; font-family:sans-serif;" y2="268" />
      <line x1="112" x2="107" y1="280" style="clip-path:url(#clipPath1); fill:none; font-family:sans-serif;" y2="268" />
      <text x="80" y="273" style="clip-path:url(#clipPath1); font-family:sans-serif; stroke:none;">0..1
      </text>
      <rect x="443" y="283" width="307" style="clip-path:url(#clipPath1); fill:navy; font-family:sans-serif; stroke:none;" height="267" />
      <rect x="440" y="280" width="307" style="clip-path:url(#clipPath1); fill:white; font-family:sans-serif; stroke:none;" height="267" />
      <rect x="440" y="280" width="307" style="clip-path:url(#clipPath1); fill:none; font-family:sans-serif; stroke:black;" height="267" />
    </g>
    <g style="font-weight:bold; font-family:sans-serif;">
      <text x="550" y="293" style="clip-path:url(#clipPath3); stroke:none;">APT::CRecord
      </text>
    </g>
    <g style="font-family:sans-serif;">
      <line x1="440" x2="747" y1="302" style="clip-path:url(#clipPath2); fill:none;" y2="302" />
    </g>
    <g style="font-family:sans-serif;">
      <text x="446" y="323" style="clip-path:url(#clipPath5); stroke:none;">-m_phone:int
      </text>
      <text x="446" y="338" style="clip-path:url(#clipPath5); stroke:none;">-m_adress:std::string
      </text>
      <text x="446" y="353" style="clip-path:url(#clipPath5); stroke:none;">-m_name:std::string
      </text>
    </g>
    <g style="font-family:sans-serif;">
      <line x1="440" x2="747" y1="363" style="clip-path:url(#clipPath2); fill:none;" y2="363" />
    </g>
    <g style="font-family:sans-serif;">
      <text x="446" y="384" style="clip-path:url(#clipPath7); stroke:none;">+CRecord()
      </text>
      <text x="446" y="399" style="clip-path:url(#clipPath7); stroke:none;">+CRecord(s:std::string)
      </text>
      <text x="446" y="414" style="clip-path:url(#clipPath7); stroke:none;">+CRecord(origin:const APT::CRecord&amp;)
      </text>
      <text x="446" y="429" style="clip-path:url(#clipPath7); stroke:none;">+CRecord(name:std::string,adress:std::string,phone:int)
      </text>
      <text x="446" y="444" style="clip-path:url(#clipPath7); stroke:none;">+getPhone():int
      </text>
      <text x="446" y="459" style="clip-path:url(#clipPath7); stroke:none;">+toString():std::string
      </text>
      <text x="446" y="474" style="clip-path:url(#clipPath7); stroke:none;">+fromString(s:std::string):void
      </text>
      <text x="446" y="489" style="clip-path:url(#clipPath7); stroke:none;">+operator&lt;(ref:const CRecord):bool
      </text>
    </g>
    <g style="fill:navy; font-family:sans-serif; stroke:navy;">
      <rect x="53" y="43" width="184" style="clip-path:url(#clipPath1); stroke:none;" height="118" />
      <rect x="50" y="40" width="184" style="clip-path:url(#clipPath1); fill:white; stroke:none;" height="118" />
      <rect x="50" y="40" width="184" style="clip-path:url(#clipPath1); fill:none; stroke:black;" height="118" />
    </g>
    <g style="font-weight:bold; font-family:sans-serif;">
      <text x="94" y="53" style="clip-path:url(#clipPath9); stroke:none;">Test::BasicTest
      </text>
    </g>
    <g style="font-family:sans-serif;">
      <line x1="50" x2="234" y1="62" style="clip-path:url(#clipPath8); fill:none;" y2="62" />
    </g>
    <g style="font-family:sans-serif;">
      <text x="56" y="83" style="clip-path:url(#clipPath11); stroke:none;">-m_db:APT::CAddressDB*
      </text>
    </g>
    <g style="font-family:sans-serif;">
      <line x1="50" x2="234" y1="93" style="clip-path:url(#clipPath8); fill:none;" y2="93" />
    </g>
    <g style="font-family:sans-serif;">
      <text x="56" y="114" style="clip-path:url(#clipPath13); stroke:none;">-menu():int
      </text>
      <text x="56" y="129" style="clip-path:url(#clipPath13); stroke:none;">-appendFromKeyboard():void
      </text>
      <text x="56" y="144" style="clip-path:url(#clipPath13); stroke:none;">+run():void
      </text>
    </g>
    <g style="fill:navy; font-family:sans-serif; stroke:navy;">
      <rect x="53" y="283" width="267" style="clip-path:url(#clipPath1); stroke:none;" height="267" />
      <rect x="50" y="280" width="267" style="clip-path:url(#clipPath1); fill:white; stroke:none;" height="267" />
      <rect x="50" y="280" width="267" style="clip-path:url(#clipPath1); fill:none; stroke:black;" height="267" />
    </g>
    <g style="font-weight:bold; font-family:sans-serif;">
      <text x="128" y="293" style="clip-path:url(#clipPath15); stroke:none;">APT::CAddressDB
      </text>
    </g>
    <g style="font-family:sans-serif;">
      <line x1="50" x2="317" y1="302" style="clip-path:url(#clipPath14); fill:none;" y2="302" />
    </g>
    <g style="font-family:sans-serif;">
      <text x="56" y="323" style="clip-path:url(#clipPath17); stroke:none;">-m_filename:std::string
      </text>
      <text x="56" y="338" style="clip-path:url(#clipPath17); stroke:none;">-m_records:std::vector&lt;APT::CRecord&gt;
      </text>
      <text x="56" y="353" style="clip-path:url(#clipPath17); stroke:none;">-m_recordsByNumber:std::map&lt;int,APT::CRecord*&gt;
      </text>
    </g>
    <g style="font-family:sans-serif;">
      <line x1="50" x2="317" y1="363" style="clip-path:url(#clipPath14); fill:none;" y2="363" />
    </g>
    <g style="font-family:sans-serif;">
      <text x="56" y="384" style="clip-path:url(#clipPath19); stroke:none;">+CAddressDB(filename:std::string)
      </text>
      <text x="56" y="399" style="clip-path:url(#clipPath19); stroke:none;">+~CAddressDB()
      </text>
      <text x="56" y="414" style="clip-path:url(#clipPath19); stroke:none;">+findByNumber(phone:int):const CRecord*
      </text>
      <text x="56" y="429" style="clip-path:url(#clipPath19); stroke:none;">+select(t:t_print,filter:std::string):std::vector&lt;CRecord&gt;
      </text>
      <text x="56" y="444" style="clip-path:url(#clipPath19); stroke:none;">+print(t:t_print):void
      </text>
      <text x="56" y="459" style="clip-path:url(#clipPath19); stroke:none;">+addRecord(c:const APT::CRecord&amp;):void
      </text>
      <text x="56" y="474" style="clip-path:url(#clipPath19); stroke:none;">+saveToFile():void
      </text>
      <text x="56" y="489" style="clip-path:url(#clipPath19); stroke:none;">+loadFromFile():bool
      </text>
    </g>
  </g>
</svg>
