<?xml version="1.0" encoding="UTF-8"?>

<!DOCTYPE svg PUBLIC '-//W3C//DTD SVG 20001102//EN' 'http://www.w3.org/TR/2000/CR-SVG-20001102/DTD/svg-20001102.dtd'>
<svg style="fill-opacity:1; color-rendering:auto; color-interpolation:sRGB; text-rendering:auto; stroke:black; stroke-linecap:square; stroke-miterlimit:10; shape-rendering:auto; stroke-opacity:1; fill:black; stroke-dasharray:none; font-weight:normal; stroke-width:1; font-family:&apos;sansserif&apos;; font-style:normal; stroke-linejoin:miter; font-size:12; stroke-dashoffset:0; image-rendering:auto;" width="792" height="483">
  <!--Generated by the Batik Graphics2D SVG Generator-->
  <defs id="genericDefs" />
  <g>
    <defs id="defs1">
      <clipPath clipPathUnits="userSpaceOnUse" id="clipPath1">
        <path d="M0 0 L792 0 L792 483 L0 483 L0 0 Z" />
      </clipPath>
      <clipPath clipPathUnits="userSpaceOnUse" id="clipPath2">
        <path d="M328 261 L328 470 L526 470 L526 261 Z" />
      </clipPath>
      <clipPath clipPathUnits="userSpaceOnUse" id="clipPath3">
        <path d="M329 262 L329 278 L526 278 L526 262 Z" />
      </clipPath>
      <clipPath clipPathUnits="userSpaceOnUse" id="clipPath4">
        <path d="M328 290 L328 309 L526 309 L526 290 Z" />
      </clipPath>
      <clipPath clipPathUnits="userSpaceOnUse" id="clipPath5">
        <path d="M330 292 L330 308 L525 308 L525 292 Z" />
      </clipPath>
      <clipPath clipPathUnits="userSpaceOnUse" id="clipPath6">
        <path d="M328 321 L328 460 L526 460 L526 321 Z" />
      </clipPath>
      <clipPath clipPathUnits="userSpaceOnUse" id="clipPath7">
        <path d="M330 323 L330 459 L525 459 L525 323 Z" />
      </clipPath>
      <clipPath clipPathUnits="userSpaceOnUse" id="clipPath8">
        <path d="M20 20 L20 199 L218 199 L218 20 Z" />
      </clipPath>
      <clipPath clipPathUnits="userSpaceOnUse" id="clipPath9">
        <path d="M21 21 L21 37 L218 37 L218 21 Z" />
      </clipPath>
      <clipPath clipPathUnits="userSpaceOnUse" id="clipPath10">
        <path d="M20 49 L20 83 L218 83 L218 49 Z" />
      </clipPath>
      <clipPath clipPathUnits="userSpaceOnUse" id="clipPath11">
        <path d="M22 51 L22 82 L217 82 L217 51 Z" />
      </clipPath>
      <clipPath clipPathUnits="userSpaceOnUse" id="clipPath12">
        <path d="M20 95 L20 189 L218 189 L218 95 Z" />
      </clipPath>
      <clipPath clipPathUnits="userSpaceOnUse" id="clipPath13">
        <path d="M22 97 L22 188 L217 188 L217 97 Z" />
      </clipPath>
      <clipPath clipPathUnits="userSpaceOnUse" id="clipPath14">
        <path d="M636 261 L636 395 L779 395 L779 261 Z" />
      </clipPath>
      <clipPath clipPathUnits="userSpaceOnUse" id="clipPath15">
        <path d="M637 262 L637 278 L779 278 L779 262 Z" />
      </clipPath>
      <clipPath clipPathUnits="userSpaceOnUse" id="clipPath16">
        <path d="M636 290 L636 324 L779 324 L779 290 Z" />
      </clipPath>
      <clipPath clipPathUnits="userSpaceOnUse" id="clipPath17">
        <path d="M638 292 L638 323 L778 323 L778 292 Z" />
      </clipPath>
      <clipPath clipPathUnits="userSpaceOnUse" id="clipPath18">
        <path d="M636 336 L636 385 L779 385 L779 336 Z" />
      </clipPath>
      <clipPath clipPathUnits="userSpaceOnUse" id="clipPath19">
        <path d="M638 338 L638 384 L778 384 L778 338 Z" />
      </clipPath>
      <clipPath clipPathUnits="userSpaceOnUse" id="clipPath20">
        <path d="M328 20 L328 184 L526 184 L526 20 Z" />
      </clipPath>
      <clipPath clipPathUnits="userSpaceOnUse" id="clipPath21">
        <path d="M329 21 L329 37 L526 37 L526 21 Z" />
      </clipPath>
      <clipPath clipPathUnits="userSpaceOnUse" id="clipPath22">
        <path d="M328 49 L328 68 L526 68 L526 49 Z" />
      </clipPath>
      <clipPath clipPathUnits="userSpaceOnUse" id="clipPath23">
        <path d="M330 51 L330 67 L525 67 L525 51 Z" />
      </clipPath>
      <clipPath clipPathUnits="userSpaceOnUse" id="clipPath24">
        <path d="M328 80 L328 174 L526 174 L526 80 Z" />
      </clipPath>
      <clipPath clipPathUnits="userSpaceOnUse" id="clipPath25">
        <path d="M330 82 L330 173 L525 173 L525 82 Z" />
      </clipPath>
    </defs>
    <g style="fill:rgb(0,0,130); stroke:rgb(0,0,130);">
      <line x1="428" x2="428" y1="186" style="clip-path:url(#clipPath1); fill:none;" y2="195" />
      <line x1="428" x2="428" y1="200" style="clip-path:url(#clipPath1); fill:none;" y2="210" />
      <line x1="428" x2="428" y1="215" style="clip-path:url(#clipPath1); fill:none;" y2="225" />
      <line x1="428" x2="428" y1="230" style="clip-path:url(#clipPath1); fill:none;" y2="240" />
      <line x1="428" x2="428" y1="245" style="clip-path:url(#clipPath1); fill:none;" y2="255" />
      <line x1="428" x2="428" y1="260" style="clip-path:url(#clipPath1); fill:none;" y2="261" />
      <line x1="328" x2="220" y1="103" style="clip-path:url(#clipPath1); fill:none;" y2="103" />
      <line x1="528" x2="636" y1="329" style="clip-path:url(#clipPath1); fill:none;" y2="329" />
      <line x1="428" x2="433" y1="261" style="clip-path:url(#clipPath1); fill:none;" y2="249" />
      <line x1="428" x2="423" y1="261" style="clip-path:url(#clipPath1); fill:none;" y2="249" />
      <polygon style="fill:white; clip-path:url(#clipPath1); stroke:none;" points=" 328 103 320 107 312 103 320 99" />
      <polygon style="fill:none; clip-path:url(#clipPath1);" points=" 328 103 320 107 312 103 320 99" />
      <line x1="320" x2="328" y1="99" style="clip-path:url(#clipPath1); fill:none;" y2="103" />
      <line x1="220" x2="232" y1="103" style="clip-path:url(#clipPath1); fill:none;" y2="108" />
      <line x1="220" x2="232" y1="103" style="clip-path:url(#clipPath1); fill:none;" y2="98" />
      <text x="228" y="96" style="clip-path:url(#clipPath1); font-family:sans-serif; stroke:none;">1..*
      </text>
      <polygon points=" 528 329 536 325 544 329 536 333" style="fill:white; clip-path:url(#clipPath1); font-family:sans-serif; stroke:none;" />
      <polygon style="fill:none; clip-path:url(#clipPath1); font-family:sans-serif;" points=" 528 329 536 325 544 329 536 333" />
      <line x1="536" x2="528" y1="333" style="clip-path:url(#clipPath1); fill:none; font-family:sans-serif;" y2="329" />
      <line x1="636" x2="624" y1="329" style="clip-path:url(#clipPath1); fill:none; font-family:sans-serif;" y2="324" />
      <line x1="636" x2="624" y1="329" style="clip-path:url(#clipPath1); fill:none; font-family:sans-serif;" y2="334" />
      <text x="606" y="322" style="clip-path:url(#clipPath1); font-family:sans-serif; stroke:none;">1..*
      </text>
      <rect x="331" y="264" width="197" style="clip-path:url(#clipPath1); fill:navy; font-family:sans-serif; stroke:none;" height="208" />
      <rect x="328" y="261" width="197" style="clip-path:url(#clipPath1); fill:white; font-family:sans-serif; stroke:none;" height="208" />
      <rect x="328" y="261" width="197" style="clip-path:url(#clipPath1); fill:none; font-family:sans-serif; stroke:black;" height="208" />
    </g>
    <g style="font-weight:bold; font-family:sans-serif;">
      <text x="389" y="274" style="clip-path:url(#clipPath3); stroke:none;">CSimpleList
      </text>
    </g>
    <g style="font-family:sans-serif;">
      <line x1="328" x2="525" y1="283" style="clip-path:url(#clipPath2); fill:none;" y2="283" />
    </g>
    <g style="font-family:sans-serif;">
      <text x="334" y="304" style="clip-path:url(#clipPath5); stroke:none;">-m_list:std::vector&lt;CSimpleListElement&gt;
      </text>
    </g>
    <g style="font-family:sans-serif;">
      <line x1="328" x2="525" y1="314" style="clip-path:url(#clipPath2); fill:none;" y2="314" />
    </g>
    <g style="font-family:sans-serif;">
      <text x="334" y="335" style="clip-path:url(#clipPath7); stroke:none;">+loadFromFile:void
      </text>
      <text x="334" y="350" style="clip-path:url(#clipPath7); stroke:none;">+CSimpleList
      </text>
      <text x="334" y="365" style="clip-path:url(#clipPath7); stroke:none;">+size:int
      </text>
      <text x="334" y="380" style="clip-path:url(#clipPath7); stroke:none;">+getNumber:long long
      </text>
      <text x="334" y="395" style="clip-path:url(#clipPath7); stroke:none;">+getName:std::string
      </text>
      <text x="334" y="410" style="clip-path:url(#clipPath7); stroke:none;">+print:void
      </text>
      <text x="334" y="425" style="clip-path:url(#clipPath7); stroke:none;">-addNameAndNumber:void
      </text>
      <text x="334" y="440" style="clip-path:url(#clipPath7); stroke:none;">-trim:std::string
      </text>
      <text x="334" y="455" style="clip-path:url(#clipPath7); stroke:none;">-getDigits:std::string
      </text>
    </g>
    <g style="fill:navy; font-family:sans-serif; stroke:navy;">
      <rect x="23" y="23" width="197" style="clip-path:url(#clipPath1); stroke:none;" height="178" />
      <rect x="20" y="20" width="197" style="clip-path:url(#clipPath1); fill:white; stroke:none;" height="178" />
      <rect x="20" y="20" width="197" style="clip-path:url(#clipPath1); fill:none; stroke:black;" height="178" />
    </g>
    <g style="font-weight:bold; font-family:sans-serif;">
      <text x="58" y="33" style="clip-path:url(#clipPath9); stroke:none;">CPhoneListElement
      </text>
    </g>
    <g style="font-family:sans-serif;">
      <line x1="20" x2="217" y1="42" style="clip-path:url(#clipPath8); fill:none;" y2="42" />
    </g>
    <g style="font-family:sans-serif;">
      <text x="26" y="63" style="clip-path:url(#clipPath11); stroke:none;">-m_number:std::vector&lt;longlong&gt;
      </text>
      <text x="26" y="78" style="clip-path:url(#clipPath11); stroke:none;">-m_name:std::string
      </text>
    </g>
    <g style="font-family:sans-serif;">
      <line x1="20" x2="217" y1="88" style="clip-path:url(#clipPath8); fill:none;" y2="88" />
    </g>
    <g style="font-family:sans-serif;">
      <text x="26" y="109" style="clip-path:url(#clipPath13); stroke:none;">+CPhoneListElement
      </text>
      <text x="26" y="124" style="clip-path:url(#clipPath13); stroke:none;">+getName:std::string
      </text>
      <text x="26" y="139" style="clip-path:url(#clipPath13); stroke:none;">+getNoNumber:int
      </text>
      <text x="26" y="154" style="clip-path:url(#clipPath13); stroke:none;">+getNumber:long long
      </text>
      <text x="26" y="169" style="clip-path:url(#clipPath13); stroke:none;">+addNumber:void
      </text>
      <text x="26" y="184" style="clip-path:url(#clipPath13); stroke:none;">+numberInList:bool
      </text>
    </g>
    <g style="fill:navy; font-family:sans-serif; stroke:navy;">
      <rect x="639" y="264" width="142" style="clip-path:url(#clipPath1); stroke:none;" height="133" />
      <rect x="636" y="261" width="142" style="clip-path:url(#clipPath1); fill:white; stroke:none;" height="133" />
      <rect x="636" y="261" width="142" style="clip-path:url(#clipPath1); fill:none; stroke:black;" height="133" />
    </g>
    <g style="font-weight:bold; font-family:sans-serif;">
      <text x="644" y="274" style="clip-path:url(#clipPath15); stroke:none;">CSimpleListElement
      </text>
    </g>
    <g style="font-family:sans-serif;">
      <line x1="636" x2="778" y1="283" style="clip-path:url(#clipPath14); fill:none;" y2="283" />
    </g>
    <g style="font-family:sans-serif;">
      <text x="642" y="304" style="clip-path:url(#clipPath17); stroke:none;">-m_number:long long
      </text>
      <text x="642" y="319" style="clip-path:url(#clipPath17); stroke:none;">-m_name:std::string
      </text>
    </g>
    <g style="font-family:sans-serif;">
      <line x1="636" x2="778" y1="329" style="clip-path:url(#clipPath14); fill:none;" y2="329" />
    </g>
    <g style="font-family:sans-serif;">
      <text x="642" y="350" style="clip-path:url(#clipPath19); stroke:none;">+CSimpleListElement
      </text>
      <text x="642" y="365" style="clip-path:url(#clipPath19); stroke:none;">+getName:std::string
      </text>
      <text x="642" y="380" style="clip-path:url(#clipPath19); stroke:none;">+getNumber:long long
      </text>
    </g>
    <g style="fill:navy; font-family:sans-serif; stroke:navy;">
      <rect x="331" y="23" width="197" style="clip-path:url(#clipPath1); stroke:none;" height="163" />
      <rect x="328" y="20" width="197" style="clip-path:url(#clipPath1); fill:white; stroke:none;" height="163" />
      <rect x="328" y="20" width="197" style="clip-path:url(#clipPath1); fill:none; stroke:black;" height="163" />
    </g>
    <g style="font-weight:bold; font-family:sans-serif;">
      <text x="391" y="33" style="clip-path:url(#clipPath21); stroke:none;">CPhoneList
      </text>
    </g>
    <g style="font-family:sans-serif;">
      <line x1="328" x2="525" y1="42" style="clip-path:url(#clipPath20); fill:none;" y2="42" />
    </g>
    <g style="font-family:sans-serif;">
      <text x="334" y="63" style="clip-path:url(#clipPath23); stroke:none;">-m_list:std::vector&lt;CPhoneListElement&gt;
      </text>
    </g>
    <g style="font-family:sans-serif;">
      <line x1="328" x2="525" y1="73" style="clip-path:url(#clipPath20); fill:none;" y2="73" />
    </g>
    <g style="font-family:sans-serif;">
      <text x="334" y="94" style="clip-path:url(#clipPath25); stroke:none;">+CPhoneList
      </text>
      <text x="334" y="109" style="clip-path:url(#clipPath25); stroke:none;">+readAndTransformSimpleList:void
      </text>
      <text x="334" y="124" style="clip-path:url(#clipPath25); stroke:none;">+saveListToFile:void
      </text>
      <text x="334" y="139" style="clip-path:url(#clipPath25); stroke:none;">+print:void
      </text>
      <text x="334" y="154" style="clip-path:url(#clipPath25); stroke:none;">-nameExists:bool
      </text>
      <text x="334" y="169" style="clip-path:url(#clipPath25); stroke:none;">-numberDoubled:std::string
      </text>
    </g>
  </g>
</svg>
