<?xml version="1.0" encoding="UTF-8"?>

<!DOCTYPE svg PUBLIC '-//W3C//DTD SVG 20001102//EN' 'http://www.w3.org/TR/2000/CR-SVG-20001102/DTD/svg-20001102.dtd'>
<svg style="fill-opacity:1; color-rendering:auto; color-interpolation:sRGB; text-rendering:auto; stroke:black; stroke-linecap:square; stroke-miterlimit:10; shape-rendering:auto; stroke-opacity:1; fill:black; stroke-dasharray:none; font-weight:normal; stroke-width:1; font-family:&apos;sansserif&apos;; font-style:normal; stroke-linejoin:miter; font-size:12; stroke-dashoffset:0; image-rendering:auto;" width="631" height="576">
  <!--Generated by the Batik Graphics2D SVG Generator-->
  <defs id="genericDefs" />
  <g>
    <defs id="defs1">
      <clipPath clipPathUnits="userSpaceOnUse" id="clipPath1">
        <path d="M0 0 L631 0 L631 576 L0 576 L0 0 Z" />
      </clipPath>
      <clipPath clipPathUnits="userSpaceOnUse" id="clipPath2">
        <path d="M226 193 L226 357 L413 357 L413 193 Z" />
      </clipPath>
      <clipPath clipPathUnits="userSpaceOnUse" id="clipPath3">
        <path d="M227 194 L227 210 L413 210 L413 194 Z" />
      </clipPath>
      <clipPath clipPathUnits="userSpaceOnUse" id="clipPath4">
        <path d="M226 222 L226 301 L413 301 L413 222 Z" />
      </clipPath>
      <clipPath clipPathUnits="userSpaceOnUse" id="clipPath5">
        <path d="M228 224 L228 300 L412 300 L412 224 Z" />
      </clipPath>
      <clipPath clipPathUnits="userSpaceOnUse" id="clipPath6">
        <path d="M226 313 L226 347 L413 347 L413 313 Z" />
      </clipPath>
      <clipPath clipPathUnits="userSpaceOnUse" id="clipPath7">
        <path d="M228 315 L228 346 L412 346 L412 315 Z" />
      </clipPath>
      <clipPath clipPathUnits="userSpaceOnUse" id="clipPath8">
        <path d="M495 193 L495 274 L618 274 L618 193 Z" />
      </clipPath>
      <clipPath clipPathUnits="userSpaceOnUse" id="clipPath9">
        <path d="M496 194 L496 210 L618 210 L618 194 Z" />
      </clipPath>
      <clipPath clipPathUnits="userSpaceOnUse" id="clipPath10">
        <path d="M495 245 L495 264 L618 264 L618 245 Z" />
      </clipPath>
      <clipPath clipPathUnits="userSpaceOnUse" id="clipPath11">
        <path d="M497 247 L497 263 L617 263 L617 247 Z" />
      </clipPath>
      <clipPath clipPathUnits="userSpaceOnUse" id="clipPath12">
        <path d="M410 20 L410 116 L525 116 L525 20 Z" />
      </clipPath>
      <clipPath clipPathUnits="userSpaceOnUse" id="clipPath13">
        <path d="M411 21 L411 37 L525 37 L525 21 Z" />
      </clipPath>
      <clipPath clipPathUnits="userSpaceOnUse" id="clipPath14">
        <path d="M410 72 L410 106 L525 106 L525 72 Z" />
      </clipPath>
      <clipPath clipPathUnits="userSpaceOnUse" id="clipPath15">
        <path d="M412 74 L412 105 L524 105 L524 74 Z" />
      </clipPath>
      <clipPath clipPathUnits="userSpaceOnUse" id="clipPath16">
        <path d="M255 20 L255 101 L388 101 L388 20 Z" />
      </clipPath>
      <clipPath clipPathUnits="userSpaceOnUse" id="clipPath17">
        <path d="M256 21 L256 37 L388 37 L388 21 Z" />
      </clipPath>
      <clipPath clipPathUnits="userSpaceOnUse" id="clipPath18">
        <path d="M255 72 L255 91 L388 91 L388 72 Z" />
      </clipPath>
      <clipPath clipPathUnits="userSpaceOnUse" id="clipPath19">
        <path d="M257 74 L257 90 L387 90 L387 74 Z" />
      </clipPath>
      <clipPath clipPathUnits="userSpaceOnUse" id="clipPath20">
        <path d="M20 429 L20 533 L124 533 L124 429 Z" />
      </clipPath>
      <clipPath clipPathUnits="userSpaceOnUse" id="clipPath21">
        <path d="M21 430 L21 446 L124 446 L124 430 Z" />
      </clipPath>
      <clipPath clipPathUnits="userSpaceOnUse" id="clipPath22">
        <path d="M20 458 L20 492 L124 492 L124 458 Z" />
      </clipPath>
      <clipPath clipPathUnits="userSpaceOnUse" id="clipPath23">
        <path d="M22 460 L22 491 L123 491 L123 460 Z" />
      </clipPath>
      <clipPath clipPathUnits="userSpaceOnUse" id="clipPath24">
        <path d="M20 504 L20 523 L124 523 L124 504 Z" />
      </clipPath>
      <clipPath clipPathUnits="userSpaceOnUse" id="clipPath25">
        <path d="M22 506 L22 522 L123 522 L123 506 Z" />
      </clipPath>
      <clipPath clipPathUnits="userSpaceOnUse" id="clipPath26">
        <path d="M236 429 L236 563 L403 563 L403 429 Z" />
      </clipPath>
      <clipPath clipPathUnits="userSpaceOnUse" id="clipPath27">
        <path d="M237 430 L237 446 L403 446 L403 430 Z" />
      </clipPath>
      <clipPath clipPathUnits="userSpaceOnUse" id="clipPath28">
        <path d="M236 458 L236 492 L403 492 L403 458 Z" />
      </clipPath>
      <clipPath clipPathUnits="userSpaceOnUse" id="clipPath29">
        <path d="M238 460 L238 491 L402 491 L402 460 Z" />
      </clipPath>
      <clipPath clipPathUnits="userSpaceOnUse" id="clipPath30">
        <path d="M236 504 L236 553 L403 553 L403 504 Z" />
      </clipPath>
      <clipPath clipPathUnits="userSpaceOnUse" id="clipPath31">
        <path d="M238 506 L238 552 L402 552 L402 506 Z" />
      </clipPath>
      <clipPath clipPathUnits="userSpaceOnUse" id="clipPath32">
        <path d="M105 20 L105 131 L233 131 L233 20 Z" />
      </clipPath>
      <clipPath clipPathUnits="userSpaceOnUse" id="clipPath33">
        <path d="M106 21 L106 37 L233 37 L233 21 Z" />
      </clipPath>
      <clipPath clipPathUnits="userSpaceOnUse" id="clipPath34">
        <path d="M105 72 L105 121 L233 121 L233 72 Z" />
      </clipPath>
      <clipPath clipPathUnits="userSpaceOnUse" id="clipPath35">
        <path d="M107 74 L107 120 L232 120 L232 74 Z" />
      </clipPath>
    </defs>
    <g style="fill:blue; stroke:blue;">
      <line x1="236" x2="126" y1="482" style="clip-path:url(#clipPath1); fill:none;" y2="482" />
      <line x1="269" x2="170" y1="193" style="clip-path:url(#clipPath1); fill:none; stroke:rgb(0,0,130);" y2="133" />
      <line x1="320" x2="320" y1="359" style="clip-path:url(#clipPath1); fill:none; stroke:rgb(0,0,130);" y2="429" />
      <line x1="363" x2="468" y1="193" style="clip-path:url(#clipPath1); fill:none; stroke:rgb(0,0,130);" y2="118" />
      <line x1="415" x2="495" y1="234" style="clip-path:url(#clipPath1); fill:none; stroke:rgb(0,0,130);" y2="234" />
      <line x1="312" x2="312" y1="193" style="clip-path:url(#clipPath1); fill:none; stroke:rgb(0,0,130);" y2="103" />
      <line x1="126" x2="138" y1="482" style="clip-path:url(#clipPath1); fill:none;" y2="487" />
      <line x1="126" x2="138" y1="482" style="clip-path:url(#clipPath1); fill:none;" y2="477" />
      <text x="134" y="475" style="clip-path:url(#clipPath1); font-family:sans-serif; stroke:none;">0..1
      </text>
      <polygon points=" 269 193 260 192 255 185 264 185" style="fill:rgb(0,0,130); clip-path:url(#clipPath1); font-family:sans-serif; stroke:none;" />
      <polygon points=" 269 193 260 192 255 185 264 185" style="fill:none; clip-path:url(#clipPath1); font-family:sans-serif; stroke:rgb(0,0,130);" />
      <line x1="264" x2="269" y1="185" style="clip-path:url(#clipPath1); fill:none; font-family:sans-serif; stroke:rgb(0,0,130);" y2="193" />
      <line x1="170" x2="178" y1="133" style="clip-path:url(#clipPath1); fill:none; font-family:sans-serif; stroke:rgb(0,0,130);" y2="143" />
      <line x1="170" x2="183" y1="133" style="clip-path:url(#clipPath1); fill:none; font-family:sans-serif; stroke:rgb(0,0,130);" y2="135" />
      <polygon points=" 320 359 324 367 320 375 316 367" style="fill:rgb(0,0,130); clip-path:url(#clipPath1); font-family:sans-serif; stroke:none;" />
      <polygon points=" 320 359 324 367 320 375 316 367" style="fill:none; clip-path:url(#clipPath1); font-family:sans-serif; stroke:rgb(0,0,130);" />
      <line x1="316" x2="320" y1="367" style="clip-path:url(#clipPath1); fill:none; font-family:sans-serif; stroke:rgb(0,0,130);" y2="359" />
      <line x1="320" x2="325" y1="429" style="clip-path:url(#clipPath1); fill:none; font-family:sans-serif; stroke:rgb(0,0,130);" y2="417" />
      <line x1="320" x2="315" y1="429" style="clip-path:url(#clipPath1); fill:none; font-family:sans-serif; stroke:rgb(0,0,130);" y2="417" />
      <polygon points=" 363 193 367 185 376 184 372 192" style="fill:rgb(0,0,130); clip-path:url(#clipPath1); font-family:sans-serif; stroke:none;" />
      <polygon points=" 363 193 367 185 376 184 372 192" style="fill:none; clip-path:url(#clipPath1); font-family:sans-serif; stroke:rgb(0,0,130);" />
      <line x1="372" x2="363" y1="192" style="clip-path:url(#clipPath1); fill:none; font-family:sans-serif; stroke:rgb(0,0,130);" y2="193" />
      <line x1="468" x2="455" y1="118" style="clip-path:url(#clipPath1); fill:none; font-family:sans-serif; stroke:rgb(0,0,130);" y2="121" />
      <line x1="468" x2="461" y1="118" style="clip-path:url(#clipPath1); fill:none; font-family:sans-serif; stroke:rgb(0,0,130);" y2="129" />
      <polygon points=" 415 234 423 230 431 234 423 238" style="fill:rgb(0,0,130); clip-path:url(#clipPath1); font-family:sans-serif; stroke:none;" />
      <polygon points=" 415 234 423 230 431 234 423 238" style="fill:none; clip-path:url(#clipPath1); font-family:sans-serif; stroke:rgb(0,0,130);" />
      <line x1="423" x2="415" y1="238" style="clip-path:url(#clipPath1); fill:none; font-family:sans-serif; stroke:rgb(0,0,130);" y2="234" />
      <line x1="495" x2="483" y1="234" style="clip-path:url(#clipPath1); fill:none; font-family:sans-serif; stroke:rgb(0,0,130);" y2="229" />
      <line x1="495" x2="483" y1="234" style="clip-path:url(#clipPath1); fill:none; font-family:sans-serif; stroke:rgb(0,0,130);" y2="239" />
      <polygon points=" 312 193 308 185 312 177 316 185" style="fill:rgb(0,0,130); clip-path:url(#clipPath1); font-family:sans-serif; stroke:none;" />
      <polygon points=" 312 193 308 185 312 177 316 185" style="fill:none; clip-path:url(#clipPath1); font-family:sans-serif; stroke:rgb(0,0,130);" />
      <line x1="316" x2="312" y1="185" style="clip-path:url(#clipPath1); fill:none; font-family:sans-serif; stroke:rgb(0,0,130);" y2="193" />
      <line x1="312" x2="307" y1="103" style="clip-path:url(#clipPath1); fill:none; font-family:sans-serif; stroke:rgb(0,0,130);" y2="115" />
      <line x1="312" x2="317" y1="103" style="clip-path:url(#clipPath1); fill:none; font-family:sans-serif; stroke:rgb(0,0,130);" y2="115" />
      <rect x="229" y="196" width="186" style="clip-path:url(#clipPath1); fill:navy; font-family:sans-serif; stroke:none;" height="163" />
      <rect x="226" y="193" width="186" style="clip-path:url(#clipPath1); fill:white; font-family:sans-serif; stroke:none;" height="163" />
      <rect x="226" y="193" width="186" style="clip-path:url(#clipPath1); fill:none; font-family:sans-serif; stroke:black;" height="163" />
    </g>
    <g style="font-weight:bold; font-family:sans-serif;">
      <text x="270" y="206" style="clip-path:url(#clipPath3); stroke:none;">CSnackMachine
      </text>
    </g>
    <g style="font-family:sans-serif;">
      <line x1="226" x2="412" y1="215" style="clip-path:url(#clipPath2); fill:none;" y2="215" />
    </g>
    <g style="font-family:sans-serif;">
      <text x="232" y="236" style="clip-path:url(#clipPath5); stroke:none;">-m_tray:CTray
      </text>
      <text x="232" y="251" style="clip-path:url(#clipPath5); stroke:none;">-m_display:CDisplay
      </text>
      <text x="232" y="266" style="clip-path:url(#clipPath5); stroke:none;">-m_keyboard:CKeyboard
      </text>
      <text x="232" y="281" style="clip-path:url(#clipPath5); stroke:none;">-m_snackArray:CSnackArray
      </text>
      <text x="232" y="296" style="clip-path:url(#clipPath5); stroke:none;">-m_paymentSlot:CPaymentSlot
      </text>
    </g>
    <g style="font-family:sans-serif;">
      <line x1="226" x2="412" y1="306" style="clip-path:url(#clipPath2); fill:none;" y2="306" />
    </g>
    <g style="font-family:sans-serif;">
      <text x="232" y="327" style="clip-path:url(#clipPath7); stroke:none;">-checkPayment:void
      </text>
      <text x="232" y="342" style="clip-path:url(#clipPath7); stroke:none;">+run:void
      </text>
    </g>
    <g style="fill:navy; font-family:sans-serif; stroke:navy;">
      <rect x="498" y="196" width="122" style="clip-path:url(#clipPath1); stroke:none;" height="80" />
      <rect x="495" y="193" width="122" style="clip-path:url(#clipPath1); fill:white; stroke:none;" height="80" />
      <rect x="495" y="193" width="122" style="clip-path:url(#clipPath1); fill:none; stroke:black;" height="80" />
    </g>
    <g style="font-weight:bold; font-family:sans-serif;">
      <text x="528" y="206" style="clip-path:url(#clipPath9); stroke:none;">CDisplay
      </text>
    </g>
    <g style="font-family:sans-serif;">
      <line x1="495" x2="617" y1="215" style="clip-path:url(#clipPath8); fill:none;" y2="215" />
      <line x1="495" x2="617" y1="238" style="clip-path:url(#clipPath8); fill:none;" y2="238" />
    </g>
    <g style="font-family:sans-serif;">
      <text x="501" y="259" style="clip-path:url(#clipPath11); stroke:none;">+displayString:void
      </text>
    </g>
    <g style="fill:navy; font-family:sans-serif; stroke:navy;">
      <rect x="413" y="23" width="114" style="clip-path:url(#clipPath1); stroke:none;" height="95" />
      <rect x="410" y="20" width="114" style="clip-path:url(#clipPath1); fill:white; stroke:none;" height="95" />
      <rect x="410" y="20" width="114" style="clip-path:url(#clipPath1); fill:none; stroke:black;" height="95" />
    </g>
    <g style="font-weight:bold; font-family:sans-serif;">
      <text x="433" y="33" style="clip-path:url(#clipPath13); stroke:none;">CKeyboard
      </text>
    </g>
    <g style="font-family:sans-serif;">
      <line x1="410" x2="524" y1="42" style="clip-path:url(#clipPath12); fill:none;" y2="42" />
      <line x1="410" x2="524" y1="65" style="clip-path:url(#clipPath12); fill:none;" y2="65" />
    </g>
    <g style="font-family:sans-serif;">
      <text x="416" y="86" style="clip-path:url(#clipPath15); stroke:none;">+getCancel:void
      </text>
      <text x="416" y="101" style="clip-path:url(#clipPath15); stroke:none;">+getNumber:void
      </text>
    </g>
    <g style="fill:navy; font-family:sans-serif; stroke:navy;">
      <rect x="258" y="23" width="132" style="clip-path:url(#clipPath1); stroke:none;" height="80" />
      <rect x="255" y="20" width="132" style="clip-path:url(#clipPath1); fill:white; stroke:none;" height="80" />
      <rect x="255" y="20" width="132" style="clip-path:url(#clipPath1); fill:none; stroke:black;" height="80" />
    </g>
    <g style="font-weight:bold; font-family:sans-serif;">
      <text x="303" y="33" style="clip-path:url(#clipPath17); stroke:none;">CTray
      </text>
    </g>
    <g style="font-family:sans-serif;">
      <line x1="255" x2="387" y1="42" style="clip-path:url(#clipPath16); fill:none;" y2="42" />
      <line x1="255" x2="387" y1="65" style="clip-path:url(#clipPath16); fill:none;" y2="65" />
    </g>
    <g style="font-family:sans-serif;">
      <text x="261" y="86" style="clip-path:url(#clipPath19); stroke:none;">+getOpenStatus:void
      </text>
    </g>
    <g style="fill:navy; font-family:sans-serif; stroke:navy;">
      <rect x="23" y="432" width="103" style="clip-path:url(#clipPath1); stroke:none;" height="103" />
      <rect x="20" y="429" width="103" style="clip-path:url(#clipPath1); fill:white; stroke:none;" height="103" />
      <rect x="20" y="429" width="103" style="clip-path:url(#clipPath1); fill:none; stroke:black;" height="103" />
    </g>
    <g style="font-weight:bold; font-family:sans-serif;">
      <text x="49" y="442" style="clip-path:url(#clipPath21); stroke:none;">CSnack
      </text>
    </g>
    <g style="font-family:sans-serif;">
      <line x1="20" x2="123" y1="451" style="clip-path:url(#clipPath20); fill:none;" y2="451" />
    </g>
    <g style="font-family:sans-serif;">
      <text x="26" y="472" style="clip-path:url(#clipPath23); stroke:none;">-m_price:float
      </text>
      <text x="26" y="487" style="clip-path:url(#clipPath23); stroke:none;">-m_name:string
      </text>
    </g>
    <g style="font-family:sans-serif;">
      <line x1="20" x2="123" y1="497" style="clip-path:url(#clipPath20); fill:none;" y2="497" />
    </g>
    <g style="font-family:sans-serif;">
      <text x="26" y="518" style="clip-path:url(#clipPath25); stroke:none;">+getPrice:void
      </text>
    </g>
    <g style="fill:navy; font-family:sans-serif; stroke:navy;">
      <rect x="239" y="432" width="166" style="clip-path:url(#clipPath1); stroke:none;" height="133" />
      <rect x="236" y="429" width="166" style="clip-path:url(#clipPath1); fill:white; stroke:none;" height="133" />
      <rect x="236" y="429" width="166" style="clip-path:url(#clipPath1); fill:none; stroke:black;" height="133" />
    </g>
    <g style="font-weight:bold; font-family:sans-serif;">
      <text x="279" y="442" style="clip-path:url(#clipPath27); stroke:none;">CSnackArray
      </text>
    </g>
    <g style="font-family:sans-serif;">
      <line x1="236" x2="402" y1="451" style="clip-path:url(#clipPath26); fill:none;" y2="451" />
    </g>
    <g style="font-family:sans-serif;">
      <text x="242" y="472" style="clip-path:url(#clipPath29); stroke:none;">-m_snack:CSnack*
      </text>
      <text x="242" y="487" style="clip-path:url(#clipPath29); stroke:none;">-m_number:int
      </text>
    </g>
    <g style="font-family:sans-serif;">
      <line x1="236" x2="402" y1="497" style="clip-path:url(#clipPath26); fill:none;" y2="497" />
    </g>
    <g style="font-family:sans-serif;">
      <text x="242" y="518" style="clip-path:url(#clipPath31); stroke:none;">+deliverSnack:void
      </text>
      <text x="242" y="533" style="clip-path:url(#clipPath31); stroke:none;">+getNumberOfSnacks:void
      </text>
      <text x="242" y="548" style="clip-path:url(#clipPath31); stroke:none;">+getPrice:float
      </text>
    </g>
    <g style="fill:navy; font-family:sans-serif; stroke:navy;">
      <rect x="108" y="23" width="127" style="clip-path:url(#clipPath1); stroke:none;" height="110" />
      <rect x="105" y="20" width="127" style="clip-path:url(#clipPath1); fill:white; stroke:none;" height="110" />
      <rect x="105" y="20" width="127" style="clip-path:url(#clipPath1); fill:none; stroke:black;" height="110" />
    </g>
    <g style="font-weight:bold; font-family:sans-serif;">
      <text x="125" y="33" style="clip-path:url(#clipPath33); stroke:none;">CPaymentSlot
      </text>
    </g>
    <g style="font-family:sans-serif;">
      <line x1="105" x2="232" y1="42" style="clip-path:url(#clipPath32); fill:none;" y2="42" />
      <line x1="105" x2="232" y1="65" style="clip-path:url(#clipPath32); fill:none;" y2="65" />
    </g>
    <g style="font-family:sans-serif;">
      <text x="111" y="86" style="clip-path:url(#clipPath35); stroke:none;">+returnChange:void
      </text>
      <text x="111" y="101" style="clip-path:url(#clipPath35); stroke:none;">+returnMoney:void
      </text>
      <text x="111" y="116" style="clip-path:url(#clipPath35); stroke:none;">+enterMoney:void
      </text>
    </g>
  </g>
</svg>
