<?xml version="1.0" encoding="UTF-8"?>

<!DOCTYPE svg PUBLIC '-//W3C//DTD SVG 20001102//EN' 'http://www.w3.org/TR/2000/CR-SVG-20001102/DTD/svg-20001102.dtd'>
<svg style="fill-opacity:1; color-rendering:auto; color-interpolation:sRGB; text-rendering:auto; stroke:black; stroke-linecap:square; stroke-miterlimit:10; shape-rendering:auto; stroke-opacity:1; fill:black; stroke-dasharray:none; font-weight:normal; stroke-width:1; font-family:&apos;sansserif&apos;; font-style:normal; stroke-linejoin:miter; font-size:12; stroke-dashoffset:0; image-rendering:auto;" width="1205" height="506">
  <!--Generated by the Batik Graphics2D SVG Generator-->
  <defs id="genericDefs" />
  <g>
    <defs id="defs1">
      <clipPath clipPathUnits="userSpaceOnUse" id="clipPath1">
        <path d="M0 0 L1205 0 L1205 506 L0 506 L0 0 Z" />
      </clipPath>
      <clipPath clipPathUnits="userSpaceOnUse" id="clipPath2">
        <path d="M242 50 L242 116 L360 116 L360 50 Z" />
      </clipPath>
      <clipPath clipPathUnits="userSpaceOnUse" id="clipPath3">
        <path d="M242 50 L242 106 L360 106 L360 50 Z" />
      </clipPath>
      <clipPath clipPathUnits="userSpaceOnUse" id="clipPath4">
        <path d="M96 102 L96 119 L187 119 L187 102 Z" />
      </clipPath>
      <clipPath clipPathUnits="userSpaceOnUse" id="clipPath5">
        <path d="M435 50 L435 116 L523 116 L523 50 Z" />
      </clipPath>
      <clipPath clipPathUnits="userSpaceOnUse" id="clipPath6">
        <path d="M435 50 L435 106 L523 106 L523 50 Z" />
      </clipPath>
      <clipPath clipPathUnits="userSpaceOnUse" id="clipPath7">
        <path d="M597 50 L597 116 L685 116 L685 50 Z" />
      </clipPath>
      <clipPath clipPathUnits="userSpaceOnUse" id="clipPath8">
        <path d="M597 50 L597 106 L685 106 L685 50 Z" />
      </clipPath>
      <clipPath clipPathUnits="userSpaceOnUse" id="clipPath9">
        <path d="M730 50 L730 116 L819 116 L819 50 Z" />
      </clipPath>
      <clipPath clipPathUnits="userSpaceOnUse" id="clipPath10">
        <path d="M730 50 L730 106 L819 106 L819 50 Z" />
      </clipPath>
      <clipPath clipPathUnits="userSpaceOnUse" id="clipPath11">
        <path d="M991 50 L991 116 L1079 116 L1079 50 Z" />
      </clipPath>
      <clipPath clipPathUnits="userSpaceOnUse" id="clipPath12">
        <path d="M991 50 L991 106 L1079 106 L1079 50 Z" />
      </clipPath>
      <clipPath clipPathUnits="userSpaceOnUse" id="clipPath13">
        <path d="M1104 50 L1104 116 L1192 116 L1192 50 Z" />
      </clipPath>
      <clipPath clipPathUnits="userSpaceOnUse" id="clipPath14">
        <path d="M1104 50 L1104 106 L1192 106 L1192 50 Z" />
      </clipPath>
      <clipPath clipPathUnits="userSpaceOnUse" id="clipPath15">
        <path d="M878 50 L878 116 L966 116 L966 50 Z" />
      </clipPath>
      <clipPath clipPathUnits="userSpaceOnUse" id="clipPath16">
        <path d="M878 50 L878 106 L966 106 L966 50 Z" />
      </clipPath>
    </defs>
    <g style="fill:navy; stroke:navy;">
      <rect x="245" y="53" width="117" style="clip-path:url(#clipPath1); stroke:none;" height="65" />
      <rect x="242" y="50" width="117" style="clip-path:url(#clipPath1); fill:white; stroke:none;" height="65" />
      <rect x="242" y="50" width="117" style="clip-path:url(#clipPath1); fill:none; stroke:black;" height="65" />
    </g>
    <g style="font-weight:bold; font-family:sans-serif;">
      <text x="246" y="62" style="clip-path:url(#clipPath3); stroke:none;">m_snackmachine
      </text>
      <line x1="246" x2="355" y1="64" style="clip-path:url(#clipPath3); fill:none;" y2="64" />
      <text x="256" y="77" style="clip-path:url(#clipPath3); font-weight:normal; stroke:none;">CSnackMachine
      </text>
    </g>
    <g>
      <line x1="302" x2="302" y1="118" style="clip-path:url(#clipPath1); fill:none;" y2="128" />
      <line x1="302" x2="302" y1="133" style="clip-path:url(#clipPath1); fill:none;" y2="143" />
      <line x1="302" x2="302" y1="148" style="clip-path:url(#clipPath1); fill:none;" y2="158" />
      <line x1="302" x2="302" y1="163" style="clip-path:url(#clipPath1); fill:none;" y2="173" />
      <line x1="302" x2="302" y1="178" style="clip-path:url(#clipPath1); fill:none;" y2="188" />
      <line x1="302" x2="302" y1="193" style="clip-path:url(#clipPath1); fill:none;" y2="203" />
      <line x1="302" x2="302" y1="208" style="clip-path:url(#clipPath1); fill:none;" y2="218" />
      <line x1="302" x2="302" y1="223" style="clip-path:url(#clipPath1); fill:none;" y2="233" />
      <line x1="302" x2="302" y1="238" style="clip-path:url(#clipPath1); fill:none;" y2="248" />
      <line x1="302" x2="302" y1="253" style="clip-path:url(#clipPath1); fill:none;" y2="263" />
      <line x1="302" x2="302" y1="268" style="clip-path:url(#clipPath1); fill:none;" y2="278" />
      <line x1="302" x2="302" y1="283" style="clip-path:url(#clipPath1); fill:none;" y2="293" />
      <line x1="302" x2="302" y1="298" style="clip-path:url(#clipPath1); fill:none;" y2="308" />
      <line x1="302" x2="302" y1="313" style="clip-path:url(#clipPath1); fill:none;" y2="323" />
      <line x1="302" x2="302" y1="328" style="clip-path:url(#clipPath1); fill:none;" y2="338" />
      <line x1="302" x2="302" y1="343" style="clip-path:url(#clipPath1); fill:none;" y2="353" />
      <line x1="302" x2="302" y1="358" style="clip-path:url(#clipPath1); fill:none;" y2="368" />
      <line x1="302" x2="302" y1="373" style="clip-path:url(#clipPath1); fill:none;" y2="383" />
      <line x1="302" x2="302" y1="388" style="clip-path:url(#clipPath1); fill:none;" y2="398" />
      <line x1="302" x2="302" y1="403" style="clip-path:url(#clipPath1); fill:none;" y2="413" />
      <line x1="302" x2="302" y1="418" style="clip-path:url(#clipPath1); fill:none;" y2="428" />
      <line x1="302" x2="302" y1="433" style="clip-path:url(#clipPath1); fill:none;" y2="443" />
      <line x1="302" x2="302" y1="448" style="clip-path:url(#clipPath1); fill:none;" y2="458" />
      <line x1="302" x2="302" y1="463" style="clip-path:url(#clipPath1); fill:none;" y2="473" />
      <line x1="302" x2="302" y1="478" style="clip-path:url(#clipPath1); fill:none;" y2="488" />
      <line x1="302" x2="302" y1="493" style="clip-path:url(#clipPath1); fill:none;" y2="495" />
      <rect x="295" y="146" width="14" style="clip-path:url(#clipPath1); fill:none;" height="269" />
      <rect x="296" y="147" width="13" style="clip-path:url(#clipPath1); fill:white; stroke:none;" height="268" />
      <polygon style="fill:navy; clip-path:url(#clipPath1); stroke:none;" points=" 143 69 143 74 157 74 157 76 143 76 143 87 157 101 157 102 155 102 142 89 129 102 127 102 127 101 141 87 141 76 127 76 127 74 141 74 141 69 143 69" />
      <circle style="clip-path:url(#clipPath1); fill:navy; stroke:none;" r="8" cx="142" cy="61" />
      <polygon style="fill:white; clip-path:url(#clipPath1); stroke:none;" points=" 140 66 140 71 154 71 154 73 140 73 140 84 154 98 154 99 152 99 139 86 126 99 124 99 124 98 138 84 138 73 124 73 124 71 138 71 138 66 140 66" />
      <circle style="clip-path:url(#clipPath1); fill:white; stroke:none;" r="8" cx="139" cy="58" />
      <polygon style="fill:none; clip-path:url(#clipPath1);" points=" 140 66 140 71 154 71 154 73 140 73 140 84 154 98 154 99 152 99 139 86 126 99 124 99 124 98 138 84 138 73 124 73 124 71 138 71 138 66 140 66" />
      <circle style="fill:none; clip-path:url(#clipPath1);" r="8" cx="139" cy="58" />
    </g>
    <g style="font-weight:bold; font-family:sans-serif;">
      <text x="125" y="114" style="clip-path:url(#clipPath4); stroke:none;">main
      </text>
      <line x1="125" x2="156" y1="116" style="clip-path:url(#clipPath4); fill:none;" y2="116" />
    </g>
    <g>
      <rect x="134" y="119" width="14" style="clip-path:url(#clipPath1); fill:none;" height="375" />
      <rect x="135" y="120" width="13" style="clip-path:url(#clipPath1); fill:white; stroke:none;" height="374" />
      <rect x="438" y="53" width="87" style="clip-path:url(#clipPath1); fill:navy; stroke:none;" height="65" />
      <rect x="435" y="50" width="87" style="clip-path:url(#clipPath1); fill:white; stroke:none;" height="65" />
      <rect x="435" y="50" width="87" style="clip-path:url(#clipPath1); fill:none;" height="65" />
    </g>
    <g style="font-weight:bold; font-family:sans-serif;">
      <text x="439" y="62" style="clip-path:url(#clipPath6); stroke:none;">m_keyboard
      </text>
      <line x1="439" x2="517" y1="64" style="clip-path:url(#clipPath6); fill:none;" y2="64" />
      <text x="446" y="77" style="clip-path:url(#clipPath6); font-weight:normal; stroke:none;">CKeyboard
      </text>
    </g>
    <g>
      <line x1="480" x2="480" y1="118" style="clip-path:url(#clipPath1); fill:none;" y2="128" />
      <line x1="480" x2="480" y1="133" style="clip-path:url(#clipPath1); fill:none;" y2="143" />
      <line x1="480" x2="480" y1="148" style="clip-path:url(#clipPath1); fill:none;" y2="158" />
      <line x1="480" x2="480" y1="163" style="clip-path:url(#clipPath1); fill:none;" y2="173" />
      <line x1="480" x2="480" y1="178" style="clip-path:url(#clipPath1); fill:none;" y2="188" />
      <line x1="480" x2="480" y1="193" style="clip-path:url(#clipPath1); fill:none;" y2="203" />
      <line x1="480" x2="480" y1="208" style="clip-path:url(#clipPath1); fill:none;" y2="218" />
      <line x1="480" x2="480" y1="223" style="clip-path:url(#clipPath1); fill:none;" y2="233" />
      <line x1="480" x2="480" y1="238" style="clip-path:url(#clipPath1); fill:none;" y2="248" />
      <line x1="480" x2="480" y1="253" style="clip-path:url(#clipPath1); fill:none;" y2="263" />
      <line x1="480" x2="480" y1="268" style="clip-path:url(#clipPath1); fill:none;" y2="278" />
      <line x1="480" x2="480" y1="283" style="clip-path:url(#clipPath1); fill:none;" y2="293" />
      <line x1="480" x2="480" y1="298" style="clip-path:url(#clipPath1); fill:none;" y2="308" />
      <line x1="480" x2="480" y1="313" style="clip-path:url(#clipPath1); fill:none;" y2="323" />
      <line x1="480" x2="480" y1="328" style="clip-path:url(#clipPath1); fill:none;" y2="338" />
      <line x1="480" x2="480" y1="343" style="clip-path:url(#clipPath1); fill:none;" y2="353" />
      <line x1="480" x2="480" y1="358" style="clip-path:url(#clipPath1); fill:none;" y2="368" />
      <line x1="480" x2="480" y1="373" style="clip-path:url(#clipPath1); fill:none;" y2="383" />
      <line x1="480" x2="480" y1="388" style="clip-path:url(#clipPath1); fill:none;" y2="398" />
      <line x1="480" x2="480" y1="403" style="clip-path:url(#clipPath1); fill:none;" y2="413" />
      <line x1="480" x2="480" y1="418" style="clip-path:url(#clipPath1); fill:none;" y2="428" />
      <line x1="480" x2="480" y1="433" style="clip-path:url(#clipPath1); fill:none;" y2="443" />
      <line x1="480" x2="480" y1="448" style="clip-path:url(#clipPath1); fill:none;" y2="458" />
      <line x1="480" x2="480" y1="463" style="clip-path:url(#clipPath1); fill:none;" y2="473" />
      <line x1="480" x2="480" y1="478" style="clip-path:url(#clipPath1); fill:none;" y2="488" />
      <line x1="480" x2="480" y1="493" style="clip-path:url(#clipPath1); fill:none;" y2="495" />
      <rect x="473" y="200" width="14" style="clip-path:url(#clipPath1); fill:none;" height="20" />
      <rect x="474" y="201" width="13" style="clip-path:url(#clipPath1); fill:white; stroke:none;" height="19" />
      <rect x="600" y="53" width="87" style="clip-path:url(#clipPath1); fill:navy; stroke:none;" height="65" />
      <rect x="597" y="50" width="87" style="clip-path:url(#clipPath1); fill:white; stroke:none;" height="65" />
      <rect x="597" y="50" width="87" style="clip-path:url(#clipPath1); fill:none;" height="65" />
    </g>
    <g style="font-weight:bold; font-family:sans-serif;">
      <text x="608" y="62" style="clip-path:url(#clipPath8); stroke:none;">m_display
      </text>
      <line x1="608" x2="672" y1="64" style="clip-path:url(#clipPath8); fill:none;" y2="64" />
      <text x="615" y="77" style="clip-path:url(#clipPath8); font-weight:normal; stroke:none;">CDisplay
      </text>
    </g>
    <g>
      <line x1="642" x2="642" y1="118" style="clip-path:url(#clipPath1); fill:none;" y2="128" />
      <line x1="642" x2="642" y1="133" style="clip-path:url(#clipPath1); fill:none;" y2="143" />
      <line x1="642" x2="642" y1="148" style="clip-path:url(#clipPath1); fill:none;" y2="158" />
      <line x1="642" x2="642" y1="163" style="clip-path:url(#clipPath1); fill:none;" y2="173" />
      <line x1="642" x2="642" y1="178" style="clip-path:url(#clipPath1); fill:none;" y2="188" />
      <line x1="642" x2="642" y1="193" style="clip-path:url(#clipPath1); fill:none;" y2="203" />
      <line x1="642" x2="642" y1="208" style="clip-path:url(#clipPath1); fill:none;" y2="218" />
      <line x1="642" x2="642" y1="223" style="clip-path:url(#clipPath1); fill:none;" y2="233" />
      <line x1="642" x2="642" y1="238" style="clip-path:url(#clipPath1); fill:none;" y2="248" />
      <line x1="642" x2="642" y1="253" style="clip-path:url(#clipPath1); fill:none;" y2="263" />
      <line x1="642" x2="642" y1="268" style="clip-path:url(#clipPath1); fill:none;" y2="278" />
      <line x1="642" x2="642" y1="283" style="clip-path:url(#clipPath1); fill:none;" y2="293" />
      <line x1="642" x2="642" y1="298" style="clip-path:url(#clipPath1); fill:none;" y2="308" />
      <line x1="642" x2="642" y1="313" style="clip-path:url(#clipPath1); fill:none;" y2="323" />
      <line x1="642" x2="642" y1="328" style="clip-path:url(#clipPath1); fill:none;" y2="338" />
      <line x1="642" x2="642" y1="343" style="clip-path:url(#clipPath1); fill:none;" y2="353" />
      <line x1="642" x2="642" y1="358" style="clip-path:url(#clipPath1); fill:none;" y2="368" />
      <line x1="642" x2="642" y1="373" style="clip-path:url(#clipPath1); fill:none;" y2="383" />
      <line x1="642" x2="642" y1="388" style="clip-path:url(#clipPath1); fill:none;" y2="398" />
      <line x1="642" x2="642" y1="403" style="clip-path:url(#clipPath1); fill:none;" y2="413" />
      <line x1="642" x2="642" y1="418" style="clip-path:url(#clipPath1); fill:none;" y2="428" />
      <line x1="642" x2="642" y1="433" style="clip-path:url(#clipPath1); fill:none;" y2="443" />
      <line x1="642" x2="642" y1="448" style="clip-path:url(#clipPath1); fill:none;" y2="458" />
      <line x1="642" x2="642" y1="463" style="clip-path:url(#clipPath1); fill:none;" y2="473" />
      <line x1="642" x2="642" y1="478" style="clip-path:url(#clipPath1); fill:none;" y2="488" />
      <line x1="642" x2="642" y1="493" style="clip-path:url(#clipPath1); fill:none;" y2="495" />
      <rect x="635" y="157" width="14" style="clip-path:url(#clipPath1); fill:none;" height="20" />
      <rect x="636" y="158" width="13" style="clip-path:url(#clipPath1); fill:white; stroke:none;" height="19" />
      <rect x="733" y="53" width="88" style="clip-path:url(#clipPath1); fill:navy; stroke:none;" height="65" />
      <rect x="730" y="50" width="88" style="clip-path:url(#clipPath1); fill:white; stroke:none;" height="65" />
      <rect x="730" y="50" width="88" style="clip-path:url(#clipPath1); fill:none;" height="65" />
    </g>
    <g style="font-weight:bold; font-family:sans-serif;">
      <text x="734" y="62" style="clip-path:url(#clipPath10); stroke:none;">m_snacktray
      </text>
      <line x1="734" x2="814" y1="64" style="clip-path:url(#clipPath10); fill:none;" y2="64" />
      <text x="738" y="77" style="clip-path:url(#clipPath10); font-weight:normal; stroke:none;">CSnackArray
      </text>
    </g>
    <g>
      <line x1="775" x2="775" y1="118" style="clip-path:url(#clipPath1); fill:none;" y2="128" />
      <line x1="775" x2="775" y1="133" style="clip-path:url(#clipPath1); fill:none;" y2="143" />
      <line x1="775" x2="775" y1="148" style="clip-path:url(#clipPath1); fill:none;" y2="158" />
      <line x1="775" x2="775" y1="163" style="clip-path:url(#clipPath1); fill:none;" y2="173" />
      <line x1="775" x2="775" y1="178" style="clip-path:url(#clipPath1); fill:none;" y2="188" />
      <line x1="775" x2="775" y1="193" style="clip-path:url(#clipPath1); fill:none;" y2="203" />
      <line x1="775" x2="775" y1="208" style="clip-path:url(#clipPath1); fill:none;" y2="218" />
      <line x1="775" x2="775" y1="223" style="clip-path:url(#clipPath1); fill:none;" y2="233" />
      <line x1="775" x2="775" y1="238" style="clip-path:url(#clipPath1); fill:none;" y2="248" />
      <line x1="775" x2="775" y1="253" style="clip-path:url(#clipPath1); fill:none;" y2="263" />
      <line x1="775" x2="775" y1="268" style="clip-path:url(#clipPath1); fill:none;" y2="278" />
      <line x1="775" x2="775" y1="283" style="clip-path:url(#clipPath1); fill:none;" y2="293" />
      <line x1="775" x2="775" y1="298" style="clip-path:url(#clipPath1); fill:none;" y2="308" />
      <line x1="775" x2="775" y1="313" style="clip-path:url(#clipPath1); fill:none;" y2="323" />
      <line x1="775" x2="775" y1="328" style="clip-path:url(#clipPath1); fill:none;" y2="338" />
      <line x1="775" x2="775" y1="343" style="clip-path:url(#clipPath1); fill:none;" y2="353" />
      <line x1="775" x2="775" y1="358" style="clip-path:url(#clipPath1); fill:none;" y2="368" />
      <line x1="775" x2="775" y1="373" style="clip-path:url(#clipPath1); fill:none;" y2="383" />
      <line x1="775" x2="775" y1="388" style="clip-path:url(#clipPath1); fill:none;" y2="398" />
      <line x1="775" x2="775" y1="403" style="clip-path:url(#clipPath1); fill:none;" y2="413" />
      <line x1="775" x2="775" y1="418" style="clip-path:url(#clipPath1); fill:none;" y2="428" />
      <line x1="775" x2="775" y1="433" style="clip-path:url(#clipPath1); fill:none;" y2="443" />
      <line x1="775" x2="775" y1="448" style="clip-path:url(#clipPath1); fill:none;" y2="458" />
      <line x1="775" x2="775" y1="463" style="clip-path:url(#clipPath1); fill:none;" y2="473" />
      <line x1="775" x2="775" y1="478" style="clip-path:url(#clipPath1); fill:none;" y2="488" />
      <line x1="775" x2="775" y1="493" style="clip-path:url(#clipPath1); fill:none;" y2="495" />
      <rect x="768" y="240" width="14" style="clip-path:url(#clipPath1); fill:none;" height="20" />
      <rect x="769" y="241" width="13" style="clip-path:url(#clipPath1); fill:white; stroke:none;" height="19" />
      <rect x="768" y="265" width="14" style="clip-path:url(#clipPath1); fill:none;" height="40" />
      <rect x="769" y="266" width="13" style="clip-path:url(#clipPath1); fill:white; stroke:none;" height="39" />
      <rect x="768" y="335" width="14" style="clip-path:url(#clipPath1); fill:none;" height="20" />
      <rect x="769" y="336" width="13" style="clip-path:url(#clipPath1); fill:white; stroke:none;" height="19" />
      <rect x="994" y="53" width="87" style="clip-path:url(#clipPath1); fill:navy; stroke:none;" height="65" />
      <rect x="991" y="50" width="87" style="clip-path:url(#clipPath1); fill:white; stroke:none;" height="65" />
      <rect x="991" y="50" width="87" style="clip-path:url(#clipPath1); fill:none;" height="65" />
    </g>
    <g style="font-weight:bold; font-family:sans-serif;">
      <text x="1002" y="62" style="clip-path:url(#clipPath12); stroke:none;">m_payslot
      </text>
      <line x1="1002" x2="1067" y1="64" style="clip-path:url(#clipPath12); fill:none;" y2="64" />
      <text x="996" y="77" style="clip-path:url(#clipPath12); font-weight:normal; stroke:none;">CPaymentSlot
      </text>
    </g>
    <g>
      <line x1="1036" x2="1036" y1="118" style="clip-path:url(#clipPath1); fill:none;" y2="128" />
      <line x1="1036" x2="1036" y1="133" style="clip-path:url(#clipPath1); fill:none;" y2="143" />
      <line x1="1036" x2="1036" y1="148" style="clip-path:url(#clipPath1); fill:none;" y2="158" />
      <line x1="1036" x2="1036" y1="163" style="clip-path:url(#clipPath1); fill:none;" y2="173" />
      <line x1="1036" x2="1036" y1="178" style="clip-path:url(#clipPath1); fill:none;" y2="188" />
      <line x1="1036" x2="1036" y1="193" style="clip-path:url(#clipPath1); fill:none;" y2="203" />
      <line x1="1036" x2="1036" y1="208" style="clip-path:url(#clipPath1); fill:none;" y2="218" />
      <line x1="1036" x2="1036" y1="223" style="clip-path:url(#clipPath1); fill:none;" y2="233" />
      <line x1="1036" x2="1036" y1="238" style="clip-path:url(#clipPath1); fill:none;" y2="248" />
      <line x1="1036" x2="1036" y1="253" style="clip-path:url(#clipPath1); fill:none;" y2="263" />
      <line x1="1036" x2="1036" y1="268" style="clip-path:url(#clipPath1); fill:none;" y2="278" />
      <line x1="1036" x2="1036" y1="283" style="clip-path:url(#clipPath1); fill:none;" y2="293" />
      <line x1="1036" x2="1036" y1="298" style="clip-path:url(#clipPath1); fill:none;" y2="308" />
      <line x1="1036" x2="1036" y1="313" style="clip-path:url(#clipPath1); fill:none;" y2="323" />
      <line x1="1036" x2="1036" y1="328" style="clip-path:url(#clipPath1); fill:none;" y2="338" />
      <line x1="1036" x2="1036" y1="343" style="clip-path:url(#clipPath1); fill:none;" y2="353" />
      <line x1="1036" x2="1036" y1="358" style="clip-path:url(#clipPath1); fill:none;" y2="368" />
      <line x1="1036" x2="1036" y1="373" style="clip-path:url(#clipPath1); fill:none;" y2="383" />
      <line x1="1036" x2="1036" y1="388" style="clip-path:url(#clipPath1); fill:none;" y2="398" />
      <line x1="1036" x2="1036" y1="403" style="clip-path:url(#clipPath1); fill:none;" y2="413" />
      <line x1="1036" x2="1036" y1="418" style="clip-path:url(#clipPath1); fill:none;" y2="428" />
      <line x1="1036" x2="1036" y1="433" style="clip-path:url(#clipPath1); fill:none;" y2="443" />
      <line x1="1036" x2="1036" y1="448" style="clip-path:url(#clipPath1); fill:none;" y2="458" />
      <line x1="1036" x2="1036" y1="463" style="clip-path:url(#clipPath1); fill:none;" y2="473" />
      <line x1="1036" x2="1036" y1="478" style="clip-path:url(#clipPath1); fill:none;" y2="488" />
      <line x1="1036" x2="1036" y1="493" style="clip-path:url(#clipPath1); fill:none;" y2="495" />
      <rect x="1029" y="310" width="14" style="clip-path:url(#clipPath1); fill:none;" height="20" />
      <rect x="1030" y="311" width="13" style="clip-path:url(#clipPath1); fill:white; stroke:none;" height="19" />
      <rect x="1029" y="360" width="14" style="clip-path:url(#clipPath1); fill:none;" height="20" />
      <rect x="1030" y="361" width="13" style="clip-path:url(#clipPath1); fill:white; stroke:none;" height="19" />
      <rect x="1107" y="53" width="87" style="clip-path:url(#clipPath1); fill:navy; stroke:none;" height="65" />
      <rect x="1104" y="50" width="87" style="clip-path:url(#clipPath1); fill:white; stroke:none;" height="65" />
      <rect x="1104" y="50" width="87" style="clip-path:url(#clipPath1); fill:none;" height="65" />
    </g>
    <g style="font-weight:bold; font-family:sans-serif;">
      <text x="1126" y="62" style="clip-path:url(#clipPath14); stroke:none;">m_tray
      </text>
      <line x1="1126" x2="1169" y1="64" style="clip-path:url(#clipPath14); fill:none;" y2="64" />
      <text x="1130" y="77" style="clip-path:url(#clipPath14); font-weight:normal; stroke:none;">CTray
      </text>
    </g>
    <g>
      <line x1="1149" x2="1149" y1="118" style="clip-path:url(#clipPath1); fill:none;" y2="128" />
      <line x1="1149" x2="1149" y1="133" style="clip-path:url(#clipPath1); fill:none;" y2="143" />
      <line x1="1149" x2="1149" y1="148" style="clip-path:url(#clipPath1); fill:none;" y2="158" />
      <line x1="1149" x2="1149" y1="163" style="clip-path:url(#clipPath1); fill:none;" y2="173" />
      <line x1="1149" x2="1149" y1="178" style="clip-path:url(#clipPath1); fill:none;" y2="188" />
      <line x1="1149" x2="1149" y1="193" style="clip-path:url(#clipPath1); fill:none;" y2="203" />
      <line x1="1149" x2="1149" y1="208" style="clip-path:url(#clipPath1); fill:none;" y2="218" />
      <line x1="1149" x2="1149" y1="223" style="clip-path:url(#clipPath1); fill:none;" y2="233" />
      <line x1="1149" x2="1149" y1="238" style="clip-path:url(#clipPath1); fill:none;" y2="248" />
      <line x1="1149" x2="1149" y1="253" style="clip-path:url(#clipPath1); fill:none;" y2="263" />
      <line x1="1149" x2="1149" y1="268" style="clip-path:url(#clipPath1); fill:none;" y2="278" />
      <line x1="1149" x2="1149" y1="283" style="clip-path:url(#clipPath1); fill:none;" y2="293" />
      <line x1="1149" x2="1149" y1="298" style="clip-path:url(#clipPath1); fill:none;" y2="308" />
      <line x1="1149" x2="1149" y1="313" style="clip-path:url(#clipPath1); fill:none;" y2="323" />
      <line x1="1149" x2="1149" y1="328" style="clip-path:url(#clipPath1); fill:none;" y2="338" />
      <line x1="1149" x2="1149" y1="343" style="clip-path:url(#clipPath1); fill:none;" y2="353" />
      <line x1="1149" x2="1149" y1="358" style="clip-path:url(#clipPath1); fill:none;" y2="368" />
      <line x1="1149" x2="1149" y1="373" style="clip-path:url(#clipPath1); fill:none;" y2="383" />
      <line x1="1149" x2="1149" y1="388" style="clip-path:url(#clipPath1); fill:none;" y2="398" />
      <line x1="1149" x2="1149" y1="403" style="clip-path:url(#clipPath1); fill:none;" y2="413" />
      <line x1="1149" x2="1149" y1="418" style="clip-path:url(#clipPath1); fill:none;" y2="428" />
      <line x1="1149" x2="1149" y1="433" style="clip-path:url(#clipPath1); fill:none;" y2="443" />
      <line x1="1149" x2="1149" y1="448" style="clip-path:url(#clipPath1); fill:none;" y2="458" />
      <line x1="1149" x2="1149" y1="463" style="clip-path:url(#clipPath1); fill:none;" y2="473" />
      <line x1="1149" x2="1149" y1="478" style="clip-path:url(#clipPath1); fill:none;" y2="488" />
      <line x1="1149" x2="1149" y1="493" style="clip-path:url(#clipPath1); fill:none;" y2="495" />
      <rect x="1142" y="385" width="14" style="clip-path:url(#clipPath1); fill:none;" height="20" />
      <rect x="1143" y="386" width="13" style="clip-path:url(#clipPath1); fill:white; stroke:none;" height="19" />
      <rect x="881" y="53" width="87" style="clip-path:url(#clipPath1); fill:navy; stroke:none;" height="65" />
      <rect x="878" y="50" width="87" style="clip-path:url(#clipPath1); fill:white; stroke:none;" height="65" />
      <rect x="878" y="50" width="87" style="clip-path:url(#clipPath1); fill:none;" height="65" />
    </g>
    <g style="font-weight:bold; font-family:sans-serif;">
      <text x="894" y="62" style="clip-path:url(#clipPath16); stroke:none;">m_snack
      </text>
      <line x1="894" x2="949" y1="64" style="clip-path:url(#clipPath16); fill:none;" y2="64" />
      <text x="901" y="77" style="clip-path:url(#clipPath16); font-weight:normal; stroke:none;">CSnack
      </text>
    </g>
    <g>
      <line x1="923" x2="923" y1="118" style="clip-path:url(#clipPath1); fill:none;" y2="128" />
      <line x1="923" x2="923" y1="133" style="clip-path:url(#clipPath1); fill:none;" y2="143" />
      <line x1="923" x2="923" y1="148" style="clip-path:url(#clipPath1); fill:none;" y2="158" />
      <line x1="923" x2="923" y1="163" style="clip-path:url(#clipPath1); fill:none;" y2="173" />
      <line x1="923" x2="923" y1="178" style="clip-path:url(#clipPath1); fill:none;" y2="188" />
      <line x1="923" x2="923" y1="193" style="clip-path:url(#clipPath1); fill:none;" y2="203" />
      <line x1="923" x2="923" y1="208" style="clip-path:url(#clipPath1); fill:none;" y2="218" />
      <line x1="923" x2="923" y1="223" style="clip-path:url(#clipPath1); fill:none;" y2="233" />
      <line x1="923" x2="923" y1="238" style="clip-path:url(#clipPath1); fill:none;" y2="248" />
      <line x1="923" x2="923" y1="253" style="clip-path:url(#clipPath1); fill:none;" y2="263" />
      <line x1="923" x2="923" y1="268" style="clip-path:url(#clipPath1); fill:none;" y2="278" />
      <line x1="923" x2="923" y1="283" style="clip-path:url(#clipPath1); fill:none;" y2="293" />
      <line x1="923" x2="923" y1="298" style="clip-path:url(#clipPath1); fill:none;" y2="308" />
      <line x1="923" x2="923" y1="313" style="clip-path:url(#clipPath1); fill:none;" y2="323" />
      <line x1="923" x2="923" y1="328" style="clip-path:url(#clipPath1); fill:none;" y2="338" />
      <line x1="923" x2="923" y1="343" style="clip-path:url(#clipPath1); fill:none;" y2="353" />
      <line x1="923" x2="923" y1="358" style="clip-path:url(#clipPath1); fill:none;" y2="368" />
      <line x1="923" x2="923" y1="373" style="clip-path:url(#clipPath1); fill:none;" y2="383" />
      <line x1="923" x2="923" y1="388" style="clip-path:url(#clipPath1); fill:none;" y2="398" />
      <line x1="923" x2="923" y1="403" style="clip-path:url(#clipPath1); fill:none;" y2="413" />
      <line x1="923" x2="923" y1="418" style="clip-path:url(#clipPath1); fill:none;" y2="428" />
      <line x1="923" x2="923" y1="433" style="clip-path:url(#clipPath1); fill:none;" y2="443" />
      <line x1="923" x2="923" y1="448" style="clip-path:url(#clipPath1); fill:none;" y2="458" />
      <line x1="923" x2="923" y1="463" style="clip-path:url(#clipPath1); fill:none;" y2="473" />
      <line x1="923" x2="923" y1="478" style="clip-path:url(#clipPath1); fill:none;" y2="488" />
      <line x1="923" x2="923" y1="493" style="clip-path:url(#clipPath1); fill:none;" y2="495" />
      <rect x="916" y="275" width="14" style="clip-path:url(#clipPath1); fill:none;" height="20" />
      <rect x="917" y="276" width="13" style="clip-path:url(#clipPath1); fill:white; stroke:none;" height="19" />
      <line x1="782" x2="916" y1="275" style="clip-path:url(#clipPath1); fill:none; stroke:rgb(50,50,0);" y2="275" />
      <line x1="148" x2="295" y1="146" style="clip-path:url(#clipPath1); fill:none; stroke:rgb(50,50,0);" y2="146" />
      <line x1="309" x2="1142" y1="385" style="clip-path:url(#clipPath1); fill:none; stroke:rgb(50,50,0);" y2="385" />
      <line x1="309" x2="1029" y1="360" style="clip-path:url(#clipPath1); fill:none; stroke:rgb(50,50,0);" y2="360" />
      <line x1="309" x2="768" y1="335" style="clip-path:url(#clipPath1); fill:none; stroke:rgb(50,50,0);" y2="335" />
      <line x1="309" x2="1029" y1="310" style="clip-path:url(#clipPath1); fill:none; stroke:rgb(50,50,0);" y2="310" />
      <line x1="309" x2="768" y1="265" style="clip-path:url(#clipPath1); fill:none; stroke:rgb(50,50,0);" y2="265" />
      <line x1="309" x2="768" y1="240" style="clip-path:url(#clipPath1); fill:none; stroke:rgb(50,50,0);" y2="240" />
      <line x1="309" x2="473" y1="200" style="clip-path:url(#clipPath1); fill:none; stroke:rgb(50,50,0);" y2="200" />
      <line x1="309" x2="635" y1="157" style="clip-path:url(#clipPath1); fill:none; stroke:rgb(50,50,0);" y2="157" />
      <line x1="635" x2="625" y1="177" style="clip-path:url(#clipPath1); fill:none; stroke:rgb(50,50,0);" y2="177" />
      <line x1="620" x2="610" y1="177" style="clip-path:url(#clipPath1); fill:none; stroke:rgb(50,50,0);" y2="177" />
      <line x1="605" x2="595" y1="177" style="clip-path:url(#clipPath1); fill:none; stroke:rgb(50,50,0);" y2="177" />
      <line x1="590" x2="580" y1="177" style="clip-path:url(#clipPath1); fill:none; stroke:rgb(50,50,0);" y2="177" />
      <line x1="575" x2="565" y1="177" style="clip-path:url(#clipPath1); fill:none; stroke:rgb(50,50,0);" y2="177" />
      <line x1="560" x2="550" y1="177" style="clip-path:url(#clipPath1); fill:none; stroke:rgb(50,50,0);" y2="177" />
      <line x1="545" x2="535" y1="177" style="clip-path:url(#clipPath1); fill:none; stroke:rgb(50,50,0);" y2="177" />
      <line x1="530" x2="520" y1="177" style="clip-path:url(#clipPath1); fill:none; stroke:rgb(50,50,0);" y2="177" />
      <line x1="515" x2="505" y1="177" style="clip-path:url(#clipPath1); fill:none; stroke:rgb(50,50,0);" y2="177" />
      <line x1="500" x2="490" y1="177" style="clip-path:url(#clipPath1); fill:none; stroke:rgb(50,50,0);" y2="177" />
      <line x1="485" x2="475" y1="177" style="clip-path:url(#clipPath1); fill:none; stroke:rgb(50,50,0);" y2="177" />
      <line x1="470" x2="460" y1="177" style="clip-path:url(#clipPath1); fill:none; stroke:rgb(50,50,0);" y2="177" />
      <line x1="455" x2="445" y1="177" style="clip-path:url(#clipPath1); fill:none; stroke:rgb(50,50,0);" y2="177" />
      <line x1="440" x2="430" y1="177" style="clip-path:url(#clipPath1); fill:none; stroke:rgb(50,50,0);" y2="177" />
      <line x1="425" x2="415" y1="177" style="clip-path:url(#clipPath1); fill:none; stroke:rgb(50,50,0);" y2="177" />
      <line x1="410" x2="400" y1="177" style="clip-path:url(#clipPath1); fill:none; stroke:rgb(50,50,0);" y2="177" />
      <line x1="395" x2="385" y1="177" style="clip-path:url(#clipPath1); fill:none; stroke:rgb(50,50,0);" y2="177" />
      <line x1="380" x2="370" y1="177" style="clip-path:url(#clipPath1); fill:none; stroke:rgb(50,50,0);" y2="177" />
      <line x1="365" x2="355" y1="177" style="clip-path:url(#clipPath1); fill:none; stroke:rgb(50,50,0);" y2="177" />
      <line x1="350" x2="340" y1="177" style="clip-path:url(#clipPath1); fill:none; stroke:rgb(50,50,0);" y2="177" />
      <line x1="335" x2="325" y1="177" style="clip-path:url(#clipPath1); fill:none; stroke:rgb(50,50,0);" y2="177" />
      <line x1="320" x2="310" y1="177" style="clip-path:url(#clipPath1); fill:none; stroke:rgb(50,50,0);" y2="177" />
      <line x1="309" x2="321" y1="177" style="clip-path:url(#clipPath1); fill:none;" y2="180" />
      <line x1="309" x2="321" y1="177" style="clip-path:url(#clipPath1); fill:none;" y2="174" />
      <polygon style="fill:gray; clip-path:url(#clipPath1); stroke:none;" points=" 916 275 898 279 898 271" />
      <polygon style="fill:none; clip-path:url(#clipPath1); stroke:rgb(50,50,0);" points=" 916 275 898 279 898 271" />
      <line x1="898" x2="916" y1="271" style="clip-path:url(#clipPath1); fill:none; stroke:rgb(50,50,0);" y2="275" />
      <text x="790" y="268" style="clip-path:url(#clipPath1); fill:rgb(50,50,0); font-family:sans-serif; stroke:none;">1.4.1: getPrice():void
      </text>
      <polygon points=" 295 146 277 150 277 142" style="fill:gray; clip-path:url(#clipPath1); font-family:sans-serif; stroke:none;" />
      <polygon points=" 295 146 277 150 277 142" style="fill:none; clip-path:url(#clipPath1); font-family:sans-serif; stroke:rgb(50,50,0);" />
      <line x1="277" x2="295" y1="142" style="clip-path:url(#clipPath1); fill:none; font-family:sans-serif; stroke:rgb(50,50,0);" y2="146" />
      <text x="156" y="139" style="clip-path:url(#clipPath1); fill:rgb(50,50,0); font-family:sans-serif; stroke:none;">1: run():void
      </text>
      <polygon points=" 1142 385 1124 389 1124 381" style="fill:gray; clip-path:url(#clipPath1); font-family:sans-serif; stroke:none;" />
      <polygon points=" 1142 385 1124 389 1124 381" style="fill:none; clip-path:url(#clipPath1); font-family:sans-serif; stroke:rgb(50,50,0);" />
      <line x1="1124" x2="1142" y1="381" style="clip-path:url(#clipPath1); fill:none; font-family:sans-serif; stroke:rgb(50,50,0);" y2="385" />
      <text x="317" y="378" style="clip-path:url(#clipPath1); fill:rgb(50,50,0); font-family:sans-serif; stroke:none;">1.8: getOpenStatus():void
      </text>
      <polygon points=" 1029 360 1011 364 1011 356" style="fill:gray; clip-path:url(#clipPath1); font-family:sans-serif; stroke:none;" />
      <polygon points=" 1029 360 1011 364 1011 356" style="fill:none; clip-path:url(#clipPath1); font-family:sans-serif; stroke:rgb(50,50,0);" />
      <line x1="1011" x2="1029" y1="356" style="clip-path:url(#clipPath1); fill:none; font-family:sans-serif; stroke:rgb(50,50,0);" y2="360" />
      <text x="317" y="353" style="clip-path:url(#clipPath1); fill:rgb(50,50,0); font-family:sans-serif; stroke:none;">1.7: returnChange():void
      </text>
      <polygon points=" 768 335 750 339 750 331" style="fill:gray; clip-path:url(#clipPath1); font-family:sans-serif; stroke:none;" />
      <polygon points=" 768 335 750 339 750 331" style="fill:none; clip-path:url(#clipPath1); font-family:sans-serif; stroke:rgb(50,50,0);" />
      <line x1="750" x2="768" y1="331" style="clip-path:url(#clipPath1); fill:none; font-family:sans-serif; stroke:rgb(50,50,0);" y2="335" />
      <text x="317" y="328" style="clip-path:url(#clipPath1); fill:rgb(50,50,0); font-family:sans-serif; stroke:none;">1.6: deliverSnack():void
      </text>
      <polygon points=" 1029 310 1011 314 1011 306" style="fill:gray; clip-path:url(#clipPath1); font-family:sans-serif; stroke:none;" />
      <polygon points=" 1029 310 1011 314 1011 306" style="fill:none; clip-path:url(#clipPath1); font-family:sans-serif; stroke:rgb(50,50,0);" />
      <line x1="1011" x2="1029" y1="306" style="clip-path:url(#clipPath1); fill:none; font-family:sans-serif; stroke:rgb(50,50,0);" y2="310" />
      <text x="317" y="303" style="clip-path:url(#clipPath1); fill:rgb(50,50,0); font-family:sans-serif; stroke:none;">1.5: enterMoney():void
      </text>
      <polygon points=" 768 265 750 269 750 261" style="fill:gray; clip-path:url(#clipPath1); font-family:sans-serif; stroke:none;" />
      <polygon points=" 768 265 750 269 750 261" style="fill:none; clip-path:url(#clipPath1); font-family:sans-serif; stroke:rgb(50,50,0);" />
      <line x1="750" x2="768" y1="261" style="clip-path:url(#clipPath1); fill:none; font-family:sans-serif; stroke:rgb(50,50,0);" y2="265" />
      <text x="317" y="258" style="clip-path:url(#clipPath1); fill:rgb(50,50,0); font-family:sans-serif; stroke:none;">1.4: getPrice():float
      </text>
      <polygon points=" 768 240 750 244 750 236" style="fill:gray; clip-path:url(#clipPath1); font-family:sans-serif; stroke:none;" />
      <polygon points=" 768 240 750 244 750 236" style="fill:none; clip-path:url(#clipPath1); font-family:sans-serif; stroke:rgb(50,50,0);" />
      <line x1="750" x2="768" y1="236" style="clip-path:url(#clipPath1); fill:none; font-family:sans-serif; stroke:rgb(50,50,0);" y2="240" />
      <text x="317" y="233" style="clip-path:url(#clipPath1); fill:rgb(50,50,0); font-family:sans-serif; stroke:none;">1.3: getNumberOfSnacks():void
      </text>
      <polygon points=" 473 200 455 204 455 196" style="fill:gray; clip-path:url(#clipPath1); font-family:sans-serif; stroke:none;" />
      <polygon points=" 473 200 455 204 455 196" style="fill:none; clip-path:url(#clipPath1); font-family:sans-serif; stroke:rgb(50,50,0);" />
      <line x1="455" x2="473" y1="196" style="clip-path:url(#clipPath1); fill:none; font-family:sans-serif; stroke:rgb(50,50,0);" y2="200" />
      <text x="317" y="193" style="clip-path:url(#clipPath1); fill:rgb(50,50,0); font-family:sans-serif; stroke:none;">1.2: getNumber():void
      </text>
      <polygon points=" 635 157 617 161 617 153" style="fill:gray; clip-path:url(#clipPath1); font-family:sans-serif; stroke:none;" />
      <polygon points=" 635 157 617 161 617 153" style="fill:none; clip-path:url(#clipPath1); font-family:sans-serif; stroke:rgb(50,50,0);" />
      <line x1="617" x2="635" y1="153" style="clip-path:url(#clipPath1); fill:none; font-family:sans-serif; stroke:rgb(50,50,0);" y2="157" />
      <text x="317" y="150" style="clip-path:url(#clipPath1); fill:rgb(50,50,0); font-family:sans-serif; stroke:none;">1.1: displayString():void
      </text>
    </g>
  </g>
</svg>
