<?xml version="1.0" encoding="UTF-8"?>

<!DOCTYPE svg PUBLIC '-//W3C//DTD SVG 20001102//EN' 'http://www.w3.org/TR/2000/CR-SVG-20001102/DTD/svg-20001102.dtd'>
<svg style="fill-opacity:1; color-rendering:auto; color-interpolation:sRGB; text-rendering:auto; stroke:black; stroke-linecap:square; stroke-miterlimit:10; shape-rendering:auto; stroke-opacity:1; fill:black; stroke-dasharray:none; font-weight:normal; stroke-width:1; font-family:&apos;sansserif&apos;; font-style:normal; stroke-linejoin:miter; font-size:12; stroke-dashoffset:0; image-rendering:auto;" width="1004" height="407">
  <!--Generated by the Batik Graphics2D SVG Generator-->
  <defs id="genericDefs" />
  <g>
    <defs id="defs1">
      <clipPath clipPathUnits="userSpaceOnUse" id="clipPath1">
        <path d="M0 0 L1004 0 L1004 407 L0 407 L0 0 Z" />
      </clipPath>
      <clipPath clipPathUnits="userSpaceOnUse" id="clipPath2">
        <path d="M23 33 L23 111 L76 111 L76 33 Z" />
      </clipPath>
      <clipPath clipPathUnits="userSpaceOnUse" id="clipPath3">
        <path d="M23 38 L23 91 L76 91 L76 38 Z" />
      </clipPath>
      <clipPath clipPathUnits="userSpaceOnUse" id="clipPath4">
        <path d="M23 90 L23 111 L76 111 L76 90 Z" />
      </clipPath>
      <clipPath clipPathUnits="userSpaceOnUse" id="clipPath5">
        <path d="M10 157 L10 235 L63 235 L63 157 Z" />
      </clipPath>
      <clipPath clipPathUnits="userSpaceOnUse" id="clipPath6">
        <path d="M10 162 L10 215 L63 215 L63 162 Z" />
      </clipPath>
      <clipPath clipPathUnits="userSpaceOnUse" id="clipPath7">
        <path d="M10 214 L10 235 L63 235 L63 214 Z" />
      </clipPath>
      <clipPath clipPathUnits="userSpaceOnUse" id="clipPath8">
        <path d="M27 297 L27 375 L80 375 L80 297 Z" />
      </clipPath>
      <clipPath clipPathUnits="userSpaceOnUse" id="clipPath9">
        <path d="M27 302 L27 355 L80 355 L80 302 Z" />
      </clipPath>
      <clipPath clipPathUnits="userSpaceOnUse" id="clipPath10">
        <path d="M27 354 L27 375 L80 375 L80 354 Z" />
      </clipPath>
      <clipPath clipPathUnits="userSpaceOnUse" id="clipPath11">
        <path d="M178 13 L178 29 L289 29 L289 13 Z" />
      </clipPath>
      <clipPath clipPathUnits="userSpaceOnUse" id="clipPath12">
        <path d="M217 119 L217 135 L370 135 L370 119 Z" />
      </clipPath>
      <clipPath clipPathUnits="userSpaceOnUse" id="clipPath13">
        <path d="M212 208 L212 224 L303 224 L303 208 Z" />
      </clipPath>
      <clipPath clipPathUnits="userSpaceOnUse" id="clipPath14">
        <path d="M255 314 L255 330 L356 330 L356 314 Z" />
      </clipPath>
      <clipPath clipPathUnits="userSpaceOnUse" id="clipPath15">
        <path d="M897 319 L897 397 L994 397 L994 319 Z" />
      </clipPath>
      <clipPath clipPathUnits="userSpaceOnUse" id="clipPath16">
        <path d="M897 324 L897 377 L994 377 L994 324 Z" />
      </clipPath>
      <clipPath clipPathUnits="userSpaceOnUse" id="clipPath17">
        <path d="M897 376 L897 397 L994 397 L994 376 Z" />
      </clipPath>
      <clipPath clipPathUnits="userSpaceOnUse" id="clipPath18">
        <path d="M596 50 L596 81 L797 81 L797 50 Z" />
      </clipPath>
      <clipPath clipPathUnits="userSpaceOnUse" id="clipPath19">
        <path d="M591 136 L591 167 L792 167 L792 136 Z" />
      </clipPath>
      <clipPath clipPathUnits="userSpaceOnUse" id="clipPath20">
        <path d="M618 272 L618 288 L754 288 L754 272 Z" />
      </clipPath>
      <clipPath clipPathUnits="userSpaceOnUse" id="clipPath21">
        <path d="M667 336 L667 352 L808 352 L808 336 Z" />
      </clipPath>
    </defs>
    <g style="fill:navy; stroke:navy;">
      <polygon style="clip-path:url(#clipPath3); stroke:none;" points=" 51 57 51 62 65 62 65 64 51 64 51 75 65 89 65 90 63 90 50 77 37 90 35 90 35 89 49 75 49 64 35 64 35 62 49 62 49 57 51 57" />
      <circle style="clip-path:url(#clipPath3); stroke:none;" r="8" cx="50" cy="49" />
      <polygon style="fill:white; clip-path:url(#clipPath3); stroke:none;" points=" 48 54 48 59 62 59 62 61 48 61 48 72 62 86 62 87 60 87 47 74 34 87 32 87 32 86 46 72 46 61 32 61 32 59 46 59 46 54 48 54" />
      <circle style="clip-path:url(#clipPath3); fill:white; stroke:none;" r="8" cx="47" cy="46" />
      <polygon style="fill:none; clip-path:url(#clipPath3); stroke:black;" points=" 48 54 48 59 62 59 62 61 48 61 48 72 62 86 62 87 60 87 47 74 34 87 32 87 32 86 46 72 46 61 32 61 32 59 46 59 46 54 48 54" />
      <circle style="clip-path:url(#clipPath3); fill:none; stroke:black;" r="8" cx="47" cy="46" />
    </g>
    <g style="font-family:sans-serif;">
      <text x="27" y="102" style="clip-path:url(#clipPath4); stroke:none;">Captain
      </text>
    </g>
    <g style="fill:navy; stroke:navy;">
      <polygon style="clip-path:url(#clipPath6); stroke:none;" points=" 38 181 38 186 52 186 52 188 38 188 38 199 52 213 52 214 50 214 37 201 24 214 22 214 22 213 36 199 36 188 22 188 22 186 36 186 36 181 38 181" />
      <circle style="clip-path:url(#clipPath6); stroke:none;" r="8" cx="37" cy="173" />
      <polygon style="fill:white; clip-path:url(#clipPath6); stroke:none;" points=" 35 178 35 183 49 183 49 185 35 185 35 196 49 210 49 211 47 211 34 198 21 211 19 211 19 210 33 196 33 185 19 185 19 183 33 183 33 178 35 178" />
      <circle style="clip-path:url(#clipPath6); fill:white; stroke:none;" r="8" cx="34" cy="170" />
      <polygon style="fill:none; clip-path:url(#clipPath6); stroke:black;" points=" 35 178 35 183 49 183 49 185 35 185 35 196 49 210 49 211 47 211 34 198 21 211 19 211 19 210 33 196 33 185 19 185 19 183 33 183 33 178 35 178" />
      <circle style="clip-path:url(#clipPath6); fill:none; stroke:black;" r="8" cx="34" cy="170" />
    </g>
    <g style="font-family:sans-serif;">
      <text x="20" y="226" style="clip-path:url(#clipPath7); stroke:none;">Sailor
      </text>
    </g>
    <g style="fill:navy; stroke:navy;">
      <polygon style="clip-path:url(#clipPath9); stroke:none;" points=" 55 321 55 326 69 326 69 328 55 328 55 339 69 353 69 354 67 354 54 341 41 354 39 354 39 353 53 339 53 328 39 328 39 326 53 326 53 321 55 321" />
      <circle style="clip-path:url(#clipPath9); stroke:none;" r="8" cx="54" cy="313" />
      <polygon style="fill:white; clip-path:url(#clipPath9); stroke:none;" points=" 52 318 52 323 66 323 66 325 52 325 52 336 66 350 66 351 64 351 51 338 38 351 36 351 36 350 50 336 50 325 36 325 36 323 50 323 50 318 52 318" />
      <circle style="clip-path:url(#clipPath9); fill:white; stroke:none;" r="8" cx="51" cy="310" />
      <polygon style="fill:none; clip-path:url(#clipPath9); stroke:black;" points=" 52 318 52 323 66 323 66 325 52 325 52 336 66 350 66 351 64 351 51 338 38 351 36 351 36 350 50 336 50 325 36 325 36 323 50 323 50 318 52 318" />
      <circle style="clip-path:url(#clipPath9); fill:none; stroke:black;" r="8" cx="51" cy="310" />
    </g>
    <g style="font-family:sans-serif;">
      <text x="40" y="366" style="clip-path:url(#clipPath10); stroke:none;">Boat
      </text>
    </g>
    <g style="fill:navy; stroke:navy;">
      <ellipse style="clip-path:url(#clipPath1); stroke:none;" rx="78" cx="236" ry="10.5" cy="23.5" />
      <ellipse style="clip-path:url(#clipPath1); fill:white; stroke:none;" rx="78" cx="233" ry="10.5" cy="20.5" />
      <ellipse style="clip-path:url(#clipPath1); fill:none; stroke:black;" rx="78" cx="233" ry="10.5" cy="20.5" />
    </g>
    <g style="font-family:sans-serif;">
      <text x="182" y="25" style="clip-path:url(#clipPath11); stroke:none;">Navigate the boat
      </text>
    </g>
    <g style="fill:navy; stroke:navy;">
      <ellipse style="clip-path:url(#clipPath1); stroke:none;" rx="107.5" cx="296.5" ry="10.5" cy="129.5" />
      <ellipse style="clip-path:url(#clipPath1); fill:white; stroke:none;" rx="107.5" cx="293.5" ry="10.5" cy="126.5" />
      <ellipse style="clip-path:url(#clipPath1); fill:none; stroke:black;" rx="107.5" cx="293.5" ry="10.5" cy="126.5" />
    </g>
    <g style="font-family:sans-serif;">
      <text x="221" y="131" style="clip-path:url(#clipPath12); stroke:none;">ENter and leave the boat
      </text>
    </g>
    <g style="fill:navy; stroke:navy;">
      <ellipse style="clip-path:url(#clipPath1); stroke:none;" rx="63.5" cx="259.5" ry="10.5" cy="218.5" />
      <ellipse style="clip-path:url(#clipPath1); fill:white; stroke:none;" rx="63.5" cx="256.5" ry="10.5" cy="215.5" />
      <ellipse style="clip-path:url(#clipPath1); fill:none; stroke:black;" rx="63.5" cx="256.5" ry="10.5" cy="215.5" />
    </g>
    <g style="font-family:sans-serif;">
      <text x="216" y="220" style="clip-path:url(#clipPath13); stroke:none;">Raise the sails
      </text>
    </g>
    <g style="fill:navy; stroke:navy;">
      <ellipse style="clip-path:url(#clipPath1); stroke:none;" rx="70.5" cx="307.5" ry="10.5" cy="324.5" />
      <ellipse style="clip-path:url(#clipPath1); fill:white; stroke:none;" rx="70.5" cx="304.5" ry="10.5" cy="321.5" />
      <ellipse style="clip-path:url(#clipPath1); fill:none; stroke:black;" rx="70.5" cx="304.5" ry="10.5" cy="321.5" />
    </g>
    <g style="font-family:sans-serif;">
      <text x="259" y="326" style="clip-path:url(#clipPath14); stroke:none;">Sail the vast sea
      </text>
    </g>
    <g style="fill:navy; stroke:navy;">
      <polygon style="clip-path:url(#clipPath16); stroke:none;" points=" 947 343 947 348 961 348 961 350 947 350 947 361 961 375 961 376 959 376 946 363 933 376 931 376 931 375 945 361 945 350 931 350 931 348 945 348 945 343 947 343" />
      <circle style="clip-path:url(#clipPath16); stroke:none;" r="8" cx="946" cy="335" />
      <polygon style="fill:white; clip-path:url(#clipPath16); stroke:none;" points=" 944 340 944 345 958 345 958 347 944 347 944 358 958 372 958 373 956 373 943 360 930 373 928 373 928 372 942 358 942 347 928 347 928 345 942 345 942 340 944 340" />
      <circle style="clip-path:url(#clipPath16); fill:white; stroke:none;" r="8" cx="943" cy="332" />
      <polygon style="fill:none; clip-path:url(#clipPath16); stroke:black;" points=" 944 340 944 345 958 345 958 347 944 347 944 358 958 372 958 373 956 373 943 360 930 373 928 373 928 372 942 358 942 347 928 347 928 345 942 345 942 340 944 340" />
      <circle style="clip-path:url(#clipPath16); fill:none; stroke:black;" r="8" cx="943" cy="332" />
    </g>
    <g style="font-family:sans-serif;">
      <text x="901" y="388" style="clip-path:url(#clipPath17); stroke:none;">Simulation User
      </text>
    </g>
    <g style="fill:navy; stroke:navy;">
      <ellipse style="clip-path:url(#clipPath1); stroke:none;" rx="141.5" cx="699.5" ry="21" cy="68" />
      <ellipse style="clip-path:url(#clipPath1); fill:white; stroke:none;" rx="141.5" cx="696.5" ry="21" cy="65" />
      <ellipse style="clip-path:url(#clipPath1); fill:none; stroke:black;" rx="141.5" cx="696.5" ry="21" cy="65" />
    </g>
    <g style="font-family:sans-serif;">
      <text x="600" y="62" style="clip-path:url(#clipPath18); stroke:none;">Create Boat, Capzain, Sailor
      </text>
      <text x="600" y="77" style="clip-path:url(#clipPath18); stroke:none;">Object
      </text>
    </g>
    <g style="fill:navy; stroke:navy;">
      <ellipse style="clip-path:url(#clipPath1); stroke:none;" rx="141.5" cx="694.5" ry="21" cy="154" />
      <ellipse style="clip-path:url(#clipPath1); fill:white; stroke:none;" rx="141.5" cx="691.5" ry="21" cy="151" />
      <ellipse style="clip-path:url(#clipPath1); fill:none; stroke:black;" rx="141.5" cx="691.5" ry="21" cy="151" />
    </g>
    <g style="font-family:sans-serif;">
      <text x="595" y="148" style="clip-path:url(#clipPath19); stroke:none;">CHoose boat and have crew
      </text>
      <text x="595" y="163" style="clip-path:url(#clipPath19); stroke:none;">enter the boat
      </text>
    </g>
    <g style="fill:navy; stroke:navy;">
      <ellipse style="clip-path:url(#clipPath1); stroke:none;" rx="95.5" cx="688.5" ry="10.5" cy="282.5" />
      <ellipse style="clip-path:url(#clipPath1); fill:white; stroke:none;" rx="95.5" cx="685.5" ry="10.5" cy="279.5" />
      <ellipse style="clip-path:url(#clipPath1); fill:none; stroke:black;" rx="95.5" cx="685.5" ry="10.5" cy="279.5" />
    </g>
    <g style="font-family:sans-serif;">
      <text x="622" y="284" style="clip-path:url(#clipPath20); stroke:none;">Have captain navigate
      </text>
    </g>
    <g style="fill:navy; stroke:navy;">
      <ellipse style="clip-path:url(#clipPath1); stroke:none;" rx="99" cx="740" ry="10.5" cy="346.5" />
      <ellipse style="clip-path:url(#clipPath1); fill:white; stroke:none;" rx="99" cx="737" ry="10.5" cy="343.5" />
      <ellipse style="clip-path:url(#clipPath1); fill:none; stroke:black;" rx="99" cx="737" ry="10.5" cy="343.5" />
    </g>
    <g style="font-family:sans-serif;">
      <text x="671" y="348" style="clip-path:url(#clipPath21); stroke:none;">Have crew set the sails
      </text>
    </g>
    <g style="fill:rgb(0,64,64); stroke:rgb(0,64,64);">
      <line x1="839" x2="897" y1="345" style="clip-path:url(#clipPath1); fill:none;" y2="345" />
      <line x1="784" x2="897" y1="283" style="clip-path:url(#clipPath1); fill:none;" y2="334" />
      <line x1="693" x2="929" y1="175" style="clip-path:url(#clipPath1); fill:none;" y2="319" />
      <line x1="698" x2="961" y1="89" style="clip-path:url(#clipPath1); fill:none;" y2="319" />
      <line x1="155" x2="75" y1="26" style="clip-path:url(#clipPath1); fill:none;" y2="43" />
      <line x1="79" x2="234" y1="324" style="clip-path:url(#clipPath1); fill:none;" y2="324" />
      <line x1="62" x2="193" y1="218" style="clip-path:url(#clipPath1); fill:none;" y2="218" />
      <line x1="62" x2="186" y1="167" style="clip-path:url(#clipPath1); fill:none;" y2="132" />
      <line x1="75" x2="186" y1="100" style="clip-path:url(#clipPath1); fill:none;" y2="124" />
    </g>
  </g>
</svg>
