<?xml version="1.0" encoding="UTF-8"?>

<!DOCTYPE svg PUBLIC '-//W3C//DTD SVG 20001102//EN' 'http://www.w3.org/TR/2000/CR-SVG-20001102/DTD/svg-20001102.dtd'>
<svg style="fill-opacity:1; color-rendering:auto; color-interpolation:sRGB; text-rendering:auto; stroke:black; stroke-linecap:square; stroke-miterlimit:10; shape-rendering:auto; stroke-opacity:1; fill:black; stroke-dasharray:none; font-weight:normal; stroke-width:1; font-family:&apos;sansserif&apos;; font-style:normal; stroke-linejoin:miter; font-size:12; stroke-dashoffset:0; image-rendering:auto;" width="691" height="596">
  <!--Generated by the Batik Graphics2D SVG Generator-->
  <defs id="genericDefs" />
  <g>
    <defs id="defs1">
      <clipPath clipPathUnits="userSpaceOnUse" id="clipPath1">
        <path d="M0 0 L691 0 L691 596 L0 596 L0 0 Z" />
      </clipPath>
      <clipPath clipPathUnits="userSpaceOnUse" id="clipPath2">
        <path d="M304 48 L304 61 L317 61 L317 48 Z" />
      </clipPath>
      <clipPath clipPathUnits="userSpaceOnUse" id="clipPath3">
        <path d="M272 110 L272 131 L351 131 L351 110 Z" />
      </clipPath>
      <clipPath clipPathUnits="userSpaceOnUse" id="clipPath4">
        <path d="M242 280 L242 301 L378 301 L378 280 Z" />
      </clipPath>
      <clipPath clipPathUnits="userSpaceOnUse" id="clipPath5">
        <path d="M272 340 L272 361 L444 361 L444 340 Z" />
      </clipPath>
      <clipPath clipPathUnits="userSpaceOnUse" id="clipPath6">
        <path d="M272 490 L272 511 L362 511 L362 490 Z" />
      </clipPath>
      <clipPath clipPathUnits="userSpaceOnUse" id="clipPath7">
        <path d="M310 570 L310 586 L326 586 L326 570 Z" />
      </clipPath>
      <clipPath clipPathUnits="userSpaceOnUse" id="clipPath8">
        <path d="M282 440 L282 461 L374 461 L374 440 Z" />
      </clipPath>
      <clipPath clipPathUnits="userSpaceOnUse" id="clipPath9">
        <path d="M146 439 L146 460 L235 460 L235 439 Z" />
      </clipPath>
      <clipPath clipPathUnits="userSpaceOnUse" id="clipPath10">
        <path d="M14 334 L14 367 L204 367 L204 334 Z" />
      </clipPath>
    </defs>
    <g>
      <circle style="clip-path:url(#clipPath2); stroke:none;" r="6" cx="310" cy="54" />
    </g>
    <g style="fill:navy; stroke:navy;">
      <rect x="275" y="113" width="79" style="clip-path:url(#clipPath1); stroke:none;" height="20" />
      <path d="M275.5 113 C268.596435546875 113 263 117.4771499633789 263 123 C263 128.52284240722656 268.596435546875 133 275.5 133 L275.5 123 Z" style="clip-path:url(#clipPath1); stroke:none;" />
      <path d="M353.5 133 C360.403564453125 133 366 128.52284240722656 366 123 C366 117.4771499633789 360.403564453125 113 353.5 113 L353.5 123 Z" style="clip-path:url(#clipPath1); stroke:none;" />
      <rect x="272" y="110" width="79" style="clip-path:url(#clipPath1); fill:white; stroke:none;" height="20" />
      <path d="M272.5 110 C265.596435546875 110 260 114.4771499633789 260 120 C260 125.5228500366211 265.596435546875 130 272.5 130 L272.5 120 Z" style="fill:white; clip-path:url(#clipPath1); stroke:none;" />
      <path d="M350.5 130 C357.403564453125 130 363 125.5228500366211 363 120 C363 114.4771499633789 357.403564453125 110 350.5 110 L350.5 120 Z" style="fill:white; clip-path:url(#clipPath1); stroke:none;" />
      <line x1="272" x2="351" y1="110" style="clip-path:url(#clipPath1); fill:none; stroke:black;" y2="110" />
      <line x1="272" x2="351" y1="130" style="clip-path:url(#clipPath1); fill:none; stroke:black;" y2="130" />
      <path d="M272.5 110 C265.596435546875 110 260 114.4771499633789 260 120 C260 125.5228500366211 265.596435546875 130 272.5 130" style="fill:none; clip-path:url(#clipPath1); stroke:black;" />
      <path d="M350.5 130 C357.403564453125 130 363 125.5228500366211 363 120 C363 114.4771499633789 357.403564453125 110 350.5 110" style="fill:none; clip-path:url(#clipPath1); stroke:black;" />
    </g>
    <g style="font-family:sans-serif;">
      <text x="276" y="122" style="clip-path:url(#clipPath3); stroke:none;">Select Snack
      </text>
    </g>
    <g style="fill:navy; stroke:navy;">
      <polygon style="clip-path:url(#clipPath1); stroke:none;" points=" 311 193 340 201 311 210 283 201 311 193" />
      <polygon style="fill:white; clip-path:url(#clipPath1); stroke:none;" points=" 308 190 337 198 308 207 280 198 308 190" />
      <polygon style="fill:none; clip-path:url(#clipPath1); stroke:black;" points=" 308 190 337 198 308 207 280 198 308 190" />
      <rect x="245" y="283" width="136" style="clip-path:url(#clipPath1); stroke:none;" height="20" />
      <path d="M245.5 283 C238.596435546875 283 233 287.4771423339844 233 293 C233 298.5228576660156 238.596435546875 303 245.5 303 L245.5 293 Z" style="clip-path:url(#clipPath1); stroke:none;" />
      <path d="M380.5 303 C387.403564453125 303 393 298.5228576660156 393 293 C393 287.4771423339844 387.403564453125 283 380.5 283 L380.5 293 Z" style="clip-path:url(#clipPath1); stroke:none;" />
      <rect x="242" y="280" width="136" style="clip-path:url(#clipPath1); fill:white; stroke:none;" height="20" />
      <path d="M242.5 280 C235.596435546875 280 230 284.4771423339844 230 290 C230 295.5228576660156 235.596435546875 300 242.5 300 L242.5 290 Z" style="fill:white; clip-path:url(#clipPath1); stroke:none;" />
      <path d="M377.5 300 C384.403564453125 300 390 295.5228576660156 390 290 C390 284.4771423339844 384.403564453125 280 377.5 280 L377.5 290 Z" style="fill:white; clip-path:url(#clipPath1); stroke:none;" />
      <line x1="242" x2="378" y1="280" style="clip-path:url(#clipPath1); fill:none; stroke:black;" y2="280" />
      <line x1="242" x2="378" y1="300" style="clip-path:url(#clipPath1); fill:none; stroke:black;" y2="300" />
      <path d="M242.5 280 C235.596435546875 280 230 284.4771423339844 230 290 C230 295.5228576660156 235.596435546875 300 242.5 300" style="fill:none; clip-path:url(#clipPath1); stroke:black;" />
      <path d="M377.5 300 C384.403564453125 300 390 295.5228576660156 390 290 C390 284.4771423339844 384.403564453125 280 377.5 280" style="fill:none; clip-path:url(#clipPath1); stroke:black;" />
    </g>
    <g style="font-family:sans-serif;">
      <text x="246" y="292" style="clip-path:url(#clipPath4); stroke:none;">SHow price on display
      </text>
    </g>
    <g style="fill:navy; stroke:navy;">
      <rect x="275" y="343" width="172" style="clip-path:url(#clipPath1); stroke:none;" height="20" />
      <path d="M275.5 343 C268.596435546875 343 263 347.4771423339844 263 353 C263 358.5228576660156 268.596435546875 363 275.5 363 L275.5 353 Z" style="clip-path:url(#clipPath1); stroke:none;" />
      <path d="M446.5 363 C453.403564453125 363 459 358.5228576660156 459 353 C459 347.4771423339844 453.403564453125 343 446.5 343 L446.5 353 Z" style="clip-path:url(#clipPath1); stroke:none;" />
      <rect x="272" y="340" width="172" style="clip-path:url(#clipPath1); fill:white; stroke:none;" height="20" />
      <path d="M272.5 340 C265.596435546875 340 260 344.4771423339844 260 350 C260 355.5228576660156 265.596435546875 360 272.5 360 L272.5 350 Z" style="fill:white; clip-path:url(#clipPath1); stroke:none;" />
      <path d="M443.5 360 C450.403564453125 360 456 355.5228576660156 456 350 C456 344.4771423339844 450.403564453125 340 443.5 340 L443.5 350 Z" style="fill:white; clip-path:url(#clipPath1); stroke:none;" />
      <line x1="272" x2="444" y1="340" style="clip-path:url(#clipPath1); fill:none; stroke:black;" y2="340" />
      <line x1="272" x2="444" y1="360" style="clip-path:url(#clipPath1); fill:none; stroke:black;" y2="360" />
      <path d="M272.5 340 C265.596435546875 340 260 344.4771423339844 260 350 C260 355.5228576660156 265.596435546875 360 272.5 360" style="fill:none; clip-path:url(#clipPath1); stroke:black;" />
      <path d="M443.5 360 C450.403564453125 360 456 355.5228576660156 456 350 C456 344.4771423339844 450.403564453125 340 443.5 340" style="fill:none; clip-path:url(#clipPath1); stroke:black;" />
    </g>
    <g style="font-family:sans-serif;">
      <text x="276" y="352" style="clip-path:url(#clipPath5); stroke:none;">Enter Money or press cancel
      </text>
    </g>
    <g style="fill:navy; stroke:navy;">
      <polygon style="clip-path:url(#clipPath1); stroke:none;" points=" 311 403 340 411 311 420 283 411 311 403" />
      <polygon style="fill:white; clip-path:url(#clipPath1); stroke:none;" points=" 308 400 337 408 308 417 280 408 308 400" />
      <polygon style="fill:none; clip-path:url(#clipPath1); stroke:black;" points=" 308 400 337 408 308 417 280 408 308 400" />
      <rect x="275" y="493" width="90" style="clip-path:url(#clipPath1); stroke:none;" height="20" />
      <path d="M275.5 493 C268.596435546875 493 263 497.4771423339844 263 503 C263 508.5228576660156 268.596435546875 513 275.5 513 L275.5 503 Z" style="clip-path:url(#clipPath1); stroke:none;" />
      <path d="M364.5 513 C371.403564453125 513 377 508.5228576660156 377 503 C377 497.4771423339844 371.403564453125 493 364.5 493 L364.5 503 Z" style="clip-path:url(#clipPath1); stroke:none;" />
      <rect x="272" y="490" width="90" style="clip-path:url(#clipPath1); fill:white; stroke:none;" height="20" />
      <path d="M272.5 490 C265.596435546875 490 260 494.4771423339844 260 500 C260 505.5228576660156 265.596435546875 510 272.5 510 L272.5 500 Z" style="fill:white; clip-path:url(#clipPath1); stroke:none;" />
      <path d="M361.5 510 C368.403564453125 510 374 505.5228576660156 374 500 C374 494.4771423339844 368.403564453125 490 361.5 490 L361.5 500 Z" style="fill:white; clip-path:url(#clipPath1); stroke:none;" />
      <line x1="272" x2="362" y1="490" style="clip-path:url(#clipPath1); fill:none; stroke:black;" y2="490" />
      <line x1="272" x2="362" y1="510" style="clip-path:url(#clipPath1); fill:none; stroke:black;" y2="510" />
      <path d="M272.5 490 C265.596435546875 490 260 494.4771423339844 260 500 C260 505.5228576660156 265.596435546875 510 272.5 510" style="fill:none; clip-path:url(#clipPath1); stroke:black;" />
      <path d="M361.5 510 C368.403564453125 510 374 505.5228576660156 374 500 C374 494.4771423339844 368.403564453125 490 361.5 490" style="fill:none; clip-path:url(#clipPath1); stroke:black;" />
    </g>
    <g style="font-family:sans-serif;">
      <text x="276" y="502" style="clip-path:url(#clipPath6); stroke:none;">Deposit snack
      </text>
    </g>
    <g>
      <circle style="clip-path:url(#clipPath7); stroke:none;" r="4.5" cx="317.5" cy="577.5" />
      <circle style="fill:none; clip-path:url(#clipPath7);" r="7.5" cx="317.5" cy="577.5" />
    </g>
    <g style="fill:navy; stroke:navy;">
      <rect x="285" y="443" width="92" style="clip-path:url(#clipPath1); stroke:none;" height="20" />
      <path d="M285.5 443 C278.596435546875 443 273 447.4771423339844 273 453 C273 458.5228576660156 278.596435546875 463 285.5 463 L285.5 453 Z" style="clip-path:url(#clipPath1); stroke:none;" />
      <path d="M376.5 463 C383.403564453125 463 389 458.5228576660156 389 453 C389 447.4771423339844 383.403564453125 443 376.5 443 L376.5 453 Z" style="clip-path:url(#clipPath1); stroke:none;" />
      <rect x="282" y="440" width="92" style="clip-path:url(#clipPath1); fill:white; stroke:none;" height="20" />
      <path d="M282.5 440 C275.596435546875 440 270 444.4771423339844 270 450 C270 455.5228576660156 275.596435546875 460 282.5 460 L282.5 450 Z" style="fill:white; clip-path:url(#clipPath1); stroke:none;" />
      <path d="M373.5 460 C380.403564453125 460 386 455.5228576660156 386 450 C386 444.4771423339844 380.403564453125 440 373.5 440 L373.5 450 Z" style="fill:white; clip-path:url(#clipPath1); stroke:none;" />
      <line x1="282" x2="374" y1="440" style="clip-path:url(#clipPath1); fill:none; stroke:black;" y2="440" />
      <line x1="282" x2="374" y1="460" style="clip-path:url(#clipPath1); fill:none; stroke:black;" y2="460" />
      <path d="M282.5 440 C275.596435546875 440 270 444.4771423339844 270 450 C270 455.5228576660156 275.596435546875 460 282.5 460" style="fill:none; clip-path:url(#clipPath1); stroke:black;" />
      <path d="M373.5 460 C380.403564453125 460 386 455.5228576660156 386 450 C386 444.4771423339844 380.403564453125 440 373.5 440" style="fill:none; clip-path:url(#clipPath1); stroke:black;" />
    </g>
    <g style="font-family:sans-serif;">
      <text x="286" y="452" style="clip-path:url(#clipPath8); stroke:none;">Return change
      </text>
    </g>
    <g style="fill:navy; stroke:navy;">
      <rect x="149" y="442" width="89" style="clip-path:url(#clipPath1); stroke:none;" height="20" />
      <path d="M149.5 442 C142.596435546875 442 137 446.4771423339844 137 452 C137 457.5228576660156 142.596435546875 462 149.5 462 L149.5 452 Z" style="clip-path:url(#clipPath1); stroke:none;" />
      <path d="M237.5 462 C244.403564453125 462 250 457.5228576660156 250 452 C250 446.4771423339844 244.403564453125 442 237.5 442 L237.5 452 Z" style="clip-path:url(#clipPath1); stroke:none;" />
      <rect x="146" y="439" width="89" style="clip-path:url(#clipPath1); fill:white; stroke:none;" height="20" />
      <path d="M146.5 439 C139.596435546875 439 134 443.4771423339844 134 449 C134 454.5228576660156 139.596435546875 459 146.5 459 L146.5 449 Z" style="fill:white; clip-path:url(#clipPath1); stroke:none;" />
      <path d="M234.5 459 C241.403564453125 459 247 454.5228576660156 247 449 C247 443.4771423339844 241.403564453125 439 234.5 439 L234.5 449 Z" style="fill:white; clip-path:url(#clipPath1); stroke:none;" />
      <line x1="146" x2="235" y1="439" style="clip-path:url(#clipPath1); fill:none; stroke:black;" y2="439" />
      <line x1="146" x2="235" y1="459" style="clip-path:url(#clipPath1); fill:none; stroke:black;" y2="459" />
      <path d="M146.5 439 C139.596435546875 439 134 443.4771423339844 134 449 C134 454.5228576660156 139.596435546875 459 146.5 459" style="fill:none; clip-path:url(#clipPath1); stroke:black;" />
      <path d="M234.5 459 C241.403564453125 459 247 454.5228576660156 247 449 C247 443.4771423339844 241.403564453125 439 234.5 439" style="fill:none; clip-path:url(#clipPath1); stroke:black;" />
    </g>
    <g style="font-family:sans-serif;">
      <text x="150" y="451" style="clip-path:url(#clipPath9); stroke:none;">Return money
      </text>
    </g>
    <g>
      <line x1="180" x2="180" y1="462" style="clip-path:url(#clipPath1); fill:none;" y2="580" />
      <line x1="180" x2="310" y1="580" style="clip-path:url(#clipPath1); fill:none;" y2="578" />
      <line x1="322" x2="322" y1="463" style="clip-path:url(#clipPath1); fill:none;" y2="490" />
      <line x1="320" x2="318" y1="513" style="clip-path:url(#clipPath1); fill:none;" y2="570" />
      <line x1="280" x2="180" y1="410" style="clip-path:url(#clipPath1); fill:none;" y2="410" />
      <line x1="180" x2="180" y1="410" style="clip-path:url(#clipPath1); fill:none;" y2="439" />
      <line x1="340" x2="490" y1="410" style="clip-path:url(#clipPath1); fill:none;" y2="410" />
      <line x1="490" x2="490" y1="410" style="clip-path:url(#clipPath1); fill:none;" y2="350" />
      <line x1="490" x2="459" y1="350" style="clip-path:url(#clipPath1); fill:none;" y2="350" />
      <line x1="310" x2="310" y1="420" style="clip-path:url(#clipPath1); fill:none;" y2="440" />
      <line x1="310" x2="310" y1="363" style="clip-path:url(#clipPath1); fill:none;" y2="400" />
      <line x1="311" x2="311" y1="303" style="clip-path:url(#clipPath1); fill:none;" y2="340" />
      <line x1="340" x2="480" y1="200" style="clip-path:url(#clipPath1); fill:none;" y2="200" />
      <line x1="480" x2="480" y1="200" style="clip-path:url(#clipPath1); fill:none;" y2="120" />
      <line x1="480" x2="366" y1="120" style="clip-path:url(#clipPath1); fill:none;" y2="120" />
      <line x1="310" x2="310" y1="210" style="clip-path:url(#clipPath1); fill:none;" y2="280" />
      <line x1="310" x2="310" y1="133" style="clip-path:url(#clipPath1); fill:none;" y2="190" />
      <line x1="310" x2="310" y1="60" style="clip-path:url(#clipPath1); fill:none;" y2="110" />
      <line x1="310" x2="298" y1="578" style="clip-path:url(#clipPath1); fill:none;" y2="573" />
      <line x1="310" x2="298" y1="578" style="clip-path:url(#clipPath1); fill:none;" y2="583" />
      <line x1="322" x2="327" y1="490" style="clip-path:url(#clipPath1); fill:none;" y2="478" />
      <line x1="322" x2="317" y1="490" style="clip-path:url(#clipPath1); fill:none;" y2="478" />
      <line x1="318" x2="323" y1="570" style="clip-path:url(#clipPath1); fill:none;" y2="558" />
      <line x1="318" x2="313" y1="570" style="clip-path:url(#clipPath1); fill:none;" y2="558" />
      <line x1="180" x2="185" y1="439" style="clip-path:url(#clipPath1); fill:none;" y2="427" />
      <line x1="180" x2="175" y1="439" style="clip-path:url(#clipPath1); fill:none;" y2="427" />
      <text x="183" y="432" style="clip-path:url(#clipPath1); font-family:sans-serif; stroke:none;">[Cancel pressed]
      </text>
      <line x1="459" x2="471" y1="350" style="clip-path:url(#clipPath1); fill:none; font-family:sans-serif;" y2="355" />
      <line x1="459" x2="471" y1="350" style="clip-path:url(#clipPath1); fill:none; font-family:sans-serif;" y2="345" />
      <text x="504" y="384" style="clip-path:url(#clipPath1); font-family:sans-serif; stroke:none;">[entered money not sufficient]
      </text>
      <line x1="310" x2="315" y1="440" style="clip-path:url(#clipPath1); fill:none; font-family:sans-serif;" y2="428" />
      <line x1="310" x2="305" y1="440" style="clip-path:url(#clipPath1); fill:none; font-family:sans-serif;" y2="428" />
      <line x1="310" x2="315" y1="400" style="clip-path:url(#clipPath1); fill:none; font-family:sans-serif;" y2="388" />
      <line x1="310" x2="305" y1="400" style="clip-path:url(#clipPath1); fill:none; font-family:sans-serif;" y2="388" />
      <line x1="311" x2="316" y1="340" style="clip-path:url(#clipPath1); fill:none; font-family:sans-serif;" y2="328" />
      <line x1="311" x2="306" y1="340" style="clip-path:url(#clipPath1); fill:none; font-family:sans-serif;" y2="328" />
      <line x1="366" x2="378" y1="120" style="clip-path:url(#clipPath1); fill:none; font-family:sans-serif;" y2="125" />
      <line x1="366" x2="378" y1="120" style="clip-path:url(#clipPath1); fill:none; font-family:sans-serif;" y2="115" />
      <text x="494" y="164" style="clip-path:url(#clipPath1); font-family:sans-serif; stroke:none;">[snack tray is empty]
      </text>
      <line x1="310" x2="315" y1="280" style="clip-path:url(#clipPath1); fill:none; font-family:sans-serif;" y2="268" />
      <line x1="310" x2="305" y1="280" style="clip-path:url(#clipPath1); fill:none; font-family:sans-serif;" y2="268" />
      <text x="324" y="249" style="clip-path:url(#clipPath1); font-family:sans-serif; stroke:none;">[snack tray is not empty]
      </text>
      <line x1="310" x2="315" y1="190" style="clip-path:url(#clipPath1); fill:none; font-family:sans-serif;" y2="178" />
      <line x1="310" x2="305" y1="190" style="clip-path:url(#clipPath1); fill:none; font-family:sans-serif;" y2="178" />
      <line x1="310" x2="315" y1="110" style="clip-path:url(#clipPath1); fill:none; font-family:sans-serif;" y2="98" />
      <line x1="310" x2="305" y1="110" style="clip-path:url(#clipPath1); fill:none; font-family:sans-serif;" y2="98" />
      <polygon points=" 13 333 207 333 222 348 222 371 13 371" style="fill:navy; clip-path:url(#clipPath1); font-family:sans-serif; stroke:none;" />
      <polygon points=" 10 330 204 330 219 345 219 368 10 368" style="fill:white; clip-path:url(#clipPath1); font-family:sans-serif; stroke:none;" />
      <line x1="10" x2="204" y1="330" style="clip-path:url(#clipPath1); fill:none; font-family:sans-serif;" y2="330" />
      <line x1="204" x2="219" y1="330" style="clip-path:url(#clipPath1); fill:none; font-family:sans-serif;" y2="345" />
      <line x1="219" x2="219" y1="345" style="clip-path:url(#clipPath1); fill:none; font-family:sans-serif;" y2="368" />
      <line x1="219" x2="10" y1="368" style="clip-path:url(#clipPath1); fill:none; font-family:sans-serif;" y2="368" />
      <line x1="10" x2="10" y1="368" style="clip-path:url(#clipPath1); fill:none; font-family:sans-serif;" y2="330" />
      <line x1="204" x2="204" y1="330" style="clip-path:url(#clipPath1); fill:none; font-family:sans-serif;" y2="345" />
      <line x1="204" x2="219" y1="345" style="clip-path:url(#clipPath1); fill:none; font-family:sans-serif;" y2="345" />
    </g>
    <g style="font-family:sans-serif;">
      <text x="18" y="346" style="clip-path:url(#clipPath10); stroke:none;">Cancel can be pressed anytime
      </text>
    </g>
  </g>
</svg>
