<?xml version="1.0" encoding="UTF-8"?>

<!DOCTYPE svg PUBLIC '-//W3C//DTD SVG 20001102//EN' 'http://www.w3.org/TR/2000/CR-SVG-20001102/DTD/svg-20001102.dtd'>
<svg style="fill-opacity:1; color-rendering:auto; color-interpolation:sRGB; text-rendering:auto; stroke:black; stroke-linecap:square; stroke-miterlimit:10; shape-rendering:auto; stroke-opacity:1; fill:black; stroke-dasharray:none; font-weight:normal; stroke-width:1; font-family:&apos;sansserif&apos;; font-style:normal; stroke-linejoin:miter; font-size:12; stroke-dashoffset:0; image-rendering:auto;" width="857" height="487">
  <!--Generated by the Batik Graphics2D SVG Generator-->
  <defs id="genericDefs" />
  <g>
    <defs id="defs1">
      <clipPath clipPathUnits="userSpaceOnUse" id="clipPath1">
        <path d="M0 0 L857 0 L857 487 L0 487 L0 0 Z" />
      </clipPath>
      <clipPath clipPathUnits="userSpaceOnUse" id="clipPath2">
        <path d="M280 50 L280 214 L467 214 L467 50 Z" />
      </clipPath>
      <clipPath clipPathUnits="userSpaceOnUse" id="clipPath3">
        <path d="M281 51 L281 67 L467 67 L467 51 Z" />
      </clipPath>
      <clipPath clipPathUnits="userSpaceOnUse" id="clipPath4">
        <path d="M280 79 L280 158 L467 158 L467 79 Z" />
      </clipPath>
      <clipPath clipPathUnits="userSpaceOnUse" id="clipPath5">
        <path d="M282 81 L282 157 L466 157 L466 81 Z" />
      </clipPath>
      <clipPath clipPathUnits="userSpaceOnUse" id="clipPath6">
        <path d="M280 170 L280 204 L467 204 L467 170 Z" />
      </clipPath>
      <clipPath clipPathUnits="userSpaceOnUse" id="clipPath7">
        <path d="M282 172 L282 203 L466 203 L466 172 Z" />
      </clipPath>
      <clipPath clipPathUnits="userSpaceOnUse" id="clipPath8">
        <path d="M291 393 L291 474 L414 474 L414 393 Z" />
      </clipPath>
      <clipPath clipPathUnits="userSpaceOnUse" id="clipPath9">
        <path d="M292 394 L292 410 L414 410 L414 394 Z" />
      </clipPath>
      <clipPath clipPathUnits="userSpaceOnUse" id="clipPath10">
        <path d="M291 445 L291 464 L414 464 L414 445 Z" />
      </clipPath>
      <clipPath clipPathUnits="userSpaceOnUse" id="clipPath11">
        <path d="M293 447 L293 463 L413 463 L413 447 Z" />
      </clipPath>
      <clipPath clipPathUnits="userSpaceOnUse" id="clipPath12">
        <path d="M535 313 L535 409 L650 409 L650 313 Z" />
      </clipPath>
      <clipPath clipPathUnits="userSpaceOnUse" id="clipPath13">
        <path d="M536 314 L536 330 L650 330 L650 314 Z" />
      </clipPath>
      <clipPath clipPathUnits="userSpaceOnUse" id="clipPath14">
        <path d="M535 365 L535 399 L650 399 L650 365 Z" />
      </clipPath>
      <clipPath clipPathUnits="userSpaceOnUse" id="clipPath15">
        <path d="M537 367 L537 398 L649 398 L649 367 Z" />
      </clipPath>
      <clipPath clipPathUnits="userSpaceOnUse" id="clipPath16">
        <path d="M123 295 L123 376 L256 376 L256 295 Z" />
      </clipPath>
      <clipPath clipPathUnits="userSpaceOnUse" id="clipPath17">
        <path d="M124 296 L124 312 L256 312 L256 296 Z" />
      </clipPath>
      <clipPath clipPathUnits="userSpaceOnUse" id="clipPath18">
        <path d="M123 347 L123 366 L256 366 L256 347 Z" />
      </clipPath>
      <clipPath clipPathUnits="userSpaceOnUse" id="clipPath19">
        <path d="M125 349 L125 365 L255 365 L255 349 Z" />
      </clipPath>
      <clipPath clipPathUnits="userSpaceOnUse" id="clipPath20">
        <path d="M740 60 L740 164 L844 164 L844 60 Z" />
      </clipPath>
      <clipPath clipPathUnits="userSpaceOnUse" id="clipPath21">
        <path d="M741 61 L741 77 L844 77 L844 61 Z" />
      </clipPath>
      <clipPath clipPathUnits="userSpaceOnUse" id="clipPath22">
        <path d="M740 89 L740 123 L844 123 L844 89 Z" />
      </clipPath>
      <clipPath clipPathUnits="userSpaceOnUse" id="clipPath23">
        <path d="M742 91 L742 122 L843 122 L843 91 Z" />
      </clipPath>
      <clipPath clipPathUnits="userSpaceOnUse" id="clipPath24">
        <path d="M740 135 L740 154 L844 154 L844 135 Z" />
      </clipPath>
      <clipPath clipPathUnits="userSpaceOnUse" id="clipPath25">
        <path d="M742 137 L742 153 L843 153 L843 137 Z" />
      </clipPath>
      <clipPath clipPathUnits="userSpaceOnUse" id="clipPath26">
        <path d="M523 73 L523 207 L690 207 L690 73 Z" />
      </clipPath>
      <clipPath clipPathUnits="userSpaceOnUse" id="clipPath27">
        <path d="M524 74 L524 90 L690 90 L690 74 Z" />
      </clipPath>
      <clipPath clipPathUnits="userSpaceOnUse" id="clipPath28">
        <path d="M523 102 L523 136 L690 136 L690 102 Z" />
      </clipPath>
      <clipPath clipPathUnits="userSpaceOnUse" id="clipPath29">
        <path d="M525 104 L525 135 L689 135 L689 104 Z" />
      </clipPath>
      <clipPath clipPathUnits="userSpaceOnUse" id="clipPath30">
        <path d="M523 148 L523 197 L690 197 L690 148 Z" />
      </clipPath>
      <clipPath clipPathUnits="userSpaceOnUse" id="clipPath31">
        <path d="M525 150 L525 196 L689 196 L689 150 Z" />
      </clipPath>
      <clipPath clipPathUnits="userSpaceOnUse" id="clipPath32">
        <path d="M70 90 L70 201 L198 201 L198 90 Z" />
      </clipPath>
      <clipPath clipPathUnits="userSpaceOnUse" id="clipPath33">
        <path d="M71 91 L71 107 L198 107 L198 91 Z" />
      </clipPath>
      <clipPath clipPathUnits="userSpaceOnUse" id="clipPath34">
        <path d="M70 142 L70 191 L198 191 L198 142 Z" />
      </clipPath>
      <clipPath clipPathUnits="userSpaceOnUse" id="clipPath35">
        <path d="M72 144 L72 190 L197 190 L197 144 Z" />
      </clipPath>
    </defs>
    <g style="fill:blue; stroke:blue;">
      <line x1="692" x2="740" y1="119" style="clip-path:url(#clipPath1); fill:none;" y2="119" />
      <line x1="280" x2="200" y1="146" style="clip-path:url(#clipPath1); fill:none; stroke:rgb(0,0,130);" y2="146" />
      <line x1="469" x2="523" y1="141" style="clip-path:url(#clipPath1); fill:none; stroke:rgb(0,0,130);" y2="141" />
      <line x1="412" x2="593" y1="216" style="clip-path:url(#clipPath1); fill:none; stroke:rgb(0,0,130);" y2="313" />
      <line x1="356" x2="356" y1="216" style="clip-path:url(#clipPath1); fill:none; stroke:rgb(0,0,130);" y2="393" />
      <line x1="318" x2="190" y1="216" style="clip-path:url(#clipPath1); fill:none; stroke:rgb(0,0,130);" y2="295" />
      <line x1="740" x2="728" y1="119" style="clip-path:url(#clipPath1); fill:none;" y2="114" />
      <line x1="740" x2="728" y1="119" style="clip-path:url(#clipPath1); fill:none;" y2="124" />
      <text x="708" y="112" style="clip-path:url(#clipPath1); font-family:sans-serif; stroke:none;">0..1
      </text>
      <polygon points=" 280 146 272 150 264 146 272 142" style="fill:rgb(0,0,130); clip-path:url(#clipPath1); font-family:sans-serif; stroke:none;" />
      <polygon points=" 280 146 272 150 264 146 272 142" style="fill:none; clip-path:url(#clipPath1); font-family:sans-serif; stroke:rgb(0,0,130);" />
      <line x1="272" x2="280" y1="142" style="clip-path:url(#clipPath1); fill:none; font-family:sans-serif; stroke:rgb(0,0,130);" y2="146" />
      <line x1="200" x2="212" y1="146" style="clip-path:url(#clipPath1); fill:none; font-family:sans-serif; stroke:rgb(0,0,130);" y2="151" />
      <line x1="200" x2="212" y1="146" style="clip-path:url(#clipPath1); fill:none; font-family:sans-serif; stroke:rgb(0,0,130);" y2="141" />
      <polygon points=" 469 141 477 137 485 141 477 145" style="fill:rgb(0,0,130); clip-path:url(#clipPath1); font-family:sans-serif; stroke:none;" />
      <polygon points=" 469 141 477 137 485 141 477 145" style="fill:none; clip-path:url(#clipPath1); font-family:sans-serif; stroke:rgb(0,0,130);" />
      <line x1="477" x2="469" y1="145" style="clip-path:url(#clipPath1); fill:none; font-family:sans-serif; stroke:rgb(0,0,130);" y2="141" />
      <line x1="523" x2="511" y1="141" style="clip-path:url(#clipPath1); fill:none; font-family:sans-serif; stroke:rgb(0,0,130);" y2="136" />
      <line x1="523" x2="511" y1="141" style="clip-path:url(#clipPath1); fill:none; font-family:sans-serif; stroke:rgb(0,0,130);" y2="146" />
      <polygon points=" 412 216 421 216 426 224 417 223" style="fill:rgb(0,0,130); clip-path:url(#clipPath1); font-family:sans-serif; stroke:none;" />
      <polygon points=" 412 216 421 216 426 224 417 223" style="fill:none; clip-path:url(#clipPath1); font-family:sans-serif; stroke:rgb(0,0,130);" />
      <line x1="417" x2="412" y1="223" style="clip-path:url(#clipPath1); fill:none; font-family:sans-serif; stroke:rgb(0,0,130);" y2="216" />
      <line x1="593" x2="585" y1="313" style="clip-path:url(#clipPath1); fill:none; font-family:sans-serif; stroke:rgb(0,0,130);" y2="303" />
      <line x1="593" x2="580" y1="313" style="clip-path:url(#clipPath1); fill:none; font-family:sans-serif; stroke:rgb(0,0,130);" y2="312" />
      <polygon points=" 356 216 360 224 356 232 352 224" style="fill:rgb(0,0,130); clip-path:url(#clipPath1); font-family:sans-serif; stroke:none;" />
      <polygon points=" 356 216 360 224 356 232 352 224" style="fill:none; clip-path:url(#clipPath1); font-family:sans-serif; stroke:rgb(0,0,130);" />
      <line x1="352" x2="356" y1="224" style="clip-path:url(#clipPath1); fill:none; font-family:sans-serif; stroke:rgb(0,0,130);" y2="216" />
      <line x1="356" x2="361" y1="393" style="clip-path:url(#clipPath1); fill:none; font-family:sans-serif; stroke:rgb(0,0,130);" y2="381" />
      <line x1="356" x2="351" y1="393" style="clip-path:url(#clipPath1); fill:none; font-family:sans-serif; stroke:rgb(0,0,130);" y2="381" />
      <polygon points=" 318 216 313 224 304 224 309 217" style="fill:rgb(0,0,130); clip-path:url(#clipPath1); font-family:sans-serif; stroke:none;" />
      <polygon points=" 318 216 313 224 304 224 309 217" style="fill:none; clip-path:url(#clipPath1); font-family:sans-serif; stroke:rgb(0,0,130);" />
      <line x1="309" x2="318" y1="217" style="clip-path:url(#clipPath1); fill:none; font-family:sans-serif; stroke:rgb(0,0,130);" y2="216" />
      <line x1="190" x2="203" y1="295" style="clip-path:url(#clipPath1); fill:none; font-family:sans-serif; stroke:rgb(0,0,130);" y2="293" />
      <line x1="190" x2="198" y1="295" style="clip-path:url(#clipPath1); fill:none; font-family:sans-serif; stroke:rgb(0,0,130);" y2="284" />
      <rect x="283" y="53" width="186" style="clip-path:url(#clipPath1); fill:navy; font-family:sans-serif; stroke:none;" height="163" />
      <rect x="280" y="50" width="186" style="clip-path:url(#clipPath1); fill:white; font-family:sans-serif; stroke:none;" height="163" />
      <rect x="280" y="50" width="186" style="clip-path:url(#clipPath1); fill:none; font-family:sans-serif; stroke:black;" height="163" />
    </g>
    <g style="font-weight:bold; font-family:sans-serif;">
      <text x="324" y="63" style="clip-path:url(#clipPath3); stroke:none;">CSnackMachine
      </text>
    </g>
    <g style="font-family:sans-serif;">
      <line x1="280" x2="466" y1="72" style="clip-path:url(#clipPath2); fill:none;" y2="72" />
    </g>
    <g style="font-family:sans-serif;">
      <text x="286" y="93" style="clip-path:url(#clipPath5); stroke:none;">-m_tray:CTray
      </text>
      <text x="286" y="108" style="clip-path:url(#clipPath5); stroke:none;">-m_display:CDisplay
      </text>
      <text x="286" y="123" style="clip-path:url(#clipPath5); stroke:none;">-m_keyboard:CKeyboard
      </text>
      <text x="286" y="138" style="clip-path:url(#clipPath5); stroke:none;">-m_snackArray:CSnackArray
      </text>
      <text x="286" y="153" style="clip-path:url(#clipPath5); stroke:none;">-m_paymentSlot:CPaymentSlot
      </text>
    </g>
    <g style="font-family:sans-serif;">
      <line x1="280" x2="466" y1="163" style="clip-path:url(#clipPath2); fill:none;" y2="163" />
    </g>
    <g style="font-family:sans-serif;">
      <text x="286" y="184" style="clip-path:url(#clipPath7); stroke:none;">-checkPayment:void
      </text>
      <text x="286" y="199" style="clip-path:url(#clipPath7); stroke:none;">+run:void
      </text>
    </g>
    <g style="fill:navy; font-family:sans-serif; stroke:navy;">
      <rect x="294" y="396" width="122" style="clip-path:url(#clipPath1); stroke:none;" height="80" />
      <rect x="291" y="393" width="122" style="clip-path:url(#clipPath1); fill:white; stroke:none;" height="80" />
      <rect x="291" y="393" width="122" style="clip-path:url(#clipPath1); fill:none; stroke:black;" height="80" />
    </g>
    <g style="font-weight:bold; font-family:sans-serif;">
      <text x="324" y="406" style="clip-path:url(#clipPath9); stroke:none;">CDisplay
      </text>
    </g>
    <g style="font-family:sans-serif;">
      <line x1="291" x2="413" y1="415" style="clip-path:url(#clipPath8); fill:none;" y2="415" />
      <line x1="291" x2="413" y1="438" style="clip-path:url(#clipPath8); fill:none;" y2="438" />
    </g>
    <g style="font-family:sans-serif;">
      <text x="297" y="459" style="clip-path:url(#clipPath11); stroke:none;">+displayString:void
      </text>
    </g>
    <g style="fill:navy; font-family:sans-serif; stroke:navy;">
      <rect x="538" y="316" width="114" style="clip-path:url(#clipPath1); stroke:none;" height="95" />
      <rect x="535" y="313" width="114" style="clip-path:url(#clipPath1); fill:white; stroke:none;" height="95" />
      <rect x="535" y="313" width="114" style="clip-path:url(#clipPath1); fill:none; stroke:black;" height="95" />
    </g>
    <g style="font-weight:bold; font-family:sans-serif;">
      <text x="558" y="326" style="clip-path:url(#clipPath13); stroke:none;">CKeyboard
      </text>
    </g>
    <g style="font-family:sans-serif;">
      <line x1="535" x2="649" y1="335" style="clip-path:url(#clipPath12); fill:none;" y2="335" />
      <line x1="535" x2="649" y1="358" style="clip-path:url(#clipPath12); fill:none;" y2="358" />
    </g>
    <g style="font-family:sans-serif;">
      <text x="541" y="379" style="clip-path:url(#clipPath15); stroke:none;">+getCancel:void
      </text>
      <text x="541" y="394" style="clip-path:url(#clipPath15); stroke:none;">+getNumber:void
      </text>
    </g>
    <g style="fill:navy; font-family:sans-serif; stroke:navy;">
      <rect x="126" y="298" width="132" style="clip-path:url(#clipPath1); stroke:none;" height="80" />
      <rect x="123" y="295" width="132" style="clip-path:url(#clipPath1); fill:white; stroke:none;" height="80" />
      <rect x="123" y="295" width="132" style="clip-path:url(#clipPath1); fill:none; stroke:black;" height="80" />
    </g>
    <g style="font-weight:bold; font-family:sans-serif;">
      <text x="171" y="308" style="clip-path:url(#clipPath17); stroke:none;">CTray
      </text>
    </g>
    <g style="font-family:sans-serif;">
      <line x1="123" x2="255" y1="317" style="clip-path:url(#clipPath16); fill:none;" y2="317" />
      <line x1="123" x2="255" y1="340" style="clip-path:url(#clipPath16); fill:none;" y2="340" />
    </g>
    <g style="font-family:sans-serif;">
      <text x="129" y="361" style="clip-path:url(#clipPath19); stroke:none;">+getOpenStatus:void
      </text>
    </g>
    <g style="fill:navy; font-family:sans-serif; stroke:navy;">
      <rect x="743" y="63" width="103" style="clip-path:url(#clipPath1); stroke:none;" height="103" />
      <rect x="740" y="60" width="103" style="clip-path:url(#clipPath1); fill:white; stroke:none;" height="103" />
      <rect x="740" y="60" width="103" style="clip-path:url(#clipPath1); fill:none; stroke:black;" height="103" />
    </g>
    <g style="font-weight:bold; font-family:sans-serif;">
      <text x="769" y="73" style="clip-path:url(#clipPath21); stroke:none;">CSnack
      </text>
    </g>
    <g style="font-family:sans-serif;">
      <line x1="740" x2="843" y1="82" style="clip-path:url(#clipPath20); fill:none;" y2="82" />
    </g>
    <g style="font-family:sans-serif;">
      <text x="746" y="103" style="clip-path:url(#clipPath23); stroke:none;">-m_price:float
      </text>
      <text x="746" y="118" style="clip-path:url(#clipPath23); stroke:none;">-m_name:string
      </text>
    </g>
    <g style="font-family:sans-serif;">
      <line x1="740" x2="843" y1="128" style="clip-path:url(#clipPath20); fill:none;" y2="128" />
    </g>
    <g style="font-family:sans-serif;">
      <text x="746" y="149" style="clip-path:url(#clipPath25); stroke:none;">+getPrice:void
      </text>
    </g>
    <g style="fill:navy; font-family:sans-serif; stroke:navy;">
      <rect x="526" y="76" width="166" style="clip-path:url(#clipPath1); stroke:none;" height="133" />
      <rect x="523" y="73" width="166" style="clip-path:url(#clipPath1); fill:white; stroke:none;" height="133" />
      <rect x="523" y="73" width="166" style="clip-path:url(#clipPath1); fill:none; stroke:black;" height="133" />
    </g>
    <g style="font-weight:bold; font-family:sans-serif;">
      <text x="566" y="86" style="clip-path:url(#clipPath27); stroke:none;">CSnackArray
      </text>
    </g>
    <g style="font-family:sans-serif;">
      <line x1="523" x2="689" y1="95" style="clip-path:url(#clipPath26); fill:none;" y2="95" />
    </g>
    <g style="font-family:sans-serif;">
      <text x="529" y="116" style="clip-path:url(#clipPath29); stroke:none;">-m_snack:CSnack*
      </text>
      <text x="529" y="131" style="clip-path:url(#clipPath29); stroke:none;">-m_number:int
      </text>
    </g>
    <g style="font-family:sans-serif;">
      <line x1="523" x2="689" y1="141" style="clip-path:url(#clipPath26); fill:none;" y2="141" />
    </g>
    <g style="font-family:sans-serif;">
      <text x="529" y="162" style="clip-path:url(#clipPath31); stroke:none;">+deliverSnack:void
      </text>
      <text x="529" y="177" style="clip-path:url(#clipPath31); stroke:none;">+getNumberOfSnacks:void
      </text>
      <text x="529" y="192" style="clip-path:url(#clipPath31); stroke:none;">+getPrice:float
      </text>
    </g>
    <g style="fill:navy; font-family:sans-serif; stroke:navy;">
      <rect x="73" y="93" width="127" style="clip-path:url(#clipPath1); stroke:none;" height="110" />
      <rect x="70" y="90" width="127" style="clip-path:url(#clipPath1); fill:white; stroke:none;" height="110" />
      <rect x="70" y="90" width="127" style="clip-path:url(#clipPath1); fill:none; stroke:black;" height="110" />
    </g>
    <g style="font-weight:bold; font-family:sans-serif;">
      <text x="90" y="103" style="clip-path:url(#clipPath33); stroke:none;">CPaymentSlot
      </text>
    </g>
    <g style="font-family:sans-serif;">
      <line x1="70" x2="197" y1="112" style="clip-path:url(#clipPath32); fill:none;" y2="112" />
      <line x1="70" x2="197" y1="135" style="clip-path:url(#clipPath32); fill:none;" y2="135" />
    </g>
    <g style="font-family:sans-serif;">
      <text x="76" y="156" style="clip-path:url(#clipPath35); stroke:none;">+returnChange:void
      </text>
      <text x="76" y="171" style="clip-path:url(#clipPath35); stroke:none;">+returnMoney:void
      </text>
      <text x="76" y="186" style="clip-path:url(#clipPath35); stroke:none;">+enterMoney:void
      </text>
    </g>
  </g>
</svg>
