<?xml version="1.0" encoding="UTF-8"?>

<!DOCTYPE svg PUBLIC '-//W3C//DTD SVG 20001102//EN' 'http://www.w3.org/TR/2000/CR-SVG-20001102/DTD/svg-20001102.dtd'>
<svg style="fill-opacity:1; color-rendering:auto; color-interpolation:sRGB; text-rendering:auto; stroke:black; stroke-linecap:square; stroke-miterlimit:10; shape-rendering:auto; stroke-opacity:1; fill:black; stroke-dasharray:none; font-weight:normal; stroke-width:1; font-family:&apos;sansserif&apos;; font-style:normal; stroke-linejoin:miter; font-size:12; stroke-dashoffset:0; image-rendering:auto;" width="364" height="173">
  <!--Generated by the Batik Graphics2D SVG Generator-->
  <defs id="genericDefs" />
  <g>
    <defs id="defs1">
      <clipPath clipPathUnits="userSpaceOnUse" id="clipPath1">
        <path d="M0 0 L364 0 L364 173 L0 173 L0 0 Z" />
      </clipPath>
      <clipPath clipPathUnits="userSpaceOnUse" id="clipPath2">
        <path d="M10 10 L10 163 L134 163 L134 10 Z" />
      </clipPath>
      <clipPath clipPathUnits="userSpaceOnUse" id="clipPath3">
        <path d="M10 10 L10 27 L134 27 L134 10 Z" />
      </clipPath>
      <clipPath clipPathUnits="userSpaceOnUse" id="clipPath4">
        <path d="M10 10 L10 27 L86 27 L86 10 Z" />
      </clipPath>
      <clipPath clipPathUnits="userSpaceOnUse" id="clipPath5">
        <path d="M85 10 L85 26 L134 26 L134 10 Z" />
      </clipPath>
      <clipPath clipPathUnits="userSpaceOnUse" id="clipPath6">
        <path d="M10 26 L10 163 L134 163 L134 26 Z" />
      </clipPath>
      <clipPath clipPathUnits="userSpaceOnUse" id="clipPath7">
        <path d="M10 26 L10 160 L121 160 L121 26 Z" />
      </clipPath>
      <clipPath clipPathUnits="userSpaceOnUse" id="clipPath8">
        <path d="M11 27 L11 43 L121 43 L121 27 Z" />
      </clipPath>
      <clipPath clipPathUnits="userSpaceOnUse" id="clipPath9">
        <path d="M10 55 L10 89 L121 89 L121 55 Z" />
      </clipPath>
      <clipPath clipPathUnits="userSpaceOnUse" id="clipPath10">
        <path d="M12 57 L12 88 L120 88 L120 57 Z" />
      </clipPath>
      <clipPath clipPathUnits="userSpaceOnUse" id="clipPath11">
        <path d="M10 101 L10 150 L121 150 L121 101 Z" />
      </clipPath>
      <clipPath clipPathUnits="userSpaceOnUse" id="clipPath12">
        <path d="M12 103 L12 149 L120 149 L120 103 Z" />
      </clipPath>
      <clipPath clipPathUnits="userSpaceOnUse" id="clipPath13">
        <path d="M153 10 L153 133 L354 133 L354 10 Z" />
      </clipPath>
      <clipPath clipPathUnits="userSpaceOnUse" id="clipPath14">
        <path d="M153 10 L153 42 L354 42 L354 10 Z" />
      </clipPath>
      <clipPath clipPathUnits="userSpaceOnUse" id="clipPath15">
        <path d="M153 10 L153 42 L174 42 L174 10 Z" />
      </clipPath>
      <clipPath clipPathUnits="userSpaceOnUse" id="clipPath16">
        <path d="M173 10 L173 41 L354 41 L354 10 Z" />
      </clipPath>
      <clipPath clipPathUnits="userSpaceOnUse" id="clipPath17">
        <path d="M153 41 L153 133 L354 133 L354 41 Z" />
      </clipPath>
      <clipPath clipPathUnits="userSpaceOnUse" id="clipPath18">
        <path d="M153 41 L153 130 L341 130 L341 41 Z" />
      </clipPath>
      <clipPath clipPathUnits="userSpaceOnUse" id="clipPath19">
        <path d="M154 42 L154 58 L341 58 L341 42 Z" />
      </clipPath>
      <clipPath clipPathUnits="userSpaceOnUse" id="clipPath20">
        <path d="M153 70 L153 89 L341 89 L341 70 Z" />
      </clipPath>
      <clipPath clipPathUnits="userSpaceOnUse" id="clipPath21">
        <path d="M155 72 L155 88 L340 88 L340 72 Z" />
      </clipPath>
      <clipPath clipPathUnits="userSpaceOnUse" id="clipPath22">
        <path d="M153 101 L153 120 L341 120 L341 101 Z" />
      </clipPath>
      <clipPath clipPathUnits="userSpaceOnUse" id="clipPath23">
        <path d="M155 103 L155 119 L340 119 L340 103 Z" />
      </clipPath>
    </defs>
    <g style="fill:white; stroke:white;">
      <rect x="10" y="20" width="75" style="clip-path:url(#clipPath4); stroke:none;" height="6" />
      <line x1="10" x2="10" y1="20" style="clip-path:url(#clipPath4); fill:none; stroke:black;" y2="26" />
      <line x1="85" x2="85" y1="20" style="clip-path:url(#clipPath4); fill:none; stroke:black;" y2="26" />
      <line x1="10" x2="85" y1="20" style="clip-path:url(#clipPath4); fill:none; stroke:black;" y2="20" />
    </g>
    <g style="fill:white; stroke:white;">
      <rect x="85" y="10" width="48" style="clip-path:url(#clipPath5); stroke:none;" height="15" />
      <line x1="85" x2="95" y1="10" style="clip-path:url(#clipPath5); fill:none; stroke:black;" y2="10" />
      <line x1="100" x2="110" y1="10" style="clip-path:url(#clipPath5); fill:none; stroke:black;" y2="10" />
      <line x1="115" x2="125" y1="10" style="clip-path:url(#clipPath5); fill:none; stroke:black;" y2="10" />
      <line x1="130" x2="133" y1="10" style="clip-path:url(#clipPath5); fill:none; stroke:black;" y2="10" />
      <line x1="133" x2="133" y1="11" style="clip-path:url(#clipPath5); fill:none; stroke:black;" y2="21" />
      <line x1="132" x2="122" y1="25" style="clip-path:url(#clipPath5); fill:none; stroke:black;" y2="25" />
      <line x1="117" x2="107" y1="25" style="clip-path:url(#clipPath5); fill:none; stroke:black;" y2="25" />
      <line x1="102" x2="92" y1="25" style="clip-path:url(#clipPath5); fill:none; stroke:black;" y2="25" />
      <line x1="87" x2="85" y1="25" style="clip-path:url(#clipPath5); fill:none; stroke:black;" y2="25" />
      <line x1="85" x2="85" y1="24" style="clip-path:url(#clipPath5); fill:none; stroke:black;" y2="14" />
    </g>
    <g>
      <text x="89" y="22" style="clip-path:url(#clipPath5); stroke:none;">T:class
      </text>
    </g>
    <g style="fill:navy; stroke:navy;">
      <rect x="13" y="29" width="111" style="clip-path:url(#clipPath6); stroke:none;" height="134" />
      <rect x="10" y="26" width="111" style="clip-path:url(#clipPath6); fill:white; stroke:none;" height="134" />
      <line x1="10" x2="10" y1="26" style="clip-path:url(#clipPath6); fill:none; stroke:black;" y2="160" />
      <line x1="121" x2="121" y1="26" style="clip-path:url(#clipPath6); fill:none; stroke:black;" y2="160" />
      <line x1="10" x2="121" y1="160" style="clip-path:url(#clipPath6); fill:none; stroke:black;" y2="160" />
    </g>
    <g style="font-weight:bold; font-family:sans-serif;">
      <text x="30" y="39" style="clip-path:url(#clipPath8); stroke:none;">Coordinate
      </text>
    </g>
    <g>
      <line x1="10" x2="120" y1="48" style="clip-path:url(#clipPath7); fill:none;" y2="48" />
    </g>
    <g style="font-family:sans-serif;">
      <text x="16" y="69" style="clip-path:url(#clipPath10); stroke:none;">-m_x:T
      </text>
      <text x="16" y="84" style="clip-path:url(#clipPath10); stroke:none;">-m_y:T
      </text>
    </g>
    <g>
      <line x1="10" x2="120" y1="94" style="clip-path:url(#clipPath7); fill:none;" y2="94" />
    </g>
    <g style="font-family:sans-serif;">
      <text x="16" y="115" style="clip-path:url(#clipPath12); stroke:none;">+Coordinate
      </text>
      <text x="16" y="130" style="clip-path:url(#clipPath12); stroke:none;">+operator&gt;:bool
      </text>
      <text x="16" y="145" style="clip-path:url(#clipPath12); stroke:none;">+print:void
      </text>
    </g>
    <g style="fill:white; stroke:white;">
      <rect x="153" y="20" width="20" style="clip-path:url(#clipPath15); stroke:none;" height="21" />
      <line x1="153" x2="153" y1="20" style="clip-path:url(#clipPath15); fill:none; stroke:black;" y2="41" />
      <line x1="173" x2="173" y1="20" style="clip-path:url(#clipPath15); fill:none; stroke:black;" y2="41" />
      <line x1="153" x2="173" y1="20" style="clip-path:url(#clipPath15); fill:none; stroke:black;" y2="20" />
    </g>
    <g style="fill:white; stroke:white;">
      <rect x="173" y="10" width="180" style="clip-path:url(#clipPath16); stroke:none;" height="30" />
      <line x1="173" x2="183" y1="10" style="clip-path:url(#clipPath16); fill:none; stroke:black;" y2="10" />
      <line x1="188" x2="198" y1="10" style="clip-path:url(#clipPath16); fill:none; stroke:black;" y2="10" />
      <line x1="203" x2="213" y1="10" style="clip-path:url(#clipPath16); fill:none; stroke:black;" y2="10" />
      <line x1="218" x2="228" y1="10" style="clip-path:url(#clipPath16); fill:none; stroke:black;" y2="10" />
      <line x1="233" x2="243" y1="10" style="clip-path:url(#clipPath16); fill:none; stroke:black;" y2="10" />
      <line x1="248" x2="258" y1="10" style="clip-path:url(#clipPath16); fill:none; stroke:black;" y2="10" />
      <line x1="263" x2="273" y1="10" style="clip-path:url(#clipPath16); fill:none; stroke:black;" y2="10" />
      <line x1="278" x2="288" y1="10" style="clip-path:url(#clipPath16); fill:none; stroke:black;" y2="10" />
      <line x1="293" x2="303" y1="10" style="clip-path:url(#clipPath16); fill:none; stroke:black;" y2="10" />
      <line x1="308" x2="318" y1="10" style="clip-path:url(#clipPath16); fill:none; stroke:black;" y2="10" />
      <line x1="323" x2="333" y1="10" style="clip-path:url(#clipPath16); fill:none; stroke:black;" y2="10" />
      <line x1="338" x2="348" y1="10" style="clip-path:url(#clipPath16); fill:none; stroke:black;" y2="10" />
      <line x1="353" x2="353" y1="10" style="clip-path:url(#clipPath16); fill:none; stroke:black;" y2="10" />
      <line x1="353" x2="353" y1="11" style="clip-path:url(#clipPath16); fill:none; stroke:black;" y2="21" />
      <line x1="353" x2="353" y1="26" style="clip-path:url(#clipPath16); fill:none; stroke:black;" y2="36" />
      <line x1="352" x2="342" y1="40" style="clip-path:url(#clipPath16); fill:none; stroke:black;" y2="40" />
      <line x1="337" x2="327" y1="40" style="clip-path:url(#clipPath16); fill:none; stroke:black;" y2="40" />
      <line x1="322" x2="312" y1="40" style="clip-path:url(#clipPath16); fill:none; stroke:black;" y2="40" />
      <line x1="307" x2="297" y1="40" style="clip-path:url(#clipPath16); fill:none; stroke:black;" y2="40" />
      <line x1="292" x2="282" y1="40" style="clip-path:url(#clipPath16); fill:none; stroke:black;" y2="40" />
      <line x1="277" x2="267" y1="40" style="clip-path:url(#clipPath16); fill:none; stroke:black;" y2="40" />
      <line x1="262" x2="252" y1="40" style="clip-path:url(#clipPath16); fill:none; stroke:black;" y2="40" />
      <line x1="247" x2="237" y1="40" style="clip-path:url(#clipPath16); fill:none; stroke:black;" y2="40" />
      <line x1="232" x2="222" y1="40" style="clip-path:url(#clipPath16); fill:none; stroke:black;" y2="40" />
      <line x1="217" x2="207" y1="40" style="clip-path:url(#clipPath16); fill:none; stroke:black;" y2="40" />
      <line x1="202" x2="192" y1="40" style="clip-path:url(#clipPath16); fill:none; stroke:black;" y2="40" />
      <line x1="187" x2="177" y1="40" style="clip-path:url(#clipPath16); fill:none; stroke:black;" y2="40" />
      <line x1="173" x2="173" y1="39" style="clip-path:url(#clipPath16); fill:none; stroke:black;" y2="29" />
      <line x1="173" x2="173" y1="24" style="clip-path:url(#clipPath16); fill:none; stroke:black;" y2="14" />
    </g>
    <g>
      <text x="177" y="22" style="clip-path:url(#clipPath16); stroke:none;">TDATA:template &lt;class TCONTENT&gt; class
      </text>
      <text x="177" y="37" style="clip-path:url(#clipPath16); stroke:none;">int:class TCONTENT =
      </text>
    </g>
    <g style="fill:navy; stroke:navy;">
      <rect x="156" y="44" width="188" style="clip-path:url(#clipPath17); stroke:none;" height="89" />
      <rect x="153" y="41" width="188" style="clip-path:url(#clipPath17); fill:white; stroke:none;" height="89" />
      <line x1="153" x2="153" y1="41" style="clip-path:url(#clipPath17); fill:none; stroke:black;" y2="130" />
      <line x1="341" x2="341" y1="41" style="clip-path:url(#clipPath17); fill:none; stroke:black;" y2="130" />
      <line x1="153" x2="341" y1="130" style="clip-path:url(#clipPath17); fill:none; stroke:black;" y2="130" />
    </g>
    <g style="font-weight:bold; font-family:sans-serif;">
      <text x="222" y="54" style="clip-path:url(#clipPath19); stroke:none;">CMatrix
      </text>
    </g>
    <g>
      <line x1="153" x2="340" y1="63" style="clip-path:url(#clipPath18); fill:none;" y2="63" />
    </g>
    <g style="font-family:sans-serif;">
      <text x="159" y="84" style="clip-path:url(#clipPath21); stroke:none;">-m_buffer:TDATA&lt;TCONTENT&gt;*
      </text>
    </g>
    <g>
      <line x1="153" x2="340" y1="94" style="clip-path:url(#clipPath18); fill:none;" y2="94" />
    </g>
    <g style="font-family:sans-serif;">
      <text x="159" y="115" style="clip-path:url(#clipPath23); stroke:none;">+CMatrix
      </text>
    </g>
  </g>
</svg>
