<?xml version="1.0" encoding="UTF-8"?>

<!DOCTYPE svg PUBLIC '-//W3C//DTD SVG 20001102//EN' 'http://www.w3.org/TR/2000/CR-SVG-20001102/DTD/svg-20001102.dtd'>
<svg style="fill-opacity:1; color-rendering:auto; color-interpolation:sRGB; text-rendering:auto; stroke:black; stroke-linecap:square; stroke-miterlimit:10; shape-rendering:auto; stroke-opacity:1; fill:black; stroke-dasharray:none; font-weight:normal; stroke-width:1; font-family:&apos;sansserif&apos;; font-style:normal; stroke-linejoin:miter; font-size:12; stroke-dashoffset:0; image-rendering:auto;" width="436" height="417">
  <!--Generated by the Batik Graphics2D SVG Generator-->
  <defs id="genericDefs" />
  <g>
    <defs id="defs1">
      <clipPath clipPathUnits="userSpaceOnUse" id="clipPath1">
        <path d="M0 0 L436 0 L436 417 L0 417 L0 0 Z" />
      </clipPath>
      <clipPath clipPathUnits="userSpaceOnUse" id="clipPath2">
        <path d="M20 195 L20 359 L163 359 L163 195 Z" />
      </clipPath>
      <clipPath clipPathUnits="userSpaceOnUse" id="clipPath3">
        <path d="M21 196 L21 212 L163 212 L163 196 Z" />
      </clipPath>
      <clipPath clipPathUnits="userSpaceOnUse" id="clipPath4">
        <path d="M20 224 L20 243 L163 243 L163 224 Z" />
      </clipPath>
      <clipPath clipPathUnits="userSpaceOnUse" id="clipPath5">
        <path d="M22 226 L22 242 L162 242 L162 226 Z" />
      </clipPath>
      <clipPath clipPathUnits="userSpaceOnUse" id="clipPath6">
        <path d="M20 255 L20 349 L163 349 L163 255 Z" />
      </clipPath>
      <clipPath clipPathUnits="userSpaceOnUse" id="clipPath7">
        <path d="M22 257 L22 348 L162 348 L162 257 Z" />
      </clipPath>
      <clipPath clipPathUnits="userSpaceOnUse" id="clipPath8">
        <path d="M181 20 L181 124 L324 124 L324 20 Z" />
      </clipPath>
      <clipPath clipPathUnits="userSpaceOnUse" id="clipPath9">
        <path d="M182 21 L182 37 L324 37 L324 21 Z" />
      </clipPath>
      <clipPath clipPathUnits="userSpaceOnUse" id="clipPath10">
        <path d="M181 49 L181 68 L324 68 L324 49 Z" />
      </clipPath>
      <clipPath clipPathUnits="userSpaceOnUse" id="clipPath11">
        <path d="M183 51 L183 67 L323 67 L323 51 Z" />
      </clipPath>
      <clipPath clipPathUnits="userSpaceOnUse" id="clipPath12">
        <path d="M181 80 L181 114 L324 114 L324 80 Z" />
      </clipPath>
      <clipPath clipPathUnits="userSpaceOnUse" id="clipPath13">
        <path d="M183 82 L183 113 L323 113 L323 82 Z" />
      </clipPath>
      <clipPath clipPathUnits="userSpaceOnUse" id="clipPath14">
        <path d="M245 195 L245 404 L423 404 L423 195 Z" />
      </clipPath>
      <clipPath clipPathUnits="userSpaceOnUse" id="clipPath15">
        <path d="M246 196 L246 212 L423 212 L423 196 Z" />
      </clipPath>
      <clipPath clipPathUnits="userSpaceOnUse" id="clipPath16">
        <path d="M245 224 L245 273 L423 273 L423 224 Z" />
      </clipPath>
      <clipPath clipPathUnits="userSpaceOnUse" id="clipPath17">
        <path d="M247 226 L247 272 L422 272 L422 226 Z" />
      </clipPath>
      <clipPath clipPathUnits="userSpaceOnUse" id="clipPath18">
        <path d="M245 285 L245 394 L423 394 L423 285 Z" />
      </clipPath>
      <clipPath clipPathUnits="userSpaceOnUse" id="clipPath19">
        <path d="M247 287 L247 393 L422 393 L422 287 Z" />
      </clipPath>
    </defs>
    <g style="fill:rgb(0,0,130); stroke:rgb(0,0,130);">
      <line x1="245" x2="245" y1="278" style="clip-path:url(#clipPath1); fill:none;" y2="278" />
      <line x1="245" x2="235" y1="278" style="clip-path:url(#clipPath1); fill:none;" y2="278" />
      <line x1="230" x2="220" y1="278" style="clip-path:url(#clipPath1); fill:none;" y2="278" />
      <line x1="215" x2="205" y1="278" style="clip-path:url(#clipPath1); fill:none;" y2="278" />
      <line x1="200" x2="190" y1="278" style="clip-path:url(#clipPath1); fill:none;" y2="278" />
      <line x1="185" x2="175" y1="278" style="clip-path:url(#clipPath1); fill:none;" y2="278" />
      <line x1="170" x2="165" y1="278" style="clip-path:url(#clipPath1); fill:none;" y2="278" />
      <line x1="299" x2="299" y1="195" style="clip-path:url(#clipPath1); fill:none; stroke:rgb(0,64,64);" y2="126" />
      <line x1="272" x2="272" y1="195" style="clip-path:url(#clipPath1); fill:none; stroke:blue;" y2="126" />
      <line x1="92" x2="226" y1="195" style="clip-path:url(#clipPath1); fill:none; stroke:rgb(0,64,64);" y2="126" />
      <line x1="165" x2="177" y1="278" style="clip-path:url(#clipPath1); fill:none;" y2="283" />
      <line x1="165" x2="177" y1="278" style="clip-path:url(#clipPath1); fill:none;" y2="273" />
      <polygon style="fill:white; clip-path:url(#clipPath1); stroke:none;" points=" 299 126 305 144 293 144" />
      <polygon style="fill:none; clip-path:url(#clipPath1); stroke:rgb(0,64,64);" points=" 299 126 305 144 293 144" />
      <line x1="293" x2="299" y1="144" style="clip-path:url(#clipPath1); fill:none; stroke:rgb(0,64,64);" y2="126" />
      <line x1="272" x2="267" y1="126" style="clip-path:url(#clipPath1); fill:none; stroke:blue;" y2="138" />
      <line x1="272" x2="277" y1="126" style="clip-path:url(#clipPath1); fill:none; stroke:blue;" y2="138" />
      <text x="240" y="138" style="clip-path:url(#clipPath1); fill:blue; font-family:sans-serif; stroke:none;">0..1
      </text>
      <polygon points=" 226 126 213 140 207 129" style="fill:white; clip-path:url(#clipPath1); font-family:sans-serif; stroke:none;" />
      <polygon points=" 226 126 213 140 207 129" style="fill:none; clip-path:url(#clipPath1); font-family:sans-serif; stroke:rgb(0,64,64);" />
      <line x1="207" x2="226" y1="129" style="clip-path:url(#clipPath1); fill:none; font-family:sans-serif; stroke:rgb(0,64,64);" y2="126" />
      <rect x="23" y="198" width="142" style="clip-path:url(#clipPath1); fill:navy; font-family:sans-serif; stroke:none;" height="163" />
      <rect x="20" y="195" width="142" style="clip-path:url(#clipPath1); fill:white; font-family:sans-serif; stroke:none;" height="163" />
      <rect x="20" y="195" width="142" style="clip-path:url(#clipPath1); fill:none; font-family:sans-serif; stroke:black;" height="163" />
    </g>
    <g style="font-weight:bold; font-family:sans-serif;">
      <text x="72" y="208" style="clip-path:url(#clipPath3); stroke:none;">CText
      </text>
    </g>
    <g style="font-family:sans-serif;">
      <line x1="20" x2="162" y1="217" style="clip-path:url(#clipPath2); fill:none;" y2="217" />
    </g>
    <g style="font-family:sans-serif;">
      <text x="26" y="238" style="clip-path:url(#clipPath5); stroke:none;">-m_text:std::string
      </text>
    </g>
    <g style="font-family:sans-serif;">
      <line x1="20" x2="162" y1="248" style="clip-path:url(#clipPath2); fill:none;" y2="248" />
    </g>
    <g style="font-family:sans-serif;">
      <text x="26" y="269" style="clip-path:url(#clipPath7); stroke:none;">+CText
      </text>
      <text x="26" y="284" style="clip-path:url(#clipPath7); stroke:none;">+getText:std::string
      </text>
      <text x="26" y="299" style="clip-path:url(#clipPath7); stroke:none;">+setText:void
      </text>
      <text x="26" y="314" style="clip-path:url(#clipPath7); stroke:none;">+parseInput:bool
      </text>
      <text x="26" y="329" style="clip-path:url(#clipPath7); stroke:none;">+print:void
      </text>
      <text x="26" y="344" style="clip-path:url(#clipPath7); stroke:none;">+getNodeType:node_t
      </text>
    </g>
    <g style="fill:navy; font-family:sans-serif; stroke:navy;">
      <rect x="184" y="23" width="142" style="clip-path:url(#clipPath1); stroke:none;" height="103" />
      <rect x="181" y="20" width="142" style="clip-path:url(#clipPath1); fill:white; stroke:none;" height="103" />
      <rect x="181" y="20" width="142" style="clip-path:url(#clipPath1); fill:none; stroke:black;" height="103" />
    </g>
    <g style="font-weight:bold; font-family:sans-serif;">
      <text x="231" y="33" style="clip-path:url(#clipPath9); stroke:none;">CNode
      </text>
    </g>
    <g style="font-family:sans-serif;">
      <line x1="181" x2="323" y1="42" style="clip-path:url(#clipPath8); fill:none;" y2="42" />
    </g>
    <g style="font-family:sans-serif;">
      <text x="187" y="63" style="clip-path:url(#clipPath11); stroke:none;">-m_node:node_t
      </text>
    </g>
    <g style="font-family:sans-serif;">
      <line x1="181" x2="323" y1="73" style="clip-path:url(#clipPath8); fill:none;" y2="73" />
    </g>
    <g style="font-family:sans-serif;">
      <text x="187" y="94" style="clip-path:url(#clipPath13); stroke:none;">+CNode
      </text>
      <text x="187" y="109" style="clip-path:url(#clipPath13); stroke:none;">+getNodeType:node_t
      </text>
    </g>
    <g style="fill:navy; font-family:sans-serif; stroke:navy;">
      <rect x="248" y="198" width="177" style="clip-path:url(#clipPath1); stroke:none;" height="208" />
      <rect x="245" y="195" width="177" style="clip-path:url(#clipPath1); fill:white; stroke:none;" height="208" />
      <rect x="245" y="195" width="177" style="clip-path:url(#clipPath1); fill:none; stroke:black;" height="208" />
    </g>
    <g style="font-weight:bold; font-family:sans-serif;">
      <text x="304" y="208" style="clip-path:url(#clipPath15); stroke:none;">CElement
      </text>
    </g>
    <g style="font-family:sans-serif;">
      <line x1="245" x2="422" y1="217" style="clip-path:url(#clipPath14); fill:none;" y2="217" />
    </g>
    <g style="font-family:sans-serif;">
      <text x="251" y="238" style="clip-path:url(#clipPath17); stroke:none;">-m_content:CNode* [10]
      </text>
      <text x="251" y="253" style="clip-path:url(#clipPath17); stroke:none;">-m_contentNodes:int
      </text>
      <text x="251" y="268" style="clip-path:url(#clipPath17); stroke:none;">-m_tag:std::string
      </text>
    </g>
    <g style="font-family:sans-serif;">
      <line x1="245" x2="422" y1="278" style="clip-path:url(#clipPath14); fill:none;" y2="278" />
    </g>
    <g style="font-family:sans-serif;">
      <text x="251" y="299" style="clip-path:url(#clipPath19); stroke:none;">+CElement
      </text>
      <text x="251" y="314" style="clip-path:url(#clipPath19); stroke:none;">+~CElement
      </text>
      <text x="251" y="329" style="clip-path:url(#clipPath19); stroke:none;">+parseInput:bool
      </text>
      <text x="251" y="344" style="clip-path:url(#clipPath19); stroke:none;">+print:void
      </text>
      <text x="251" y="359" style="clip-path:url(#clipPath19); stroke:none;">+getNodeType:node_t
      </text>
      <text x="251" y="374" style="clip-path:url(#clipPath19); stroke:none;">-addToContentChildren:bool
      </text>
      <text x="251" y="389" style="clip-path:url(#clipPath19); stroke:none;">-parseStartOrEndTag:bool
      </text>
    </g>
  </g>
</svg>
