<?xml version="1.0" encoding="UTF-8"?>

<!DOCTYPE svg PUBLIC '-//W3C//DTD SVG 20001102//EN' 'http://www.w3.org/TR/2000/CR-SVG-20001102/DTD/svg-20001102.dtd'>
<svg style="fill-opacity:1; color-rendering:auto; color-interpolation:sRGB; text-rendering:auto; stroke:black; stroke-linecap:square; stroke-miterlimit:10; shape-rendering:auto; stroke-opacity:1; fill:black; stroke-dasharray:none; font-weight:normal; stroke-width:1; font-family:&apos;sansserif&apos;; font-style:normal; stroke-linejoin:miter; font-size:12; stroke-dashoffset:0; image-rendering:auto;" width="673" height="230">
  <!--Generated by the Batik Graphics2D SVG Generator-->
  <defs id="genericDefs" />
  <g>
    <defs id="defs1">
      <clipPath clipPathUnits="userSpaceOnUse" id="clipPath1">
        <path d="M0 0 L673 0 L673 230 L0 230 L0 0 Z" />
      </clipPath>
      <clipPath clipPathUnits="userSpaceOnUse" id="clipPath2">
        <path d="M200 100 L200 217 L398 217 L398 100 Z" />
      </clipPath>
      <clipPath clipPathUnits="userSpaceOnUse" id="clipPath3">
        <path d="M201 101 L201 132 L398 132 L398 101 Z" />
      </clipPath>
      <clipPath clipPathUnits="userSpaceOnUse" id="clipPath4">
        <path d="M200 144 L200 178 L398 178 L398 144 Z" />
      </clipPath>
      <clipPath clipPathUnits="userSpaceOnUse" id="clipPath5">
        <path d="M202 146 L202 177 L397 177 L397 146 Z" />
      </clipPath>
      <clipPath clipPathUnits="userSpaceOnUse" id="clipPath6">
        <path d="M520 100 L520 202 L660 202 L660 100 Z" />
      </clipPath>
      <clipPath clipPathUnits="userSpaceOnUse" id="clipPath7">
        <path d="M521 101 L521 117 L660 117 L660 101 Z" />
      </clipPath>
      <clipPath clipPathUnits="userSpaceOnUse" id="clipPath8">
        <path d="M520 129 L520 163 L660 163 L660 129 Z" />
      </clipPath>
      <clipPath clipPathUnits="userSpaceOnUse" id="clipPath9">
        <path d="M522 131 L522 162 L659 162 L659 131 Z" />
      </clipPath>
      <clipPath clipPathUnits="userSpaceOnUse" id="clipPath10">
        <path d="M20 120 L20 199 L101 199 L101 120 Z" />
      </clipPath>
      <clipPath clipPathUnits="userSpaceOnUse" id="clipPath11">
        <path d="M21 121 L21 137 L101 137 L101 121 Z" />
      </clipPath>
    </defs>
    <g style="fill:blue; stroke:blue;">
      <line x1="200" x2="103" y1="161" style="clip-path:url(#clipPath1); fill:none;" y2="161" />
      <line x1="400" x2="520" y1="152" style="clip-path:url(#clipPath1); fill:none; stroke:rgb(0,0,130);" y2="152" />
      <line x1="103" x2="115" y1="161" style="clip-path:url(#clipPath1); fill:none;" y2="166" />
      <line x1="103" x2="115" y1="161" style="clip-path:url(#clipPath1); fill:none;" y2="156" />
      <polygon style="fill:rgb(0,0,130); clip-path:url(#clipPath1); stroke:none;" points=" 400 152 408 148 416 152 408 156" />
      <polygon style="fill:none; clip-path:url(#clipPath1); stroke:rgb(0,0,130);" points=" 400 152 408 148 416 152 408 156" />
      <line x1="408" x2="400" y1="156" style="clip-path:url(#clipPath1); fill:none; stroke:rgb(0,0,130);" y2="152" />
      <line x1="520" x2="508" y1="152" style="clip-path:url(#clipPath1); fill:none; stroke:rgb(0,0,130);" y2="147" />
      <line x1="520" x2="508" y1="152" style="clip-path:url(#clipPath1); fill:none; stroke:rgb(0,0,130);" y2="157" />
      <text x="408" y="145" style="clip-path:url(#clipPath1); fill:rgb(0,0,130); font-family:sans-serif; stroke:none;">1
      </text>
      <text x="490" y="145" style="clip-path:url(#clipPath1); fill:rgb(0,0,130); font-family:sans-serif; stroke:none;">1..*
      </text>
      <rect x="203" y="103" width="197" style="clip-path:url(#clipPath1); fill:navy; font-family:sans-serif; stroke:none;" height="116" />
      <rect x="200" y="100" width="197" style="clip-path:url(#clipPath1); fill:white; font-family:sans-serif; stroke:none;" height="116" />
      <rect x="200" y="100" width="197" style="clip-path:url(#clipPath1); fill:none; font-family:sans-serif; stroke:black;" height="116" />
    </g>
    <g style="font-family:sans-serif;">
      <text x="274" y="113" style="clip-path:url(#clipPath3); stroke:none;">interface
      </text>
      <text x="283" y="128" style="clip-path:url(#clipPath3); font-style:italic; stroke:none; font-weight:bold;">Lidar
      </text>
    </g>
    <g style="font-family:sans-serif;">
      <line x1="200" x2="397" y1="137" style="clip-path:url(#clipPath2); fill:none;" y2="137" />
    </g>
    <g style="font-family:sans-serif;">
      <text x="206" y="158" style="clip-path:url(#clipPath5); stroke:none;">-m_pScan:CMeasurementValue*
      </text>
      <text x="206" y="173" style="clip-path:url(#clipPath5); stroke:none;">-m_CUart:CUart
      </text>
    </g>
    <g style="font-family:sans-serif;">
      <line x1="200" x2="397" y1="183" style="clip-path:url(#clipPath2); fill:none;" y2="183" />
    </g>
    <g style="fill:navy; font-family:sans-serif; stroke:navy;">
      <rect x="523" y="103" width="139" style="clip-path:url(#clipPath1); stroke:none;" height="101" />
      <rect x="520" y="100" width="139" style="clip-path:url(#clipPath1); fill:white; stroke:none;" height="101" />
      <rect x="520" y="100" width="139" style="clip-path:url(#clipPath1); fill:none; stroke:black;" height="101" />
    </g>
    <g style="font-weight:bold; font-family:sans-serif;">
      <text x="525" y="113" style="clip-path:url(#clipPath7); stroke:none;">CMeasurementValue
      </text>
    </g>
    <g style="font-family:sans-serif;">
      <line x1="520" x2="659" y1="122" style="clip-path:url(#clipPath6); fill:none;" y2="122" />
    </g>
    <g style="font-family:sans-serif;">
      <text x="526" y="143" style="clip-path:url(#clipPath9); stroke:none;">-m_distance:float
      </text>
      <text x="526" y="158" style="clip-path:url(#clipPath9); stroke:none;">-m_angle:float
      </text>
    </g>
    <g style="font-family:sans-serif;">
      <line x1="520" x2="659" y1="168" style="clip-path:url(#clipPath6); fill:none;" y2="168" />
    </g>
    <g style="fill:navy; font-family:sans-serif; stroke:navy;">
      <rect x="23" y="123" width="80" style="clip-path:url(#clipPath1); stroke:none;" height="78" />
      <rect x="20" y="120" width="80" style="clip-path:url(#clipPath1); fill:white; stroke:none;" height="78" />
      <rect x="20" y="120" width="80" style="clip-path:url(#clipPath1); fill:none; stroke:black;" height="78" />
    </g>
    <g style="font-weight:bold; font-family:sans-serif;">
      <text x="42" y="133" style="clip-path:url(#clipPath11); stroke:none;">CUart
      </text>
    </g>
    <g style="font-family:sans-serif;">
      <line x1="20" x2="100" y1="142" style="clip-path:url(#clipPath10); fill:none;" y2="142" />
      <line x1="20" x2="100" y1="165" style="clip-path:url(#clipPath10); fill:none;" y2="165" />
    </g>
  </g>
</svg>
