<?xml version="1.0" encoding="UTF-8"?>

<!DOCTYPE svg PUBLIC '-//W3C//DTD SVG 20001102//EN' 'http://www.w3.org/TR/2000/CR-SVG-20001102/DTD/svg-20001102.dtd'>
<svg style="fill-opacity:1; color-rendering:auto; color-interpolation:sRGB; text-rendering:auto; stroke:black; stroke-linecap:square; stroke-miterlimit:10; shape-rendering:auto; stroke-opacity:1; fill:black; stroke-dasharray:none; font-weight:normal; stroke-width:1; font-family:&apos;sansserif&apos;; font-style:normal; stroke-linejoin:miter; font-size:12; stroke-dashoffset:0; image-rendering:auto;" width="157" height="153">
  <!--Generated by the Batik Graphics2D SVG Generator-->
  <defs id="genericDefs" />
  <g>
    <defs id="defs1">
      <clipPath clipPathUnits="userSpaceOnUse" id="clipPath1">
        <path d="M0 0 L157 0 L157 153 L0 153 L0 0 Z" />
      </clipPath>
      <clipPath clipPathUnits="userSpaceOnUse" id="clipPath2">
        <path d="M10 30 L10 140 L144 140 L144 30 Z" />
      </clipPath>
      <clipPath clipPathUnits="userSpaceOnUse" id="clipPath3">
        <path d="M14 30 L14 46 L140 46 L140 30 Z" />
      </clipPath>
      <clipPath clipPathUnits="userSpaceOnUse" id="clipPath4">
        <path d="M10 58 L10 107 L144 107 L144 58 Z" />
      </clipPath>
      <clipPath clipPathUnits="userSpaceOnUse" id="clipPath5">
        <path d="M12 60 L12 106 L143 106 L143 60 Z" />
      </clipPath>
    </defs>
    <g style="fill:navy; stroke:navy;">
      <rect x="13" y="33" width="133" style="clip-path:url(#clipPath1); stroke:none;" height="109" />
      <rect x="13" y="13" width="53" style="clip-path:url(#clipPath1); stroke:none;" height="20" />
      <rect x="10" y="30" width="133" style="clip-path:url(#clipPath1); fill:white; stroke:none;" height="109" />
      <rect x="10" y="10" width="53" style="clip-path:url(#clipPath1); fill:white; stroke:none;" height="20" />
      <rect x="10" y="30" width="133" style="clip-path:url(#clipPath1); fill:none; stroke:black;" height="109" />
      <rect x="10" y="10" width="53" style="clip-path:url(#clipPath1); fill:none; stroke:black;" height="20" />
    </g>
    <g style="font-weight:bold; font-family:sans-serif;">
      <text x="56" y="42" style="clip-path:url(#clipPath3); stroke:none;">model
      </text>
    </g>
    <g>
      <line x1="10" x2="143" y1="51" style="clip-path:url(#clipPath2); fill:none;" y2="51" />
    </g>
    <g style="font-style:italic; font-family:sans-serif;">
      <text x="16" y="72" style="clip-path:url(#clipPath5); stroke:none;"> Lidar
      </text>
      <text x="16" y="87" style="font-style:normal; clip-path:url(#clipPath5); stroke:none;"> CMeasurementValue
      </text>
      <text x="16" y="102" style="font-style:normal; clip-path:url(#clipPath5); stroke:none;"> CUart
      </text>
    </g>
    <g>
      <line x1="10" x2="143" y1="112" style="clip-path:url(#clipPath2); fill:none;" y2="112" />
    </g>
  </g>
</svg>
