<?xml version="1.0" encoding="UTF-8"?>

<!DOCTYPE svg PUBLIC '-//W3C//DTD SVG 20001102//EN' 'http://www.w3.org/TR/2000/CR-SVG-20001102/DTD/svg-20001102.dtd'>
<svg style="fill-opacity:1; color-rendering:auto; color-interpolation:sRGB; text-rendering:auto; stroke:black; stroke-linecap:square; stroke-miterlimit:10; shape-rendering:auto; stroke-opacity:1; fill:black; stroke-dasharray:none; font-weight:normal; stroke-width:1; font-family:&apos;sansserif&apos;; font-style:normal; stroke-linejoin:miter; font-size:12; stroke-dashoffset:0; image-rendering:auto;" width="1119" height="644">
  <!--Generated by the Batik Graphics2D SVG Generator-->
  <defs id="genericDefs" />
  <g>
    <defs id="defs1">
      <clipPath clipPathUnits="userSpaceOnUse" id="clipPath1">
        <path d="M0 0 L1119 0 L1119 644 L0 644 L0 0 Z" />
      </clipPath>
      <clipPath clipPathUnits="userSpaceOnUse" id="clipPath2">
        <path d="M640 45 L640 128 L723 128 L723 45 Z" />
      </clipPath>
      <clipPath clipPathUnits="userSpaceOnUse" id="clipPath3">
        <path d="M418 193 L418 276 L501 276 L501 193 Z" />
      </clipPath>
      <clipPath clipPathUnits="userSpaceOnUse" id="clipPath4">
        <path d="M630 195 L630 278 L715 278 L715 195 Z" />
      </clipPath>
      <clipPath clipPathUnits="userSpaceOnUse" id="clipPath5">
        <path d="M820 195 L820 278 L903 278 L903 195 Z" />
      </clipPath>
      <clipPath clipPathUnits="userSpaceOnUse" id="clipPath6">
        <path d="M990 195 L990 278 L1091 278 L1091 195 Z" />
      </clipPath>
      <clipPath clipPathUnits="userSpaceOnUse" id="clipPath7">
        <path d="M692 340 L692 398 L797 398 L797 340 Z" />
      </clipPath>
      <clipPath clipPathUnits="userSpaceOnUse" id="clipPath8">
        <path d="M696 340 L696 398 L793 398 L793 340 Z" />
      </clipPath>
      <clipPath clipPathUnits="userSpaceOnUse" id="clipPath9">
        <path d="M872 340 L872 398 L945 398 L945 340 Z" />
      </clipPath>
      <clipPath clipPathUnits="userSpaceOnUse" id="clipPath10">
        <path d="M876 340 L876 398 L941 398 L941 340 Z" />
      </clipPath>
      <clipPath clipPathUnits="userSpaceOnUse" id="clipPath11">
        <path d="M1032 340 L1032 398 L1097 398 L1097 340 Z" />
      </clipPath>
      <clipPath clipPathUnits="userSpaceOnUse" id="clipPath12">
        <path d="M1036 340 L1036 398 L1093 398 L1093 340 Z" />
      </clipPath>
      <clipPath clipPathUnits="userSpaceOnUse" id="clipPath13">
        <path d="M552 340 L552 398 L608 398 L608 340 Z" />
      </clipPath>
      <clipPath clipPathUnits="userSpaceOnUse" id="clipPath14">
        <path d="M556 340 L556 398 L604 398 L604 340 Z" />
      </clipPath>
      <clipPath clipPathUnits="userSpaceOnUse" id="clipPath15">
        <path d="M490 480 L490 631 L688 631 L688 480 Z" />
      </clipPath>
      <clipPath clipPathUnits="userSpaceOnUse" id="clipPath16">
        <path d="M491 511 L491 542 L688 542 L688 511 Z" />
      </clipPath>
      <clipPath clipPathUnits="userSpaceOnUse" id="clipPath17">
        <path d="M490 554 L490 588 L688 588 L688 554 Z" />
      </clipPath>
      <clipPath clipPathUnits="userSpaceOnUse" id="clipPath18">
        <path d="M492 556 L492 587 L687 587 L687 556 Z" />
      </clipPath>
      <clipPath clipPathUnits="userSpaceOnUse" id="clipPath19">
        <path d="M490 616 L490 631 L688 631 L688 616 Z" />
      </clipPath>
      <clipPath clipPathUnits="userSpaceOnUse" id="clipPath20">
        <path d="M34 54 L34 87 L384 87 L384 54 Z" />
      </clipPath>
      <clipPath clipPathUnits="userSpaceOnUse" id="clipPath21">
        <path d="M14 334 L14 397 L403 397 L403 334 Z" />
      </clipPath>
      <clipPath clipPathUnits="userSpaceOnUse" id="clipPath22">
        <path d="M24 484 L24 585 L420 585 L420 484 Z" />
      </clipPath>
    </defs>
    <g style="fill:navy; stroke:navy;">
      <polygon style="clip-path:url(#clipPath1); stroke:none;" points=" 643 48 658 33 740 33 740 115 725 130 643 130" />
      <polygon style="fill:white; clip-path:url(#clipPath1); stroke:none;" points=" 640 45 655 30 737 30 737 112 722 127 640 127" />
      <line x1="640" x2="655" y1="45" style="clip-path:url(#clipPath1); fill:none; stroke:black;" y2="30" />
      <line x1="655" x2="737" y1="30" style="clip-path:url(#clipPath1); fill:none; stroke:black;" y2="30" />
      <line x1="737" x2="722" y1="30" style="clip-path:url(#clipPath1); fill:none; stroke:black;" y2="45" />
      <line x1="737" x2="737" y1="30" style="clip-path:url(#clipPath1); fill:none; stroke:black;" y2="112" />
      <line x1="737" x2="722" y1="112" style="clip-path:url(#clipPath1); fill:none; stroke:black;" y2="127" />
      <rect x="640" y="45" width="82" style="clip-path:url(#clipPath1); fill:none; stroke:black;" height="82" />
    </g>
    <g style="font-family:sans-serif;">
      <text x="671" y="57" style="clip-path:url(#clipPath2); stroke:none;">Car
      </text>
      <line x1="671" x2="691" y1="59" style="clip-path:url(#clipPath2); fill:none;" y2="59" />
    </g>
    <g style="fill:navy; stroke:navy;">
      <polygon style="clip-path:url(#clipPath1); stroke:none;" points=" 421 196 436 181 518 181 518 263 503 278 421 278" />
      <polygon style="fill:white; clip-path:url(#clipPath1); stroke:none;" points=" 418 193 433 178 515 178 515 260 500 275 418 275" />
      <line x1="418" x2="433" y1="193" style="clip-path:url(#clipPath1); fill:none; stroke:black;" y2="178" />
      <line x1="433" x2="515" y1="178" style="clip-path:url(#clipPath1); fill:none; stroke:black;" y2="178" />
      <line x1="515" x2="500" y1="178" style="clip-path:url(#clipPath1); fill:none; stroke:black;" y2="193" />
      <line x1="515" x2="515" y1="178" style="clip-path:url(#clipPath1); fill:none; stroke:black;" y2="260" />
      <line x1="515" x2="500" y1="260" style="clip-path:url(#clipPath1); fill:none; stroke:black;" y2="275" />
      <rect x="418" y="193" width="82" style="clip-path:url(#clipPath1); fill:none; stroke:black;" height="82" />
    </g>
    <g style="font-family:sans-serif;">
      <text x="448" y="205" style="clip-path:url(#clipPath3); stroke:none;">HMI
      </text>
      <line x1="448" x2="470" y1="207" style="clip-path:url(#clipPath3); fill:none;" y2="207" />
    </g>
    <g style="fill:navy; stroke:navy;">
      <polygon style="clip-path:url(#clipPath1); stroke:none;" points=" 633 198 648 183 732 183 732 265 717 280 633 280" />
      <polygon style="fill:white; clip-path:url(#clipPath1); stroke:none;" points=" 630 195 645 180 729 180 729 262 714 277 630 277" />
      <line x1="630" x2="645" y1="195" style="clip-path:url(#clipPath1); fill:none; stroke:black;" y2="180" />
      <line x1="645" x2="729" y1="180" style="clip-path:url(#clipPath1); fill:none; stroke:black;" y2="180" />
      <line x1="729" x2="714" y1="180" style="clip-path:url(#clipPath1); fill:none; stroke:black;" y2="195" />
      <line x1="729" x2="729" y1="180" style="clip-path:url(#clipPath1); fill:none; stroke:black;" y2="262" />
      <line x1="729" x2="714" y1="262" style="clip-path:url(#clipPath1); fill:none; stroke:black;" y2="277" />
      <rect x="630" y="195" width="84" style="clip-path:url(#clipPath1); fill:none; stroke:black;" height="82" />
    </g>
    <g style="font-family:sans-serif;">
      <text x="634" y="207" style="clip-path:url(#clipPath4); stroke:none;">Laserscanner
      </text>
      <line x1="634" x2="710" y1="209" style="clip-path:url(#clipPath4); fill:none;" y2="209" />
    </g>
    <g style="fill:navy; stroke:navy;">
      <polygon style="clip-path:url(#clipPath1); stroke:none;" points=" 823 198 838 183 920 183 920 265 905 280 823 280" />
      <polygon style="fill:white; clip-path:url(#clipPath1); stroke:none;" points=" 820 195 835 180 917 180 917 262 902 277 820 277" />
      <line x1="820" x2="835" y1="195" style="clip-path:url(#clipPath1); fill:none; stroke:black;" y2="180" />
      <line x1="835" x2="917" y1="180" style="clip-path:url(#clipPath1); fill:none; stroke:black;" y2="180" />
      <line x1="917" x2="902" y1="180" style="clip-path:url(#clipPath1); fill:none; stroke:black;" y2="195" />
      <line x1="917" x2="917" y1="180" style="clip-path:url(#clipPath1); fill:none; stroke:black;" y2="262" />
      <line x1="917" x2="902" y1="262" style="clip-path:url(#clipPath1); fill:none; stroke:black;" y2="277" />
      <rect x="820" y="195" width="82" style="clip-path:url(#clipPath1); fill:none; stroke:black;" height="82" />
    </g>
    <g style="font-family:sans-serif;">
      <text x="833" y="207" style="clip-path:url(#clipPath5); stroke:none;">Controller
      </text>
      <line x1="833" x2="889" y1="209" style="clip-path:url(#clipPath5); fill:none;" y2="209" />
    </g>
    <g style="fill:navy; stroke:navy;">
      <polygon style="clip-path:url(#clipPath1); stroke:none;" points=" 993 198 1008 183 1108 183 1108 265 1093 280 993 280" />
      <polygon style="fill:white; clip-path:url(#clipPath1); stroke:none;" points=" 990 195 1005 180 1105 180 1105 262 1090 277 990 277" />
      <line x1="990" x2="1005" y1="195" style="clip-path:url(#clipPath1); fill:none; stroke:black;" y2="180" />
      <line x1="1005" x2="1105" y1="180" style="clip-path:url(#clipPath1); fill:none; stroke:black;" y2="180" />
      <line x1="1105" x2="1090" y1="180" style="clip-path:url(#clipPath1); fill:none; stroke:black;" y2="195" />
      <line x1="1105" x2="1105" y1="180" style="clip-path:url(#clipPath1); fill:none; stroke:black;" y2="262" />
      <line x1="1105" x2="1090" y1="262" style="clip-path:url(#clipPath1); fill:none; stroke:black;" y2="277" />
      <rect x="990" y="195" width="100" style="clip-path:url(#clipPath1); fill:none; stroke:black;" height="82" />
    </g>
    <g style="font-family:sans-serif;">
      <text x="994" y="207" style="clip-path:url(#clipPath6); stroke:none;">Motioncontroller
      </text>
      <line x1="994" x2="1086" y1="209" style="clip-path:url(#clipPath6); fill:none;" y2="209" />
    </g>
    <g style="fill:navy; stroke:navy;">
      <polygon style="clip-path:url(#clipPath1); stroke:none;" points=" 674 343 799 343 799 400 674 400 674 382 653 382 653 370 674 370 674 364 653 364 653 352 674 352 674 343" />
      <polygon style="fill:white; clip-path:url(#clipPath1); stroke:none;" points=" 671 340 796 340 796 397 671 397 671 379 650 379 650 367 671 367 671 361 650 361 650 349 671 349 671 340" />
      <polygon style="fill:none; clip-path:url(#clipPath1); stroke:black;" points=" 671 340 796 340 796 397 671 397 671 379 650 379 650 367 671 367 671 361 650 361 650 349 671 349 671 340" />
      <line x1="671" x2="692" y1="379" style="clip-path:url(#clipPath1); fill:none; stroke:black;" y2="379" />
      <line x1="692" x2="692" y1="379" style="clip-path:url(#clipPath1); fill:none; stroke:black;" y2="367" />
      <line x1="692" x2="671" y1="367" style="clip-path:url(#clipPath1); fill:none; stroke:black;" y2="367" />
      <line x1="671" x2="692" y1="361" style="clip-path:url(#clipPath1); fill:none; stroke:black;" y2="361" />
      <line x1="692" x2="692" y1="361" style="clip-path:url(#clipPath1); fill:none; stroke:black;" y2="349" />
      <line x1="692" x2="671" y1="349" style="clip-path:url(#clipPath1); fill:none; stroke:black;" y2="349" />
    </g>
    <g style="font-family:sans-serif;">
      <text x="700" y="352" style="clip-path:url(#clipPath8); stroke:none;">Communication
      </text>
      <line x1="700" x2="788" y1="354" style="clip-path:url(#clipPath8); fill:none;" y2="354" />
    </g>
    <g style="fill:navy; stroke:navy;">
      <polygon style="clip-path:url(#clipPath1); stroke:none;" points=" 854 343 947 343 947 400 854 400 854 382 833 382 833 370 854 370 854 364 833 364 833 352 854 352 854 343" />
      <polygon style="fill:white; clip-path:url(#clipPath1); stroke:none;" points=" 851 340 944 340 944 397 851 397 851 379 830 379 830 367 851 367 851 361 830 361 830 349 851 349 851 340" />
      <polygon style="fill:none; clip-path:url(#clipPath1); stroke:black;" points=" 851 340 944 340 944 397 851 397 851 379 830 379 830 367 851 367 851 361 830 361 830 349 851 349 851 340" />
      <line x1="851" x2="872" y1="379" style="clip-path:url(#clipPath1); fill:none; stroke:black;" y2="379" />
      <line x1="872" x2="872" y1="379" style="clip-path:url(#clipPath1); fill:none; stroke:black;" y2="367" />
      <line x1="872" x2="851" y1="367" style="clip-path:url(#clipPath1); fill:none; stroke:black;" y2="367" />
      <line x1="851" x2="872" y1="361" style="clip-path:url(#clipPath1); fill:none; stroke:black;" y2="361" />
      <line x1="872" x2="872" y1="361" style="clip-path:url(#clipPath1); fill:none; stroke:black;" y2="349" />
      <line x1="872" x2="851" y1="349" style="clip-path:url(#clipPath1); fill:none; stroke:black;" y2="349" />
    </g>
    <g style="font-family:sans-serif;">
      <text x="880" y="352" style="clip-path:url(#clipPath10); stroke:none;">Controller
      </text>
      <line x1="880" x2="936" y1="354" style="clip-path:url(#clipPath10); fill:none;" y2="354" />
    </g>
    <g style="fill:navy; stroke:navy;">
      <polygon style="clip-path:url(#clipPath1); stroke:none;" points=" 1014 343 1099 343 1099 400 1014 400 1014 382 993 382 993 370 1014 370 1014 364 993 364 993 352 1014 352 1014 343" />
      <polygon style="fill:white; clip-path:url(#clipPath1); stroke:none;" points=" 1011 340 1096 340 1096 397 1011 397 1011 379 990 379 990 367 1011 367 1011 361 990 361 990 349 1011 349 1011 340" />
      <polygon style="fill:none; clip-path:url(#clipPath1); stroke:black;" points=" 1011 340 1096 340 1096 397 1011 397 1011 379 990 379 990 367 1011 367 1011 361 990 361 990 349 1011 349 1011 340" />
      <line x1="1011" x2="1032" y1="379" style="clip-path:url(#clipPath1); fill:none; stroke:black;" y2="379" />
      <line x1="1032" x2="1032" y1="379" style="clip-path:url(#clipPath1); fill:none; stroke:black;" y2="367" />
      <line x1="1032" x2="1011" y1="367" style="clip-path:url(#clipPath1); fill:none; stroke:black;" y2="367" />
      <line x1="1011" x2="1032" y1="361" style="clip-path:url(#clipPath1); fill:none; stroke:black;" y2="361" />
      <line x1="1032" x2="1032" y1="361" style="clip-path:url(#clipPath1); fill:none; stroke:black;" y2="349" />
      <line x1="1032" x2="1011" y1="349" style="clip-path:url(#clipPath1); fill:none; stroke:black;" y2="349" />
    </g>
    <g style="font-family:sans-serif;">
      <text x="1040" y="352" style="clip-path:url(#clipPath12); stroke:none;">Actuator
      </text>
      <line x1="1040" x2="1088" y1="354" style="clip-path:url(#clipPath12); fill:none;" y2="354" />
    </g>
    <g style="fill:navy; stroke:navy;">
      <polygon style="clip-path:url(#clipPath1); stroke:none;" points=" 534 343 610 343 610 400 534 400 534 382 513 382 513 370 534 370 534 364 513 364 513 352 534 352 534 343" />
      <polygon style="fill:white; clip-path:url(#clipPath1); stroke:none;" points=" 531 340 607 340 607 397 531 397 531 379 510 379 510 367 531 367 531 361 510 361 510 349 531 349 531 340" />
      <polygon style="fill:none; clip-path:url(#clipPath1); stroke:black;" points=" 531 340 607 340 607 397 531 397 531 379 510 379 510 367 531 367 531 361 510 361 510 349 531 349 531 340" />
      <line x1="531" x2="552" y1="379" style="clip-path:url(#clipPath1); fill:none; stroke:black;" y2="379" />
      <line x1="552" x2="552" y1="379" style="clip-path:url(#clipPath1); fill:none; stroke:black;" y2="367" />
      <line x1="552" x2="531" y1="367" style="clip-path:url(#clipPath1); fill:none; stroke:black;" y2="367" />
      <line x1="531" x2="552" y1="361" style="clip-path:url(#clipPath1); fill:none; stroke:black;" y2="361" />
      <line x1="552" x2="552" y1="361" style="clip-path:url(#clipPath1); fill:none; stroke:black;" y2="349" />
      <line x1="552" x2="531" y1="349" style="clip-path:url(#clipPath1); fill:none; stroke:black;" y2="349" />
    </g>
    <g style="font-family:sans-serif;">
      <text x="565" y="352" style="clip-path:url(#clipPath14); stroke:none;">Lidar
      </text>
      <line x1="565" x2="594" y1="354" style="clip-path:url(#clipPath14); fill:none;" y2="354" />
    </g>
    <g style="fill:navy; stroke:navy;">
      <circle style="clip-path:url(#clipPath15); stroke:none;" r="13.5" cx="589.5" cy="496.5" />
      <circle style="clip-path:url(#clipPath15); fill:white; stroke:none;" r="13.5" cx="586.5" cy="493.5" />
      <circle style="clip-path:url(#clipPath15); fill:none; stroke:black;" r="13.5" cx="586.5" cy="493.5" />
    </g>
    <g style="font-family:sans-serif;">
      <text x="564" y="523" style="clip-path:url(#clipPath16); stroke:none;">interface
      </text>
      <text x="573" y="538" style="clip-path:url(#clipPath16); font-style:italic; stroke:none; font-weight:bold;">Lidar
      </text>
    </g>
    <g>
      <line x1="490" x2="687" y1="547" style="clip-path:url(#clipPath15); fill:none;" y2="547" />
    </g>
    <g style="font-family:sans-serif;">
      <text x="496" y="568" style="clip-path:url(#clipPath18); stroke:none;">-m_pScan:CMeasurementValue*
      </text>
      <text x="496" y="583" style="clip-path:url(#clipPath18); stroke:none;">-m_CUart:CUart
      </text>
    </g>
    <g>
      <line x1="490" x2="687" y1="593" style="clip-path:url(#clipPath15); fill:none;" y2="593" />
    </g>
    <g>
      <polygon style="clip-path:url(#clipPath19); stroke:none;" points=" 496 618 499 618 499 621 498 620 496 622 496 624 495 623 495 621 497 619 496 618" />
      <polygon style="fill:none; clip-path:url(#clipPath19);" points=" 496 618 499 618 499 621 498 620 496 622 496 624 495 623 495 621 497 619 496 618" />
    </g>
    <g style="fill:rgb(0,64,64); stroke:rgb(0,64,64);">
      <line x1="560" x2="560" y1="400" style="clip-path:url(#clipPath1); fill:none;" y2="480" />
      <line x1="947" x2="990" y1="370" style="clip-path:url(#clipPath1); fill:none; stroke:blue;" y2="370" />
      <line x1="830" x2="799" y1="370" style="clip-path:url(#clipPath1); fill:none; stroke:blue;" y2="370" />
      <line x1="907" x2="1042" y1="280" style="clip-path:url(#clipPath1); fill:none; stroke:rgb(0,0,130);" y2="340" />
      <line x1="895" x2="895" y1="280" style="clip-path:url(#clipPath1); fill:none; stroke:rgb(0,0,130);" y2="340" />
      <line x1="857" x2="724" y1="280" style="clip-path:url(#clipPath1); fill:none; stroke:rgb(0,0,130);" y2="340" />
      <line x1="681" x2="560" y1="280" style="clip-path:url(#clipPath1); fill:none; stroke:rgb(0,0,130);" y2="340" />
      <line x1="740" x2="1040" y1="110" style="clip-path:url(#clipPath1); fill:none; stroke:rgb(0,0,130);" y2="110" />
      <line x1="1040" x2="1040" y1="110" style="clip-path:url(#clipPath1); fill:none; stroke:rgb(0,0,130);" y2="180" />
      <line x1="725" x2="870" y1="130" style="clip-path:url(#clipPath1); fill:none; stroke:rgb(0,0,130);" y2="180" />
      <line x1="711" x2="711" y1="130" style="clip-path:url(#clipPath1); fill:none; stroke:rgb(0,0,130);" y2="180" />
      <line x1="640" x2="460" y1="100" style="clip-path:url(#clipPath1); fill:none; stroke:rgb(0,0,130);" y2="100" />
      <line x1="460" x2="460" y1="100" style="clip-path:url(#clipPath1); fill:none; stroke:rgb(0,0,130);" y2="178" />
      <polygon style="fill:white; clip-path:url(#clipPath1); stroke:none;" points=" 907 280 916 280 922 286 913 287" />
      <polygon style="fill:none; clip-path:url(#clipPath1); stroke:rgb(0,0,130);" points=" 907 280 916 280 922 286 913 287" />
      <line x1="913" x2="907" y1="287" style="clip-path:url(#clipPath1); fill:none; stroke:rgb(0,0,130);" y2="280" />
      <polygon style="fill:white; clip-path:url(#clipPath1); stroke:none;" points=" 895 280 899 288 895 296 891 288" />
      <polygon style="fill:none; clip-path:url(#clipPath1); stroke:rgb(0,0,130);" points=" 895 280 899 288 895 296 891 288" />
      <line x1="891" x2="895" y1="288" style="clip-path:url(#clipPath1); fill:none; stroke:rgb(0,0,130);" y2="280" />
      <polygon style="fill:white; clip-path:url(#clipPath1); stroke:none;" points=" 857 280 851 287 842 287 848 280" />
      <polygon style="fill:none; clip-path:url(#clipPath1); stroke:rgb(0,0,130);" points=" 857 280 851 287 842 287 848 280" />
      <line x1="848" x2="857" y1="280" style="clip-path:url(#clipPath1); fill:none; stroke:rgb(0,0,130);" y2="280" />
      <polygon style="fill:white; clip-path:url(#clipPath1); stroke:none;" points=" 681 280 676 287 667 287 672 280" />
      <polygon style="fill:none; clip-path:url(#clipPath1); stroke:rgb(0,0,130);" points=" 681 280 676 287 667 287 672 280" />
      <line x1="672" x2="681" y1="280" style="clip-path:url(#clipPath1); fill:none; stroke:rgb(0,0,130);" y2="280" />
      <polygon style="fill:white; clip-path:url(#clipPath1); stroke:none;" points=" 740 110 748 106 756 110 748 114" />
      <polygon style="fill:none; clip-path:url(#clipPath1); stroke:rgb(0,0,130);" points=" 740 110 748 106 756 110 748 114" />
      <line x1="748" x2="740" y1="114" style="clip-path:url(#clipPath1); fill:none; stroke:rgb(0,0,130);" y2="110" />
      <polygon style="fill:white; clip-path:url(#clipPath1); stroke:none;" points=" 725 130 734 129 740 135 731 136" />
      <polygon style="fill:none; clip-path:url(#clipPath1); stroke:rgb(0,0,130);" points=" 725 130 734 129 740 135 731 136" />
      <line x1="731" x2="725" y1="136" style="clip-path:url(#clipPath1); fill:none; stroke:rgb(0,0,130);" y2="130" />
      <polygon style="fill:white; clip-path:url(#clipPath1); stroke:none;" points=" 711 130 715 138 711 146 707 138" />
      <polygon style="fill:none; clip-path:url(#clipPath1); stroke:rgb(0,0,130);" points=" 711 130 715 138 711 146 707 138" />
      <line x1="707" x2="711" y1="138" style="clip-path:url(#clipPath1); fill:none; stroke:rgb(0,0,130);" y2="130" />
      <polygon style="fill:white; clip-path:url(#clipPath1); stroke:none;" points=" 640 100 632 104 624 100 632 96" />
      <polygon style="fill:none; clip-path:url(#clipPath1); stroke:rgb(0,0,130);" points=" 640 100 632 104 624 100 632 96" />
      <line x1="632" x2="640" y1="96" style="clip-path:url(#clipPath1); fill:none; stroke:rgb(0,0,130);" y2="100" />
      <polygon style="fill:navy; clip-path:url(#clipPath1); stroke:none;" points=" 33 53 387 53 402 68 402 91 33 91" />
      <polygon style="fill:white; clip-path:url(#clipPath1); stroke:none;" points=" 30 50 384 50 399 65 399 88 30 88" />
      <line x1="30" x2="384" y1="50" style="clip-path:url(#clipPath1); fill:none; stroke:black;" y2="50" />
      <line x1="384" x2="399" y1="50" style="clip-path:url(#clipPath1); fill:none; stroke:black;" y2="65" />
      <line x1="399" x2="399" y1="65" style="clip-path:url(#clipPath1); fill:none; stroke:black;" y2="88" />
      <line x1="399" x2="30" y1="88" style="clip-path:url(#clipPath1); fill:none; stroke:black;" y2="88" />
      <line x1="30" x2="30" y1="88" style="clip-path:url(#clipPath1); fill:none; stroke:black;" y2="50" />
      <line x1="384" x2="384" y1="50" style="clip-path:url(#clipPath1); fill:none; stroke:black;" y2="65" />
      <line x1="384" x2="399" y1="65" style="clip-path:url(#clipPath1); fill:none; stroke:black;" y2="65" />
    </g>
    <g style="font-family:sans-serif;">
      <text x="38" y="66" style="clip-path:url(#clipPath20); stroke:none;">Node represents an entity of hardware + optional software
      </text>
    </g>
    <g style="fill:navy; stroke:navy;">
      <polygon style="clip-path:url(#clipPath1); stroke:none;" points=" 13 333 406 333 421 348 421 401 13 401" />
      <polygon style="fill:white; clip-path:url(#clipPath1); stroke:none;" points=" 10 330 403 330 418 345 418 398 10 398" />
      <line x1="10" x2="403" y1="330" style="clip-path:url(#clipPath1); fill:none; stroke:black;" y2="330" />
      <line x1="403" x2="418" y1="330" style="clip-path:url(#clipPath1); fill:none; stroke:black;" y2="345" />
      <line x1="418" x2="418" y1="345" style="clip-path:url(#clipPath1); fill:none; stroke:black;" y2="398" />
      <line x1="418" x2="10" y1="398" style="clip-path:url(#clipPath1); fill:none; stroke:black;" y2="398" />
      <line x1="10" x2="10" y1="398" style="clip-path:url(#clipPath1); fill:none; stroke:black;" y2="330" />
      <line x1="403" x2="403" y1="330" style="clip-path:url(#clipPath1); fill:none; stroke:black;" y2="345" />
      <line x1="403" x2="418" y1="345" style="clip-path:url(#clipPath1); fill:none; stroke:black;" y2="345" />
    </g>
    <g style="font-family:sans-serif;">
      <text x="18" y="346" style="clip-path:url(#clipPath21); stroke:none;">A component represent a software functionalty, which may consist
      </text>
      <text x="18" y="361" style="clip-path:url(#clipPath21); stroke:none;">out of any number of classes
      </text>
    </g>
    <g style="fill:navy; stroke:navy;">
      <polygon style="clip-path:url(#clipPath1); stroke:none;" points=" 23 483 423 483 438 498 438 589 23 589" />
      <polygon style="fill:white; clip-path:url(#clipPath1); stroke:none;" points=" 20 480 420 480 435 495 435 586 20 586" />
      <line x1="20" x2="420" y1="480" style="clip-path:url(#clipPath1); fill:none; stroke:black;" y2="480" />
      <line x1="420" x2="435" y1="480" style="clip-path:url(#clipPath1); fill:none; stroke:black;" y2="495" />
      <line x1="435" x2="435" y1="495" style="clip-path:url(#clipPath1); fill:none; stroke:black;" y2="586" />
      <line x1="435" x2="20" y1="586" style="clip-path:url(#clipPath1); fill:none; stroke:black;" y2="586" />
      <line x1="20" x2="20" y1="586" style="clip-path:url(#clipPath1); fill:none; stroke:black;" y2="480" />
      <line x1="420" x2="420" y1="480" style="clip-path:url(#clipPath1); fill:none; stroke:black;" y2="495" />
      <line x1="420" x2="435" y1="495" style="clip-path:url(#clipPath1); fill:none; stroke:black;" y2="495" />
    </g>
    <g style="font-family:sans-serif;">
      <text x="28" y="496" style="clip-path:url(#clipPath22); stroke:none;">An interface class is a class which serves as an external interface
      </text>
      <text x="28" y="511" style="clip-path:url(#clipPath22); stroke:none;">to a component. Also referred to as public class
      </text>
    </g>
  </g>
</svg>
