<?xml version="1.0" encoding="UTF-8"?>

<!DOCTYPE svg PUBLIC '-//W3C//DTD SVG 20001102//EN' 'http://www.w3.org/TR/2000/CR-SVG-20001102/DTD/svg-20001102.dtd'>
<svg style="fill-opacity:1; color-rendering:auto; color-interpolation:sRGB; text-rendering:auto; stroke:black; stroke-linecap:square; stroke-miterlimit:10; shape-rendering:auto; stroke-opacity:1; fill:black; stroke-dasharray:none; font-weight:normal; stroke-width:1; font-family:&apos;sansserif&apos;; font-style:normal; stroke-linejoin:miter; font-size:12; stroke-dashoffset:0; image-rendering:auto;" width="907" height="401">
  <!--Generated by the Batik Graphics2D SVG Generator-->
  <defs id="genericDefs" />
  <g>
    <defs id="defs1">
      <clipPath clipPathUnits="userSpaceOnUse" id="clipPath1">
        <path d="M0 0 L907 0 L907 401 L0 401 L0 0 Z" />
      </clipPath>
      <clipPath clipPathUnits="userSpaceOnUse" id="clipPath2">
        <path d="M218 50 L218 116 L330 116 L330 50 Z" />
      </clipPath>
      <clipPath clipPathUnits="userSpaceOnUse" id="clipPath3">
        <path d="M218 50 L218 106 L330 106 L330 50 Z" />
      </clipPath>
      <clipPath clipPathUnits="userSpaceOnUse" id="clipPath4">
        <path d="M105 102 L105 119 L196 119 L196 102 Z" />
      </clipPath>
      <clipPath clipPathUnits="userSpaceOnUse" id="clipPath5">
        <path d="M426 50 L426 116 L514 116 L514 50 Z" />
      </clipPath>
      <clipPath clipPathUnits="userSpaceOnUse" id="clipPath6">
        <path d="M426 50 L426 106 L514 106 L514 50 Z" />
      </clipPath>
      <clipPath clipPathUnits="userSpaceOnUse" id="clipPath7">
        <path d="M638 50 L638 116 L726 116 L726 50 Z" />
      </clipPath>
      <clipPath clipPathUnits="userSpaceOnUse" id="clipPath8">
        <path d="M638 50 L638 106 L726 106 L726 50 Z" />
      </clipPath>
      <clipPath clipPathUnits="userSpaceOnUse" id="clipPath9">
        <path d="M806 50 L806 116 L894 116 L894 50 Z" />
      </clipPath>
      <clipPath clipPathUnits="userSpaceOnUse" id="clipPath10">
        <path d="M806 50 L806 106 L894 106 L894 50 Z" />
      </clipPath>
    </defs>
    <g style="fill:navy; stroke:navy;">
      <rect x="221" y="53" width="111" style="clip-path:url(#clipPath1); stroke:none;" height="65" />
      <rect x="218" y="50" width="111" style="clip-path:url(#clipPath1); fill:white; stroke:none;" height="65" />
      <rect x="218" y="50" width="111" style="clip-path:url(#clipPath1); fill:none; stroke:black;" height="65" />
    </g>
    <g style="font-weight:bold; font-family:sans-serif;">
      <text x="248" y="62" style="clip-path:url(#clipPath3); stroke:none;">Object1
      </text>
      <line x1="248" x2="298" y1="64" style="clip-path:url(#clipPath3); fill:none;" y2="64" />
      <text x="222" y="77" style="clip-path:url(#clipPath3); font-weight:normal; stroke:none;">CAdressDatabase
      </text>
    </g>
    <g>
      <line x1="275" x2="275" y1="118" style="clip-path:url(#clipPath1); fill:none;" y2="128" />
      <line x1="275" x2="275" y1="133" style="clip-path:url(#clipPath1); fill:none;" y2="143" />
      <line x1="275" x2="275" y1="148" style="clip-path:url(#clipPath1); fill:none;" y2="158" />
      <line x1="275" x2="275" y1="163" style="clip-path:url(#clipPath1); fill:none;" y2="173" />
      <line x1="275" x2="275" y1="178" style="clip-path:url(#clipPath1); fill:none;" y2="188" />
      <line x1="275" x2="275" y1="193" style="clip-path:url(#clipPath1); fill:none;" y2="203" />
      <line x1="275" x2="275" y1="208" style="clip-path:url(#clipPath1); fill:none;" y2="218" />
      <line x1="275" x2="275" y1="223" style="clip-path:url(#clipPath1); fill:none;" y2="233" />
      <line x1="275" x2="275" y1="238" style="clip-path:url(#clipPath1); fill:none;" y2="248" />
      <line x1="275" x2="275" y1="253" style="clip-path:url(#clipPath1); fill:none;" y2="263" />
      <line x1="275" x2="275" y1="268" style="clip-path:url(#clipPath1); fill:none;" y2="278" />
      <line x1="275" x2="275" y1="283" style="clip-path:url(#clipPath1); fill:none;" y2="293" />
      <line x1="275" x2="275" y1="298" style="clip-path:url(#clipPath1); fill:none;" y2="308" />
      <line x1="275" x2="275" y1="313" style="clip-path:url(#clipPath1); fill:none;" y2="323" />
      <line x1="275" x2="275" y1="328" style="clip-path:url(#clipPath1); fill:none;" y2="338" />
      <line x1="275" x2="275" y1="343" style="clip-path:url(#clipPath1); fill:none;" y2="353" />
      <line x1="275" x2="275" y1="358" style="clip-path:url(#clipPath1); fill:none;" y2="368" />
      <line x1="275" x2="275" y1="373" style="clip-path:url(#clipPath1); fill:none;" y2="383" />
      <line x1="275" x2="275" y1="388" style="clip-path:url(#clipPath1); fill:none;" y2="390" />
      <rect x="268" y="148" width="14" style="clip-path:url(#clipPath1); fill:none;" height="162" />
      <rect x="269" y="149" width="13" style="clip-path:url(#clipPath1); fill:white; stroke:none;" height="161" />
      <polygon style="fill:navy; clip-path:url(#clipPath1); stroke:none;" points=" 152 69 152 74 166 74 166 76 152 76 152 87 166 101 166 102 164 102 151 89 138 102 136 102 136 101 150 87 150 76 136 76 136 74 150 74 150 69 152 69" />
      <circle style="clip-path:url(#clipPath1); fill:navy; stroke:none;" r="8" cx="151" cy="61" />
      <polygon style="fill:white; clip-path:url(#clipPath1); stroke:none;" points=" 149 66 149 71 163 71 163 73 149 73 149 84 163 98 163 99 161 99 148 86 135 99 133 99 133 98 147 84 147 73 133 73 133 71 147 71 147 66 149 66" />
      <circle style="clip-path:url(#clipPath1); fill:white; stroke:none;" r="8" cx="148" cy="58" />
      <polygon style="fill:none; clip-path:url(#clipPath1);" points=" 149 66 149 71 163 71 163 73 149 73 149 84 163 98 163 99 161 99 148 86 135 99 133 99 133 98 147 84 147 73 133 73 133 71 147 71 147 66 149 66" />
      <circle style="fill:none; clip-path:url(#clipPath1);" r="8" cx="148" cy="58" />
    </g>
    <g style="font-weight:bold; font-family:sans-serif;">
      <text x="125" y="114" style="clip-path:url(#clipPath4); stroke:none;">Object2
      </text>
      <line x1="125" x2="175" y1="116" style="clip-path:url(#clipPath4); fill:none;" y2="116" />
    </g>
    <g>
      <rect x="143" y="119" width="14" style="clip-path:url(#clipPath1); fill:none;" height="270" />
      <rect x="144" y="120" width="13" style="clip-path:url(#clipPath1); fill:white; stroke:none;" height="269" />
      <rect x="429" y="53" width="87" style="clip-path:url(#clipPath1); fill:navy; stroke:none;" height="65" />
      <rect x="426" y="50" width="87" style="clip-path:url(#clipPath1); fill:white; stroke:none;" height="65" />
      <rect x="426" y="50" width="87" style="clip-path:url(#clipPath1); fill:none;" height="65" />
    </g>
    <g style="font-weight:bold; font-family:sans-serif;">
      <text x="444" y="62" style="clip-path:url(#clipPath6); stroke:none;">Object3
      </text>
      <line x1="444" x2="494" y1="64" style="clip-path:url(#clipPath6); fill:none;" y2="64" />
      <text x="444" y="77" style="clip-path:url(#clipPath6); font-weight:normal; stroke:none;">CStorage
      </text>
    </g>
    <g>
      <line x1="471" x2="471" y1="118" style="clip-path:url(#clipPath1); fill:none;" y2="128" />
      <line x1="471" x2="471" y1="133" style="clip-path:url(#clipPath1); fill:none;" y2="143" />
      <line x1="471" x2="471" y1="148" style="clip-path:url(#clipPath1); fill:none;" y2="158" />
      <line x1="471" x2="471" y1="163" style="clip-path:url(#clipPath1); fill:none;" y2="173" />
      <line x1="471" x2="471" y1="178" style="clip-path:url(#clipPath1); fill:none;" y2="188" />
      <line x1="471" x2="471" y1="193" style="clip-path:url(#clipPath1); fill:none;" y2="203" />
      <line x1="471" x2="471" y1="208" style="clip-path:url(#clipPath1); fill:none;" y2="218" />
      <line x1="471" x2="471" y1="223" style="clip-path:url(#clipPath1); fill:none;" y2="233" />
      <line x1="471" x2="471" y1="238" style="clip-path:url(#clipPath1); fill:none;" y2="248" />
      <line x1="471" x2="471" y1="253" style="clip-path:url(#clipPath1); fill:none;" y2="263" />
      <line x1="471" x2="471" y1="268" style="clip-path:url(#clipPath1); fill:none;" y2="278" />
      <line x1="471" x2="471" y1="283" style="clip-path:url(#clipPath1); fill:none;" y2="293" />
      <line x1="471" x2="471" y1="298" style="clip-path:url(#clipPath1); fill:none;" y2="308" />
      <line x1="471" x2="471" y1="313" style="clip-path:url(#clipPath1); fill:none;" y2="323" />
      <line x1="471" x2="471" y1="328" style="clip-path:url(#clipPath1); fill:none;" y2="338" />
      <line x1="471" x2="471" y1="343" style="clip-path:url(#clipPath1); fill:none;" y2="353" />
      <line x1="471" x2="471" y1="358" style="clip-path:url(#clipPath1); fill:none;" y2="368" />
      <line x1="471" x2="471" y1="373" style="clip-path:url(#clipPath1); fill:none;" y2="383" />
      <line x1="471" x2="471" y1="388" style="clip-path:url(#clipPath1); fill:none;" y2="390" />
      <rect x="464" y="161" width="14" style="clip-path:url(#clipPath1); fill:none;" height="20" />
      <rect x="465" y="162" width="13" style="clip-path:url(#clipPath1); fill:white; stroke:none;" height="19" />
      <rect x="641" y="53" width="87" style="clip-path:url(#clipPath1); fill:navy; stroke:none;" height="65" />
      <rect x="638" y="50" width="87" style="clip-path:url(#clipPath1); fill:white; stroke:none;" height="65" />
      <rect x="638" y="50" width="87" style="clip-path:url(#clipPath1); fill:none;" height="65" />
    </g>
    <g style="font-weight:bold; font-family:sans-serif;">
      <text x="656" y="62" style="clip-path:url(#clipPath8); stroke:none;">Object4
      </text>
      <line x1="656" x2="706" y1="64" style="clip-path:url(#clipPath8); fill:none;" y2="64" />
      <text x="657" y="77" style="clip-path:url(#clipPath8); font-weight:normal; stroke:none;">CFormat
      </text>
    </g>
    <g>
      <line x1="683" x2="683" y1="118" style="clip-path:url(#clipPath1); fill:none;" y2="128" />
      <line x1="683" x2="683" y1="133" style="clip-path:url(#clipPath1); fill:none;" y2="143" />
      <line x1="683" x2="683" y1="148" style="clip-path:url(#clipPath1); fill:none;" y2="158" />
      <line x1="683" x2="683" y1="163" style="clip-path:url(#clipPath1); fill:none;" y2="173" />
      <line x1="683" x2="683" y1="178" style="clip-path:url(#clipPath1); fill:none;" y2="188" />
      <line x1="683" x2="683" y1="193" style="clip-path:url(#clipPath1); fill:none;" y2="203" />
      <line x1="683" x2="683" y1="208" style="clip-path:url(#clipPath1); fill:none;" y2="218" />
      <line x1="683" x2="683" y1="223" style="clip-path:url(#clipPath1); fill:none;" y2="233" />
      <line x1="683" x2="683" y1="238" style="clip-path:url(#clipPath1); fill:none;" y2="248" />
      <line x1="683" x2="683" y1="253" style="clip-path:url(#clipPath1); fill:none;" y2="263" />
      <line x1="683" x2="683" y1="268" style="clip-path:url(#clipPath1); fill:none;" y2="278" />
      <line x1="683" x2="683" y1="283" style="clip-path:url(#clipPath1); fill:none;" y2="293" />
      <line x1="683" x2="683" y1="298" style="clip-path:url(#clipPath1); fill:none;" y2="308" />
      <line x1="683" x2="683" y1="313" style="clip-path:url(#clipPath1); fill:none;" y2="323" />
      <line x1="683" x2="683" y1="328" style="clip-path:url(#clipPath1); fill:none;" y2="338" />
      <line x1="683" x2="683" y1="343" style="clip-path:url(#clipPath1); fill:none;" y2="353" />
      <line x1="683" x2="683" y1="358" style="clip-path:url(#clipPath1); fill:none;" y2="368" />
      <line x1="683" x2="683" y1="373" style="clip-path:url(#clipPath1); fill:none;" y2="383" />
      <line x1="683" x2="683" y1="388" style="clip-path:url(#clipPath1); fill:none;" y2="390" />
      <rect x="676" y="220" width="14" style="clip-path:url(#clipPath1); fill:none;" height="20" />
      <rect x="677" y="221" width="13" style="clip-path:url(#clipPath1); fill:white; stroke:none;" height="19" />
      <rect x="809" y="53" width="87" style="clip-path:url(#clipPath1); fill:navy; stroke:none;" height="65" />
      <rect x="806" y="50" width="87" style="clip-path:url(#clipPath1); fill:white; stroke:none;" height="65" />
      <rect x="806" y="50" width="87" style="clip-path:url(#clipPath1); fill:none;" height="65" />
    </g>
    <g style="font-weight:bold; font-family:sans-serif;">
      <text x="824" y="62" style="clip-path:url(#clipPath10); stroke:none;">Object5
      </text>
      <line x1="824" x2="874" y1="64" style="clip-path:url(#clipPath10); fill:none;" y2="64" />
      <text x="830" y="77" style="clip-path:url(#clipPath10); font-weight:normal; stroke:none;">CFileIO
      </text>
    </g>
    <g>
      <line x1="851" x2="851" y1="118" style="clip-path:url(#clipPath1); fill:none;" y2="128" />
      <line x1="851" x2="851" y1="133" style="clip-path:url(#clipPath1); fill:none;" y2="143" />
      <line x1="851" x2="851" y1="148" style="clip-path:url(#clipPath1); fill:none;" y2="158" />
      <line x1="851" x2="851" y1="163" style="clip-path:url(#clipPath1); fill:none;" y2="173" />
      <line x1="851" x2="851" y1="178" style="clip-path:url(#clipPath1); fill:none;" y2="188" />
      <line x1="851" x2="851" y1="193" style="clip-path:url(#clipPath1); fill:none;" y2="203" />
      <line x1="851" x2="851" y1="208" style="clip-path:url(#clipPath1); fill:none;" y2="218" />
      <line x1="851" x2="851" y1="223" style="clip-path:url(#clipPath1); fill:none;" y2="233" />
      <line x1="851" x2="851" y1="238" style="clip-path:url(#clipPath1); fill:none;" y2="248" />
      <line x1="851" x2="851" y1="253" style="clip-path:url(#clipPath1); fill:none;" y2="263" />
      <line x1="851" x2="851" y1="268" style="clip-path:url(#clipPath1); fill:none;" y2="278" />
      <line x1="851" x2="851" y1="283" style="clip-path:url(#clipPath1); fill:none;" y2="293" />
      <line x1="851" x2="851" y1="298" style="clip-path:url(#clipPath1); fill:none;" y2="308" />
      <line x1="851" x2="851" y1="313" style="clip-path:url(#clipPath1); fill:none;" y2="323" />
      <line x1="851" x2="851" y1="328" style="clip-path:url(#clipPath1); fill:none;" y2="338" />
      <line x1="851" x2="851" y1="343" style="clip-path:url(#clipPath1); fill:none;" y2="353" />
      <line x1="851" x2="851" y1="358" style="clip-path:url(#clipPath1); fill:none;" y2="368" />
      <line x1="851" x2="851" y1="373" style="clip-path:url(#clipPath1); fill:none;" y2="383" />
      <line x1="851" x2="851" y1="388" style="clip-path:url(#clipPath1); fill:none;" y2="390" />
      <rect x="844" y="280" width="14" style="clip-path:url(#clipPath1); fill:none;" height="20" />
      <rect x="845" y="281" width="13" style="clip-path:url(#clipPath1); fill:white; stroke:none;" height="19" />
      <line x1="157" x2="268" y1="148" style="clip-path:url(#clipPath1); fill:none; stroke:rgb(50,50,0);" y2="148" />
      <line x1="282" x2="844" y1="280" style="clip-path:url(#clipPath1); fill:none; stroke:rgb(50,50,0);" y2="280" />
      <line x1="282" x2="676" y1="220" style="clip-path:url(#clipPath1); fill:none; stroke:rgb(50,50,0);" y2="220" />
      <line x1="282" x2="464" y1="161" style="clip-path:url(#clipPath1); fill:none; stroke:rgb(50,50,0);" y2="161" />
      <polygon style="fill:gray; clip-path:url(#clipPath1); stroke:none;" points=" 268 148 250 152 250 144" />
      <polygon style="fill:none; clip-path:url(#clipPath1); stroke:rgb(50,50,0);" points=" 268 148 250 152 250 144" />
      <line x1="250" x2="268" y1="144" style="clip-path:url(#clipPath1); fill:none; stroke:rgb(50,50,0);" y2="148" />
      <text x="165" y="141" style="clip-path:url(#clipPath1); fill:rgb(50,50,0); font-family:sans-serif; stroke:none;">1: writeToFile():void
      </text>
      <polygon points=" 844 280 826 284 826 276" style="fill:gray; clip-path:url(#clipPath1); font-family:sans-serif; stroke:none;" />
      <polygon points=" 844 280 826 284 826 276" style="fill:none; clip-path:url(#clipPath1); font-family:sans-serif; stroke:rgb(50,50,0);" />
      <line x1="826" x2="844" y1="276" style="clip-path:url(#clipPath1); fill:none; font-family:sans-serif; stroke:rgb(50,50,0);" y2="280" />
      <text x="290" y="273" style="clip-path:url(#clipPath1); fill:rgb(50,50,0); font-family:sans-serif; stroke:none;">1.3: write():void
      </text>
      <polygon points=" 676 220 658 224 658 216" style="fill:gray; clip-path:url(#clipPath1); font-family:sans-serif; stroke:none;" />
      <polygon points=" 676 220 658 224 658 216" style="fill:none; clip-path:url(#clipPath1); font-family:sans-serif; stroke:rgb(50,50,0);" />
      <line x1="658" x2="676" y1="216" style="clip-path:url(#clipPath1); fill:none; font-family:sans-serif; stroke:rgb(50,50,0);" y2="220" />
      <text x="290" y="213" style="clip-path:url(#clipPath1); fill:rgb(50,50,0); font-family:sans-serif; stroke:none;">1.2: translateToFormat(string):void
      </text>
      <polygon points=" 464 161 446 165 446 157" style="fill:gray; clip-path:url(#clipPath1); font-family:sans-serif; stroke:none;" />
      <polygon points=" 464 161 446 165 446 157" style="fill:none; clip-path:url(#clipPath1); font-family:sans-serif; stroke:rgb(50,50,0);" />
      <line x1="446" x2="464" y1="157" style="clip-path:url(#clipPath1); fill:none; font-family:sans-serif; stroke:rgb(50,50,0);" y2="161" />
      <text x="290" y="154" style="clip-path:url(#clipPath1); fill:rgb(50,50,0); font-family:sans-serif; stroke:none;">1.1: getNextEntryAsSTring():void
      </text>
    </g>
  </g>
</svg>
