<?xml version="1.0" encoding="UTF-8"?>

<!DOCTYPE svg PUBLIC '-//W3C//DTD SVG 20001102//EN' 'http://www.w3.org/TR/2000/CR-SVG-20001102/DTD/svg-20001102.dtd'>
<svg style="fill-opacity:1; color-rendering:auto; color-interpolation:sRGB; text-rendering:auto; stroke:black; stroke-linecap:square; stroke-miterlimit:10; shape-rendering:auto; stroke-opacity:1; fill:black; stroke-dasharray:none; font-weight:normal; stroke-width:1; font-family:&apos;sansserif&apos;; font-style:normal; stroke-linejoin:miter; font-size:12; stroke-dashoffset:0; image-rendering:auto;" width="1351" height="611">
  <!--Generated by the Batik Graphics2D SVG Generator-->
  <defs id="genericDefs" />
  <g>
    <defs id="defs1">
      <clipPath clipPathUnits="userSpaceOnUse" id="clipPath1">
        <path d="M0 0 L1351 0 L1351 611 L0 611 L0 0 Z" />
      </clipPath>
      <clipPath clipPathUnits="userSpaceOnUse" id="clipPath2">
        <path d="M917 300 L917 396 L1086 396 L1086 300 Z" />
      </clipPath>
      <clipPath clipPathUnits="userSpaceOnUse" id="clipPath3">
        <path d="M918 301 L918 317 L1086 317 L1086 301 Z" />
      </clipPath>
      <clipPath clipPathUnits="userSpaceOnUse" id="clipPath4">
        <path d="M917 352 L917 386 L1086 386 L1086 352 Z" />
      </clipPath>
      <clipPath clipPathUnits="userSpaceOnUse" id="clipPath5">
        <path d="M919 354 L919 385 L1085 385 L1085 354 Z" />
      </clipPath>
      <clipPath clipPathUnits="userSpaceOnUse" id="clipPath6">
        <path d="M790 409 L790 488 L871 488 L871 409 Z" />
      </clipPath>
      <clipPath clipPathUnits="userSpaceOnUse" id="clipPath7">
        <path d="M791 410 L791 426 L871 426 L871 410 Z" />
      </clipPath>
      <clipPath clipPathUnits="userSpaceOnUse" id="clipPath8">
        <path d="M965 430 L965 509 L1046 509 L1046 430 Z" />
      </clipPath>
      <clipPath clipPathUnits="userSpaceOnUse" id="clipPath9">
        <path d="M966 431 L966 447 L1046 447 L1046 431 Z" />
      </clipPath>
      <clipPath clipPathUnits="userSpaceOnUse" id="clipPath10">
        <path d="M560 170 L560 289 L694 289 L694 170 Z" />
      </clipPath>
      <clipPath clipPathUnits="userSpaceOnUse" id="clipPath11">
        <path d="M561 171 L561 187 L694 187 L694 171 Z" />
      </clipPath>
      <clipPath clipPathUnits="userSpaceOnUse" id="clipPath12">
        <path d="M560 199 L560 218 L694 218 L694 199 Z" />
      </clipPath>
      <clipPath clipPathUnits="userSpaceOnUse" id="clipPath13">
        <path d="M562 201 L562 217 L693 217 L693 201 Z" />
      </clipPath>
      <clipPath clipPathUnits="userSpaceOnUse" id="clipPath14">
        <path d="M560 230 L560 279 L694 279 L694 230 Z" />
      </clipPath>
      <clipPath clipPathUnits="userSpaceOnUse" id="clipPath15">
        <path d="M562 232 L562 278 L693 278 L693 232 Z" />
      </clipPath>
      <clipPath clipPathUnits="userSpaceOnUse" id="clipPath16">
        <path d="M276 293 L276 374 L450 374 L450 293 Z" />
      </clipPath>
      <clipPath clipPathUnits="userSpaceOnUse" id="clipPath17">
        <path d="M277 294 L277 310 L450 310 L450 294 Z" />
      </clipPath>
      <clipPath clipPathUnits="userSpaceOnUse" id="clipPath18">
        <path d="M276 345 L276 364 L450 364 L450 345 Z" />
      </clipPath>
      <clipPath clipPathUnits="userSpaceOnUse" id="clipPath19">
        <path d="M278 347 L278 363 L449 363 L449 347 Z" />
      </clipPath>
      <clipPath clipPathUnits="userSpaceOnUse" id="clipPath20">
        <path d="M232 417 L232 521 L419 521 L419 417 Z" />
      </clipPath>
      <clipPath clipPathUnits="userSpaceOnUse" id="clipPath21">
        <path d="M233 418 L233 434 L419 434 L419 418 Z" />
      </clipPath>
      <clipPath clipPathUnits="userSpaceOnUse" id="clipPath22">
        <path d="M232 446 L232 480 L419 480 L419 446 Z" />
      </clipPath>
      <clipPath clipPathUnits="userSpaceOnUse" id="clipPath23">
        <path d="M234 448 L234 479 L418 479 L418 448 Z" />
      </clipPath>
      <clipPath clipPathUnits="userSpaceOnUse" id="clipPath24">
        <path d="M232 492 L232 511 L419 511 L419 492 Z" />
      </clipPath>
      <clipPath clipPathUnits="userSpaceOnUse" id="clipPath25">
        <path d="M234 494 L234 510 L418 510 L418 494 Z" />
      </clipPath>
      <clipPath clipPathUnits="userSpaceOnUse" id="clipPath26">
        <path d="M440 420 L440 539 L627 539 L627 420 Z" />
      </clipPath>
      <clipPath clipPathUnits="userSpaceOnUse" id="clipPath27">
        <path d="M441 421 L441 437 L627 437 L627 421 Z" />
      </clipPath>
      <clipPath clipPathUnits="userSpaceOnUse" id="clipPath28">
        <path d="M440 449 L440 498 L627 498 L627 449 Z" />
      </clipPath>
      <clipPath clipPathUnits="userSpaceOnUse" id="clipPath29">
        <path d="M442 451 L442 497 L626 497 L626 451 Z" />
      </clipPath>
      <clipPath clipPathUnits="userSpaceOnUse" id="clipPath30">
        <path d="M440 510 L440 529 L627 529 L627 510 Z" />
      </clipPath>
      <clipPath clipPathUnits="userSpaceOnUse" id="clipPath31">
        <path d="M442 512 L442 528 L626 528 L626 512 Z" />
      </clipPath>
      <clipPath clipPathUnits="userSpaceOnUse" id="clipPath32">
        <path d="M1140 190 L1140 286 L1221 286 L1221 190 Z" />
      </clipPath>
      <clipPath clipPathUnits="userSpaceOnUse" id="clipPath33">
        <path d="M1141 191 L1141 207 L1221 207 L1221 191 Z" />
      </clipPath>
      <clipPath clipPathUnits="userSpaceOnUse" id="clipPath34">
        <path d="M1140 242 L1140 276 L1221 276 L1221 242 Z" />
      </clipPath>
      <clipPath clipPathUnits="userSpaceOnUse" id="clipPath35">
        <path d="M1142 244 L1142 275 L1220 275 L1220 244 Z" />
      </clipPath>
      <clipPath clipPathUnits="userSpaceOnUse" id="clipPath36">
        <path d="M790 160 L790 247 L932 247 L932 160 Z" />
      </clipPath>
      <clipPath clipPathUnits="userSpaceOnUse" id="clipPath37">
        <path d="M791 161 L791 177 L932 177 L932 161 Z" />
      </clipPath>
      <clipPath clipPathUnits="userSpaceOnUse" id="clipPath38">
        <path d="M790 189 L790 208 L932 208 L932 189 Z" />
      </clipPath>
      <clipPath clipPathUnits="userSpaceOnUse" id="clipPath39">
        <path d="M792 191 L792 207 L931 207 L931 191 Z" />
      </clipPath>
      <clipPath clipPathUnits="userSpaceOnUse" id="clipPath40">
        <path d="M14 264 L14 367 L233 367 L233 264 Z" />
      </clipPath>
      <clipPath clipPathUnits="userSpaceOnUse" id="clipPath41">
        <path d="M754 14 L754 149 L937 149 L937 14 Z" />
      </clipPath>
      <clipPath clipPathUnits="userSpaceOnUse" id="clipPath42">
        <path d="M1165 337 L1165 427 L1323 427 L1323 337 Z" />
      </clipPath>
      <clipPath clipPathUnits="userSpaceOnUse" id="clipPath43">
        <path d="M312 563 L312 597 L513 597 L513 563 Z" />
      </clipPath>
    </defs>
    <g style="fill:blue; stroke:blue;">
      <line x1="830" x2="830" y1="249" style="clip-path:url(#clipPath1); fill:none;" y2="320" />
      <line x1="830" x2="452" y1="320" style="clip-path:url(#clipPath1); fill:none;" y2="320" />
      <line x1="882" x2="1002" y1="249" style="clip-path:url(#clipPath1); fill:none; stroke:rgb(0,0,130);" y2="300" />
      <line x1="934" x2="1140" y1="219" style="clip-path:url(#clipPath1); fill:none; stroke:rgb(0,0,130);" y2="219" />
      <line x1="696" x2="790" y1="209" style="clip-path:url(#clipPath1); fill:none; stroke:rgb(0,0,130);" y2="209" />
      <line x1="560" x2="300" y1="210" style="clip-path:url(#clipPath1); fill:none; stroke:rgb(0,0,130);" y2="210" />
      <line x1="300" x2="300" y1="210" style="clip-path:url(#clipPath1); fill:none; stroke:rgb(0,0,130);" y2="293" />
      <line x1="1006" x2="1006" y1="430" style="clip-path:url(#clipPath1); fill:none; stroke:rgb(0,64,64);" y2="398" />
      <line x1="873" x2="917" y1="425" style="clip-path:url(#clipPath1); fill:none; stroke:rgb(0,64,64);" y2="366" />
      <text x="460" y="313" style="clip-path:url(#clipPath1); font-family:sans-serif; stroke:none;">0..1
      </text>
      <polygon points=" 882 249 891 248 897 255 888 256" style="fill:rgb(0,0,130); clip-path:url(#clipPath1); font-family:sans-serif; stroke:none;" />
      <polygon points=" 882 249 891 248 897 255 888 256" style="fill:none; clip-path:url(#clipPath1); font-family:sans-serif; stroke:rgb(0,0,130);" />
      <line x1="888" x2="882" y1="256" style="clip-path:url(#clipPath1); fill:none; font-family:sans-serif; stroke:rgb(0,0,130);" y2="249" />
      <line x1="1002" x2="993" y1="300" style="clip-path:url(#clipPath1); fill:none; font-family:sans-serif; stroke:rgb(0,0,130);" y2="291" />
      <line x1="1002" x2="989" y1="300" style="clip-path:url(#clipPath1); fill:none; font-family:sans-serif; stroke:rgb(0,0,130);" y2="300" />
      <text x="866" y="261" style="clip-path:url(#clipPath1); fill:rgb(0,0,130); font-family:sans-serif; stroke:none;">1
      </text>
      <text x="942" y="293" style="clip-path:url(#clipPath1); fill:rgb(0,0,130); font-family:sans-serif; stroke:none;">1
      </text>
      <polygon points=" 934 219 942 215 950 219 942 223" style="fill:rgb(0,0,130); clip-path:url(#clipPath1); font-family:sans-serif; stroke:none;" />
      <polygon points=" 934 219 942 215 950 219 942 223" style="fill:none; clip-path:url(#clipPath1); font-family:sans-serif; stroke:rgb(0,0,130);" />
      <line x1="942" x2="934" y1="223" style="clip-path:url(#clipPath1); fill:none; font-family:sans-serif; stroke:rgb(0,0,130);" y2="219" />
      <polygon points=" 696 209 704 205 712 209 704 213" style="fill:rgb(0,0,130); clip-path:url(#clipPath1); font-family:sans-serif; stroke:none;" />
      <polygon points=" 696 209 704 205 712 209 704 213" style="fill:none; clip-path:url(#clipPath1); font-family:sans-serif; stroke:rgb(0,0,130);" />
      <line x1="704" x2="696" y1="213" style="clip-path:url(#clipPath1); fill:none; font-family:sans-serif; stroke:rgb(0,0,130);" y2="209" />
      <polygon points=" 560 210 552 214 544 210 552 206" style="fill:rgb(0,0,130); clip-path:url(#clipPath1); font-family:sans-serif; stroke:none;" />
      <polygon points=" 560 210 552 214 544 210 552 206" style="fill:none; clip-path:url(#clipPath1); font-family:sans-serif; stroke:rgb(0,0,130);" />
      <line x1="552" x2="560" y1="206" style="clip-path:url(#clipPath1); fill:none; font-family:sans-serif; stroke:rgb(0,0,130);" y2="210" />
      <line x1="300" x2="305" y1="293" style="clip-path:url(#clipPath1); fill:none; font-family:sans-serif; stroke:rgb(0,0,130);" y2="281" />
      <line x1="300" x2="295" y1="293" style="clip-path:url(#clipPath1); fill:none; font-family:sans-serif; stroke:rgb(0,0,130);" y2="281" />
      <text x="545" y="202" style="clip-path:url(#clipPath1); fill:rgb(0,0,130); font-family:sans-serif; stroke:none;">1
      </text>
      <text x="285" y="285" style="clip-path:url(#clipPath1); fill:rgb(0,0,130); font-family:sans-serif; stroke:none;">1
      </text>
      <polygon points=" 1006 398 1012 416 1000 416" style="fill:white; clip-path:url(#clipPath1); font-family:sans-serif; stroke:none;" />
      <polygon points=" 1006 398 1012 416 1000 416" style="fill:none; clip-path:url(#clipPath1); font-family:sans-serif; stroke:rgb(0,64,64);" />
      <line x1="1000" x2="1006" y1="416" style="clip-path:url(#clipPath1); fill:none; font-family:sans-serif; stroke:rgb(0,64,64);" y2="398" />
      <polygon points=" 917 366 911 384 901 377" style="fill:white; clip-path:url(#clipPath1); font-family:sans-serif; stroke:none;" />
      <polygon points=" 917 366 911 384 901 377" style="fill:none; clip-path:url(#clipPath1); font-family:sans-serif; stroke:rgb(0,64,64);" />
      <line x1="901" x2="917" y1="377" style="clip-path:url(#clipPath1); fill:none; font-family:sans-serif; stroke:rgb(0,64,64);" y2="366" />
      <rect x="920" y="303" width="168" style="clip-path:url(#clipPath1); fill:navy; font-family:sans-serif; stroke:none;" height="95" />
      <rect x="917" y="300" width="168" style="clip-path:url(#clipPath1); fill:white; font-family:sans-serif; stroke:none;" height="95" />
      <rect x="917" y="300" width="168" style="clip-path:url(#clipPath1); fill:none; font-family:sans-serif; stroke:black;" height="95" />
    </g>
    <g style="font-weight:bold; font-family:sans-serif;">
      <text x="974" y="313" style="clip-path:url(#clipPath3); stroke:none;">CFormat
      </text>
    </g>
    <g style="font-family:sans-serif;">
      <line x1="917" x2="1085" y1="322" style="clip-path:url(#clipPath2); fill:none;" y2="322" />
      <line x1="917" x2="1085" y1="345" style="clip-path:url(#clipPath2); fill:none;" y2="345" />
    </g>
    <g style="font-family:sans-serif;">
      <text x="923" y="366" style="clip-path:url(#clipPath5); stroke:none;">+translateFromFormat:void
      </text>
      <text x="923" y="381" style="clip-path:url(#clipPath5); stroke:none;">+translateToFormat:void
      </text>
    </g>
    <g style="fill:navy; font-family:sans-serif; stroke:navy;">
      <rect x="793" y="412" width="80" style="clip-path:url(#clipPath1); stroke:none;" height="78" />
      <rect x="790" y="409" width="80" style="clip-path:url(#clipPath1); fill:white; stroke:none;" height="78" />
      <rect x="790" y="409" width="80" style="clip-path:url(#clipPath1); fill:none; stroke:black;" height="78" />
    </g>
    <g style="font-weight:bold; font-family:sans-serif;">
      <text x="813" y="422" style="clip-path:url(#clipPath7); stroke:none;">CCSV
      </text>
    </g>
    <g style="font-family:sans-serif;">
      <line x1="790" x2="870" y1="431" style="clip-path:url(#clipPath6); fill:none;" y2="431" />
      <line x1="790" x2="870" y1="454" style="clip-path:url(#clipPath6); fill:none;" y2="454" />
    </g>
    <g style="fill:navy; font-family:sans-serif; stroke:navy;">
      <rect x="968" y="433" width="80" style="clip-path:url(#clipPath1); stroke:none;" height="78" />
      <rect x="965" y="430" width="80" style="clip-path:url(#clipPath1); fill:white; stroke:none;" height="78" />
      <rect x="965" y="430" width="80" style="clip-path:url(#clipPath1); fill:none; stroke:black;" height="78" />
    </g>
    <g style="font-weight:bold; font-family:sans-serif;">
      <text x="985" y="443" style="clip-path:url(#clipPath9); stroke:none;">CJSON
      </text>
    </g>
    <g style="font-family:sans-serif;">
      <line x1="965" x2="1045" y1="452" style="clip-path:url(#clipPath8); fill:none;" y2="452" />
      <line x1="965" x2="1045" y1="475" style="clip-path:url(#clipPath8); fill:none;" y2="475" />
    </g>
    <g style="fill:navy; font-family:sans-serif; stroke:navy;">
      <rect x="563" y="173" width="133" style="clip-path:url(#clipPath1); stroke:none;" height="118" />
      <rect x="560" y="170" width="133" style="clip-path:url(#clipPath1); fill:white; stroke:none;" height="118" />
      <rect x="560" y="170" width="133" style="clip-path:url(#clipPath1); fill:none; stroke:black;" height="118" />
    </g>
    <g style="font-weight:bold; font-family:sans-serif;">
      <text x="571" y="183" style="clip-path:url(#clipPath11); stroke:none;">CAdressDatabase
      </text>
    </g>
    <g style="font-family:sans-serif;">
      <line x1="560" x2="693" y1="192" style="clip-path:url(#clipPath10); fill:none;" y2="192" />
    </g>
    <g style="font-family:sans-serif;">
      <text x="566" y="213" style="clip-path:url(#clipPath13); stroke:none;">-m_storage:CStorage
      </text>
    </g>
    <g style="font-family:sans-serif;">
      <line x1="560" x2="693" y1="223" style="clip-path:url(#clipPath10); fill:none;" y2="223" />
    </g>
    <g style="font-family:sans-serif;">
      <text x="566" y="244" style="clip-path:url(#clipPath15); stroke:none;">+writeToFile:void
      </text>
      <text x="566" y="259" style="clip-path:url(#clipPath15); stroke:none;">+readFromFile:void
      </text>
      <text x="566" y="274" style="clip-path:url(#clipPath15); stroke:none;">+print:void
      </text>
    </g>
    <g style="fill:navy; font-family:sans-serif; stroke:navy;">
      <rect x="279" y="296" width="173" style="clip-path:url(#clipPath1); stroke:none;" height="80" />
      <rect x="276" y="293" width="173" style="clip-path:url(#clipPath1); fill:white; stroke:none;" height="80" />
      <rect x="276" y="293" width="173" style="clip-path:url(#clipPath1); fill:none; stroke:black;" height="80" />
    </g>
    <g style="font-weight:bold; font-family:sans-serif;">
      <text x="334" y="306" style="clip-path:url(#clipPath17); stroke:none;">CStorage
      </text>
    </g>
    <g style="font-family:sans-serif;">
      <line x1="276" x2="449" y1="315" style="clip-path:url(#clipPath16); fill:none;" y2="315" />
      <line x1="276" x2="449" y1="338" style="clip-path:url(#clipPath16); fill:none;" y2="338" />
    </g>
    <g style="font-family:sans-serif;">
      <text x="282" y="359" style="clip-path:url(#clipPath19); stroke:none;">+getNextEntryAsSTring:void
      </text>
    </g>
    <g style="fill:navy; font-family:sans-serif; stroke:navy;">
      <rect x="235" y="420" width="186" style="clip-path:url(#clipPath1); stroke:none;" height="103" />
      <rect x="232" y="417" width="186" style="clip-path:url(#clipPath1); fill:white; stroke:none;" height="103" />
      <rect x="232" y="417" width="186" style="clip-path:url(#clipPath1); fill:none; stroke:black;" height="103" />
    </g>
    <g style="font-weight:bold; font-family:sans-serif;">
      <text x="285" y="430" style="clip-path:url(#clipPath21); stroke:none;">CPhoneEntry
      </text>
    </g>
    <g style="font-family:sans-serif;">
      <line x1="232" x2="418" y1="439" style="clip-path:url(#clipPath20); fill:none;" y2="439" />
    </g>
    <g style="font-family:sans-serif;">
      <text x="238" y="460" style="clip-path:url(#clipPath23); stroke:none;">-m_number:unsigned int
      </text>
      <text x="238" y="475" style="clip-path:url(#clipPath23); stroke:none;">-m_name:string
      </text>
    </g>
    <g style="font-family:sans-serif;">
      <line x1="232" x2="418" y1="485" style="clip-path:url(#clipPath20); fill:none;" y2="485" />
    </g>
    <g style="font-family:sans-serif;">
      <text x="238" y="506" style="clip-path:url(#clipPath25); stroke:none;">+getStringRepresentation:void
      </text>
    </g>
    <g style="fill:navy; font-family:sans-serif; stroke:navy;">
      <rect x="443" y="423" width="186" style="clip-path:url(#clipPath1); stroke:none;" height="118" />
      <rect x="440" y="420" width="186" style="clip-path:url(#clipPath1); fill:white; stroke:none;" height="118" />
      <rect x="440" y="420" width="186" style="clip-path:url(#clipPath1); fill:none; stroke:black;" height="118" />
    </g>
    <g style="font-weight:bold; font-family:sans-serif;">
      <text x="499" y="433" style="clip-path:url(#clipPath27); stroke:none;">CWaypoint
      </text>
    </g>
    <g style="font-family:sans-serif;">
      <line x1="440" x2="626" y1="442" style="clip-path:url(#clipPath26); fill:none;" y2="442" />
    </g>
    <g style="font-family:sans-serif;">
      <text x="446" y="463" style="clip-path:url(#clipPath29); stroke:none;">-m_lattitude:double
      </text>
      <text x="446" y="478" style="clip-path:url(#clipPath29); stroke:none;">-m_longitude:double
      </text>
      <text x="446" y="493" style="clip-path:url(#clipPath29); stroke:none;">-m_name:string
      </text>
    </g>
    <g style="font-family:sans-serif;">
      <line x1="440" x2="626" y1="503" style="clip-path:url(#clipPath26); fill:none;" y2="503" />
    </g>
    <g style="font-family:sans-serif;">
      <text x="446" y="524" style="clip-path:url(#clipPath31); stroke:none;">+getStringRepresentation:void
      </text>
    </g>
    <g style="fill:navy; font-family:sans-serif; stroke:navy;">
      <rect x="1143" y="193" width="80" style="clip-path:url(#clipPath1); stroke:none;" height="95" />
      <rect x="1140" y="190" width="80" style="clip-path:url(#clipPath1); fill:white; stroke:none;" height="95" />
      <rect x="1140" y="190" width="80" style="clip-path:url(#clipPath1); fill:none; stroke:black;" height="95" />
    </g>
    <g style="font-weight:bold; font-family:sans-serif;">
      <text x="1157" y="203" style="clip-path:url(#clipPath33); stroke:none;">CFileIO
      </text>
    </g>
    <g style="font-family:sans-serif;">
      <line x1="1140" x2="1220" y1="212" style="clip-path:url(#clipPath32); fill:none;" y2="212" />
      <line x1="1140" x2="1220" y1="235" style="clip-path:url(#clipPath32); fill:none;" y2="235" />
    </g>
    <g style="font-family:sans-serif;">
      <text x="1146" y="256" style="clip-path:url(#clipPath35); stroke:none;">+read:void
      </text>
      <text x="1146" y="271" style="clip-path:url(#clipPath35); stroke:none;">+write:void
      </text>
    </g>
    <g style="fill:navy; font-family:sans-serif; stroke:navy;">
      <rect x="793" y="163" width="141" style="clip-path:url(#clipPath1); stroke:none;" height="86" />
      <rect x="790" y="160" width="141" style="clip-path:url(#clipPath1); fill:white; stroke:none;" height="86" />
      <rect x="790" y="160" width="141" style="clip-path:url(#clipPath1); fill:none; stroke:black;" height="86" />
    </g>
    <g style="font-weight:bold; font-family:sans-serif;">
      <text x="835" y="173" style="clip-path:url(#clipPath37); stroke:none;">CExport
      </text>
    </g>
    <g style="font-family:sans-serif;">
      <line x1="790" x2="931" y1="182" style="clip-path:url(#clipPath36); fill:none;" y2="182" />
    </g>
    <g style="font-family:sans-serif;">
      <text x="796" y="203" style="clip-path:url(#clipPath39); stroke:none;">-m_pFormat:CFormat*
      </text>
    </g>
    <g style="font-family:sans-serif;">
      <line x1="790" x2="931" y1="213" style="clip-path:url(#clipPath36); fill:none;" y2="213" />
    </g>
    <g style="fill:navy; font-family:sans-serif; stroke:navy;">
      <polygon style="clip-path:url(#clipPath1); stroke:none;" points=" 13 263 236 263 251 278 251 371 13 371" />
      <polygon style="fill:white; clip-path:url(#clipPath1); stroke:none;" points=" 10 260 233 260 248 275 248 368 10 368" />
      <line x1="10" x2="233" y1="260" style="clip-path:url(#clipPath1); fill:none; stroke:black;" y2="260" />
      <line x1="233" x2="248" y1="260" style="clip-path:url(#clipPath1); fill:none; stroke:black;" y2="275" />
      <line x1="248" x2="248" y1="275" style="clip-path:url(#clipPath1); fill:none; stroke:black;" y2="368" />
      <line x1="248" x2="10" y1="368" style="clip-path:url(#clipPath1); fill:none; stroke:black;" y2="368" />
      <line x1="10" x2="10" y1="368" style="clip-path:url(#clipPath1); fill:none; stroke:black;" y2="260" />
      <line x1="233" x2="233" y1="260" style="clip-path:url(#clipPath1); fill:none; stroke:black;" y2="275" />
      <line x1="233" x2="248" y1="275" style="clip-path:url(#clipPath1); fill:none; stroke:black;" y2="275" />
    </g>
    <g style="font-family:sans-serif;">
      <text x="18" y="276" style="clip-path:url(#clipPath40); stroke:none;">In a first step we can provide a
      </text>
      <text x="18" y="291" style="clip-path:url(#clipPath40); stroke:none;">reference to the container storing
      </text>
      <text x="18" y="306" style="clip-path:url(#clipPath40); stroke:none;">the data. Lateron, we can provide a
      </text>
      <text x="18" y="321" style="clip-path:url(#clipPath40); stroke:none;">more intuative interface.
      </text>
    </g>
    <g style="fill:navy; font-family:sans-serif; stroke:navy;">
      <polygon style="clip-path:url(#clipPath1); stroke:none;" points=" 753 13 940 13 955 28 955 153 753 153" />
      <polygon style="fill:white; clip-path:url(#clipPath1); stroke:none;" points=" 750 10 937 10 952 25 952 150 750 150" />
      <line x1="750" x2="937" y1="10" style="clip-path:url(#clipPath1); fill:none; stroke:black;" y2="10" />
      <line x1="937" x2="952" y1="10" style="clip-path:url(#clipPath1); fill:none; stroke:black;" y2="25" />
      <line x1="952" x2="952" y1="25" style="clip-path:url(#clipPath1); fill:none; stroke:black;" y2="150" />
      <line x1="952" x2="750" y1="150" style="clip-path:url(#clipPath1); fill:none; stroke:black;" y2="150" />
      <line x1="750" x2="750" y1="150" style="clip-path:url(#clipPath1); fill:none; stroke:black;" y2="10" />
      <line x1="937" x2="937" y1="10" style="clip-path:url(#clipPath1); fill:none; stroke:black;" y2="25" />
      <line x1="937" x2="952" y1="25" style="clip-path:url(#clipPath1); fill:none; stroke:black;" y2="25" />
    </g>
    <g style="font-family:sans-serif;">
      <text x="758" y="26" style="clip-path:url(#clipPath41); stroke:none;">2 Options: We can have the
      </text>
      <text x="758" y="41" style="clip-path:url(#clipPath41); stroke:none;">Adress-DA class do the work,
      </text>
      <text x="758" y="56" style="clip-path:url(#clipPath41); stroke:none;">which means that this class
      </text>
      <text x="758" y="71" style="clip-path:url(#clipPath41); stroke:none;">will become pretty complex
      </text>
      <text x="758" y="86" style="clip-path:url(#clipPath41); stroke:none;">or we can delegate sub-jobs
      </text>
      <text x="758" y="101" style="clip-path:url(#clipPath41); stroke:none;">to other classes, e.g. the
      </text>
      <text x="758" y="116" style="clip-path:url(#clipPath41); stroke:none;">Import/Export story
      </text>
    </g>
    <g style="fill:navy; font-family:sans-serif; stroke:navy;">
      <polygon style="clip-path:url(#clipPath1); stroke:none;" points=" 1164 336 1326 336 1341 351 1341 431 1164 431" />
      <polygon style="fill:white; clip-path:url(#clipPath1); stroke:none;" points=" 1161 333 1323 333 1338 348 1338 428 1161 428" />
      <line x1="1161" x2="1323" y1="333" style="clip-path:url(#clipPath1); fill:none; stroke:black;" y2="333" />
      <line x1="1323" x2="1338" y1="333" style="clip-path:url(#clipPath1); fill:none; stroke:black;" y2="348" />
      <line x1="1338" x2="1338" y1="348" style="clip-path:url(#clipPath1); fill:none; stroke:black;" y2="428" />
      <line x1="1338" x2="1161" y1="428" style="clip-path:url(#clipPath1); fill:none; stroke:black;" y2="428" />
      <line x1="1161" x2="1161" y1="428" style="clip-path:url(#clipPath1); fill:none; stroke:black;" y2="333" />
      <line x1="1323" x2="1323" y1="333" style="clip-path:url(#clipPath1); fill:none; stroke:black;" y2="348" />
      <line x1="1323" x2="1338" y1="348" style="clip-path:url(#clipPath1); fill:none; stroke:black;" y2="348" />
    </g>
    <g style="font-family:sans-serif;">
      <text x="1169" y="349" style="clip-path:url(#clipPath42); stroke:none;">Format and basic file IO
      </text>
      <text x="1169" y="364" style="clip-path:url(#clipPath42); stroke:none;">can be seperated in 2
      </text>
      <text x="1169" y="379" style="clip-path:url(#clipPath42); stroke:none;">classes
      </text>
    </g>
    <g style="fill:navy; font-family:sans-serif; stroke:navy;">
      <polygon style="clip-path:url(#clipPath1); stroke:none;" points=" 311 562 516 562 531 577 531 601 311 601" />
      <polygon style="fill:white; clip-path:url(#clipPath1); stroke:none;" points=" 308 559 513 559 528 574 528 598 308 598" />
      <line x1="308" x2="513" y1="559" style="clip-path:url(#clipPath1); fill:none; stroke:black;" y2="559" />
      <line x1="513" x2="528" y1="559" style="clip-path:url(#clipPath1); fill:none; stroke:black;" y2="574" />
      <line x1="528" x2="528" y1="574" style="clip-path:url(#clipPath1); fill:none; stroke:black;" y2="598" />
      <line x1="528" x2="308" y1="598" style="clip-path:url(#clipPath1); fill:none; stroke:black;" y2="598" />
      <line x1="308" x2="308" y1="598" style="clip-path:url(#clipPath1); fill:none; stroke:black;" y2="559" />
      <line x1="513" x2="513" y1="559" style="clip-path:url(#clipPath1); fill:none; stroke:black;" y2="574" />
      <line x1="513" x2="528" y1="574" style="clip-path:url(#clipPath1); fill:none; stroke:black;" y2="574" />
    </g>
    <g style="font-family:sans-serif;">
      <text x="316" y="575" style="clip-path:url(#clipPath43); stroke:none;">Example data classes
      </text>
    </g>
  </g>
</svg>
