<?xml version="1.0" encoding="UTF-8"?>

<!DOCTYPE svg PUBLIC '-//W3C//DTD SVG 20001102//EN' 'http://www.w3.org/TR/2000/CR-SVG-20001102/DTD/svg-20001102.dtd'>
<svg style="fill-opacity:1; color-rendering:auto; color-interpolation:sRGB; text-rendering:auto; stroke:black; stroke-linecap:square; stroke-miterlimit:10; shape-rendering:auto; stroke-opacity:1; fill:black; stroke-dasharray:none; font-weight:normal; stroke-width:1; font-family:&apos;sansserif&apos;; font-style:normal; stroke-linejoin:miter; font-size:12; stroke-dashoffset:0; image-rendering:auto;" width="676" height="518">
  <!--Generated by the Batik Graphics2D SVG Generator-->
  <defs id="genericDefs" />
  <g>
    <defs id="defs1">
      <clipPath clipPathUnits="userSpaceOnUse" id="clipPath1">
        <path d="M0 0 L676 0 L676 518 L0 518 L0 0 Z" />
      </clipPath>
      <clipPath clipPathUnits="userSpaceOnUse" id="clipPath2">
        <path d="M47 60 L47 164 L193 164 L193 60 Z" />
      </clipPath>
      <clipPath clipPathUnits="userSpaceOnUse" id="clipPath3">
        <path d="M48 61 L48 77 L193 77 L193 61 Z" />
      </clipPath>
      <clipPath clipPathUnits="userSpaceOnUse" id="clipPath4">
        <path d="M47 89 L47 108 L193 108 L193 89 Z" />
      </clipPath>
      <clipPath clipPathUnits="userSpaceOnUse" id="clipPath5">
        <path d="M49 91 L49 107 L192 107 L192 91 Z" />
      </clipPath>
      <clipPath clipPathUnits="userSpaceOnUse" id="clipPath6">
        <path d="M47 120 L47 154 L193 154 L193 120 Z" />
      </clipPath>
      <clipPath clipPathUnits="userSpaceOnUse" id="clipPath7">
        <path d="M49 122 L49 153 L192 153 L192 122 Z" />
      </clipPath>
      <clipPath clipPathUnits="userSpaceOnUse" id="clipPath8">
        <path d="M570 270 L570 404 L663 404 L663 270 Z" />
      </clipPath>
      <clipPath clipPathUnits="userSpaceOnUse" id="clipPath9">
        <path d="M571 271 L571 287 L663 287 L663 271 Z" />
      </clipPath>
      <clipPath clipPathUnits="userSpaceOnUse" id="clipPath10">
        <path d="M570 299 L570 333 L663 333 L663 299 Z" />
      </clipPath>
      <clipPath clipPathUnits="userSpaceOnUse" id="clipPath11">
        <path d="M572 301 L572 332 L662 332 L662 301 Z" />
      </clipPath>
      <clipPath clipPathUnits="userSpaceOnUse" id="clipPath12">
        <path d="M570 345 L570 394 L663 394 L663 345 Z" />
      </clipPath>
      <clipPath clipPathUnits="userSpaceOnUse" id="clipPath13">
        <path d="M572 347 L572 393 L662 393 L662 347 Z" />
      </clipPath>
      <clipPath clipPathUnits="userSpaceOnUse" id="clipPath14">
        <path d="M282 281 L282 505 L475 505 L475 281 Z" />
      </clipPath>
      <clipPath clipPathUnits="userSpaceOnUse" id="clipPath15">
        <path d="M283 282 L283 298 L475 298 L475 282 Z" />
      </clipPath>
      <clipPath clipPathUnits="userSpaceOnUse" id="clipPath16">
        <path d="M282 310 L282 359 L475 359 L475 310 Z" />
      </clipPath>
      <clipPath clipPathUnits="userSpaceOnUse" id="clipPath17">
        <path d="M284 312 L284 358 L474 358 L474 312 Z" />
      </clipPath>
      <clipPath clipPathUnits="userSpaceOnUse" id="clipPath18">
        <path d="M282 371 L282 495 L475 495 L475 371 Z" />
      </clipPath>
      <clipPath clipPathUnits="userSpaceOnUse" id="clipPath19">
        <path d="M284 373 L284 494 L474 494 L474 373 Z" />
      </clipPath>
      <clipPath clipPathUnits="userSpaceOnUse" id="clipPath20">
        <path d="M390 60 L390 141 L471 141 L471 60 Z" />
      </clipPath>
      <clipPath clipPathUnits="userSpaceOnUse" id="clipPath21">
        <path d="M391 61 L391 77 L471 77 L471 61 Z" />
      </clipPath>
      <clipPath clipPathUnits="userSpaceOnUse" id="clipPath22">
        <path d="M390 112 L390 131 L471 131 L471 112 Z" />
      </clipPath>
      <clipPath clipPathUnits="userSpaceOnUse" id="clipPath23">
        <path d="M392 114 L392 130 L470 130 L470 114 Z" />
      </clipPath>
      <clipPath clipPathUnits="userSpaceOnUse" id="clipPath24">
        <path d="M260 60 L260 141 L346 141 L346 60 Z" />
      </clipPath>
      <clipPath clipPathUnits="userSpaceOnUse" id="clipPath25">
        <path d="M261 61 L261 77 L346 77 L346 61 Z" />
      </clipPath>
      <clipPath clipPathUnits="userSpaceOnUse" id="clipPath26">
        <path d="M260 112 L260 131 L346 131 L346 112 Z" />
      </clipPath>
      <clipPath clipPathUnits="userSpaceOnUse" id="clipPath27">
        <path d="M262 114 L262 130 L345 130 L345 114 Z" />
      </clipPath>
      <clipPath clipPathUnits="userSpaceOnUse" id="clipPath28">
        <path d="M24 325 L24 358 L204 358 L204 325 Z" />
      </clipPath>
    </defs>
    <g style="fill:rgb(0,0,130); stroke:rgb(0,0,130);">
      <line x1="477" x2="570" y1="343" style="clip-path:url(#clipPath1); fill:none;" y2="343" />
      <line x1="146" x2="147" y1="166" style="clip-path:url(#clipPath1); fill:none;" y2="166" />
      <line x1="152" x2="162" y1="167" style="clip-path:url(#clipPath1); fill:none;" y2="170" />
      <line x1="166" x2="176" y1="171" style="clip-path:url(#clipPath1); fill:none;" y2="173" />
      <line x1="181" x2="191" y1="174" style="clip-path:url(#clipPath1); fill:none;" y2="176" />
      <line x1="196" x2="205" y1="177" style="clip-path:url(#clipPath1); fill:none;" y2="180" />
      <line x1="210" x2="220" y1="181" style="clip-path:url(#clipPath1); fill:none;" y2="183" />
      <line x1="225" x2="235" y1="184" style="clip-path:url(#clipPath1); fill:none;" y2="186" />
      <line x1="240" x2="249" y1="187" style="clip-path:url(#clipPath1); fill:none;" y2="190" />
      <line x1="254" x2="264" y1="191" style="clip-path:url(#clipPath1); fill:none;" y2="193" />
      <line x1="269" x2="279" y1="194" style="clip-path:url(#clipPath1); fill:none;" y2="196" />
      <line x1="283" x2="293" y1="197" style="clip-path:url(#clipPath1); fill:none;" y2="200" />
      <line x1="298" x2="308" y1="201" style="clip-path:url(#clipPath1); fill:none;" y2="203" />
      <line x1="313" x2="322" y1="204" style="clip-path:url(#clipPath1); fill:none;" y2="206" />
      <line x1="327" x2="337" y1="207" style="clip-path:url(#clipPath1); fill:none;" y2="210" />
      <line x1="342" x2="352" y1="211" style="clip-path:url(#clipPath1); fill:none;" y2="213" />
      <line x1="357" x2="366" y1="214" style="clip-path:url(#clipPath1); fill:none;" y2="216" />
      <line x1="371" x2="381" y1="217" style="clip-path:url(#clipPath1); fill:none;" y2="220" />
      <line x1="386" x2="396" y1="221" style="clip-path:url(#clipPath1); fill:none;" y2="223" />
      <line x1="400" x2="410" y1="224" style="clip-path:url(#clipPath1); fill:none;" y2="226" />
      <line x1="415" x2="425" y1="227" style="clip-path:url(#clipPath1); fill:none;" y2="230" />
      <line x1="430" x2="439" y1="231" style="clip-path:url(#clipPath1); fill:none;" y2="233" />
      <line x1="444" x2="454" y1="234" style="clip-path:url(#clipPath1); fill:none;" y2="236" />
      <line x1="459" x2="469" y1="238" style="clip-path:url(#clipPath1); fill:none;" y2="240" />
      <line x1="474" x2="483" y1="241" style="clip-path:url(#clipPath1); fill:none;" y2="243" />
      <line x1="488" x2="498" y1="244" style="clip-path:url(#clipPath1); fill:none;" y2="246" />
      <line x1="503" x2="513" y1="248" style="clip-path:url(#clipPath1); fill:none;" y2="250" />
      <line x1="517" x2="527" y1="251" style="clip-path:url(#clipPath1); fill:none;" y2="253" />
      <line x1="532" x2="542" y1="254" style="clip-path:url(#clipPath1); fill:none;" y2="256" />
      <line x1="547" x2="556" y1="258" style="clip-path:url(#clipPath1); fill:none;" y2="260" />
      <line x1="561" x2="571" y1="261" style="clip-path:url(#clipPath1); fill:none;" y2="263" />
      <line x1="576" x2="586" y1="264" style="clip-path:url(#clipPath1); fill:none;" y2="266" />
      <line x1="591" x2="600" y1="268" style="clip-path:url(#clipPath1); fill:none;" y2="270" />
      <line x1="97" x2="97" y1="166" style="clip-path:url(#clipPath1); fill:none; stroke:rgb(0,64,64);" y2="310" />
      <line x1="97" x2="282" y1="310" style="clip-path:url(#clipPath1); fill:none; stroke:rgb(0,64,64);" y2="310" />
      <line x1="445" x2="447" y1="143" style="clip-path:url(#clipPath1); fill:none;" y2="144" />
      <line x1="451" x2="459" y1="147" style="clip-path:url(#clipPath1); fill:none;" y2="153" />
      <line x1="463" x2="472" y1="155" style="clip-path:url(#clipPath1); fill:none;" y2="161" />
      <line x1="476" x2="484" y1="164" style="clip-path:url(#clipPath1); fill:none;" y2="169" />
      <line x1="488" x2="496" y1="172" style="clip-path:url(#clipPath1); fill:none;" y2="178" />
      <line x1="501" x2="509" y1="181" style="clip-path:url(#clipPath1); fill:none;" y2="186" />
      <line x1="513" x2="521" y1="189" style="clip-path:url(#clipPath1); fill:none;" y2="194" />
      <line x1="525" x2="534" y1="197" style="clip-path:url(#clipPath1); fill:none;" y2="203" />
      <line x1="538" x2="546" y1="206" style="clip-path:url(#clipPath1); fill:none;" y2="211" />
      <line x1="550" x2="559" y1="214" style="clip-path:url(#clipPath1); fill:none;" y2="220" />
      <line x1="563" x2="571" y1="222" style="clip-path:url(#clipPath1); fill:none;" y2="228" />
      <line x1="575" x2="583" y1="231" style="clip-path:url(#clipPath1); fill:none;" y2="236" />
      <line x1="588" x2="596" y1="239" style="clip-path:url(#clipPath1); fill:none;" y2="245" />
      <line x1="600" x2="608" y1="248" style="clip-path:url(#clipPath1); fill:none;" y2="253" />
      <line x1="612" x2="621" y1="256" style="clip-path:url(#clipPath1); fill:none;" y2="262" />
      <line x1="625" x2="633" y1="264" style="clip-path:url(#clipPath1); fill:none;" y2="270" />
      <line x1="417" x2="417" y1="143" style="clip-path:url(#clipPath1); fill:none; stroke:rgb(0,64,64);" y2="281" />
      <line x1="315" x2="315" y1="143" style="clip-path:url(#clipPath1); fill:none; stroke:rgb(0,64,64);" y2="281" />
      <polygon style="clip-path:url(#clipPath1); stroke:none;" points=" 477 343 485 339 493 343 485 347" />
      <polygon style="fill:none; clip-path:url(#clipPath1);" points=" 477 343 485 339 493 343 485 347" />
      <line x1="485" x2="477" y1="347" style="clip-path:url(#clipPath1); fill:none;" y2="343" />
      <line x1="570" x2="558" y1="343" style="clip-path:url(#clipPath1); fill:none;" y2="338" />
      <line x1="570" x2="558" y1="343" style="clip-path:url(#clipPath1); fill:none;" y2="348" />
      <text x="485" y="336" style="clip-path:url(#clipPath1); font-family:sans-serif; stroke:none;">1
      </text>
      <text x="540" y="336" style="clip-path:url(#clipPath1); font-family:sans-serif; stroke:none;">1..*
      </text>
      <line x1="601" x2="590" y1="270" style="clip-path:url(#clipPath1); fill:none; font-family:sans-serif;" y2="262" />
      <line x1="601" x2="588" y1="270" style="clip-path:url(#clipPath1); fill:none; font-family:sans-serif;" y2="272" />
      <polygon points=" 282 310 264 316 264 304" style="fill:white; clip-path:url(#clipPath1); font-family:sans-serif; stroke:none;" />
      <polygon points=" 282 310 264 316 264 304" style="fill:none; clip-path:url(#clipPath1); font-family:sans-serif; stroke:rgb(0,64,64);" />
      <line x1="264" x2="282" y1="304" style="clip-path:url(#clipPath1); fill:none; font-family:sans-serif; stroke:rgb(0,64,64);" y2="310" />
      <line x1="633" x2="626" y1="270" style="clip-path:url(#clipPath1); fill:none; font-family:sans-serif;" y2="259" />
      <line x1="633" x2="620" y1="270" style="clip-path:url(#clipPath1); fill:none; font-family:sans-serif;" y2="267" />
      <polygon points=" 417 281 411 263 423 263" style="fill:white; clip-path:url(#clipPath1); font-family:sans-serif; stroke:none;" />
      <polygon points=" 417 281 411 263 423 263" style="fill:none; clip-path:url(#clipPath1); font-family:sans-serif; stroke:rgb(0,64,64);" />
      <line x1="423" x2="417" y1="263" style="clip-path:url(#clipPath1); fill:none; font-family:sans-serif; stroke:rgb(0,64,64);" y2="281" />
      <polygon points=" 315 281 309 263 321 263" style="fill:white; clip-path:url(#clipPath1); font-family:sans-serif; stroke:none;" />
      <polygon points=" 315 281 309 263 321 263" style="fill:none; clip-path:url(#clipPath1); font-family:sans-serif; stroke:rgb(0,64,64);" />
      <line x1="321" x2="315" y1="263" style="clip-path:url(#clipPath1); fill:none; font-family:sans-serif; stroke:rgb(0,64,64);" y2="281" />
      <rect x="50" y="63" width="145" style="clip-path:url(#clipPath1); fill:navy; font-family:sans-serif; stroke:none;" height="103" />
      <rect x="47" y="60" width="145" style="clip-path:url(#clipPath1); fill:white; font-family:sans-serif; stroke:none;" height="103" />
      <rect x="47" y="60" width="145" style="clip-path:url(#clipPath1); fill:none; font-family:sans-serif; stroke:black;" height="103" />
    </g>
    <g style="font-weight:bold; font-family:sans-serif;">
      <text x="97" y="73" style="clip-path:url(#clipPath3); stroke:none;">CCircle
      </text>
    </g>
    <g style="font-family:sans-serif;">
      <line x1="47" x2="192" y1="82" style="clip-path:url(#clipPath2); fill:none;" y2="82" />
    </g>
    <g style="font-family:sans-serif;">
      <text x="53" y="103" style="clip-path:url(#clipPath5); stroke:none;">-m_radius:unsigned int
      </text>
    </g>
    <g style="font-family:sans-serif;">
      <line x1="47" x2="192" y1="113" style="clip-path:url(#clipPath2); fill:none;" y2="113" />
    </g>
    <g style="font-family:sans-serif;">
      <text x="53" y="134" style="clip-path:url(#clipPath7); stroke:none;">+CCircle
      </text>
      <text x="53" y="149" style="clip-path:url(#clipPath7); stroke:none;">+print:void
      </text>
    </g>
    <g style="fill:navy; font-family:sans-serif; stroke:navy;">
      <rect x="573" y="273" width="92" style="clip-path:url(#clipPath1); stroke:none;" height="133" />
      <rect x="570" y="270" width="92" style="clip-path:url(#clipPath1); fill:white; stroke:none;" height="133" />
      <rect x="570" y="270" width="92" style="clip-path:url(#clipPath1); fill:none; stroke:black;" height="133" />
    </g>
    <g style="font-weight:bold; font-family:sans-serif;">
      <text x="576" y="283" style="clip-path:url(#clipPath9); stroke:none;">CCoordinate
      </text>
    </g>
    <g style="font-family:sans-serif;">
      <line x1="570" x2="662" y1="292" style="clip-path:url(#clipPath8); fill:none;" y2="292" />
    </g>
    <g style="font-family:sans-serif;">
      <text x="576" y="313" style="clip-path:url(#clipPath11); stroke:none;">-m_x:int
      </text>
      <text x="576" y="328" style="clip-path:url(#clipPath11); stroke:none;">-m_y:int
      </text>
    </g>
    <g style="font-family:sans-serif;">
      <line x1="570" x2="662" y1="338" style="clip-path:url(#clipPath8); fill:none;" y2="338" />
    </g>
    <g style="font-family:sans-serif;">
      <text x="576" y="359" style="clip-path:url(#clipPath13); stroke:none;">+CCoordinate
      </text>
      <text x="576" y="374" style="clip-path:url(#clipPath13); stroke:none;">+print:void
      </text>
      <text x="576" y="389" style="clip-path:url(#clipPath13); stroke:none;">+set:bool
      </text>
    </g>
    <g style="fill:navy; font-family:sans-serif; stroke:navy;">
      <rect x="285" y="284" width="192" style="clip-path:url(#clipPath1); stroke:none;" height="223" />
      <rect x="282" y="281" width="192" style="clip-path:url(#clipPath1); fill:white; stroke:none;" height="223" />
      <rect x="282" y="281" width="192" style="clip-path:url(#clipPath1); fill:none; stroke:black;" height="223" />
    </g>
    <g style="font-weight:bold; font-family:sans-serif;">
      <text x="328" y="294" style="clip-path:url(#clipPath15); stroke:none;">CGraphicObject
      </text>
    </g>
    <g style="font-family:sans-serif;">
      <line x1="282" x2="474" y1="303" style="clip-path:url(#clipPath14); fill:none;" y2="303" />
    </g>
    <g style="font-family:sans-serif;">
      <text x="288" y="324" style="clip-path:url(#clipPath17); stroke:none;">-m_name:std::string
      </text>
      <text x="288" y="339" style="clip-path:url(#clipPath17); stroke:none;">-m_noCoordinates:unsigned int
      </text>
      <text x="288" y="354" style="clip-path:url(#clipPath17); stroke:none;">#m_pCoordinate:CCoordinate*
      </text>
    </g>
    <g style="font-family:sans-serif;">
      <line x1="282" x2="474" y1="364" style="clip-path:url(#clipPath14); fill:none;" y2="364" />
    </g>
    <g style="font-family:sans-serif;">
      <text x="288" y="385" style="clip-path:url(#clipPath19); stroke:none;">+CGraphicObject
      </text>
      <text x="288" y="400" style="clip-path:url(#clipPath19); stroke:none;">+~CGraphicObject
      </text>
      <text x="288" y="415" style="clip-path:url(#clipPath19); stroke:none;">+set:bool
      </text>
      <text x="288" y="430" style="clip-path:url(#clipPath19); stroke:none;">+set:bool
      </text>
      <text x="288" y="445" style="clip-path:url(#clipPath19); stroke:none;">+print:void
      </text>
      <text x="288" y="460" style="clip-path:url(#clipPath19); stroke:none;">+move:bool
      </text>
      <text x="288" y="475" style="clip-path:url(#clipPath19); stroke:none;">+operator=:CGraphicObject&amp;
      </text>
      <text x="288" y="490" style="clip-path:url(#clipPath19); stroke:none;">+getName:std::string
      </text>
    </g>
    <g style="fill:navy; font-family:sans-serif; stroke:navy;">
      <rect x="393" y="63" width="80" style="clip-path:url(#clipPath1); stroke:none;" height="80" />
      <rect x="390" y="60" width="80" style="clip-path:url(#clipPath1); fill:white; stroke:none;" height="80" />
      <rect x="390" y="60" width="80" style="clip-path:url(#clipPath1); fill:none; stroke:black;" height="80" />
    </g>
    <g style="font-weight:bold; font-family:sans-serif;">
      <text x="399" y="73" style="clip-path:url(#clipPath21); stroke:none;">CTriangle
      </text>
    </g>
    <g style="font-family:sans-serif;">
      <line x1="390" x2="470" y1="82" style="clip-path:url(#clipPath20); fill:none;" y2="82" />
      <line x1="390" x2="470" y1="105" style="clip-path:url(#clipPath20); fill:none;" y2="105" />
    </g>
    <g style="font-family:sans-serif;">
      <text x="396" y="126" style="clip-path:url(#clipPath23); stroke:none;">+CTriangle
      </text>
    </g>
    <g style="fill:navy; font-family:sans-serif; stroke:navy;">
      <rect x="263" y="63" width="85" style="clip-path:url(#clipPath1); stroke:none;" height="80" />
      <rect x="260" y="60" width="85" style="clip-path:url(#clipPath1); fill:white; stroke:none;" height="80" />
      <rect x="260" y="60" width="85" style="clip-path:url(#clipPath1); fill:none; stroke:black;" height="80" />
    </g>
    <g style="font-weight:bold; font-family:sans-serif;">
      <text x="267" y="73" style="clip-path:url(#clipPath25); stroke:none;">CRectangle
      </text>
    </g>
    <g style="font-family:sans-serif;">
      <line x1="175" x2="260" y1="82" style="clip-path:url(#clipPath24); fill:none;" y2="82" />
      <line x1="175" x2="260" y1="105" style="clip-path:url(#clipPath24); fill:none;" y2="105" />
    </g>
    <g style="font-family:sans-serif;">
      <text x="266" y="126" style="clip-path:url(#clipPath27); stroke:none;">+CRectangle
      </text>
    </g>
    <g style="fill:navy; font-family:sans-serif; stroke:navy;">
      <polygon style="clip-path:url(#clipPath1); stroke:none;" points=" 23 324 207 324 222 339 222 362 23 362" />
      <polygon style="fill:white; clip-path:url(#clipPath1); stroke:none;" points=" 20 321 204 321 219 336 219 359 20 359" />
      <line x1="20" x2="204" y1="321" style="clip-path:url(#clipPath1); fill:none; stroke:black;" y2="321" />
      <line x1="204" x2="219" y1="321" style="clip-path:url(#clipPath1); fill:none; stroke:black;" y2="336" />
      <line x1="219" x2="219" y1="336" style="clip-path:url(#clipPath1); fill:none; stroke:black;" y2="359" />
      <line x1="219" x2="20" y1="359" style="clip-path:url(#clipPath1); fill:none; stroke:black;" y2="359" />
      <line x1="20" x2="20" y1="359" style="clip-path:url(#clipPath1); fill:none; stroke:black;" y2="321" />
      <line x1="204" x2="204" y1="321" style="clip-path:url(#clipPath1); fill:none; stroke:black;" y2="336" />
      <line x1="204" x2="219" y1="336" style="clip-path:url(#clipPath1); fill:none; stroke:black;" y2="336" />
    </g>
    <g style="font-family:sans-serif;">
      <text x="28" y="337" style="clip-path:url(#clipPath28); stroke:none;">Inheritance
      </text>
      <text x="28" y="352" style="clip-path:url(#clipPath28); stroke:none;">A circle "is a" graphical object
      </text>
    </g>
  </g>
</svg>
