<?xml version="1.0" encoding="UTF-8"?>

<!DOCTYPE svg PUBLIC '-//W3C//DTD SVG 20001102//EN' 'http://www.w3.org/TR/2000/CR-SVG-20001102/DTD/svg-20001102.dtd'>
<svg style="fill-opacity:1; color-rendering:auto; color-interpolation:sRGB; text-rendering:auto; stroke:black; stroke-linecap:square; stroke-miterlimit:10; shape-rendering:auto; stroke-opacity:1; fill:black; stroke-dasharray:none; font-weight:normal; stroke-width:1; font-family:&apos;sansserif&apos;; font-style:normal; stroke-linejoin:miter; font-size:12; stroke-dashoffset:0; image-rendering:auto;" width="682" height="952">
  <!--Generated by the Batik Graphics2D SVG Generator-->
  <defs id="genericDefs" />
  <g>
    <defs id="defs1">
      <clipPath clipPathUnits="userSpaceOnUse" id="clipPath1">
        <path d="M0 0 L682 0 L682 952 L0 952 L0 0 Z" />
      </clipPath>
      <clipPath clipPathUnits="userSpaceOnUse" id="clipPath2">
        <path d="M220 520 L220 601 L306 601 L306 520 Z" />
      </clipPath>
      <clipPath clipPathUnits="userSpaceOnUse" id="clipPath3">
        <path d="M221 521 L221 537 L306 537 L306 521 Z" />
      </clipPath>
      <clipPath clipPathUnits="userSpaceOnUse" id="clipPath4">
        <path d="M220 572 L220 591 L306 591 L306 572 Z" />
      </clipPath>
      <clipPath clipPathUnits="userSpaceOnUse" id="clipPath5">
        <path d="M222 574 L222 590 L305 590 L305 574 Z" />
      </clipPath>
      <clipPath clipPathUnits="userSpaceOnUse" id="clipPath6">
        <path d="M240 10 L240 129 L397 129 L397 10 Z" />
      </clipPath>
      <clipPath clipPathUnits="userSpaceOnUse" id="clipPath7">
        <path d="M241 11 L241 27 L397 27 L397 11 Z" />
      </clipPath>
      <clipPath clipPathUnits="userSpaceOnUse" id="clipPath8">
        <path d="M240 39 L240 73 L397 73 L397 39 Z" />
      </clipPath>
      <clipPath clipPathUnits="userSpaceOnUse" id="clipPath9">
        <path d="M242 41 L242 72 L396 72 L396 41 Z" />
      </clipPath>
      <clipPath clipPathUnits="userSpaceOnUse" id="clipPath10">
        <path d="M240 85 L240 119 L397 119 L397 85 Z" />
      </clipPath>
      <clipPath clipPathUnits="userSpaceOnUse" id="clipPath11">
        <path d="M242 87 L242 118 L396 118 L396 87 Z" />
      </clipPath>
      <clipPath clipPathUnits="userSpaceOnUse" id="clipPath12">
        <path d="M60 530 L60 611 L141 611 L141 530 Z" />
      </clipPath>
      <clipPath clipPathUnits="userSpaceOnUse" id="clipPath13">
        <path d="M61 531 L61 547 L141 547 L141 531 Z" />
      </clipPath>
      <clipPath clipPathUnits="userSpaceOnUse" id="clipPath14">
        <path d="M60 582 L60 601 L141 601 L141 582 Z" />
      </clipPath>
      <clipPath clipPathUnits="userSpaceOnUse" id="clipPath15">
        <path d="M62 584 L62 600 L140 600 L140 584 Z" />
      </clipPath>
      <clipPath clipPathUnits="userSpaceOnUse" id="clipPath16">
        <path d="M390 520 L390 624 L536 624 L536 520 Z" />
      </clipPath>
      <clipPath clipPathUnits="userSpaceOnUse" id="clipPath17">
        <path d="M391 521 L391 537 L536 537 L536 521 Z" />
      </clipPath>
      <clipPath clipPathUnits="userSpaceOnUse" id="clipPath18">
        <path d="M390 549 L390 568 L536 568 L536 549 Z" />
      </clipPath>
      <clipPath clipPathUnits="userSpaceOnUse" id="clipPath19">
        <path d="M392 551 L392 567 L535 567 L535 551 Z" />
      </clipPath>
      <clipPath clipPathUnits="userSpaceOnUse" id="clipPath20">
        <path d="M390 580 L390 614 L536 614 L536 580 Z" />
      </clipPath>
      <clipPath clipPathUnits="userSpaceOnUse" id="clipPath21">
        <path d="M392 582 L392 613 L535 613 L535 582 Z" />
      </clipPath>
      <clipPath clipPathUnits="userSpaceOnUse" id="clipPath22">
        <path d="M410 160 L410 354 L608 354 L608 160 Z" />
      </clipPath>
      <clipPath clipPathUnits="userSpaceOnUse" id="clipPath23">
        <path d="M411 161 L411 177 L608 177 L608 161 Z" />
      </clipPath>
      <clipPath clipPathUnits="userSpaceOnUse" id="clipPath24">
        <path d="M410 189 L410 253 L608 253 L608 189 Z" />
      </clipPath>
      <clipPath clipPathUnits="userSpaceOnUse" id="clipPath25">
        <path d="M412 191 L412 252 L607 252 L607 191 Z" />
      </clipPath>
      <clipPath clipPathUnits="userSpaceOnUse" id="clipPath26">
        <path d="M410 265 L410 344 L608 344 L608 265 Z" />
      </clipPath>
      <clipPath clipPathUnits="userSpaceOnUse" id="clipPath27">
        <path d="M412 267 L412 343 L607 343 L607 267 Z" />
      </clipPath>
      <clipPath clipPathUnits="userSpaceOnUse" id="clipPath28">
        <path d="M360 700 L360 834 L453 834 L453 700 Z" />
      </clipPath>
      <clipPath clipPathUnits="userSpaceOnUse" id="clipPath29">
        <path d="M361 701 L361 717 L453 717 L453 701 Z" />
      </clipPath>
      <clipPath clipPathUnits="userSpaceOnUse" id="clipPath30">
        <path d="M360 729 L360 763 L453 763 L453 729 Z" />
      </clipPath>
      <clipPath clipPathUnits="userSpaceOnUse" id="clipPath31">
        <path d="M362 731 L362 762 L452 762 L452 731 Z" />
      </clipPath>
      <clipPath clipPathUnits="userSpaceOnUse" id="clipPath32">
        <path d="M360 775 L360 824 L453 824 L453 775 Z" />
      </clipPath>
      <clipPath clipPathUnits="userSpaceOnUse" id="clipPath33">
        <path d="M362 777 L362 823 L452 823 L452 777 Z" />
      </clipPath>
      <clipPath clipPathUnits="userSpaceOnUse" id="clipPath34">
        <path d="M50 150 L50 329 L248 329 L248 150 Z" />
      </clipPath>
      <clipPath clipPathUnits="userSpaceOnUse" id="clipPath35">
        <path d="M51 151 L51 167 L248 167 L248 151 Z" />
      </clipPath>
      <clipPath clipPathUnits="userSpaceOnUse" id="clipPath36">
        <path d="M50 179 L50 228 L248 228 L248 179 Z" />
      </clipPath>
      <clipPath clipPathUnits="userSpaceOnUse" id="clipPath37">
        <path d="M52 181 L52 227 L247 227 L247 181 Z" />
      </clipPath>
      <clipPath clipPathUnits="userSpaceOnUse" id="clipPath38">
        <path d="M50 240 L50 319 L248 319 L248 240 Z" />
      </clipPath>
      <clipPath clipPathUnits="userSpaceOnUse" id="clipPath39">
        <path d="M52 242 L52 318 L247 318 L247 242 Z" />
      </clipPath>
      <clipPath clipPathUnits="userSpaceOnUse" id="clipPath40">
        <path d="M100 710 L100 934 L293 934 L293 710 Z" />
      </clipPath>
      <clipPath clipPathUnits="userSpaceOnUse" id="clipPath41">
        <path d="M101 711 L101 727 L293 727 L293 711 Z" />
      </clipPath>
      <clipPath clipPathUnits="userSpaceOnUse" id="clipPath42">
        <path d="M100 739 L100 788 L293 788 L293 739 Z" />
      </clipPath>
      <clipPath clipPathUnits="userSpaceOnUse" id="clipPath43">
        <path d="M102 741 L102 787 L292 787 L292 741 Z" />
      </clipPath>
      <clipPath clipPathUnits="userSpaceOnUse" id="clipPath44">
        <path d="M100 800 L100 924 L293 924 L293 800 Z" />
      </clipPath>
      <clipPath clipPathUnits="userSpaceOnUse" id="clipPath45">
        <path d="M102 802 L102 923 L292 923 L292 802 Z" />
      </clipPath>
    </defs>
    <g style="fill:rgb(0,0,130); stroke:rgb(0,0,130);">
      <line x1="295" x2="360" y1="773" style="clip-path:url(#clipPath1); fill:none;" y2="773" />
      <line x1="230" x2="230" y1="331" style="clip-path:url(#clipPath1); fill:none;" y2="331" />
      <line x1="230" x2="230" y1="335" style="clip-path:url(#clipPath1); fill:none;" y2="345" />
      <line x1="230" x2="230" y1="350" style="clip-path:url(#clipPath1); fill:none;" y2="360" />
      <line x1="230" x2="230" y1="365" style="clip-path:url(#clipPath1); fill:none;" y2="375" />
      <line x1="230" x2="230" y1="380" style="clip-path:url(#clipPath1); fill:none;" y2="390" />
      <line x1="230" x2="230" y1="395" style="clip-path:url(#clipPath1); fill:none;" y2="405" />
      <line x1="230" x2="230" y1="410" style="clip-path:url(#clipPath1); fill:none;" y2="420" />
      <line x1="230" x2="230" y1="425" style="clip-path:url(#clipPath1); fill:none;" y2="435" />
      <line x1="230" x2="230" y1="440" style="clip-path:url(#clipPath1); fill:none;" y2="450" />
      <line x1="230" x2="230" y1="455" style="clip-path:url(#clipPath1); fill:none;" y2="465" />
      <line x1="230" x2="230" y1="470" style="clip-path:url(#clipPath1); fill:none;" y2="480" />
      <line x1="230" x2="230" y1="485" style="clip-path:url(#clipPath1); fill:none;" y2="495" />
      <line x1="230" x2="230" y1="500" style="clip-path:url(#clipPath1); fill:none;" y2="510" />
      <line x1="230" x2="230" y1="515" style="clip-path:url(#clipPath1); fill:none;" y2="520" />
      <line x1="80" x2="80" y1="331" style="clip-path:url(#clipPath1); fill:none;" y2="331" />
      <line x1="80" x2="80" y1="335" style="clip-path:url(#clipPath1); fill:none;" y2="345" />
      <line x1="80" x2="80" y1="350" style="clip-path:url(#clipPath1); fill:none;" y2="360" />
      <line x1="80" x2="80" y1="365" style="clip-path:url(#clipPath1); fill:none;" y2="375" />
      <line x1="80" x2="80" y1="380" style="clip-path:url(#clipPath1); fill:none;" y2="390" />
      <line x1="80" x2="80" y1="395" style="clip-path:url(#clipPath1); fill:none;" y2="405" />
      <line x1="80" x2="80" y1="410" style="clip-path:url(#clipPath1); fill:none;" y2="420" />
      <line x1="80" x2="80" y1="425" style="clip-path:url(#clipPath1); fill:none;" y2="435" />
      <line x1="80" x2="80" y1="440" style="clip-path:url(#clipPath1); fill:none;" y2="450" />
      <line x1="80" x2="80" y1="455" style="clip-path:url(#clipPath1); fill:none;" y2="465" />
      <line x1="80" x2="80" y1="470" style="clip-path:url(#clipPath1); fill:none;" y2="480" />
      <line x1="80" x2="80" y1="485" style="clip-path:url(#clipPath1); fill:none;" y2="495" />
      <line x1="80" x2="80" y1="500" style="clip-path:url(#clipPath1); fill:none;" y2="510" />
      <line x1="80" x2="80" y1="515" style="clip-path:url(#clipPath1); fill:none;" y2="525" />
      <line x1="80" x2="80" y1="530" style="clip-path:url(#clipPath1); fill:none;" y2="530" />
      <line x1="240" x2="247" y1="331" style="clip-path:url(#clipPath1); fill:none;" y2="337" />
      <line x1="251" x2="258" y1="340" style="clip-path:url(#clipPath1); fill:none;" y2="346" />
      <line x1="262" x2="270" y1="350" style="clip-path:url(#clipPath1); fill:none;" y2="356" />
      <line x1="274" x2="281" y1="359" style="clip-path:url(#clipPath1); fill:none;" y2="366" />
      <line x1="285" x2="293" y1="369" style="clip-path:url(#clipPath1); fill:none;" y2="375" />
      <line x1="297" x2="304" y1="379" style="clip-path:url(#clipPath1); fill:none;" y2="385" />
      <line x1="308" x2="316" y1="388" style="clip-path:url(#clipPath1); fill:none;" y2="395" />
      <line x1="319" x2="327" y1="398" style="clip-path:url(#clipPath1); fill:none;" y2="405" />
      <line x1="331" x2="339" y1="408" style="clip-path:url(#clipPath1); fill:none;" y2="414" />
      <line x1="342" x2="350" y1="417" style="clip-path:url(#clipPath1); fill:none;" y2="424" />
      <line x1="354" x2="362" y1="427" style="clip-path:url(#clipPath1); fill:none;" y2="434" />
      <line x1="365" x2="373" y1="437" style="clip-path:url(#clipPath1); fill:none;" y2="443" />
      <line x1="377" x2="384" y1="446" style="clip-path:url(#clipPath1); fill:none;" y2="453" />
      <line x1="388" x2="396" y1="456" style="clip-path:url(#clipPath1); fill:none;" y2="463" />
      <line x1="400" x2="407" y1="466" style="clip-path:url(#clipPath1); fill:none;" y2="472" />
      <line x1="411" x2="419" y1="475" style="clip-path:url(#clipPath1); fill:none;" y2="482" />
      <line x1="423" x2="430" y1="485" style="clip-path:url(#clipPath1); fill:none;" y2="492" />
      <line x1="434" x2="442" y1="495" style="clip-path:url(#clipPath1); fill:none;" y2="501" />
      <line x1="446" x2="453" y1="504" style="clip-path:url(#clipPath1); fill:none;" y2="511" />
      <line x1="457" x2="464" y1="514" style="clip-path:url(#clipPath1); fill:none;" y2="520" />
      <line x1="50" x2="20" y1="280" style="clip-path:url(#clipPath1); fill:none;" y2="280" />
      <line x1="20" x2="20" y1="280" style="clip-path:url(#clipPath1); fill:none;" y2="770" />
      <line x1="20" x2="100" y1="770" style="clip-path:url(#clipPath1); fill:none;" y2="770" />
      <line x1="410" x2="250" y1="270" style="clip-path:url(#clipPath1); fill:none; stroke:blue;" y2="270" />
      <line x1="610" x2="670" y1="346" style="clip-path:url(#clipPath1); fill:none;" y2="350" />
      <line x1="670" x2="670" y1="350" style="clip-path:url(#clipPath1); fill:none;" y2="910" />
      <line x1="670" x2="295" y1="910" style="clip-path:url(#clipPath1); fill:none;" y2="910" />
      <line x1="422" x2="422" y1="626" style="clip-path:url(#clipPath1); fill:none;" y2="630" />
      <line x1="422" x2="422" y1="635" style="clip-path:url(#clipPath1); fill:none;" y2="645" />
      <line x1="422" x2="422" y1="650" style="clip-path:url(#clipPath1); fill:none;" y2="660" />
      <line x1="422" x2="422" y1="665" style="clip-path:url(#clipPath1); fill:none;" y2="675" />
      <line x1="422" x2="422" y1="680" style="clip-path:url(#clipPath1); fill:none;" y2="690" />
      <line x1="422" x2="422" y1="695" style="clip-path:url(#clipPath1); fill:none;" y2="700" />
      <line x1="406" x2="270" y1="626" style="clip-path:url(#clipPath1); fill:none; stroke:rgb(0,64,64);" y2="710" />
      <line x1="80" x2="80" y1="613" style="clip-path:url(#clipPath1); fill:none;" y2="615" />
      <line x1="80" x2="80" y1="620" style="clip-path:url(#clipPath1); fill:none;" y2="630" />
      <line x1="80" x2="80" y1="635" style="clip-path:url(#clipPath1); fill:none;" y2="645" />
      <line x1="80" x2="80" y1="650" style="clip-path:url(#clipPath1); fill:none;" y2="660" />
      <line x1="80" x2="80" y1="665" style="clip-path:url(#clipPath1); fill:none;" y2="675" />
      <line x1="80" x2="80" y1="680" style="clip-path:url(#clipPath1); fill:none;" y2="690" />
      <line x1="80" x2="80" y1="695" style="clip-path:url(#clipPath1); fill:none;" y2="705" />
      <line x1="80" x2="80" y1="710" style="clip-path:url(#clipPath1); fill:none;" y2="720" />
      <line x1="80" x2="80" y1="725" style="clip-path:url(#clipPath1); fill:none;" y2="735" />
      <line x1="80" x2="80" y1="740" style="clip-path:url(#clipPath1); fill:none;" y2="750" />
      <line x1="80" x2="80" y1="755" style="clip-path:url(#clipPath1); fill:none;" y2="765" />
      <line x1="80" x2="80" y1="770" style="clip-path:url(#clipPath1); fill:none;" y2="780" />
      <line x1="80" x2="80" y1="785" style="clip-path:url(#clipPath1); fill:none;" y2="795" />
      <line x1="80" x2="80" y1="800" style="clip-path:url(#clipPath1); fill:none;" y2="810" />
      <line x1="80" x2="80" y1="815" style="clip-path:url(#clipPath1); fill:none;" y2="825" />
      <line x1="80" x2="80" y1="830" style="clip-path:url(#clipPath1); fill:none;" y2="840" />
      <line x1="80" x2="80" y1="845" style="clip-path:url(#clipPath1); fill:none;" y2="855" />
      <line x1="80" x2="80" y1="860" style="clip-path:url(#clipPath1); fill:none;" y2="870" />
      <line x1="80" x2="80" y1="875" style="clip-path:url(#clipPath1); fill:none;" y2="885" />
      <line x1="80" x2="80" y1="890" style="clip-path:url(#clipPath1); fill:none;" y2="900" />
      <line x1="80" x2="80" y1="905" style="clip-path:url(#clipPath1); fill:none;" y2="915" />
      <line x1="80" x2="80" y1="920" style="clip-path:url(#clipPath1); fill:none;" y2="930" />
      <line x1="80" x2="80" y1="935" style="clip-path:url(#clipPath1); fill:none;" y2="940" />
      <line x1="80" x2="90" y1="940" style="clip-path:url(#clipPath1); fill:none;" y2="940" />
      <line x1="95" x2="105" y1="940" style="clip-path:url(#clipPath1); fill:none;" y2="940" />
      <line x1="110" x2="120" y1="940" style="clip-path:url(#clipPath1); fill:none;" y2="940" />
      <line x1="125" x2="135" y1="940" style="clip-path:url(#clipPath1); fill:none;" y2="940" />
      <line x1="140" x2="150" y1="940" style="clip-path:url(#clipPath1); fill:none;" y2="940" />
      <line x1="155" x2="165" y1="940" style="clip-path:url(#clipPath1); fill:none;" y2="940" />
      <line x1="170" x2="180" y1="940" style="clip-path:url(#clipPath1); fill:none;" y2="940" />
      <line x1="185" x2="195" y1="940" style="clip-path:url(#clipPath1); fill:none;" y2="940" />
      <line x1="200" x2="210" y1="940" style="clip-path:url(#clipPath1); fill:none;" y2="940" />
      <line x1="215" x2="225" y1="940" style="clip-path:url(#clipPath1); fill:none;" y2="940" />
      <line x1="230" x2="240" y1="940" style="clip-path:url(#clipPath1); fill:none;" y2="940" />
      <line x1="245" x2="255" y1="940" style="clip-path:url(#clipPath1); fill:none;" y2="940" />
      <line x1="260" x2="270" y1="940" style="clip-path:url(#clipPath1); fill:none;" y2="940" />
      <line x1="275" x2="285" y1="940" style="clip-path:url(#clipPath1); fill:none;" y2="940" />
      <line x1="290" x2="300" y1="940" style="clip-path:url(#clipPath1); fill:none;" y2="940" />
      <line x1="305" x2="315" y1="940" style="clip-path:url(#clipPath1); fill:none;" y2="940" />
      <line x1="320" x2="330" y1="940" style="clip-path:url(#clipPath1); fill:none;" y2="940" />
      <line x1="335" x2="345" y1="940" style="clip-path:url(#clipPath1); fill:none;" y2="940" />
      <line x1="350" x2="360" y1="940" style="clip-path:url(#clipPath1); fill:none;" y2="940" />
      <line x1="365" x2="375" y1="940" style="clip-path:url(#clipPath1); fill:none;" y2="940" />
      <line x1="380" x2="390" y1="940" style="clip-path:url(#clipPath1); fill:none;" y2="940" />
      <line x1="395" x2="405" y1="940" style="clip-path:url(#clipPath1); fill:none;" y2="940" />
      <line x1="410" x2="410" y1="940" style="clip-path:url(#clipPath1); fill:none;" y2="940" />
      <line x1="410" x2="410" y1="940" style="clip-path:url(#clipPath1); fill:none;" y2="940" />
      <line x1="410" x2="410" y1="935" style="clip-path:url(#clipPath1); fill:none;" y2="925" />
      <line x1="410" x2="410" y1="920" style="clip-path:url(#clipPath1); fill:none;" y2="910" />
      <line x1="410" x2="410" y1="905" style="clip-path:url(#clipPath1); fill:none;" y2="895" />
      <line x1="410" x2="410" y1="890" style="clip-path:url(#clipPath1); fill:none;" y2="880" />
      <line x1="410" x2="410" y1="875" style="clip-path:url(#clipPath1); fill:none;" y2="865" />
      <line x1="410" x2="410" y1="860" style="clip-path:url(#clipPath1); fill:none;" y2="850" />
      <line x1="410" x2="410" y1="845" style="clip-path:url(#clipPath1); fill:none;" y2="836" />
      <line x1="110" x2="110" y1="613" style="clip-path:url(#clipPath1); fill:none; stroke:rgb(0,64,64);" y2="710" />
      <line x1="300" x2="300" y1="131" style="clip-path:url(#clipPath1); fill:none;" y2="200" />
      <line x1="300" x2="410" y1="200" style="clip-path:url(#clipPath1); fill:none;" y2="200" />
      <line x1="240" x2="100" y1="60" style="clip-path:url(#clipPath1); fill:none;" y2="60" />
      <line x1="100" x2="100" y1="60" style="clip-path:url(#clipPath1); fill:none;" y2="150" />
      <line x1="245" x2="245" y1="603" style="clip-path:url(#clipPath1); fill:none; stroke:rgb(0,64,64);" y2="710" />
      <polygon style="clip-path:url(#clipPath1); stroke:none;" points=" 295 773 303 769 311 773 303 777" />
      <polygon style="fill:none; clip-path:url(#clipPath1);" points=" 295 773 303 769 311 773 303 777" />
      <line x1="303" x2="295" y1="777" style="clip-path:url(#clipPath1); fill:none;" y2="773" />
      <line x1="360" x2="348" y1="773" style="clip-path:url(#clipPath1); fill:none;" y2="768" />
      <line x1="360" x2="348" y1="773" style="clip-path:url(#clipPath1); fill:none;" y2="778" />
      <text x="303" y="766" style="clip-path:url(#clipPath1); font-family:sans-serif; stroke:none;">1
      </text>
      <text x="330" y="766" style="clip-path:url(#clipPath1); font-family:sans-serif; stroke:none;">1..*
      </text>
      <line x1="230" x2="235" y1="520" style="clip-path:url(#clipPath1); fill:none; font-family:sans-serif;" y2="508" />
      <line x1="230" x2="225" y1="520" style="clip-path:url(#clipPath1); fill:none; font-family:sans-serif;" y2="508" />
      <line x1="80" x2="85" y1="530" style="clip-path:url(#clipPath1); fill:none; font-family:sans-serif;" y2="518" />
      <line x1="80" x2="75" y1="530" style="clip-path:url(#clipPath1); fill:none; font-family:sans-serif;" y2="518" />
      <line x1="464" x2="458" y1="520" style="clip-path:url(#clipPath1); fill:none; font-family:sans-serif;" y2="508" />
      <line x1="464" x2="452" y1="520" style="clip-path:url(#clipPath1); fill:none; font-family:sans-serif;" y2="516" />
      <polygon style="clip-path:url(#clipPath1); font-family:sans-serif; stroke:none;" points=" 50 280 42 284 34 280 42 276" />
      <polygon style="fill:none; clip-path:url(#clipPath1); font-family:sans-serif;" points=" 50 280 42 284 34 280 42 276" />
      <line x1="42" x2="50" y1="276" style="clip-path:url(#clipPath1); fill:none; font-family:sans-serif;" y2="280" />
      <line x1="100" x2="88" y1="770" style="clip-path:url(#clipPath1); fill:none; font-family:sans-serif;" y2="765" />
      <line x1="100" x2="88" y1="770" style="clip-path:url(#clipPath1); fill:none; font-family:sans-serif;" y2="775" />
      <text x="35" y="272" style="clip-path:url(#clipPath1); font-family:sans-serif; stroke:none;">1
      </text>
      <text x="74" y="762" style="clip-path:url(#clipPath1); font-family:sans-serif; stroke:none;">0..*
      </text>
      <line x1="250" x2="262" y1="270" style="clip-path:url(#clipPath1); fill:none; font-family:sans-serif; stroke:blue;" y2="275" />
      <line x1="250" x2="262" y1="270" style="clip-path:url(#clipPath1); fill:none; font-family:sans-serif; stroke:blue;" y2="265" />
      <text x="258" y="262" style="clip-path:url(#clipPath1); fill:blue; font-family:sans-serif; stroke:none;">0..1
      </text>
      <polygon points=" 610 346 618 343 626 347 618 351" style="fill:white; clip-path:url(#clipPath1); font-family:sans-serif; stroke:none;" />
      <polygon style="fill:none; clip-path:url(#clipPath1); font-family:sans-serif;" points=" 610 346 618 343 626 347 618 351" />
      <line x1="618" x2="610" y1="351" style="clip-path:url(#clipPath1); fill:none; font-family:sans-serif;" y2="346" />
      <line x1="295" x2="307" y1="910" style="clip-path:url(#clipPath1); fill:none; font-family:sans-serif;" y2="915" />
      <line x1="295" x2="307" y1="910" style="clip-path:url(#clipPath1); fill:none; font-family:sans-serif;" y2="905" />
      <text x="618" y="339" style="clip-path:url(#clipPath1); font-family:sans-serif; stroke:none;">1
      </text>
      <text x="303" y="903" style="clip-path:url(#clipPath1); font-family:sans-serif; stroke:none;">0..*
      </text>
      <line x1="422" x2="427" y1="700" style="clip-path:url(#clipPath1); fill:none; font-family:sans-serif;" y2="688" />
      <line x1="422" x2="417" y1="700" style="clip-path:url(#clipPath1); fill:none; font-family:sans-serif;" y2="688" />
      <polygon points=" 270 710 282 695 288 706" style="fill:white; clip-path:url(#clipPath1); font-family:sans-serif; stroke:none;" />
      <polygon points=" 270 710 282 695 288 706" style="fill:none; clip-path:url(#clipPath1); font-family:sans-serif; stroke:rgb(0,64,64);" />
      <line x1="288" x2="270" y1="706" style="clip-path:url(#clipPath1); fill:none; font-family:sans-serif; stroke:rgb(0,64,64);" y2="710" />
      <line x1="410" x2="405" y1="836" style="clip-path:url(#clipPath1); fill:none; font-family:sans-serif;" y2="848" />
      <line x1="410" x2="415" y1="836" style="clip-path:url(#clipPath1); fill:none; font-family:sans-serif;" y2="848" />
      <polygon points=" 110 710 104 692 116 692" style="fill:white; clip-path:url(#clipPath1); font-family:sans-serif; stroke:none;" />
      <polygon points=" 110 710 104 692 116 692" style="fill:none; clip-path:url(#clipPath1); font-family:sans-serif; stroke:rgb(0,64,64);" />
      <line x1="116" x2="110" y1="692" style="clip-path:url(#clipPath1); fill:none; font-family:sans-serif; stroke:rgb(0,64,64);" y2="710" />
      <polygon style="clip-path:url(#clipPath1); font-family:sans-serif; stroke:none;" points=" 300 131 304 139 300 147 296 139" />
      <polygon style="fill:none; clip-path:url(#clipPath1); font-family:sans-serif;" points=" 300 131 304 139 300 147 296 139" />
      <line x1="296" x2="300" y1="139" style="clip-path:url(#clipPath1); fill:none; font-family:sans-serif;" y2="131" />
      <line x1="410" x2="398" y1="200" style="clip-path:url(#clipPath1); fill:none; font-family:sans-serif;" y2="195" />
      <line x1="410" x2="398" y1="200" style="clip-path:url(#clipPath1); fill:none; font-family:sans-serif;" y2="205" />
      <polygon style="clip-path:url(#clipPath1); font-family:sans-serif; stroke:none;" points=" 240 60 232 64 224 60 232 56" />
      <polygon style="fill:none; clip-path:url(#clipPath1); font-family:sans-serif;" points=" 240 60 232 64 224 60 232 56" />
      <line x1="232" x2="240" y1="56" style="clip-path:url(#clipPath1); fill:none; font-family:sans-serif;" y2="60" />
      <line x1="100" x2="105" y1="150" style="clip-path:url(#clipPath1); fill:none; font-family:sans-serif;" y2="138" />
      <line x1="100" x2="95" y1="150" style="clip-path:url(#clipPath1); fill:none; font-family:sans-serif;" y2="138" />
      <polygon points=" 245 710 239 692 251 692" style="fill:white; clip-path:url(#clipPath1); font-family:sans-serif; stroke:none;" />
      <polygon points=" 245 710 239 692 251 692" style="fill:none; clip-path:url(#clipPath1); font-family:sans-serif; stroke:rgb(0,64,64);" />
      <line x1="251" x2="245" y1="692" style="clip-path:url(#clipPath1); fill:none; font-family:sans-serif; stroke:rgb(0,64,64);" y2="710" />
      <rect x="223" y="523" width="85" style="clip-path:url(#clipPath1); fill:navy; font-family:sans-serif; stroke:none;" height="80" />
      <rect x="220" y="520" width="85" style="clip-path:url(#clipPath1); fill:white; font-family:sans-serif; stroke:none;" height="80" />
      <rect x="220" y="520" width="85" style="clip-path:url(#clipPath1); fill:none; font-family:sans-serif; stroke:black;" height="80" />
    </g>
    <g style="font-weight:bold; font-family:sans-serif;">
      <text x="227" y="533" style="clip-path:url(#clipPath3); stroke:none;">CRectangle
      </text>
    </g>
    <g style="font-family:sans-serif;">
      <line x1="220" x2="305" y1="542" style="clip-path:url(#clipPath2); fill:none;" y2="542" />
      <line x1="220" x2="305" y1="565" style="clip-path:url(#clipPath2); fill:none;" y2="565" />
    </g>
    <g style="font-family:sans-serif;">
      <text x="226" y="586" style="clip-path:url(#clipPath5); stroke:none;">+CRectangle
      </text>
    </g>
    <g style="fill:navy; font-family:sans-serif; stroke:navy;">
      <rect x="243" y="13" width="156" style="clip-path:url(#clipPath1); stroke:none;" height="118" />
      <rect x="240" y="10" width="156" style="clip-path:url(#clipPath1); fill:white; stroke:none;" height="118" />
      <rect x="240" y="10" width="156" style="clip-path:url(#clipPath1); fill:none; stroke:black;" height="118" />
    </g>
    <g style="font-weight:bold; font-family:sans-serif;">
      <text x="261" y="23" style="clip-path:url(#clipPath7); stroke:none;">CGraphicalSystem
      </text>
    </g>
    <g style="font-family:sans-serif;">
      <line x1="240" x2="396" y1="32" style="clip-path:url(#clipPath6); fill:none;" y2="32" />
    </g>
    <g style="font-family:sans-serif;">
      <text x="246" y="53" style="clip-path:url(#clipPath9); stroke:none;">-m_database:CDatabase
      </text>
      <text x="246" y="68" style="clip-path:url(#clipPath9); stroke:none;">-m_screen:CScreen
      </text>
    </g>
    <g style="font-family:sans-serif;">
      <line x1="240" x2="396" y1="78" style="clip-path:url(#clipPath6); fill:none;" y2="78" />
    </g>
    <g style="font-family:sans-serif;">
      <text x="246" y="99" style="clip-path:url(#clipPath11); stroke:none;">+CGraphicalSystem
      </text>
      <text x="246" y="114" style="clip-path:url(#clipPath11); stroke:none;">+print:void
      </text>
    </g>
    <g style="fill:navy; font-family:sans-serif; stroke:navy;">
      <rect x="63" y="533" width="80" style="clip-path:url(#clipPath1); stroke:none;" height="80" />
      <rect x="60" y="530" width="80" style="clip-path:url(#clipPath1); fill:white; stroke:none;" height="80" />
      <rect x="60" y="530" width="80" style="clip-path:url(#clipPath1); fill:none; stroke:black;" height="80" />
    </g>
    <g style="font-weight:bold; font-family:sans-serif;">
      <text x="69" y="543" style="clip-path:url(#clipPath13); stroke:none;">CTriangle
      </text>
    </g>
    <g style="font-family:sans-serif;">
      <line x1="60" x2="140" y1="552" style="clip-path:url(#clipPath12); fill:none;" y2="552" />
      <line x1="60" x2="140" y1="575" style="clip-path:url(#clipPath12); fill:none;" y2="575" />
    </g>
    <g style="font-family:sans-serif;">
      <text x="66" y="596" style="clip-path:url(#clipPath15); stroke:none;">+CTriangle
      </text>
    </g>
    <g style="fill:navy; font-family:sans-serif; stroke:navy;">
      <rect x="393" y="523" width="145" style="clip-path:url(#clipPath1); stroke:none;" height="103" />
      <rect x="390" y="520" width="145" style="clip-path:url(#clipPath1); fill:white; stroke:none;" height="103" />
      <rect x="390" y="520" width="145" style="clip-path:url(#clipPath1); fill:none; stroke:black;" height="103" />
    </g>
    <g style="font-weight:bold; font-family:sans-serif;">
      <text x="440" y="533" style="clip-path:url(#clipPath17); stroke:none;">CCircle
      </text>
    </g>
    <g style="font-family:sans-serif;">
      <line x1="390" x2="535" y1="542" style="clip-path:url(#clipPath16); fill:none;" y2="542" />
    </g>
    <g style="font-family:sans-serif;">
      <text x="396" y="563" style="clip-path:url(#clipPath19); stroke:none;">-m_radius:unsigned int
      </text>
    </g>
    <g style="font-family:sans-serif;">
      <line x1="390" x2="535" y1="573" style="clip-path:url(#clipPath16); fill:none;" y2="573" />
    </g>
    <g style="font-family:sans-serif;">
      <text x="396" y="594" style="clip-path:url(#clipPath21); stroke:none;">+CCircle
      </text>
      <text x="396" y="609" style="clip-path:url(#clipPath21); stroke:none;">+print:void
      </text>
    </g>
    <g style="fill:navy; font-family:sans-serif; stroke:navy;">
      <rect x="413" y="163" width="197" style="clip-path:url(#clipPath1); stroke:none;" height="193" />
      <rect x="410" y="160" width="197" style="clip-path:url(#clipPath1); fill:white; stroke:none;" height="193" />
      <rect x="410" y="160" width="197" style="clip-path:url(#clipPath1); fill:none; stroke:black;" height="193" />
    </g>
    <g style="font-weight:bold; font-family:sans-serif;">
      <text x="483" y="173" style="clip-path:url(#clipPath23); stroke:none;">CScreen
      </text>
    </g>
    <g style="font-family:sans-serif;">
      <line x1="410" x2="607" y1="182" style="clip-path:url(#clipPath22); fill:none;" y2="182" />
    </g>
    <g style="font-family:sans-serif;">
      <text x="416" y="203" style="clip-path:url(#clipPath25); stroke:none;">-m_size:unsigned int
      </text>
      <text x="416" y="218" style="clip-path:url(#clipPath25); stroke:none;">-m_nextFreeObject:unsigned int
      </text>
      <text x="416" y="233" style="clip-path:url(#clipPath25); stroke:none;">-m_pObject:CGraphicObject* *
      </text>
      <text x="416" y="248" style="clip-path:url(#clipPath25); stroke:none;">-m_pDatabase:CDatabase*
      </text>
    </g>
    <g style="font-family:sans-serif;">
      <line x1="410" x2="607" y1="258" style="clip-path:url(#clipPath22); fill:none;" y2="258" />
    </g>
    <g style="font-family:sans-serif;">
      <text x="416" y="279" style="clip-path:url(#clipPath27); stroke:none;">+CScreen
      </text>
      <text x="416" y="294" style="clip-path:url(#clipPath27); stroke:none;">+~CScreen
      </text>
      <text x="416" y="309" style="clip-path:url(#clipPath27); stroke:none;">+connect:void
      </text>
      <text x="416" y="324" style="clip-path:url(#clipPath27); stroke:none;">+addElement:bool
      </text>
      <text x="416" y="339" style="clip-path:url(#clipPath27); stroke:none;">+print:void
      </text>
    </g>
    <g style="fill:navy; font-family:sans-serif; stroke:navy;">
      <rect x="363" y="703" width="92" style="clip-path:url(#clipPath1); stroke:none;" height="133" />
      <rect x="360" y="700" width="92" style="clip-path:url(#clipPath1); fill:white; stroke:none;" height="133" />
      <rect x="360" y="700" width="92" style="clip-path:url(#clipPath1); fill:none; stroke:black;" height="133" />
    </g>
    <g style="font-weight:bold; font-family:sans-serif;">
      <text x="366" y="713" style="clip-path:url(#clipPath29); stroke:none;">CCoordinate
      </text>
    </g>
    <g style="font-family:sans-serif;">
      <line x1="360" x2="452" y1="722" style="clip-path:url(#clipPath28); fill:none;" y2="722" />
    </g>
    <g style="font-family:sans-serif;">
      <text x="366" y="743" style="clip-path:url(#clipPath31); stroke:none;">-m_x:int
      </text>
      <text x="366" y="758" style="clip-path:url(#clipPath31); stroke:none;">-m_y:int
      </text>
    </g>
    <g style="font-family:sans-serif;">
      <line x1="360" x2="452" y1="768" style="clip-path:url(#clipPath28); fill:none;" y2="768" />
    </g>
    <g style="font-family:sans-serif;">
      <text x="366" y="789" style="clip-path:url(#clipPath33); stroke:none;">+CCoordinate
      </text>
      <text x="366" y="804" style="clip-path:url(#clipPath33); stroke:none;">+print:void
      </text>
      <text x="366" y="819" style="clip-path:url(#clipPath33); stroke:none;">+set:bool
      </text>
    </g>
    <g style="fill:navy; font-family:sans-serif; stroke:navy;">
      <rect x="53" y="153" width="197" style="clip-path:url(#clipPath1); stroke:none;" height="178" />
      <rect x="50" y="150" width="197" style="clip-path:url(#clipPath1); fill:white; stroke:none;" height="178" />
      <rect x="50" y="150" width="197" style="clip-path:url(#clipPath1); fill:none; stroke:black;" height="178" />
    </g>
    <g style="font-weight:bold; font-family:sans-serif;">
      <text x="115" y="163" style="clip-path:url(#clipPath35); stroke:none;">CDatabase
      </text>
    </g>
    <g style="font-family:sans-serif;">
      <line x1="50" x2="247" y1="172" style="clip-path:url(#clipPath34); fill:none;" y2="172" />
    </g>
    <g style="font-family:sans-serif;">
      <text x="56" y="193" style="clip-path:url(#clipPath37); stroke:none;">-m_size:unsigned int
      </text>
      <text x="56" y="208" style="clip-path:url(#clipPath37); stroke:none;">-m_nextFreeObject:unsigned int
      </text>
      <text x="56" y="223" style="clip-path:url(#clipPath37); stroke:none;">-m_pObject:CGraphicObject* *
      </text>
    </g>
    <g style="font-family:sans-serif;">
      <line x1="50" x2="247" y1="233" style="clip-path:url(#clipPath34); fill:none;" y2="233" />
    </g>
    <g style="font-family:sans-serif;">
      <text x="56" y="254" style="clip-path:url(#clipPath39); stroke:none;">+CDatabase
      </text>
      <text x="56" y="269" style="clip-path:url(#clipPath39); stroke:none;">+~CDatabase
      </text>
      <text x="56" y="284" style="clip-path:url(#clipPath39); stroke:none;">+print:void
      </text>
      <text x="56" y="299" style="clip-path:url(#clipPath39); stroke:none;">+addElement:bool
      </text>
      <text x="56" y="314" style="clip-path:url(#clipPath39); stroke:none;">+getAdressOfObject:CGraphicObject*
      </text>
    </g>
    <g style="fill:navy; font-family:sans-serif; stroke:navy;">
      <rect x="103" y="713" width="192" style="clip-path:url(#clipPath1); stroke:none;" height="223" />
      <rect x="100" y="710" width="192" style="clip-path:url(#clipPath1); fill:white; stroke:none;" height="223" />
      <rect x="100" y="710" width="192" style="clip-path:url(#clipPath1); fill:none; stroke:black;" height="223" />
    </g>
    <g style="font-weight:bold; font-family:sans-serif;">
      <text x="146" y="723" style="clip-path:url(#clipPath41); stroke:none;">CGraphicObject
      </text>
    </g>
    <g style="font-family:sans-serif;">
      <line x1="100" x2="292" y1="732" style="clip-path:url(#clipPath40); fill:none;" y2="732" />
    </g>
    <g style="font-family:sans-serif;">
      <text x="106" y="753" style="clip-path:url(#clipPath43); stroke:none;">-m_name:std::string
      </text>
      <text x="106" y="768" style="clip-path:url(#clipPath43); stroke:none;">-m_noCoordinates:unsigned int
      </text>
      <text x="106" y="783" style="clip-path:url(#clipPath43); stroke:none;">#m_pCoordinate:CCoordinate*
      </text>
    </g>
    <g style="font-family:sans-serif;">
      <line x1="100" x2="292" y1="793" style="clip-path:url(#clipPath40); fill:none;" y2="793" />
    </g>
    <g style="font-family:sans-serif;">
      <text x="106" y="814" style="clip-path:url(#clipPath45); stroke:none;">+CGraphicObject
      </text>
      <text x="106" y="829" style="clip-path:url(#clipPath45); stroke:none;">+~CGraphicObject
      </text>
      <text x="106" y="844" style="clip-path:url(#clipPath45); stroke:none;">+set:bool
      </text>
      <text x="106" y="859" style="clip-path:url(#clipPath45); stroke:none;">+set:bool
      </text>
      <text x="106" y="874" style="clip-path:url(#clipPath45); stroke:none;">+print:void
      </text>
      <text x="106" y="889" style="clip-path:url(#clipPath45); stroke:none;">+move:bool
      </text>
      <text x="106" y="904" style="clip-path:url(#clipPath45); stroke:none;">+operator=:CGraphicObject&amp;
      </text>
      <text x="106" y="919" style="clip-path:url(#clipPath45); stroke:none;">+getName:std::string
      </text>
    </g>
  </g>
</svg>
