<?xml version="1.0" encoding="UTF-8"?>

<!DOCTYPE svg PUBLIC '-//W3C//DTD SVG 20001102//EN' 'http://www.w3.org/TR/2000/CR-SVG-20001102/DTD/svg-20001102.dtd'>
<svg style="fill-opacity:1; color-rendering:auto; color-interpolation:sRGB; text-rendering:auto; stroke:black; stroke-linecap:square; stroke-miterlimit:10; shape-rendering:auto; stroke-opacity:1; fill:black; stroke-dasharray:none; font-weight:normal; stroke-width:1; font-family:&apos;sansserif&apos;; font-style:normal; stroke-linejoin:miter; font-size:12; stroke-dashoffset:0; image-rendering:auto;" width="719" height="782">
  <!--Generated by the Batik Graphics2D SVG Generator-->
  <defs id="genericDefs" />
  <g>
    <defs id="defs1">
      <clipPath clipPathUnits="userSpaceOnUse" id="clipPath1">
        <path d="M0 0 L719 0 L719 782 L0 782 L0 0 Z" />
      </clipPath>
      <clipPath clipPathUnits="userSpaceOnUse" id="clipPath2">
        <path d="M270 10 L270 129 L395 129 L395 10 Z" />
      </clipPath>
      <clipPath clipPathUnits="userSpaceOnUse" id="clipPath3">
        <path d="M271 11 L271 27 L395 27 L395 11 Z" />
      </clipPath>
      <clipPath clipPathUnits="userSpaceOnUse" id="clipPath4">
        <path d="M270 39 L270 73 L395 73 L395 39 Z" />
      </clipPath>
      <clipPath clipPathUnits="userSpaceOnUse" id="clipPath5">
        <path d="M272 41 L272 72 L394 72 L394 41 Z" />
      </clipPath>
      <clipPath clipPathUnits="userSpaceOnUse" id="clipPath6">
        <path d="M270 85 L270 119 L395 119 L395 85 Z" />
      </clipPath>
      <clipPath clipPathUnits="userSpaceOnUse" id="clipPath7">
        <path d="M272 87 L272 118 L394 118 L394 87 Z" />
      </clipPath>
      <clipPath clipPathUnits="userSpaceOnUse" id="clipPath8">
        <path d="M580 140 L580 319 L706 319 L706 140 Z" />
      </clipPath>
      <clipPath clipPathUnits="userSpaceOnUse" id="clipPath9">
        <path d="M581 141 L581 157 L706 157 L706 141 Z" />
      </clipPath>
      <clipPath clipPathUnits="userSpaceOnUse" id="clipPath10">
        <path d="M580 169 L580 233 L706 233 L706 169 Z" />
      </clipPath>
      <clipPath clipPathUnits="userSpaceOnUse" id="clipPath11">
        <path d="M582 171 L582 232 L705 232 L705 171 Z" />
      </clipPath>
      <clipPath clipPathUnits="userSpaceOnUse" id="clipPath12">
        <path d="M580 245 L580 309 L706 309 L706 245 Z" />
      </clipPath>
      <clipPath clipPathUnits="userSpaceOnUse" id="clipPath13">
        <path d="M582 247 L582 308 L705 308 L705 247 Z" />
      </clipPath>
      <clipPath clipPathUnits="userSpaceOnUse" id="clipPath14">
        <path d="M360 530 L360 664 L450 664 L450 530 Z" />
      </clipPath>
      <clipPath clipPathUnits="userSpaceOnUse" id="clipPath15">
        <path d="M361 531 L361 547 L450 547 L450 531 Z" />
      </clipPath>
      <clipPath clipPathUnits="userSpaceOnUse" id="clipPath16">
        <path d="M360 559 L360 593 L450 593 L450 559 Z" />
      </clipPath>
      <clipPath clipPathUnits="userSpaceOnUse" id="clipPath17">
        <path d="M362 561 L362 592 L449 592 L449 561 Z" />
      </clipPath>
      <clipPath clipPathUnits="userSpaceOnUse" id="clipPath18">
        <path d="M360 605 L360 654 L450 654 L450 605 Z" />
      </clipPath>
      <clipPath clipPathUnits="userSpaceOnUse" id="clipPath19">
        <path d="M362 607 L362 653 L449 653 L449 607 Z" />
      </clipPath>
      <clipPath clipPathUnits="userSpaceOnUse" id="clipPath20">
        <path d="M100 540 L100 749 L212 749 L212 540 Z" />
      </clipPath>
      <clipPath clipPathUnits="userSpaceOnUse" id="clipPath21">
        <path d="M101 541 L101 557 L212 557 L212 541 Z" />
      </clipPath>
      <clipPath clipPathUnits="userSpaceOnUse" id="clipPath22">
        <path d="M100 569 L100 618 L212 618 L212 569 Z" />
      </clipPath>
      <clipPath clipPathUnits="userSpaceOnUse" id="clipPath23">
        <path d="M102 571 L102 617 L211 617 L211 571 Z" />
      </clipPath>
      <clipPath clipPathUnits="userSpaceOnUse" id="clipPath24">
        <path d="M100 630 L100 739 L212 739 L212 630 Z" />
      </clipPath>
      <clipPath clipPathUnits="userSpaceOnUse" id="clipPath25">
        <path d="M102 632 L102 738 L211 738 L211 632 Z" />
      </clipPath>
      <clipPath clipPathUnits="userSpaceOnUse" id="clipPath26">
        <path d="M60 400 L60 481 L141 481 L141 400 Z" />
      </clipPath>
      <clipPath clipPathUnits="userSpaceOnUse" id="clipPath27">
        <path d="M61 401 L61 417 L141 417 L141 401 Z" />
      </clipPath>
      <clipPath clipPathUnits="userSpaceOnUse" id="clipPath28">
        <path d="M60 452 L60 471 L141 471 L141 452 Z" />
      </clipPath>
      <clipPath clipPathUnits="userSpaceOnUse" id="clipPath29">
        <path d="M62 454 L62 470 L140 470 L140 454 Z" />
      </clipPath>
      <clipPath clipPathUnits="userSpaceOnUse" id="clipPath30">
        <path d="M190 400 L190 481 L272 481 L272 400 Z" />
      </clipPath>
      <clipPath clipPathUnits="userSpaceOnUse" id="clipPath31">
        <path d="M191 401 L191 417 L272 417 L272 401 Z" />
      </clipPath>
      <clipPath clipPathUnits="userSpaceOnUse" id="clipPath32">
        <path d="M190 452 L190 471 L272 471 L272 452 Z" />
      </clipPath>
      <clipPath clipPathUnits="userSpaceOnUse" id="clipPath33">
        <path d="M192 454 L192 470 L271 470 L271 454 Z" />
      </clipPath>
      <clipPath clipPathUnits="userSpaceOnUse" id="clipPath34">
        <path d="M360 400 L360 504 L441 504 L441 400 Z" />
      </clipPath>
      <clipPath clipPathUnits="userSpaceOnUse" id="clipPath35">
        <path d="M361 401 L361 417 L441 417 L441 401 Z" />
      </clipPath>
      <clipPath clipPathUnits="userSpaceOnUse" id="clipPath36">
        <path d="M360 429 L360 448 L441 448 L441 429 Z" />
      </clipPath>
      <clipPath clipPathUnits="userSpaceOnUse" id="clipPath37">
        <path d="M362 431 L362 447 L440 447 L440 431 Z" />
      </clipPath>
      <clipPath clipPathUnits="userSpaceOnUse" id="clipPath38">
        <path d="M360 460 L360 494 L441 494 L441 460 Z" />
      </clipPath>
      <clipPath clipPathUnits="userSpaceOnUse" id="clipPath39">
        <path d="M362 462 L362 493 L440 493 L440 462 Z" />
      </clipPath>
      <clipPath clipPathUnits="userSpaceOnUse" id="clipPath40">
        <path d="M10 110 L10 304 L140 304 L140 110 Z" />
      </clipPath>
      <clipPath clipPathUnits="userSpaceOnUse" id="clipPath41">
        <path d="M11 111 L11 127 L140 127 L140 111 Z" />
      </clipPath>
      <clipPath clipPathUnits="userSpaceOnUse" id="clipPath42">
        <path d="M10 139 L10 218 L140 218 L140 139 Z" />
      </clipPath>
      <clipPath clipPathUnits="userSpaceOnUse" id="clipPath43">
        <path d="M12 141 L12 217 L139 217 L139 141 Z" />
      </clipPath>
      <clipPath clipPathUnits="userSpaceOnUse" id="clipPath44">
        <path d="M10 230 L10 294 L140 294 L140 230 Z" />
      </clipPath>
      <clipPath clipPathUnits="userSpaceOnUse" id="clipPath45">
        <path d="M12 232 L12 293 L139 293 L139 232 Z" />
      </clipPath>
    </defs>
    <g style="fill:rgb(0,0,130); stroke:rgb(0,0,130);">
      <line x1="214" x2="360" y1="606" style="clip-path:url(#clipPath1); fill:none;" y2="606" />
      <line x1="644" x2="133" y1="321" style="clip-path:url(#clipPath1); fill:none;" y2="400" />
      <line x1="415" x2="415" y1="506" style="clip-path:url(#clipPath1); fill:none;" y2="510" />
      <line x1="415" x2="415" y1="515" style="clip-path:url(#clipPath1); fill:none;" y2="525" />
      <line x1="415" x2="415" y1="530" style="clip-path:url(#clipPath1); fill:none;" y2="530" />
      <line x1="387" x2="183" y1="506" style="clip-path:url(#clipPath1); fill:none; stroke:rgb(0,64,64);" y2="540" />
      <line x1="80" x2="80" y1="483" style="clip-path:url(#clipPath1); fill:none;" y2="483" />
      <line x1="80" x2="80" y1="485" style="clip-path:url(#clipPath1); fill:none;" y2="495" />
      <line x1="80" x2="80" y1="500" style="clip-path:url(#clipPath1); fill:none;" y2="510" />
      <line x1="80" x2="80" y1="515" style="clip-path:url(#clipPath1); fill:none;" y2="525" />
      <line x1="80" x2="80" y1="530" style="clip-path:url(#clipPath1); fill:none;" y2="540" />
      <line x1="80" x2="80" y1="545" style="clip-path:url(#clipPath1); fill:none;" y2="555" />
      <line x1="80" x2="80" y1="560" style="clip-path:url(#clipPath1); fill:none;" y2="570" />
      <line x1="80" x2="80" y1="575" style="clip-path:url(#clipPath1); fill:none;" y2="585" />
      <line x1="80" x2="80" y1="590" style="clip-path:url(#clipPath1); fill:none;" y2="600" />
      <line x1="80" x2="80" y1="605" style="clip-path:url(#clipPath1); fill:none;" y2="615" />
      <line x1="80" x2="80" y1="620" style="clip-path:url(#clipPath1); fill:none;" y2="630" />
      <line x1="80" x2="80" y1="635" style="clip-path:url(#clipPath1); fill:none;" y2="645" />
      <line x1="80" x2="80" y1="650" style="clip-path:url(#clipPath1); fill:none;" y2="660" />
      <line x1="80" x2="80" y1="665" style="clip-path:url(#clipPath1); fill:none;" y2="675" />
      <line x1="80" x2="80" y1="680" style="clip-path:url(#clipPath1); fill:none;" y2="690" />
      <line x1="80" x2="80" y1="695" style="clip-path:url(#clipPath1); fill:none;" y2="705" />
      <line x1="80" x2="80" y1="710" style="clip-path:url(#clipPath1); fill:none;" y2="720" />
      <line x1="80" x2="80" y1="725" style="clip-path:url(#clipPath1); fill:none;" y2="735" />
      <line x1="80" x2="80" y1="740" style="clip-path:url(#clipPath1); fill:none;" y2="750" />
      <line x1="80" x2="80" y1="755" style="clip-path:url(#clipPath1); fill:none;" y2="765" />
      <line x1="80" x2="80" y1="770" style="clip-path:url(#clipPath1); fill:none;" y2="770" />
      <line x1="80" x2="90" y1="770" style="clip-path:url(#clipPath1); fill:none;" y2="770" />
      <line x1="95" x2="105" y1="770" style="clip-path:url(#clipPath1); fill:none;" y2="770" />
      <line x1="110" x2="120" y1="770" style="clip-path:url(#clipPath1); fill:none;" y2="770" />
      <line x1="125" x2="135" y1="770" style="clip-path:url(#clipPath1); fill:none;" y2="770" />
      <line x1="140" x2="150" y1="770" style="clip-path:url(#clipPath1); fill:none;" y2="770" />
      <line x1="155" x2="165" y1="770" style="clip-path:url(#clipPath1); fill:none;" y2="770" />
      <line x1="170" x2="180" y1="770" style="clip-path:url(#clipPath1); fill:none;" y2="770" />
      <line x1="185" x2="195" y1="770" style="clip-path:url(#clipPath1); fill:none;" y2="770" />
      <line x1="200" x2="210" y1="770" style="clip-path:url(#clipPath1); fill:none;" y2="770" />
      <line x1="215" x2="225" y1="770" style="clip-path:url(#clipPath1); fill:none;" y2="770" />
      <line x1="230" x2="240" y1="770" style="clip-path:url(#clipPath1); fill:none;" y2="770" />
      <line x1="245" x2="255" y1="770" style="clip-path:url(#clipPath1); fill:none;" y2="770" />
      <line x1="260" x2="270" y1="770" style="clip-path:url(#clipPath1); fill:none;" y2="770" />
      <line x1="275" x2="285" y1="770" style="clip-path:url(#clipPath1); fill:none;" y2="770" />
      <line x1="290" x2="300" y1="770" style="clip-path:url(#clipPath1); fill:none;" y2="770" />
      <line x1="305" x2="315" y1="770" style="clip-path:url(#clipPath1); fill:none;" y2="770" />
      <line x1="320" x2="330" y1="770" style="clip-path:url(#clipPath1); fill:none;" y2="770" />
      <line x1="335" x2="345" y1="770" style="clip-path:url(#clipPath1); fill:none;" y2="770" />
      <line x1="350" x2="360" y1="770" style="clip-path:url(#clipPath1); fill:none;" y2="770" />
      <line x1="365" x2="375" y1="770" style="clip-path:url(#clipPath1); fill:none;" y2="770" />
      <line x1="380" x2="390" y1="770" style="clip-path:url(#clipPath1); fill:none;" y2="770" />
      <line x1="395" x2="405" y1="770" style="clip-path:url(#clipPath1); fill:none;" y2="770" />
      <line x1="410" x2="410" y1="770" style="clip-path:url(#clipPath1); fill:none;" y2="770" />
      <line x1="410" x2="410" y1="770" style="clip-path:url(#clipPath1); fill:none;" y2="770" />
      <line x1="410" x2="410" y1="770" style="clip-path:url(#clipPath1); fill:none;" y2="760" />
      <line x1="410" x2="410" y1="755" style="clip-path:url(#clipPath1); fill:none;" y2="745" />
      <line x1="410" x2="410" y1="740" style="clip-path:url(#clipPath1); fill:none;" y2="730" />
      <line x1="410" x2="410" y1="725" style="clip-path:url(#clipPath1); fill:none;" y2="715" />
      <line x1="410" x2="410" y1="710" style="clip-path:url(#clipPath1); fill:none;" y2="700" />
      <line x1="410" x2="410" y1="695" style="clip-path:url(#clipPath1); fill:none;" y2="685" />
      <line x1="410" x2="410" y1="680" style="clip-path:url(#clipPath1); fill:none;" y2="670" />
      <line x1="121" x2="121" y1="483" style="clip-path:url(#clipPath1); fill:none; stroke:rgb(0,64,64);" y2="540" />
      <line x1="333" x2="331" y1="131" style="clip-path:url(#clipPath1); fill:none;" y2="133" />
      <line x1="328" x2="321" y1="137" style="clip-path:url(#clipPath1); fill:none;" y2="145" />
      <line x1="318" x2="311" y1="148" style="clip-path:url(#clipPath1); fill:none;" y2="156" />
      <line x1="308" x2="302" y1="160" style="clip-path:url(#clipPath1); fill:none;" y2="167" />
      <line x1="298" x2="292" y1="171" style="clip-path:url(#clipPath1); fill:none;" y2="179" />
      <line x1="289" x2="282" y1="182" style="clip-path:url(#clipPath1); fill:none;" y2="190" />
      <line x1="279" x2="272" y1="194" style="clip-path:url(#clipPath1); fill:none;" y2="201" />
      <line x1="269" x2="262" y1="205" style="clip-path:url(#clipPath1); fill:none;" y2="213" />
      <line x1="259" x2="253" y1="217" style="clip-path:url(#clipPath1); fill:none;" y2="224" />
      <line x1="249" x2="243" y1="228" style="clip-path:url(#clipPath1); fill:none;" y2="236" />
      <line x1="240" x2="233" y1="239" style="clip-path:url(#clipPath1); fill:none;" y2="247" />
      <line x1="230" x2="223" y1="251" style="clip-path:url(#clipPath1); fill:none;" y2="258" />
      <line x1="220" x2="213" y1="262" style="clip-path:url(#clipPath1); fill:none;" y2="270" />
      <line x1="210" x2="204" y1="273" style="clip-path:url(#clipPath1); fill:none;" y2="281" />
      <line x1="200" x2="194" y1="285" style="clip-path:url(#clipPath1); fill:none;" y2="292" />
      <line x1="191" x2="184" y1="296" style="clip-path:url(#clipPath1); fill:none;" y2="304" />
      <line x1="181" x2="174" y1="307" style="clip-path:url(#clipPath1); fill:none;" y2="315" />
      <line x1="171" x2="164" y1="319" style="clip-path:url(#clipPath1); fill:none;" y2="326" />
      <line x1="161" x2="155" y1="330" style="clip-path:url(#clipPath1); fill:none;" y2="338" />
      <line x1="151" x2="145" y1="342" style="clip-path:url(#clipPath1); fill:none;" y2="349" />
      <line x1="142" x2="135" y1="353" style="clip-path:url(#clipPath1); fill:none;" y2="360" />
      <line x1="132" x2="125" y1="364" style="clip-path:url(#clipPath1); fill:none;" y2="372" />
      <line x1="122" x2="116" y1="376" style="clip-path:url(#clipPath1); fill:none;" y2="383" />
      <line x1="112" x2="106" y1="387" style="clip-path:url(#clipPath1); fill:none;" y2="395" />
      <line x1="102" x2="101" y1="398" style="clip-path:url(#clipPath1); fill:none;" y2="400" />
      <line x1="397" x2="630" y1="90" style="clip-path:url(#clipPath1); fill:none;" y2="90" />
      <line x1="630" x2="630" y1="90" style="clip-path:url(#clipPath1); fill:none;" y2="140" />
      <line x1="232" x2="152" y1="483" style="clip-path:url(#clipPath1); fill:none; stroke:rgb(0,64,64);" y2="540" />
      <line x1="76" x2="232" y1="306" style="clip-path:url(#clipPath1); fill:none;" y2="400" />
      <line x1="43" x2="91" y1="306" style="clip-path:url(#clipPath1); fill:none;" y2="400" />
      <line x1="109" x2="401" y1="306" style="clip-path:url(#clipPath1); fill:none;" y2="400" />
      <line x1="580" x2="142" y1="223" style="clip-path:url(#clipPath1); fill:none; stroke:blue;" y2="223" />
      <line x1="270" x2="130" y1="60" style="clip-path:url(#clipPath1); fill:none;" y2="60" />
      <line x1="130" x2="130" y1="60" style="clip-path:url(#clipPath1); fill:none;" y2="110" />
      <polygon style="clip-path:url(#clipPath1); stroke:none;" points=" 214 606 222 602 230 606 222 610" />
      <polygon style="fill:none; clip-path:url(#clipPath1);" points=" 214 606 222 602 230 606 222 610" />
      <line x1="222" x2="214" y1="610" style="clip-path:url(#clipPath1); fill:none;" y2="606" />
      <line x1="360" x2="348" y1="606" style="clip-path:url(#clipPath1); fill:none;" y2="601" />
      <line x1="360" x2="348" y1="606" style="clip-path:url(#clipPath1); fill:none;" y2="611" />
      <text x="222" y="598" style="clip-path:url(#clipPath1); font-family:sans-serif; stroke:none;">1
      </text>
      <text x="334" y="598" style="clip-path:url(#clipPath1); font-family:sans-serif; stroke:none;">1..*
      </text>
      <polygon points=" 644 321 637 326 628 323 635 318" style="fill:white; clip-path:url(#clipPath1); font-family:sans-serif; stroke:none;" />
      <polygon style="fill:none; clip-path:url(#clipPath1); font-family:sans-serif;" points=" 644 321 637 326 628 323 635 318" />
      <line x1="635" x2="644" y1="318" style="clip-path:url(#clipPath1); fill:none; font-family:sans-serif;" y2="321" />
      <line x1="133" x2="146" y1="400" style="clip-path:url(#clipPath1); fill:none; font-family:sans-serif;" y2="403" />
      <line x1="133" x2="144" y1="400" style="clip-path:url(#clipPath1); fill:none; font-family:sans-serif;" y2="393" />
      <text x="554" y="325" style="clip-path:url(#clipPath1); font-family:sans-serif; stroke:none;">1
      </text>
      <text x="103" y="393" style="clip-path:url(#clipPath1); font-family:sans-serif; stroke:none;">0..*
      </text>
      <line x1="415" x2="420" y1="530" style="clip-path:url(#clipPath1); fill:none; font-family:sans-serif;" y2="518" />
      <line x1="415" x2="410" y1="530" style="clip-path:url(#clipPath1); fill:none; font-family:sans-serif;" y2="518" />
      <polygon points=" 183 540 200 531 202 543" style="fill:white; clip-path:url(#clipPath1); font-family:sans-serif; stroke:none;" />
      <polygon points=" 183 540 200 531 202 543" style="fill:none; clip-path:url(#clipPath1); font-family:sans-serif; stroke:rgb(0,64,64);" />
      <line x1="202" x2="183" y1="543" style="clip-path:url(#clipPath1); fill:none; font-family:sans-serif; stroke:rgb(0,64,64);" y2="540" />
      <line x1="410" x2="405" y1="666" style="clip-path:url(#clipPath1); fill:none; font-family:sans-serif;" y2="678" />
      <line x1="410" x2="415" y1="666" style="clip-path:url(#clipPath1); fill:none; font-family:sans-serif;" y2="678" />
      <polygon points=" 121 540 115 522 127 522" style="fill:white; clip-path:url(#clipPath1); font-family:sans-serif; stroke:none;" />
      <polygon points=" 121 540 115 522 127 522" style="fill:none; clip-path:url(#clipPath1); font-family:sans-serif; stroke:rgb(0,64,64);" />
      <line x1="127" x2="121" y1="522" style="clip-path:url(#clipPath1); fill:none; font-family:sans-serif; stroke:rgb(0,64,64);" y2="540" />
      <line x1="101" x2="113" y1="400" style="clip-path:url(#clipPath1); fill:none; font-family:sans-serif;" y2="394" />
      <line x1="101" x2="105" y1="400" style="clip-path:url(#clipPath1); fill:none; font-family:sans-serif;" y2="388" />
      <polygon style="clip-path:url(#clipPath1); font-family:sans-serif; stroke:none;" points=" 397 90 405 86 413 90 405 94" />
      <polygon style="fill:none; clip-path:url(#clipPath1); font-family:sans-serif;" points=" 397 90 405 86 413 90 405 94" />
      <line x1="405" x2="397" y1="94" style="clip-path:url(#clipPath1); fill:none; font-family:sans-serif;" y2="90" />
      <line x1="630" x2="635" y1="140" style="clip-path:url(#clipPath1); fill:none; font-family:sans-serif;" y2="128" />
      <line x1="630" x2="625" y1="140" style="clip-path:url(#clipPath1); fill:none; font-family:sans-serif;" y2="128" />
      <polygon points=" 152 540 163 525 170 534" style="fill:white; clip-path:url(#clipPath1); font-family:sans-serif; stroke:none;" />
      <polygon points=" 152 540 163 525 170 534" style="fill:none; clip-path:url(#clipPath1); font-family:sans-serif; stroke:rgb(0,64,64);" />
      <line x1="170" x2="152" y1="534" style="clip-path:url(#clipPath1); fill:none; font-family:sans-serif; stroke:rgb(0,64,64);" y2="540" />
      <polygon style="clip-path:url(#clipPath1); font-family:sans-serif; stroke:none;" points=" 76 306 85 307 90 314 81 314" />
      <polygon style="fill:none; clip-path:url(#clipPath1); font-family:sans-serif;" points=" 76 306 85 307 90 314 81 314" />
      <line x1="81" x2="76" y1="314" style="clip-path:url(#clipPath1); fill:none; font-family:sans-serif;" y2="306" />
      <line x1="232" x2="224" y1="400" style="clip-path:url(#clipPath1); fill:none; font-family:sans-serif;" y2="390" />
      <line x1="232" x2="219" y1="400" style="clip-path:url(#clipPath1); fill:none; font-family:sans-serif;" y2="398" />
      <text x="60" y="318" style="clip-path:url(#clipPath1); font-family:sans-serif; stroke:none;">1
      </text>
      <text x="171" y="393" style="clip-path:url(#clipPath1); font-family:sans-serif; stroke:none;">0..*
      </text>
      <polygon style="clip-path:url(#clipPath1); font-family:sans-serif; stroke:none;" points=" 43 306 50 311 50 320 43 315" />
      <polygon style="fill:none; clip-path:url(#clipPath1); font-family:sans-serif;" points=" 43 306 50 311 50 320 43 315" />
      <line x1="43" x2="43" y1="315" style="clip-path:url(#clipPath1); fill:none; font-family:sans-serif;" y2="306" />
      <line x1="91" x2="90" y1="400" style="clip-path:url(#clipPath1); fill:none; font-family:sans-serif;" y2="387" />
      <line x1="91" x2="81" y1="400" style="clip-path:url(#clipPath1); fill:none; font-family:sans-serif;" y2="392" />
      <text x="27" y="318" style="clip-path:url(#clipPath1); font-family:sans-serif; stroke:none;">1
      </text>
      <text x="52" y="393" style="clip-path:url(#clipPath1); font-family:sans-serif; stroke:none;">0..*
      </text>
      <polygon style="clip-path:url(#clipPath1); font-family:sans-serif; stroke:none;" points=" 109 306 118 305 124 311 115 312" />
      <polygon style="fill:none; clip-path:url(#clipPath1); font-family:sans-serif;" points=" 109 306 118 305 124 311 115 312" />
      <line x1="115" x2="109" y1="312" style="clip-path:url(#clipPath1); fill:none; font-family:sans-serif;" y2="306" />
      <line x1="401" x2="391" y1="400" style="clip-path:url(#clipPath1); fill:none; font-family:sans-serif;" y2="392" />
      <line x1="401" x2="388" y1="400" style="clip-path:url(#clipPath1); fill:none; font-family:sans-serif;" y2="401" />
      <text x="93" y="318" style="clip-path:url(#clipPath1); font-family:sans-serif; stroke:none;">1
      </text>
      <text x="320" y="396" style="clip-path:url(#clipPath1); font-family:sans-serif; stroke:none;">0..*
      </text>
      <line x1="142" x2="154" y1="223" style="clip-path:url(#clipPath1); fill:none; font-family:sans-serif; stroke:blue;" y2="228" />
      <line x1="142" x2="154" y1="223" style="clip-path:url(#clipPath1); fill:none; font-family:sans-serif; stroke:blue;" y2="218" />
      <text x="150" y="216" style="clip-path:url(#clipPath1); fill:blue; font-family:sans-serif; stroke:none;">0..1
      </text>
      <polygon style="clip-path:url(#clipPath1); font-family:sans-serif; stroke:none;" points=" 270 60 262 64 254 60 262 56" />
      <polygon style="fill:none; clip-path:url(#clipPath1); font-family:sans-serif;" points=" 270 60 262 64 254 60 262 56" />
      <line x1="262" x2="270" y1="56" style="clip-path:url(#clipPath1); fill:none; font-family:sans-serif;" y2="60" />
      <line x1="130" x2="135" y1="110" style="clip-path:url(#clipPath1); fill:none; font-family:sans-serif;" y2="98" />
      <line x1="130" x2="125" y1="110" style="clip-path:url(#clipPath1); fill:none; font-family:sans-serif;" y2="98" />
      <rect x="273" y="13" width="124" style="clip-path:url(#clipPath1); fill:navy; font-family:sans-serif; stroke:none;" height="118" />
      <rect x="270" y="10" width="124" style="clip-path:url(#clipPath1); fill:white; font-family:sans-serif; stroke:none;" height="118" />
      <rect x="270" y="10" width="124" style="clip-path:url(#clipPath1); fill:none; font-family:sans-serif; stroke:black;" height="118" />
    </g>
    <g style="font-weight:bold; font-family:sans-serif;">
      <text x="275" y="23" style="clip-path:url(#clipPath3); stroke:none;">CGraphicalSystem
      </text>
    </g>
    <g style="font-family:sans-serif;">
      <line x1="270" x2="394" y1="32" style="clip-path:url(#clipPath2); fill:none;" y2="32" />
    </g>
    <g style="font-family:sans-serif;">
      <text x="276" y="53" style="clip-path:url(#clipPath5); stroke:none;">m_database
      </text>
      <text x="276" y="68" style="clip-path:url(#clipPath5); stroke:none;">m_screen
      </text>
    </g>
    <g style="font-family:sans-serif;">
      <line x1="270" x2="394" y1="78" style="clip-path:url(#clipPath2); fill:none;" y2="78" />
    </g>
    <g style="font-family:sans-serif;">
      <text x="276" y="99" style="clip-path:url(#clipPath7); stroke:none;">CGraphicalSystem
      </text>
      <text x="276" y="114" style="clip-path:url(#clipPath7); stroke:none;">print
      </text>
    </g>
    <g style="fill:navy; font-family:sans-serif; stroke:navy;">
      <rect x="583" y="143" width="125" style="clip-path:url(#clipPath1); stroke:none;" height="178" />
      <rect x="580" y="140" width="125" style="clip-path:url(#clipPath1); fill:white; stroke:none;" height="178" />
      <rect x="580" y="140" width="125" style="clip-path:url(#clipPath1); fill:none; stroke:black;" height="178" />
    </g>
    <g style="font-weight:bold; font-family:sans-serif;">
      <text x="617" y="153" style="clip-path:url(#clipPath9); stroke:none;">CScreen
      </text>
    </g>
    <g style="font-family:sans-serif;">
      <line x1="580" x2="705" y1="162" style="clip-path:url(#clipPath8); fill:none;" y2="162" />
    </g>
    <g style="font-family:sans-serif;">
      <text x="586" y="183" style="clip-path:url(#clipPath11); stroke:none;">m_size
      </text>
      <text x="586" y="198" style="clip-path:url(#clipPath11); stroke:none;">m_nextFreeTriangle
      </text>
      <text x="586" y="213" style="clip-path:url(#clipPath11); stroke:none;">m_pTriangle
      </text>
      <text x="586" y="228" style="clip-path:url(#clipPath11); stroke:none;">m_pDatabase
      </text>
    </g>
    <g style="font-family:sans-serif;">
      <line x1="580" x2="705" y1="238" style="clip-path:url(#clipPath8); fill:none;" y2="238" />
    </g>
    <g style="font-family:sans-serif;">
      <text x="586" y="259" style="clip-path:url(#clipPath13); stroke:none;">CScreen
      </text>
      <text x="586" y="274" style="clip-path:url(#clipPath13); stroke:none;">connect
      </text>
      <text x="586" y="289" style="clip-path:url(#clipPath13); stroke:none;">addElement
      </text>
      <text x="586" y="304" style="clip-path:url(#clipPath13); stroke:none;">print
      </text>
    </g>
    <g style="fill:navy; font-family:sans-serif; stroke:navy;">
      <rect x="363" y="533" width="89" style="clip-path:url(#clipPath1); stroke:none;" height="133" />
      <rect x="360" y="530" width="89" style="clip-path:url(#clipPath1); fill:white; stroke:none;" height="133" />
      <rect x="360" y="530" width="89" style="clip-path:url(#clipPath1); fill:none; stroke:black;" height="133" />
    </g>
    <g style="font-weight:bold; font-family:sans-serif;">
      <text x="365" y="543" style="clip-path:url(#clipPath15); stroke:none;">CCoordinate
      </text>
    </g>
    <g style="font-family:sans-serif;">
      <line x1="360" x2="449" y1="552" style="clip-path:url(#clipPath14); fill:none;" y2="552" />
    </g>
    <g style="font-family:sans-serif;">
      <text x="366" y="573" style="clip-path:url(#clipPath17); stroke:none;">m_x
      </text>
      <text x="366" y="588" style="clip-path:url(#clipPath17); stroke:none;">m_y
      </text>
    </g>
    <g style="font-family:sans-serif;">
      <line x1="360" x2="449" y1="598" style="clip-path:url(#clipPath14); fill:none;" y2="598" />
    </g>
    <g style="font-family:sans-serif;">
      <text x="366" y="619" style="clip-path:url(#clipPath19); stroke:none;">CCoordinate
      </text>
      <text x="366" y="634" style="clip-path:url(#clipPath19); stroke:none;">print
      </text>
      <text x="366" y="649" style="clip-path:url(#clipPath19); stroke:none;">set
      </text>
    </g>
    <g style="fill:navy; font-family:sans-serif; stroke:navy;">
      <rect x="103" y="543" width="111" style="clip-path:url(#clipPath1); stroke:none;" height="208" />
      <rect x="100" y="540" width="111" style="clip-path:url(#clipPath1); fill:white; stroke:none;" height="208" />
      <rect x="100" y="540" width="111" style="clip-path:url(#clipPath1); fill:none; stroke:black;" height="208" />
    </g>
    <g style="font-weight:bold; font-family:sans-serif;">
      <text x="106" y="553" style="clip-path:url(#clipPath21); stroke:none;">CGraphicObject
      </text>
    </g>
    <g style="font-family:sans-serif;">
      <line x1="100" x2="211" y1="562" style="clip-path:url(#clipPath20); fill:none;" y2="562" />
    </g>
    <g style="font-family:sans-serif;">
      <text x="106" y="583" style="clip-path:url(#clipPath23); stroke:none;">m_name
      </text>
      <text x="106" y="598" style="clip-path:url(#clipPath23); stroke:none;">m_noCoordinates
      </text>
      <text x="106" y="613" style="clip-path:url(#clipPath23); stroke:none;">m_pCoordinate
      </text>
    </g>
    <g style="font-family:sans-serif;">
      <line x1="100" x2="211" y1="623" style="clip-path:url(#clipPath20); fill:none;" y2="623" />
    </g>
    <g style="font-family:sans-serif;">
      <text x="106" y="644" style="clip-path:url(#clipPath25); stroke:none;">CGraphicObject
      </text>
      <text x="106" y="659" style="clip-path:url(#clipPath25); stroke:none;">set
      </text>
      <text x="106" y="674" style="clip-path:url(#clipPath25); stroke:none;">set
      </text>
      <text x="106" y="689" style="clip-path:url(#clipPath25); stroke:none;">print
      </text>
      <text x="106" y="704" style="clip-path:url(#clipPath25); stroke:none;">move
      </text>
      <text x="106" y="719" style="clip-path:url(#clipPath25); stroke:none;">operator=
      </text>
      <text x="106" y="734" style="clip-path:url(#clipPath25); stroke:none;">getName
      </text>
    </g>
    <g style="fill:navy; font-family:sans-serif; stroke:navy;">
      <rect x="63" y="403" width="80" style="clip-path:url(#clipPath1); stroke:none;" height="80" />
      <rect x="60" y="400" width="80" style="clip-path:url(#clipPath1); fill:white; stroke:none;" height="80" />
      <rect x="60" y="400" width="80" style="clip-path:url(#clipPath1); fill:none; stroke:black;" height="80" />
    </g>
    <g style="font-weight:bold; font-family:sans-serif;">
      <text x="69" y="413" style="clip-path:url(#clipPath27); stroke:none;">CTriangle
      </text>
    </g>
    <g style="font-family:sans-serif;">
      <line x1="60" x2="140" y1="422" style="clip-path:url(#clipPath26); fill:none;" y2="422" />
      <line x1="60" x2="140" y1="445" style="clip-path:url(#clipPath26); fill:none;" y2="445" />
    </g>
    <g style="font-family:sans-serif;">
      <text x="66" y="466" style="clip-path:url(#clipPath29); stroke:none;">CTriangle
      </text>
    </g>
    <g style="fill:navy; font-family:sans-serif; stroke:navy;">
      <rect x="193" y="403" width="81" style="clip-path:url(#clipPath1); stroke:none;" height="80" />
      <rect x="190" y="400" width="81" style="clip-path:url(#clipPath1); fill:white; stroke:none;" height="80" />
      <rect x="190" y="400" width="81" style="clip-path:url(#clipPath1); fill:none; stroke:black;" height="80" />
    </g>
    <g style="font-weight:bold; font-family:sans-serif;">
      <text x="195" y="413" style="clip-path:url(#clipPath31); stroke:none;">CRectangle
      </text>
    </g>
    <g style="font-family:sans-serif;">
      <line x1="190" x2="271" y1="422" style="clip-path:url(#clipPath30); fill:none;" y2="422" />
      <line x1="190" x2="271" y1="445" style="clip-path:url(#clipPath30); fill:none;" y2="445" />
    </g>
    <g style="font-family:sans-serif;">
      <text x="196" y="466" style="clip-path:url(#clipPath33); stroke:none;">CRectangle
      </text>
    </g>
    <g style="fill:navy; font-family:sans-serif; stroke:navy;">
      <rect x="363" y="403" width="80" style="clip-path:url(#clipPath1); stroke:none;" height="103" />
      <rect x="360" y="400" width="80" style="clip-path:url(#clipPath1); fill:white; stroke:none;" height="103" />
      <rect x="360" y="400" width="80" style="clip-path:url(#clipPath1); fill:none; stroke:black;" height="103" />
    </g>
    <g style="font-weight:bold; font-family:sans-serif;">
      <text x="377" y="413" style="clip-path:url(#clipPath35); stroke:none;">CCircle
      </text>
    </g>
    <g style="font-family:sans-serif;">
      <line x1="360" x2="440" y1="422" style="clip-path:url(#clipPath34); fill:none;" y2="422" />
    </g>
    <g style="font-family:sans-serif;">
      <text x="366" y="443" style="clip-path:url(#clipPath37); stroke:none;">m_radius
      </text>
    </g>
    <g style="font-family:sans-serif;">
      <line x1="360" x2="440" y1="453" style="clip-path:url(#clipPath34); fill:none;" y2="453" />
    </g>
    <g style="font-family:sans-serif;">
      <text x="366" y="474" style="clip-path:url(#clipPath39); stroke:none;">CCircle
      </text>
      <text x="366" y="489" style="clip-path:url(#clipPath39); stroke:none;">print
      </text>
    </g>
    <g style="fill:navy; font-family:sans-serif; stroke:navy;">
      <rect x="13" y="113" width="129" style="clip-path:url(#clipPath1); stroke:none;" height="193" />
      <rect x="10" y="110" width="129" style="clip-path:url(#clipPath1); fill:white; stroke:none;" height="193" />
      <rect x="10" y="110" width="129" style="clip-path:url(#clipPath1); fill:none; stroke:black;" height="193" />
    </g>
    <g style="font-weight:bold; font-family:sans-serif;">
      <text x="41" y="123" style="clip-path:url(#clipPath41); stroke:none;">CDatabase
      </text>
    </g>
    <g style="font-family:sans-serif;">
      <line x1="10" x2="139" y1="132" style="clip-path:url(#clipPath40); fill:none;" y2="132" />
    </g>
    <g style="font-family:sans-serif;">
      <text x="16" y="153" style="clip-path:url(#clipPath43); stroke:none;">m_size
      </text>
      <text x="16" y="168" style="clip-path:url(#clipPath43); stroke:none;">m_nextFreeTriangle
      </text>
      <text x="16" y="183" style="clip-path:url(#clipPath43); stroke:none;">m_circle
      </text>
      <text x="16" y="198" style="clip-path:url(#clipPath43); stroke:none;">m_triangle
      </text>
      <text x="16" y="213" style="clip-path:url(#clipPath43); stroke:none;">m_rectangle
      </text>
    </g>
    <g style="font-family:sans-serif;">
      <line x1="10" x2="139" y1="223" style="clip-path:url(#clipPath40); fill:none;" y2="223" />
    </g>
    <g style="font-family:sans-serif;">
      <text x="16" y="244" style="clip-path:url(#clipPath45); stroke:none;">CDatabase
      </text>
      <text x="16" y="259" style="clip-path:url(#clipPath45); stroke:none;">print
      </text>
      <text x="16" y="274" style="clip-path:url(#clipPath45); stroke:none;">addElement
      </text>
      <text x="16" y="289" style="clip-path:url(#clipPath45); stroke:none;">getAdressOfTriangle
      </text>
    </g>
  </g>
</svg>
