<?xml version="1.0" encoding="UTF-8"?>

<!DOCTYPE svg PUBLIC '-//W3C//DTD SVG 20001102//EN' 'http://www.w3.org/TR/2000/CR-SVG-20001102/DTD/svg-20001102.dtd'>
<svg style="fill-opacity:1; color-rendering:auto; color-interpolation:sRGB; text-rendering:auto; stroke:black; stroke-linecap:square; stroke-miterlimit:10; shape-rendering:auto; stroke-opacity:1; fill:black; stroke-dasharray:none; font-weight:normal; stroke-width:1; font-family:&apos;sansserif&apos;; font-style:normal; stroke-linejoin:miter; font-size:12; stroke-dashoffset:0; image-rendering:auto;" width="875" height="822">
  <!--Generated by the Batik Graphics2D SVG Generator-->
  <defs id="genericDefs" />
  <g>
    <defs id="defs1">
      <clipPath clipPathUnits="userSpaceOnUse" id="clipPath1">
        <path d="M0 0 L875 0 L875 822 L0 822 L0 0 Z" />
      </clipPath>
      <clipPath clipPathUnits="userSpaceOnUse" id="clipPath2">
        <path d="M664 309 L664 488 L862 488 L862 309 Z" />
      </clipPath>
      <clipPath clipPathUnits="userSpaceOnUse" id="clipPath3">
        <path d="M665 310 L665 326 L862 326 L862 310 Z" />
      </clipPath>
      <clipPath clipPathUnits="userSpaceOnUse" id="clipPath4">
        <path d="M664 338 L664 402 L862 402 L862 338 Z" />
      </clipPath>
      <clipPath clipPathUnits="userSpaceOnUse" id="clipPath5">
        <path d="M666 340 L666 401 L861 401 L861 340 Z" />
      </clipPath>
      <clipPath clipPathUnits="userSpaceOnUse" id="clipPath6">
        <path d="M664 414 L664 478 L862 478 L862 414 Z" />
      </clipPath>
      <clipPath clipPathUnits="userSpaceOnUse" id="clipPath7">
        <path d="M666 416 L666 477 L861 477 L861 416 Z" />
      </clipPath>
      <clipPath clipPathUnits="userSpaceOnUse" id="clipPath8">
        <path d="M20 40 L20 112 L101 112 L101 40 Z" />
      </clipPath>
      <clipPath clipPathUnits="userSpaceOnUse" id="clipPath9">
        <path d="M24 40 L24 56 L97 56 L97 40 Z" />
      </clipPath>
      <clipPath clipPathUnits="userSpaceOnUse" id="clipPath10">
        <path d="M160 600 L160 809 L353 809 L353 600 Z" />
      </clipPath>
      <clipPath clipPathUnits="userSpaceOnUse" id="clipPath11">
        <path d="M161 601 L161 617 L353 617 L353 601 Z" />
      </clipPath>
      <clipPath clipPathUnits="userSpaceOnUse" id="clipPath12">
        <path d="M160 629 L160 678 L353 678 L353 629 Z" />
      </clipPath>
      <clipPath clipPathUnits="userSpaceOnUse" id="clipPath13">
        <path d="M162 631 L162 677 L352 677 L352 631 Z" />
      </clipPath>
      <clipPath clipPathUnits="userSpaceOnUse" id="clipPath14">
        <path d="M160 690 L160 799 L353 799 L353 690 Z" />
      </clipPath>
      <clipPath clipPathUnits="userSpaceOnUse" id="clipPath15">
        <path d="M162 692 L162 798 L352 798 L352 692 Z" />
      </clipPath>
      <clipPath clipPathUnits="userSpaceOnUse" id="clipPath16">
        <path d="M460 600 L460 734 L553 734 L553 600 Z" />
      </clipPath>
      <clipPath clipPathUnits="userSpaceOnUse" id="clipPath17">
        <path d="M461 601 L461 617 L553 617 L553 601 Z" />
      </clipPath>
      <clipPath clipPathUnits="userSpaceOnUse" id="clipPath18">
        <path d="M460 629 L460 663 L553 663 L553 629 Z" />
      </clipPath>
      <clipPath clipPathUnits="userSpaceOnUse" id="clipPath19">
        <path d="M462 631 L462 662 L552 662 L552 631 Z" />
      </clipPath>
      <clipPath clipPathUnits="userSpaceOnUse" id="clipPath20">
        <path d="M460 675 L460 724 L553 724 L553 675 Z" />
      </clipPath>
      <clipPath clipPathUnits="userSpaceOnUse" id="clipPath21">
        <path d="M462 677 L462 723 L552 723 L552 677 Z" />
      </clipPath>
      <clipPath clipPathUnits="userSpaceOnUse" id="clipPath22">
        <path d="M71 450 L71 531 L152 531 L152 450 Z" />
      </clipPath>
      <clipPath clipPathUnits="userSpaceOnUse" id="clipPath23">
        <path d="M72 451 L72 467 L152 467 L152 451 Z" />
      </clipPath>
      <clipPath clipPathUnits="userSpaceOnUse" id="clipPath24">
        <path d="M71 502 L71 521 L152 521 L152 502 Z" />
      </clipPath>
      <clipPath clipPathUnits="userSpaceOnUse" id="clipPath25">
        <path d="M73 504 L73 520 L151 520 L151 504 Z" />
      </clipPath>
      <clipPath clipPathUnits="userSpaceOnUse" id="clipPath26">
        <path d="M201 449 L201 530 L287 530 L287 449 Z" />
      </clipPath>
      <clipPath clipPathUnits="userSpaceOnUse" id="clipPath27">
        <path d="M202 450 L202 466 L287 466 L287 450 Z" />
      </clipPath>
      <clipPath clipPathUnits="userSpaceOnUse" id="clipPath28">
        <path d="M201 501 L201 520 L287 520 L287 501 Z" />
      </clipPath>
      <clipPath clipPathUnits="userSpaceOnUse" id="clipPath29">
        <path d="M203 503 L203 519 L286 519 L286 503 Z" />
      </clipPath>
      <clipPath clipPathUnits="userSpaceOnUse" id="clipPath30">
        <path d="M331 430 L331 534 L477 534 L477 430 Z" />
      </clipPath>
      <clipPath clipPathUnits="userSpaceOnUse" id="clipPath31">
        <path d="M332 431 L332 447 L477 447 L477 431 Z" />
      </clipPath>
      <clipPath clipPathUnits="userSpaceOnUse" id="clipPath32">
        <path d="M331 459 L331 478 L477 478 L477 459 Z" />
      </clipPath>
      <clipPath clipPathUnits="userSpaceOnUse" id="clipPath33">
        <path d="M333 461 L333 477 L476 477 L476 461 Z" />
      </clipPath>
      <clipPath clipPathUnits="userSpaceOnUse" id="clipPath34">
        <path d="M331 490 L331 524 L477 524 L477 490 Z" />
      </clipPath>
      <clipPath clipPathUnits="userSpaceOnUse" id="clipPath35">
        <path d="M333 492 L333 523 L476 523 L476 492 Z" />
      </clipPath>
      <clipPath clipPathUnits="userSpaceOnUse" id="clipPath36">
        <path d="M470 50 L470 169 L627 169 L627 50 Z" />
      </clipPath>
      <clipPath clipPathUnits="userSpaceOnUse" id="clipPath37">
        <path d="M471 51 L471 67 L627 67 L627 51 Z" />
      </clipPath>
      <clipPath clipPathUnits="userSpaceOnUse" id="clipPath38">
        <path d="M470 79 L470 113 L627 113 L627 79 Z" />
      </clipPath>
      <clipPath clipPathUnits="userSpaceOnUse" id="clipPath39">
        <path d="M472 81 L472 112 L626 112 L626 81 Z" />
      </clipPath>
      <clipPath clipPathUnits="userSpaceOnUse" id="clipPath40">
        <path d="M470 125 L470 159 L627 159 L627 125 Z" />
      </clipPath>
      <clipPath clipPathUnits="userSpaceOnUse" id="clipPath41">
        <path d="M472 127 L472 158 L626 158 L626 127 Z" />
      </clipPath>
      <clipPath clipPathUnits="userSpaceOnUse" id="clipPath42">
        <path d="M130 70 L130 264 L328 264 L328 70 Z" />
      </clipPath>
      <clipPath clipPathUnits="userSpaceOnUse" id="clipPath43">
        <path d="M131 71 L131 87 L328 87 L328 71 Z" />
      </clipPath>
      <clipPath clipPathUnits="userSpaceOnUse" id="clipPath44">
        <path d="M130 99 L130 178 L328 178 L328 99 Z" />
      </clipPath>
      <clipPath clipPathUnits="userSpaceOnUse" id="clipPath45">
        <path d="M132 101 L132 177 L327 177 L327 101 Z" />
      </clipPath>
      <clipPath clipPathUnits="userSpaceOnUse" id="clipPath46">
        <path d="M130 190 L130 254 L328 254 L328 190 Z" />
      </clipPath>
      <clipPath clipPathUnits="userSpaceOnUse" id="clipPath47">
        <path d="M132 192 L132 253 L327 253 L327 192 Z" />
      </clipPath>
    </defs>
    <g style="fill:rgb(0,0,130); stroke:rgb(0,0,130);">
      <line x1="245" x2="245" y1="266" style="clip-path:url(#clipPath1); fill:none;" y2="449" />
      <line x1="187" x2="110" y1="266" style="clip-path:url(#clipPath1); fill:none;" y2="450" />
      <line x1="273" x2="405" y1="266" style="clip-path:url(#clipPath1); fill:none;" y2="430" />
      <line x1="355" x2="460" y1="668" style="clip-path:url(#clipPath1); fill:none;" y2="668" />
      <line x1="126" x2="130" y1="533" style="clip-path:url(#clipPath1); fill:none;" y2="534" />
      <line x1="135" x2="145" y1="535" style="clip-path:url(#clipPath1); fill:none;" y2="536" />
      <line x1="150" x2="159" y1="537" style="clip-path:url(#clipPath1); fill:none;" y2="539" />
      <line x1="164" x2="174" y1="540" style="clip-path:url(#clipPath1); fill:none;" y2="542" />
      <line x1="179" x2="189" y1="543" style="clip-path:url(#clipPath1); fill:none;" y2="545" />
      <line x1="194" x2="204" y1="546" style="clip-path:url(#clipPath1); fill:none;" y2="547" />
      <line x1="209" x2="218" y1="548" style="clip-path:url(#clipPath1); fill:none;" y2="550" />
      <line x1="223" x2="233" y1="551" style="clip-path:url(#clipPath1); fill:none;" y2="553" />
      <line x1="238" x2="248" y1="554" style="clip-path:url(#clipPath1); fill:none;" y2="556" />
      <line x1="253" x2="263" y1="557" style="clip-path:url(#clipPath1); fill:none;" y2="558" />
      <line x1="268" x2="277" y1="559" style="clip-path:url(#clipPath1); fill:none;" y2="561" />
      <line x1="282" x2="292" y1="562" style="clip-path:url(#clipPath1); fill:none;" y2="564" />
      <line x1="297" x2="307" y1="565" style="clip-path:url(#clipPath1); fill:none;" y2="567" />
      <line x1="312" x2="322" y1="568" style="clip-path:url(#clipPath1); fill:none;" y2="569" />
      <line x1="327" x2="336" y1="570" style="clip-path:url(#clipPath1); fill:none;" y2="572" />
      <line x1="341" x2="351" y1="573" style="clip-path:url(#clipPath1); fill:none;" y2="575" />
      <line x1="356" x2="366" y1="576" style="clip-path:url(#clipPath1); fill:none;" y2="578" />
      <line x1="371" x2="381" y1="579" style="clip-path:url(#clipPath1); fill:none;" y2="580" />
      <line x1="386" x2="395" y1="581" style="clip-path:url(#clipPath1); fill:none;" y2="583" />
      <line x1="400" x2="410" y1="584" style="clip-path:url(#clipPath1); fill:none;" y2="586" />
      <line x1="415" x2="425" y1="587" style="clip-path:url(#clipPath1); fill:none;" y2="589" />
      <line x1="430" x2="440" y1="590" style="clip-path:url(#clipPath1); fill:none;" y2="591" />
      <line x1="445" x2="454" y1="592" style="clip-path:url(#clipPath1); fill:none;" y2="594" />
      <line x1="459" x2="469" y1="595" style="clip-path:url(#clipPath1); fill:none;" y2="597" />
      <line x1="474" x2="484" y1="598" style="clip-path:url(#clipPath1); fill:none;" y2="600" />
      <line x1="98" x2="229" y1="533" style="clip-path:url(#clipPath1); fill:none; stroke:rgb(0,64,64);" y2="600" />
      <line x1="523" x2="522" y1="171" style="clip-path:url(#clipPath1); fill:none;" y2="172" />
      <line x1="518" x2="510" y1="174" style="clip-path:url(#clipPath1); fill:none;" y2="180" />
      <line x1="506" x2="498" y1="183" style="clip-path:url(#clipPath1); fill:none;" y2="189" />
      <line x1="494" x2="486" y1="192" style="clip-path:url(#clipPath1); fill:none;" y2="198" />
      <line x1="481" x2="473" y1="201" style="clip-path:url(#clipPath1); fill:none;" y2="206" />
      <line x1="469" x2="461" y1="209" style="clip-path:url(#clipPath1); fill:none;" y2="215" />
      <line x1="457" x2="449" y1="218" style="clip-path:url(#clipPath1); fill:none;" y2="224" />
      <line x1="445" x2="437" y1="227" style="clip-path:url(#clipPath1); fill:none;" y2="233" />
      <line x1="433" x2="425" y1="235" style="clip-path:url(#clipPath1); fill:none;" y2="241" />
      <line x1="420" x2="412" y1="244" style="clip-path:url(#clipPath1); fill:none;" y2="250" />
      <line x1="408" x2="400" y1="253" style="clip-path:url(#clipPath1); fill:none;" y2="259" />
      <line x1="396" x2="388" y1="262" style="clip-path:url(#clipPath1); fill:none;" y2="267" />
      <line x1="384" x2="376" y1="270" style="clip-path:url(#clipPath1); fill:none;" y2="276" />
      <line x1="372" x2="363" y1="279" style="clip-path:url(#clipPath1); fill:none;" y2="285" />
      <line x1="359" x2="351" y1="288" style="clip-path:url(#clipPath1); fill:none;" y2="294" />
      <line x1="347" x2="339" y1="296" style="clip-path:url(#clipPath1); fill:none;" y2="302" />
      <line x1="335" x2="327" y1="305" style="clip-path:url(#clipPath1); fill:none;" y2="311" />
      <line x1="323" x2="315" y1="314" style="clip-path:url(#clipPath1); fill:none;" y2="320" />
      <line x1="311" x2="302" y1="323" style="clip-path:url(#clipPath1); fill:none;" y2="328" />
      <line x1="298" x2="290" y1="331" style="clip-path:url(#clipPath1); fill:none;" y2="337" />
      <line x1="286" x2="278" y1="340" style="clip-path:url(#clipPath1); fill:none;" y2="346" />
      <line x1="274" x2="266" y1="349" style="clip-path:url(#clipPath1); fill:none;" y2="355" />
      <line x1="262" x2="254" y1="357" style="clip-path:url(#clipPath1); fill:none;" y2="363" />
      <line x1="249" x2="241" y1="366" style="clip-path:url(#clipPath1); fill:none;" y2="372" />
      <line x1="237" x2="229" y1="375" style="clip-path:url(#clipPath1); fill:none;" y2="381" />
      <line x1="225" x2="217" y1="384" style="clip-path:url(#clipPath1); fill:none;" y2="389" />
      <line x1="213" x2="205" y1="392" style="clip-path:url(#clipPath1); fill:none;" y2="398" />
      <line x1="201" x2="193" y1="401" style="clip-path:url(#clipPath1); fill:none;" y2="407" />
      <line x1="188" x2="180" y1="410" style="clip-path:url(#clipPath1); fill:none;" y2="416" />
      <line x1="176" x2="168" y1="418" style="clip-path:url(#clipPath1); fill:none;" y2="424" />
      <line x1="164" x2="156" y1="427" style="clip-path:url(#clipPath1); fill:none;" y2="433" />
      <line x1="152" x2="144" y1="436" style="clip-path:url(#clipPath1); fill:none;" y2="442" />
      <line x1="140" x2="132" y1="445" style="clip-path:url(#clipPath1); fill:none;" y2="450" />
      <line x1="576" x2="814" y1="171" style="clip-path:url(#clipPath1); fill:none;" y2="309" />
      <line x1="470" x2="330" y1="110" style="clip-path:url(#clipPath1); fill:none;" y2="110" />
      <line x1="245" x2="245" y1="532" style="clip-path:url(#clipPath1); fill:none; stroke:rgb(0,64,64);" y2="600" />
      <line x1="410" x2="416" y1="536" style="clip-path:url(#clipPath1); fill:none;" y2="540" />
      <line x1="420" x2="429" y1="542" style="clip-path:url(#clipPath1); fill:none;" y2="547" />
      <line x1="433" x2="442" y1="550" style="clip-path:url(#clipPath1); fill:none;" y2="555" />
      <line x1="446" x2="455" y1="557" style="clip-path:url(#clipPath1); fill:none;" y2="562" />
      <line x1="459" x2="468" y1="565" style="clip-path:url(#clipPath1); fill:none;" y2="570" />
      <line x1="472" x2="481" y1="572" style="clip-path:url(#clipPath1); fill:none;" y2="577" />
      <line x1="485" x2="494" y1="580" style="clip-path:url(#clipPath1); fill:none;" y2="585" />
      <line x1="498" x2="507" y1="587" style="clip-path:url(#clipPath1); fill:none;" y2="592" />
      <line x1="511" x2="520" y1="595" style="clip-path:url(#clipPath1); fill:none;" y2="600" />
      <line x1="341" x2="341" y1="536" style="clip-path:url(#clipPath1); fill:none; stroke:rgb(0,64,64);" y2="600" />
      <line x1="739" x2="315" y1="309" style="clip-path:url(#clipPath1); fill:none; stroke:blue;" y2="266" />
      <line x1="664" x2="154" y1="470" style="clip-path:url(#clipPath1); fill:none;" y2="470" />
      <polygon style="clip-path:url(#clipPath1); stroke:none;" points=" 245 266 249 274 245 282 241 274" />
      <polygon style="fill:none; clip-path:url(#clipPath1);" points=" 245 266 249 274 245 282 241 274" />
      <line x1="241" x2="245" y1="274" style="clip-path:url(#clipPath1); fill:none;" y2="266" />
      <line x1="245" x2="250" y1="449" style="clip-path:url(#clipPath1); fill:none;" y2="437" />
      <line x1="245" x2="240" y1="449" style="clip-path:url(#clipPath1); fill:none;" y2="437" />
      <text x="229" y="278" style="clip-path:url(#clipPath1); font-family:sans-serif; stroke:none;">1
      </text>
      <text x="215" y="442" style="clip-path:url(#clipPath1); font-family:sans-serif; stroke:none;">0..*
      </text>
      <polygon style="clip-path:url(#clipPath1); font-family:sans-serif; stroke:none;" points=" 187 266 188 275 181 281 180 272" />
      <polygon style="fill:none; clip-path:url(#clipPath1); font-family:sans-serif;" points=" 187 266 188 275 181 281 180 272" />
      <line x1="180" x2="187" y1="272" style="clip-path:url(#clipPath1); fill:none; font-family:sans-serif;" y2="266" />
      <line x1="110" x2="119" y1="450" style="clip-path:url(#clipPath1); fill:none; font-family:sans-serif;" y2="441" />
      <line x1="110" x2="110" y1="450" style="clip-path:url(#clipPath1); fill:none; font-family:sans-serif;" y2="437" />
      <text x="164" y="278" style="clip-path:url(#clipPath1); font-family:sans-serif; stroke:none;">1
      </text>
      <text x="80" y="443" style="clip-path:url(#clipPath1); font-family:sans-serif; stroke:none;">0..*
      </text>
      <polygon style="clip-path:url(#clipPath1); font-family:sans-serif; stroke:none;" points=" 273 266 281 270 283 278 275 275" />
      <polygon style="fill:none; clip-path:url(#clipPath1); font-family:sans-serif;" points=" 273 266 281 270 283 278 275 275" />
      <line x1="275" x2="273" y1="275" style="clip-path:url(#clipPath1); fill:none; font-family:sans-serif;" y2="266" />
      <line x1="405" x2="401" y1="430" style="clip-path:url(#clipPath1); fill:none; font-family:sans-serif;" y2="418" />
      <line x1="405" x2="394" y1="430" style="clip-path:url(#clipPath1); fill:none; font-family:sans-serif;" y2="424" />
      <text x="257" y="278" style="clip-path:url(#clipPath1); font-family:sans-serif; stroke:none;">1
      </text>
      <text x="360" y="423" style="clip-path:url(#clipPath1); font-family:sans-serif; stroke:none;">0..*
      </text>
      <polygon style="clip-path:url(#clipPath1); font-family:sans-serif; stroke:none;" points=" 355 668 363 664 371 668 363 672" />
      <polygon style="fill:none; clip-path:url(#clipPath1); font-family:sans-serif;" points=" 355 668 363 664 371 668 363 672" />
      <line x1="363" x2="355" y1="672" style="clip-path:url(#clipPath1); fill:none; font-family:sans-serif;" y2="668" />
      <line x1="460" x2="448" y1="668" style="clip-path:url(#clipPath1); fill:none; font-family:sans-serif;" y2="663" />
      <line x1="460" x2="448" y1="668" style="clip-path:url(#clipPath1); fill:none; font-family:sans-serif;" y2="673" />
      <text x="363" y="661" style="clip-path:url(#clipPath1); font-family:sans-serif; stroke:none;">1
      </text>
      <text x="430" y="661" style="clip-path:url(#clipPath1); font-family:sans-serif; stroke:none;">1..*
      </text>
      <line x1="486" x2="475" y1="600" style="clip-path:url(#clipPath1); fill:none; font-family:sans-serif;" y2="593" />
      <line x1="486" x2="473" y1="600" style="clip-path:url(#clipPath1); fill:none; font-family:sans-serif;" y2="603" />
      <polygon points=" 229 600 210 597 216 586" style="fill:white; clip-path:url(#clipPath1); font-family:sans-serif; stroke:none;" />
      <polygon points=" 229 600 210 597 216 586" style="fill:none; clip-path:url(#clipPath1); font-family:sans-serif; stroke:rgb(0,64,64);" />
      <line x1="216" x2="229" y1="586" style="clip-path:url(#clipPath1); fill:none; font-family:sans-serif; stroke:rgb(0,64,64);" y2="600" />
      <line x1="132" x2="145" y1="450" style="clip-path:url(#clipPath1); fill:none; font-family:sans-serif;" y2="447" />
      <line x1="132" x2="139" y1="450" style="clip-path:url(#clipPath1); fill:none; font-family:sans-serif;" y2="439" />
      <polygon style="clip-path:url(#clipPath1); font-family:sans-serif; stroke:none;" points=" 576 171 585 172 590 179 581 178" />
      <polygon style="fill:none; clip-path:url(#clipPath1); font-family:sans-serif;" points=" 576 171 585 172 590 179 581 178" />
      <line x1="581" x2="576" y1="178" style="clip-path:url(#clipPath1); fill:none; font-family:sans-serif;" y2="171" />
      <line x1="814" x2="806" y1="309" style="clip-path:url(#clipPath1); fill:none; font-family:sans-serif;" y2="299" />
      <line x1="814" x2="801" y1="309" style="clip-path:url(#clipPath1); fill:none; font-family:sans-serif;" y2="307" />
      <polygon style="clip-path:url(#clipPath1); font-family:sans-serif; stroke:none;" points=" 470 110 462 114 454 110 462 106" />
      <polygon style="fill:none; clip-path:url(#clipPath1); font-family:sans-serif;" points=" 470 110 462 114 454 110 462 106" />
      <line x1="462" x2="470" y1="106" style="clip-path:url(#clipPath1); fill:none; font-family:sans-serif;" y2="110" />
      <line x1="330" x2="342" y1="110" style="clip-path:url(#clipPath1); fill:none; font-family:sans-serif;" y2="115" />
      <line x1="330" x2="342" y1="110" style="clip-path:url(#clipPath1); fill:none; font-family:sans-serif;" y2="105" />
      <polygon points=" 245 600 239 582 251 582" style="fill:white; clip-path:url(#clipPath1); font-family:sans-serif; stroke:none;" />
      <polygon points=" 245 600 239 582 251 582" style="fill:none; clip-path:url(#clipPath1); font-family:sans-serif; stroke:rgb(0,64,64);" />
      <line x1="251" x2="245" y1="582" style="clip-path:url(#clipPath1); fill:none; font-family:sans-serif; stroke:rgb(0,64,64);" y2="600" />
      <line x1="520" x2="512" y1="600" style="clip-path:url(#clipPath1); fill:none; font-family:sans-serif;" y2="590" />
      <line x1="520" x2="507" y1="600" style="clip-path:url(#clipPath1); fill:none; font-family:sans-serif;" y2="598" />
      <polygon points=" 341 600 335 582 347 582" style="fill:white; clip-path:url(#clipPath1); font-family:sans-serif; stroke:none;" />
      <polygon points=" 341 600 335 582 347 582" style="fill:none; clip-path:url(#clipPath1); font-family:sans-serif; stroke:rgb(0,64,64);" />
      <line x1="347" x2="341" y1="582" style="clip-path:url(#clipPath1); fill:none; font-family:sans-serif; stroke:rgb(0,64,64);" y2="600" />
      <line x1="315" x2="326" y1="266" style="clip-path:url(#clipPath1); fill:none; font-family:sans-serif; stroke:blue;" y2="272" />
      <line x1="315" x2="327" y1="266" style="clip-path:url(#clipPath1); fill:none; font-family:sans-serif; stroke:blue;" y2="262" />
      <text x="283" y="278" style="clip-path:url(#clipPath1); fill:blue; font-family:sans-serif; stroke:none;">0..1
      </text>
      <polygon points=" 664 470 656 474 648 470 656 466" style="fill:white; clip-path:url(#clipPath1); font-family:sans-serif; stroke:none;" />
      <polygon style="fill:none; clip-path:url(#clipPath1); font-family:sans-serif;" points=" 664 470 656 474 648 470 656 466" />
      <line x1="656" x2="664" y1="466" style="clip-path:url(#clipPath1); fill:none; font-family:sans-serif;" y2="470" />
      <line x1="154" x2="166" y1="470" style="clip-path:url(#clipPath1); fill:none; font-family:sans-serif;" y2="475" />
      <line x1="154" x2="166" y1="470" style="clip-path:url(#clipPath1); fill:none; font-family:sans-serif;" y2="465" />
      <text x="648" y="463" style="clip-path:url(#clipPath1); font-family:sans-serif; stroke:none;">1
      </text>
      <text x="162" y="463" style="clip-path:url(#clipPath1); font-family:sans-serif; stroke:none;">0..*
      </text>
      <rect x="667" y="312" width="197" style="clip-path:url(#clipPath1); fill:navy; font-family:sans-serif; stroke:none;" height="178" />
      <rect x="664" y="309" width="197" style="clip-path:url(#clipPath1); fill:white; font-family:sans-serif; stroke:none;" height="178" />
      <rect x="664" y="309" width="197" style="clip-path:url(#clipPath1); fill:none; font-family:sans-serif; stroke:black;" height="178" />
    </g>
    <g style="font-weight:bold; font-family:sans-serif;">
      <text x="737" y="322" style="clip-path:url(#clipPath3); stroke:none;">CScreen
      </text>
    </g>
    <g style="font-family:sans-serif;">
      <line x1="664" x2="861" y1="331" style="clip-path:url(#clipPath2); fill:none;" y2="331" />
    </g>
    <g style="font-family:sans-serif;">
      <text x="670" y="352" style="clip-path:url(#clipPath5); stroke:none;">-m_size:unsigned int
      </text>
      <text x="670" y="367" style="clip-path:url(#clipPath5); stroke:none;">-m_nextFreeTriangle:unsigned int
      </text>
      <text x="670" y="382" style="clip-path:url(#clipPath5); stroke:none;">-m_pTriangle:CTriangle* *
      </text>
      <text x="670" y="397" style="clip-path:url(#clipPath5); stroke:none;">-m_pDatabase:CDatabase*
      </text>
    </g>
    <g style="font-family:sans-serif;">
      <line x1="664" x2="861" y1="407" style="clip-path:url(#clipPath2); fill:none;" y2="407" />
    </g>
    <g style="font-family:sans-serif;">
      <text x="670" y="428" style="clip-path:url(#clipPath7); stroke:none;">+CScreen
      </text>
      <text x="670" y="443" style="clip-path:url(#clipPath7); stroke:none;">+connect:void
      </text>
      <text x="670" y="458" style="clip-path:url(#clipPath7); stroke:none;">+addElement:bool
      </text>
      <text x="670" y="473" style="clip-path:url(#clipPath7); stroke:none;">+print:void
      </text>
    </g>
    <g style="fill:navy; font-family:sans-serif; stroke:navy;">
      <rect x="23" y="43" width="80" style="clip-path:url(#clipPath1); stroke:none;" height="71" />
      <rect x="23" y="23" width="32" style="clip-path:url(#clipPath1); stroke:none;" height="20" />
      <rect x="20" y="40" width="80" style="clip-path:url(#clipPath1); fill:white; stroke:none;" height="71" />
      <rect x="20" y="20" width="32" style="clip-path:url(#clipPath1); fill:white; stroke:none;" height="20" />
      <rect x="20" y="40" width="80" style="clip-path:url(#clipPath1); fill:none; stroke:black;" height="71" />
      <rect x="20" y="20" width="32" style="clip-path:url(#clipPath1); fill:none; stroke:black;" height="20" />
    </g>
    <g style="font-weight:bold; font-family:sans-serif;">
      <text x="40" y="52" style="clip-path:url(#clipPath9); stroke:none;">model
      </text>
    </g>
    <g style="font-family:sans-serif;">
      <line x1="20" x2="100" y1="61" style="clip-path:url(#clipPath8); fill:none;" y2="61" />
      <line x1="20" x2="100" y1="84" style="clip-path:url(#clipPath8); fill:none;" y2="84" />
    </g>
    <g style="fill:navy; font-family:sans-serif; stroke:navy;">
      <rect x="163" y="603" width="192" style="clip-path:url(#clipPath1); stroke:none;" height="208" />
      <rect x="160" y="600" width="192" style="clip-path:url(#clipPath1); fill:white; stroke:none;" height="208" />
      <rect x="160" y="600" width="192" style="clip-path:url(#clipPath1); fill:none; stroke:black;" height="208" />
    </g>
    <g style="font-weight:bold; font-family:sans-serif;">
      <text x="206" y="613" style="clip-path:url(#clipPath11); stroke:none;">CGraphicObject
      </text>
    </g>
    <g style="font-family:sans-serif;">
      <line x1="160" x2="352" y1="622" style="clip-path:url(#clipPath10); fill:none;" y2="622" />
    </g>
    <g style="font-family:sans-serif;">
      <text x="166" y="643" style="clip-path:url(#clipPath13); stroke:none;">-m_name:std::string
      </text>
      <text x="166" y="658" style="clip-path:url(#clipPath13); stroke:none;">-m_noCoordinates:unsigned int
      </text>
      <text x="166" y="673" style="clip-path:url(#clipPath13); stroke:none;">#m_pCoordinate:CCoordinate*
      </text>
    </g>
    <g style="font-family:sans-serif;">
      <line x1="160" x2="352" y1="683" style="clip-path:url(#clipPath10); fill:none;" y2="683" />
    </g>
    <g style="font-family:sans-serif;">
      <text x="166" y="704" style="clip-path:url(#clipPath15); stroke:none;">+CGraphicObject
      </text>
      <text x="166" y="719" style="clip-path:url(#clipPath15); stroke:none;">+set:bool
      </text>
      <text x="166" y="734" style="clip-path:url(#clipPath15); stroke:none;">+set:bool
      </text>
      <text x="166" y="749" style="clip-path:url(#clipPath15); stroke:none;">+print:void
      </text>
      <text x="166" y="764" style="clip-path:url(#clipPath15); stroke:none;">+move:bool
      </text>
      <text x="166" y="779" style="clip-path:url(#clipPath15); stroke:none;">+operator=:CGraphicObject&amp;
      </text>
      <text x="166" y="794" style="clip-path:url(#clipPath15); stroke:none;">+getName:std::string
      </text>
    </g>
    <g style="fill:navy; font-family:sans-serif; stroke:navy;">
      <rect x="463" y="603" width="92" style="clip-path:url(#clipPath1); stroke:none;" height="133" />
      <rect x="460" y="600" width="92" style="clip-path:url(#clipPath1); fill:white; stroke:none;" height="133" />
      <rect x="460" y="600" width="92" style="clip-path:url(#clipPath1); fill:none; stroke:black;" height="133" />
    </g>
    <g style="font-weight:bold; font-family:sans-serif;">
      <text x="466" y="613" style="clip-path:url(#clipPath17); stroke:none;">CCoordinate
      </text>
    </g>
    <g style="font-family:sans-serif;">
      <line x1="460" x2="552" y1="622" style="clip-path:url(#clipPath16); fill:none;" y2="622" />
    </g>
    <g style="font-family:sans-serif;">
      <text x="466" y="643" style="clip-path:url(#clipPath19); stroke:none;">-m_x:int
      </text>
      <text x="466" y="658" style="clip-path:url(#clipPath19); stroke:none;">-m_y:int
      </text>
    </g>
    <g style="font-family:sans-serif;">
      <line x1="460" x2="552" y1="668" style="clip-path:url(#clipPath16); fill:none;" y2="668" />
    </g>
    <g style="font-family:sans-serif;">
      <text x="466" y="689" style="clip-path:url(#clipPath21); stroke:none;">+CCoordinate
      </text>
      <text x="466" y="704" style="clip-path:url(#clipPath21); stroke:none;">+print:void
      </text>
      <text x="466" y="719" style="clip-path:url(#clipPath21); stroke:none;">+set:bool
      </text>
    </g>
    <g style="fill:navy; font-family:sans-serif; stroke:navy;">
      <rect x="74" y="453" width="80" style="clip-path:url(#clipPath1); stroke:none;" height="80" />
      <rect x="71" y="450" width="80" style="clip-path:url(#clipPath1); fill:white; stroke:none;" height="80" />
      <rect x="71" y="450" width="80" style="clip-path:url(#clipPath1); fill:none; stroke:black;" height="80" />
    </g>
    <g style="font-weight:bold; font-family:sans-serif;">
      <text x="80" y="463" style="clip-path:url(#clipPath23); stroke:none;">CTriangle
      </text>
    </g>
    <g style="font-family:sans-serif;">
      <line x1="71" x2="151" y1="472" style="clip-path:url(#clipPath22); fill:none;" y2="472" />
      <line x1="71" x2="151" y1="495" style="clip-path:url(#clipPath22); fill:none;" y2="495" />
    </g>
    <g style="font-family:sans-serif;">
      <text x="77" y="516" style="clip-path:url(#clipPath25); stroke:none;">+CTriangle
      </text>
    </g>
    <g style="fill:navy; font-family:sans-serif; stroke:navy;">
      <rect x="204" y="452" width="85" style="clip-path:url(#clipPath1); stroke:none;" height="80" />
      <rect x="201" y="449" width="85" style="clip-path:url(#clipPath1); fill:white; stroke:none;" height="80" />
      <rect x="201" y="449" width="85" style="clip-path:url(#clipPath1); fill:none; stroke:black;" height="80" />
    </g>
    <g style="font-weight:bold; font-family:sans-serif;">
      <text x="208" y="462" style="clip-path:url(#clipPath27); stroke:none;">CRectangle
      </text>
    </g>
    <g style="font-family:sans-serif;">
      <line x1="201" x2="286" y1="471" style="clip-path:url(#clipPath26); fill:none;" y2="471" />
      <line x1="201" x2="286" y1="494" style="clip-path:url(#clipPath26); fill:none;" y2="494" />
    </g>
    <g style="font-family:sans-serif;">
      <text x="207" y="515" style="clip-path:url(#clipPath29); stroke:none;">+CRectangle
      </text>
    </g>
    <g style="fill:navy; font-family:sans-serif; stroke:navy;">
      <rect x="334" y="433" width="145" style="clip-path:url(#clipPath1); stroke:none;" height="103" />
      <rect x="331" y="430" width="145" style="clip-path:url(#clipPath1); fill:white; stroke:none;" height="103" />
      <rect x="331" y="430" width="145" style="clip-path:url(#clipPath1); fill:none; stroke:black;" height="103" />
    </g>
    <g style="font-weight:bold; font-family:sans-serif;">
      <text x="381" y="443" style="clip-path:url(#clipPath31); stroke:none;">CCircle
      </text>
    </g>
    <g style="font-family:sans-serif;">
      <line x1="331" x2="476" y1="452" style="clip-path:url(#clipPath30); fill:none;" y2="452" />
    </g>
    <g style="font-family:sans-serif;">
      <text x="337" y="473" style="clip-path:url(#clipPath33); stroke:none;">-m_radius:unsigned int
      </text>
    </g>
    <g style="font-family:sans-serif;">
      <line x1="331" x2="476" y1="483" style="clip-path:url(#clipPath30); fill:none;" y2="483" />
    </g>
    <g style="font-family:sans-serif;">
      <text x="337" y="504" style="clip-path:url(#clipPath35); stroke:none;">+CCircle
      </text>
      <text x="337" y="519" style="clip-path:url(#clipPath35); stroke:none;">+print:void
      </text>
    </g>
    <g style="fill:navy; font-family:sans-serif; stroke:navy;">
      <rect x="473" y="53" width="156" style="clip-path:url(#clipPath1); stroke:none;" height="118" />
      <rect x="470" y="50" width="156" style="clip-path:url(#clipPath1); fill:white; stroke:none;" height="118" />
      <rect x="470" y="50" width="156" style="clip-path:url(#clipPath1); fill:none; stroke:black;" height="118" />
    </g>
    <g style="font-weight:bold; font-family:sans-serif;">
      <text x="491" y="63" style="clip-path:url(#clipPath37); stroke:none;">CGraphicalSystem
      </text>
    </g>
    <g style="font-family:sans-serif;">
      <line x1="470" x2="626" y1="72" style="clip-path:url(#clipPath36); fill:none;" y2="72" />
    </g>
    <g style="font-family:sans-serif;">
      <text x="476" y="93" style="clip-path:url(#clipPath39); stroke:none;">-m_database:CDatabase
      </text>
      <text x="476" y="108" style="clip-path:url(#clipPath39); stroke:none;">-m_screen:CScreen
      </text>
    </g>
    <g style="font-family:sans-serif;">
      <line x1="470" x2="626" y1="118" style="clip-path:url(#clipPath36); fill:none;" y2="118" />
    </g>
    <g style="font-family:sans-serif;">
      <text x="476" y="139" style="clip-path:url(#clipPath41); stroke:none;">+CGraphicalSystem
      </text>
      <text x="476" y="154" style="clip-path:url(#clipPath41); stroke:none;">+print:void
      </text>
    </g>
    <g style="fill:navy; font-family:sans-serif; stroke:navy;">
      <rect x="133" y="73" width="197" style="clip-path:url(#clipPath1); stroke:none;" height="193" />
      <rect x="130" y="70" width="197" style="clip-path:url(#clipPath1); fill:white; stroke:none;" height="193" />
      <rect x="130" y="70" width="197" style="clip-path:url(#clipPath1); fill:none; stroke:black;" height="193" />
    </g>
    <g style="font-weight:bold; font-family:sans-serif;">
      <text x="195" y="83" style="clip-path:url(#clipPath43); stroke:none;">CDatabase
      </text>
    </g>
    <g style="font-family:sans-serif;">
      <line x1="130" x2="327" y1="92" style="clip-path:url(#clipPath42); fill:none;" y2="92" />
    </g>
    <g style="font-family:sans-serif;">
      <text x="136" y="113" style="clip-path:url(#clipPath45); stroke:none;">-m_size:unsigned int
      </text>
      <text x="136" y="128" style="clip-path:url(#clipPath45); stroke:none;">-m_nextFreeTriangle:unsigned int
      </text>
      <text x="136" y="143" style="clip-path:url(#clipPath45); stroke:none;">-m_circle:CCircle*
      </text>
      <text x="136" y="158" style="clip-path:url(#clipPath45); stroke:none;">-m_triangle:CTriangle*
      </text>
      <text x="136" y="173" style="clip-path:url(#clipPath45); stroke:none;">-m_rectangle:CRectangle*
      </text>
    </g>
    <g style="font-family:sans-serif;">
      <line x1="130" x2="327" y1="183" style="clip-path:url(#clipPath42); fill:none;" y2="183" />
    </g>
    <g style="font-family:sans-serif;">
      <text x="136" y="204" style="clip-path:url(#clipPath47); stroke:none;">+CDatabase
      </text>
      <text x="136" y="219" style="clip-path:url(#clipPath47); stroke:none;">+print:void
      </text>
      <text x="136" y="234" style="clip-path:url(#clipPath47); stroke:none;">+addElement:bool
      </text>
      <text x="136" y="249" style="clip-path:url(#clipPath47); stroke:none;">+getAdressOfTriangle:CTriangle*
      </text>
    </g>
  </g>
</svg>
