<?xml version="1.0" encoding="UTF-8"?>

<!DOCTYPE svg PUBLIC '-//W3C//DTD SVG 20001102//EN' 'http://www.w3.org/TR/2000/CR-SVG-20001102/DTD/svg-20001102.dtd'>
<svg style="fill-opacity:1; color-rendering:auto; color-interpolation:sRGB; text-rendering:auto; stroke:black; stroke-linecap:square; stroke-miterlimit:10; shape-rendering:auto; stroke-opacity:1; fill:black; stroke-dasharray:none; font-weight:normal; stroke-width:1; font-family:&apos;sansserif&apos;; font-style:normal; stroke-linejoin:miter; font-size:12; stroke-dashoffset:0; image-rendering:auto;" width="1116" height="535">
  <!--Generated by the Batik Graphics2D SVG Generator-->
  <defs id="genericDefs" />
  <g>
    <defs id="defs1">
      <clipPath clipPathUnits="userSpaceOnUse" id="clipPath1">
        <path d="M0 0 L1116 0 L1116 535 L0 535 L0 0 Z" />
      </clipPath>
      <clipPath clipPathUnits="userSpaceOnUse" id="clipPath2">
        <path d="M276 36 L276 525 L794 525 L794 36 Z" />
      </clipPath>
      <clipPath clipPathUnits="userSpaceOnUse" id="clipPath3">
        <path d="M276 36 L276 52 L794 52 L794 36 Z" />
      </clipPath>
      <clipPath clipPathUnits="userSpaceOnUse" id="clipPath4">
        <path d="M80 180 L80 258 L161 258 L161 180 Z" />
      </clipPath>
      <clipPath clipPathUnits="userSpaceOnUse" id="clipPath5">
        <path d="M80 185 L80 238 L161 238 L161 185 Z" />
      </clipPath>
      <clipPath clipPathUnits="userSpaceOnUse" id="clipPath6">
        <path d="M80 237 L80 258 L161 258 L161 237 Z" />
      </clipPath>
      <clipPath clipPathUnits="userSpaceOnUse" id="clipPath7">
        <path d="M421 93 L421 109 L571 109 L571 93 Z" />
      </clipPath>
      <clipPath clipPathUnits="userSpaceOnUse" id="clipPath8">
        <path d="M431 186 L431 217 L632 217 L632 186 Z" />
      </clipPath>
      <clipPath clipPathUnits="userSpaceOnUse" id="clipPath9">
        <path d="M441 316 L441 347 L642 347 L642 316 Z" />
      </clipPath>
      <clipPath clipPathUnits="userSpaceOnUse" id="clipPath10">
        <path d="M417 441 L417 457 L584 457 L584 441 Z" />
      </clipPath>
      <clipPath clipPathUnits="userSpaceOnUse" id="clipPath11">
        <path d="M904 313 L904 329 L1069 329 L1069 313 Z" />
      </clipPath>
      <clipPath clipPathUnits="userSpaceOnUse" id="clipPath12">
        <path d="M504 134 L504 167 L810 167 L810 134 Z" />
      </clipPath>
    </defs>
    <g style="fill:rgb(200,200,200); stroke:rgb(200,200,200);">
      <rect x="276" y="36" width="517" style="clip-path:url(#clipPath1); stroke:none;" height="488" />
      <rect x="276" y="36" width="517" style="clip-path:url(#clipPath1); fill:none; stroke:black;" height="488" />
    </g>
    <g style="font-family:sans-serif;">
      <text x="488" y="48" style="clip-path:url(#clipPath3); stroke:none;">Graphical Sytem
      </text>
    </g>
    <g style="fill:navy; stroke:navy;">
      <polygon style="clip-path:url(#clipPath5); stroke:none;" points=" 122 204 122 209 136 209 136 211 122 211 122 222 136 236 136 237 134 237 121 224 108 237 106 237 106 236 120 222 120 211 106 211 106 209 120 209 120 204 122 204" />
      <circle style="clip-path:url(#clipPath5); stroke:none;" r="8" cx="121" cy="196" />
      <polygon style="fill:white; clip-path:url(#clipPath5); stroke:none;" points=" 119 201 119 206 133 206 133 208 119 208 119 219 133 233 133 234 131 234 118 221 105 234 103 234 103 233 117 219 117 208 103 208 103 206 117 206 117 201 119 201" />
      <circle style="clip-path:url(#clipPath5); fill:white; stroke:none;" r="8" cx="118" cy="193" />
      <polygon style="fill:none; clip-path:url(#clipPath5); stroke:black;" points=" 119 201 119 206 133 206 133 208 119 208 119 219 133 233 133 234 131 234 118 221 105 234 103 234 103 233 117 219 117 208 103 208 103 206 117 206 117 201 119 201" />
      <circle style="clip-path:url(#clipPath5); fill:none; stroke:black;" r="8" cx="118" cy="193" />
    </g>
    <g style="font-family:sans-serif;">
      <text x="84" y="249" style="clip-path:url(#clipPath6); stroke:none;">Programmer
      </text>
    </g>
    <g style="fill:navy; stroke:navy;">
      <ellipse style="clip-path:url(#clipPath1); stroke:none;" rx="105.5" cx="498.5" ry="10.5" cy="103.5" />
      <ellipse style="clip-path:url(#clipPath1); fill:white; stroke:none;" rx="105.5" cx="495.5" ry="10.5" cy="100.5" />
      <ellipse style="clip-path:url(#clipPath1); fill:none; stroke:black;" rx="105.5" cx="495.5" ry="10.5" cy="100.5" />
    </g>
    <g style="font-family:sans-serif;">
      <text x="425" y="105" style="clip-path:url(#clipPath7); stroke:none;">Create graphical objects
      </text>
    </g>
    <g style="fill:navy; stroke:navy;">
      <ellipse style="clip-path:url(#clipPath1); stroke:none;" rx="141.5" cx="534.5" ry="21" cy="204" />
      <ellipse style="clip-path:url(#clipPath1); fill:white; stroke:none;" rx="141.5" cx="531.5" ry="21" cy="201" />
      <ellipse style="clip-path:url(#clipPath1); fill:none; stroke:black;" rx="141.5" cx="531.5" ry="21" cy="201" />
    </g>
    <g style="font-family:sans-serif;">
      <text x="435" y="198" style="clip-path:url(#clipPath8); stroke:none;">Print the objects on a single
      </text>
      <text x="435" y="213" style="clip-path:url(#clipPath8); stroke:none;">screen
      </text>
    </g>
    <g style="fill:navy; stroke:navy;">
      <ellipse style="clip-path:url(#clipPath1); stroke:none;" rx="141.5" cx="544.5" ry="21" cy="334" />
      <ellipse style="clip-path:url(#clipPath1); fill:white; stroke:none;" rx="141.5" cx="541.5" ry="21" cy="331" />
      <ellipse style="clip-path:url(#clipPath1); fill:none; stroke:black;" rx="141.5" cx="541.5" ry="21" cy="331" />
    </g>
    <g style="font-family:sans-serif;">
      <text x="445" y="328" style="clip-path:url(#clipPath9); stroke:none;">Print the objects on multiple
      </text>
      <text x="445" y="343" style="clip-path:url(#clipPath9); stroke:none;">screens
      </text>
    </g>
    <g style="fill:navy; stroke:navy;">
      <ellipse style="clip-path:url(#clipPath1); stroke:none;" rx="117.5" cx="503.5" ry="10.5" cy="451.5" />
      <ellipse style="clip-path:url(#clipPath1); fill:white; stroke:none;" rx="117.5" cx="500.5" ry="10.5" cy="448.5" />
      <ellipse style="clip-path:url(#clipPath1); fill:none; stroke:black;" rx="117.5" cx="500.5" ry="10.5" cy="448.5" />
    </g>
    <g style="font-family:sans-serif;">
      <text x="421" y="453" style="clip-path:url(#clipPath10); stroke:none;">Move objects on the screen
      </text>
    </g>
    <g style="fill:navy; stroke:navy;">
      <ellipse style="clip-path:url(#clipPath1); stroke:none;" rx="116" cx="989" ry="10.5" cy="323.5" />
      <ellipse style="clip-path:url(#clipPath1); fill:white; stroke:none;" rx="116" cx="986" ry="10.5" cy="320.5" />
      <ellipse style="clip-path:url(#clipPath1); fill:none; stroke:black;" rx="116" cx="986" ry="10.5" cy="320.5" />
    </g>
    <g style="font-family:sans-serif;">
      <text x="908" y="325" style="clip-path:url(#clipPath11); stroke:none;">Display objects on real GUI
      </text>
    </g>
    <g style="fill:rgb(0,64,64); stroke:rgb(0,64,64);">
      <line x1="870" x2="865" y1="323" style="clip-path:url(#clipPath1); fill:none;" y2="323" />
      <line x1="860" x2="850" y1="323" style="clip-path:url(#clipPath1); fill:none;" y2="323" />
      <line x1="845" x2="835" y1="323" style="clip-path:url(#clipPath1); fill:none;" y2="323" />
      <line x1="830" x2="820" y1="323" style="clip-path:url(#clipPath1); fill:none;" y2="323" />
      <line x1="815" x2="805" y1="323" style="clip-path:url(#clipPath1); fill:none;" y2="323" />
      <line x1="800" x2="790" y1="323" style="clip-path:url(#clipPath1); fill:none;" y2="323" />
      <line x1="785" x2="775" y1="323" style="clip-path:url(#clipPath1); fill:none;" y2="323" />
      <line x1="770" x2="760" y1="323" style="clip-path:url(#clipPath1); fill:none;" y2="323" />
      <line x1="755" x2="745" y1="323" style="clip-path:url(#clipPath1); fill:none;" y2="323" />
      <line x1="740" x2="730" y1="323" style="clip-path:url(#clipPath1); fill:none;" y2="323" />
      <line x1="725" x2="715" y1="323" style="clip-path:url(#clipPath1); fill:none;" y2="323" />
      <line x1="710" x2="700" y1="323" style="clip-path:url(#clipPath1); fill:none;" y2="323" />
      <line x1="695" x2="686" y1="323" style="clip-path:url(#clipPath1); fill:none;" y2="323" />
      <line x1="538" x2="538" y1="310" style="clip-path:url(#clipPath1); fill:none;" y2="310" />
      <line x1="538" x2="538" y1="305" style="clip-path:url(#clipPath1); fill:none;" y2="295" />
      <line x1="538" x2="538" y1="290" style="clip-path:url(#clipPath1); fill:none;" y2="280" />
      <line x1="538" x2="538" y1="275" style="clip-path:url(#clipPath1); fill:none;" y2="265" />
      <line x1="538" x2="538" y1="260" style="clip-path:url(#clipPath1); fill:none;" y2="250" />
      <line x1="538" x2="538" y1="245" style="clip-path:url(#clipPath1); fill:none;" y2="235" />
      <line x1="538" x2="538" y1="230" style="clip-path:url(#clipPath1); fill:none;" y2="225" />
      <line x1="497" x2="497" y1="180" style="clip-path:url(#clipPath1); fill:none;" y2="175" />
      <line x1="497" x2="497" y1="170" style="clip-path:url(#clipPath1); fill:none;" y2="160" />
      <line x1="497" x2="497" y1="155" style="clip-path:url(#clipPath1); fill:none;" y2="145" />
      <line x1="497" x2="497" y1="140" style="clip-path:url(#clipPath1); fill:none;" y2="130" />
      <line x1="497" x2="497" y1="125" style="clip-path:url(#clipPath1); fill:none;" y2="115" />
      <line x1="119" x2="495" y1="257" style="clip-path:url(#clipPath1); fill:none;" y2="438" />
      <line x1="160" x2="390" y1="202" style="clip-path:url(#clipPath1); fill:none;" y2="202" />
      <line x1="120" x2="443" y1="180" style="clip-path:url(#clipPath1); fill:none;" y2="114" />
      <line x1="686" x2="698" y1="323" style="clip-path:url(#clipPath1); fill:none;" y2="328" />
      <line x1="686" x2="698" y1="323" style="clip-path:url(#clipPath1); fill:none;" y2="318" />
      <text x="746" y="315" style="clip-path:url(#clipPath1); font-family:sans-serif; stroke:none;">&lt;&lt;extend&gt;&gt;
      </text>
      <line x1="538" x2="533" y1="225" style="clip-path:url(#clipPath1); fill:none; font-family:sans-serif;" y2="237" />
      <line x1="538" x2="543" y1="225" style="clip-path:url(#clipPath1); fill:none; font-family:sans-serif;" y2="237" />
      <text x="450" y="269" style="clip-path:url(#clipPath1); font-family:sans-serif; stroke:none;">&lt;&lt;extend&gt;&gt;
      </text>
      <line x1="497" x2="492" y1="114" style="clip-path:url(#clipPath1); fill:none; font-family:sans-serif;" y2="126" />
      <line x1="497" x2="502" y1="114" style="clip-path:url(#clipPath1); fill:none; font-family:sans-serif;" y2="126" />
      <text x="408" y="149" style="clip-path:url(#clipPath1); font-family:sans-serif; stroke:none;">&lt;&lt;include&gt;&gt;
      </text>
      <polygon points=" 503 133 813 133 828 148 828 171 503 171" style="fill:navy; clip-path:url(#clipPath1); font-family:sans-serif; stroke:none;" />
      <polygon points=" 500 130 810 130 825 145 825 168 500 168" style="fill:white; clip-path:url(#clipPath1); font-family:sans-serif; stroke:none;" />
      <line x1="500" x2="810" y1="130" style="clip-path:url(#clipPath1); fill:none; font-family:sans-serif; stroke:black;" y2="130" />
      <line x1="810" x2="825" y1="130" style="clip-path:url(#clipPath1); fill:none; font-family:sans-serif; stroke:black;" y2="145" />
      <line x1="825" x2="825" y1="145" style="clip-path:url(#clipPath1); fill:none; font-family:sans-serif; stroke:black;" y2="168" />
      <line x1="825" x2="500" y1="168" style="clip-path:url(#clipPath1); fill:none; font-family:sans-serif; stroke:black;" y2="168" />
      <line x1="500" x2="500" y1="168" style="clip-path:url(#clipPath1); fill:none; font-family:sans-serif; stroke:black;" y2="130" />
      <line x1="810" x2="810" y1="130" style="clip-path:url(#clipPath1); fill:none; font-family:sans-serif; stroke:black;" y2="145" />
      <line x1="810" x2="825" y1="145" style="clip-path:url(#clipPath1); fill:none; font-family:sans-serif; stroke:black;" y2="145" />
    </g>
    <g style="font-family:sans-serif;">
      <text x="508" y="146" style="clip-path:url(#clipPath12); stroke:none;">The include relation might be a bit over engineered
      </text>
    </g>
  </g>
</svg>
