<?xml version="1.0" encoding="UTF-8"?>

<!DOCTYPE svg PUBLIC '-//W3C//DTD SVG 20001102//EN' 'http://www.w3.org/TR/2000/CR-SVG-20001102/DTD/svg-20001102.dtd'>
<svg style="fill-opacity:1; color-rendering:auto; color-interpolation:sRGB; text-rendering:auto; stroke:black; stroke-linecap:square; stroke-miterlimit:10; shape-rendering:auto; stroke-opacity:1; fill:black; stroke-dasharray:none; font-weight:normal; stroke-width:1; font-family:&apos;sansserif&apos;; font-style:normal; stroke-linejoin:miter; font-size:12; stroke-dashoffset:0; image-rendering:auto;" width="603" height="282">
  <!--Generated by the Batik Graphics2D SVG Generator-->
  <defs id="genericDefs" />
  <g>
    <defs id="defs1">
      <clipPath clipPathUnits="userSpaceOnUse" id="clipPath1">
        <path d="M0 0 L603 0 L603 282 L0 282 L0 0 Z" />
      </clipPath>
      <clipPath clipPathUnits="userSpaceOnUse" id="clipPath2">
        <path d="M20 20 L20 137 L108 137 L108 20 Z" />
      </clipPath>
      <clipPath clipPathUnits="userSpaceOnUse" id="clipPath3">
        <path d="M21 21 L21 52 L108 52 L108 21 Z" />
      </clipPath>
      <clipPath clipPathUnits="userSpaceOnUse" id="clipPath4">
        <path d="M20 64 L20 98 L108 98 L108 64 Z" />
      </clipPath>
      <clipPath clipPathUnits="userSpaceOnUse" id="clipPath5">
        <path d="M22 66 L22 97 L107 97 L107 66 Z" />
      </clipPath>
      <clipPath clipPathUnits="userSpaceOnUse" id="clipPath6">
        <path d="M183 20 L183 122 L333 122 L333 20 Z" />
      </clipPath>
      <clipPath clipPathUnits="userSpaceOnUse" id="clipPath7">
        <path d="M184 21 L184 52 L333 52 L333 21 Z" />
      </clipPath>
      <clipPath clipPathUnits="userSpaceOnUse" id="clipPath8">
        <path d="M183 64 L183 83 L333 83 L333 64 Z" />
      </clipPath>
      <clipPath clipPathUnits="userSpaceOnUse" id="clipPath9">
        <path d="M185 66 L185 82 L332 82 L332 66 Z" />
      </clipPath>
      <clipPath clipPathUnits="userSpaceOnUse" id="clipPath10">
        <path d="M500 150 L500 269 L590 269 L590 150 Z" />
      </clipPath>
      <clipPath clipPathUnits="userSpaceOnUse" id="clipPath11">
        <path d="M501 151 L501 167 L590 167 L590 151 Z" />
      </clipPath>
      <clipPath clipPathUnits="userSpaceOnUse" id="clipPath12">
        <path d="M500 179 L500 213 L590 213 L590 179 Z" />
      </clipPath>
      <clipPath clipPathUnits="userSpaceOnUse" id="clipPath13">
        <path d="M502 181 L502 212 L589 212 L589 181 Z" />
      </clipPath>
      <clipPath clipPathUnits="userSpaceOnUse" id="clipPath14">
        <path d="M500 225 L500 259 L590 259 L590 225 Z" />
      </clipPath>
      <clipPath clipPathUnits="userSpaceOnUse" id="clipPath15">
        <path d="M502 227 L502 258 L589 258 L589 227 Z" />
      </clipPath>
      <clipPath clipPathUnits="userSpaceOnUse" id="clipPath16">
        <path d="M230 143 L230 232 L418 232 L418 143 Z" />
      </clipPath>
      <clipPath clipPathUnits="userSpaceOnUse" id="clipPath17">
        <path d="M231 144 L231 160 L418 160 L418 144 Z" />
      </clipPath>
      <clipPath clipPathUnits="userSpaceOnUse" id="clipPath18">
        <path d="M230 172 L230 191 L418 191 L418 172 Z" />
      </clipPath>
      <clipPath clipPathUnits="userSpaceOnUse" id="clipPath19">
        <path d="M232 174 L232 190 L417 190 L417 174 Z" />
      </clipPath>
      <clipPath clipPathUnits="userSpaceOnUse" id="clipPath20">
        <path d="M230 203 L230 222 L418 222 L418 203 Z" />
      </clipPath>
      <clipPath clipPathUnits="userSpaceOnUse" id="clipPath21">
        <path d="M232 205 L232 221 L417 221 L417 205 Z" />
      </clipPath>
    </defs>
    <g style="fill:rgb(0,0,130); stroke:rgb(0,0,130);">
      <line x1="420" x2="500" y1="192" style="clip-path:url(#clipPath1); fill:none;" y2="192" />
      <line x1="183" x2="110" y1="72" style="clip-path:url(#clipPath1); fill:none;" y2="72" />
      <polygon style="fill:white; clip-path:url(#clipPath1); stroke:none;" points=" 420 192 428 188 436 192 428 196" />
      <polygon style="fill:none; clip-path:url(#clipPath1);" points=" 420 192 428 188 436 192 428 196" />
      <line x1="428" x2="420" y1="196" style="clip-path:url(#clipPath1); fill:none;" y2="192" />
      <line x1="500" x2="488" y1="192" style="clip-path:url(#clipPath1); fill:none;" y2="187" />
      <line x1="500" x2="488" y1="192" style="clip-path:url(#clipPath1); fill:none;" y2="197" />
      <polygon style="fill:white; clip-path:url(#clipPath1); stroke:none;" points=" 183 72 175 76 167 72 175 68" />
      <polygon style="fill:none; clip-path:url(#clipPath1);" points=" 183 72 175 76 167 72 175 68" />
      <line x1="175" x2="183" y1="68" style="clip-path:url(#clipPath1); fill:none;" y2="72" />
      <line x1="110" x2="122" y1="72" style="clip-path:url(#clipPath1); fill:none;" y2="77" />
      <line x1="110" x2="122" y1="72" style="clip-path:url(#clipPath1); fill:none;" y2="67" />
      <rect x="23" y="23" width="87" style="clip-path:url(#clipPath1); fill:navy; stroke:none;" height="116" />
      <rect x="20" y="20" width="87" style="clip-path:url(#clipPath1); fill:white; stroke:none;" height="116" />
      <rect x="20" y="20" width="87" style="clip-path:url(#clipPath1); fill:none; stroke:black;" height="116" />
    </g>
    <g style="font-family:sans-serif;">
      <text x="48" y="33" style="clip-path:url(#clipPath3); stroke:none;">struct
      </text>
      <text x="25" y="48" style="clip-path:url(#clipPath3); font-weight:bold; stroke:none;">coordinate t
      </text>
    </g>
    <g>
      <line x1="20" x2="107" y1="57" style="clip-path:url(#clipPath2); fill:none;" y2="57" />
    </g>
    <g style="font-family:sans-serif;">
      <text x="26" y="78" style="clip-path:url(#clipPath5); stroke:none;">+x:int
      </text>
      <text x="26" y="93" style="clip-path:url(#clipPath5); stroke:none;">+y:int
      </text>
    </g>
    <g>
      <line x1="20" x2="107" y1="103" style="clip-path:url(#clipPath2); fill:none;" y2="103" />
    </g>
    <g style="fill:navy; stroke:navy;">
      <rect x="186" y="23" width="149" style="clip-path:url(#clipPath1); stroke:none;" height="101" />
      <rect x="183" y="20" width="149" style="clip-path:url(#clipPath1); fill:white; stroke:none;" height="101" />
      <rect x="183" y="20" width="149" style="clip-path:url(#clipPath1); fill:none; stroke:black;" height="101" />
    </g>
    <g style="font-family:sans-serif;">
      <text x="242" y="33" style="clip-path:url(#clipPath7); stroke:none;">struct
      </text>
      <text x="228" y="48" style="clip-path:url(#clipPath7); font-weight:bold; stroke:none;">triangle t
      </text>
    </g>
    <g>
      <line x1="183" x2="332" y1="57" style="clip-path:url(#clipPath6); fill:none;" y2="57" />
    </g>
    <g style="font-family:sans-serif;">
      <text x="189" y="78" style="clip-path:url(#clipPath9); stroke:none;">+corner:coordinate_t[3]
      </text>
    </g>
    <g>
      <line x1="183" x2="332" y1="88" style="clip-path:url(#clipPath6); fill:none;" y2="88" />
    </g>
    <g style="fill:navy; stroke:navy;">
      <rect x="503" y="153" width="89" style="clip-path:url(#clipPath1); stroke:none;" height="118" />
      <rect x="500" y="150" width="89" style="clip-path:url(#clipPath1); fill:white; stroke:none;" height="118" />
      <rect x="500" y="150" width="89" style="clip-path:url(#clipPath1); fill:none; stroke:black;" height="118" />
    </g>
    <g style="font-weight:bold; font-family:sans-serif;">
      <text x="505" y="163" style="clip-path:url(#clipPath11); stroke:none;">CCoordinate
      </text>
    </g>
    <g>
      <line x1="500" x2="589" y1="172" style="clip-path:url(#clipPath10); fill:none;" y2="172" />
    </g>
    <g style="font-family:sans-serif;">
      <text x="506" y="193" style="clip-path:url(#clipPath13); stroke:none;">-m_x:int
      </text>
      <text x="506" y="208" style="clip-path:url(#clipPath13); stroke:none;">-m_y:int
      </text>
    </g>
    <g>
      <line x1="500" x2="589" y1="218" style="clip-path:url(#clipPath10); fill:none;" y2="218" />
    </g>
    <g style="font-family:sans-serif;">
      <text x="506" y="239" style="clip-path:url(#clipPath15); stroke:none;">+print:void
      </text>
      <text x="506" y="254" style="clip-path:url(#clipPath15); stroke:none;">+set:void
      </text>
    </g>
    <g style="fill:navy; stroke:navy;">
      <rect x="233" y="146" width="187" style="clip-path:url(#clipPath1); stroke:none;" height="88" />
      <rect x="230" y="143" width="187" style="clip-path:url(#clipPath1); fill:white; stroke:none;" height="88" />
      <rect x="230" y="143" width="187" style="clip-path:url(#clipPath1); fill:none; stroke:black;" height="88" />
    </g>
    <g style="font-weight:bold; font-family:sans-serif;">
      <text x="293" y="156" style="clip-path:url(#clipPath17); stroke:none;">CTriangle
      </text>
    </g>
    <g>
      <line x1="230" x2="417" y1="165" style="clip-path:url(#clipPath16); fill:none;" y2="165" />
    </g>
    <g style="font-family:sans-serif;">
      <text x="236" y="186" style="clip-path:url(#clipPath19); stroke:none;">-m_coordinate:CCoordinate[3]
      </text>
    </g>
    <g>
      <line x1="230" x2="417" y1="196" style="clip-path:url(#clipPath16); fill:none;" y2="196" />
    </g>
    <g style="font-family:sans-serif;">
      <text x="236" y="217" style="clip-path:url(#clipPath21); stroke:none;">+print:void
      </text>
    </g>
  </g>
</svg>
