<?xml version="1.0" encoding="UTF-8"?>

<!DOCTYPE svg PUBLIC '-//W3C//DTD SVG 20001102//EN' 'http://www.w3.org/TR/2000/CR-SVG-20001102/DTD/svg-20001102.dtd'>
<svg style="fill-opacity:1; color-rendering:auto; color-interpolation:sRGB; text-rendering:auto; stroke:black; stroke-linecap:square; stroke-miterlimit:10; shape-rendering:auto; stroke-opacity:1; fill:black; stroke-dasharray:none; font-weight:normal; stroke-width:1; font-family:&apos;sansserif&apos;; font-style:normal; stroke-linejoin:miter; font-size:12; stroke-dashoffset:0; image-rendering:auto;" width="390" height="537">
  <!--Generated by the Batik Graphics2D SVG Generator-->
  <defs id="genericDefs" />
  <g>
    <defs id="defs1">
      <clipPath clipPathUnits="userSpaceOnUse" id="clipPath1">
        <path d="M0 0 L390 0 L390 537 L0 537 L0 0 Z" />
      </clipPath>
      <clipPath clipPathUnits="userSpaceOnUse" id="clipPath2">
        <path d="M20 270 L20 464 L138 464 L138 270 Z" />
      </clipPath>
      <clipPath clipPathUnits="userSpaceOnUse" id="clipPath3">
        <path d="M21 271 L21 287 L138 287 L138 271 Z" />
      </clipPath>
      <clipPath clipPathUnits="userSpaceOnUse" id="clipPath4">
        <path d="M20 299 L20 318 L138 318 L138 299 Z" />
      </clipPath>
      <clipPath clipPathUnits="userSpaceOnUse" id="clipPath5">
        <path d="M22 301 L22 317 L137 317 L137 301 Z" />
      </clipPath>
      <clipPath clipPathUnits="userSpaceOnUse" id="clipPath6">
        <path d="M20 330 L20 454 L138 454 L138 330 Z" />
      </clipPath>
      <clipPath clipPathUnits="userSpaceOnUse" id="clipPath7">
        <path d="M22 332 L22 453 L137 453 L137 332 Z" />
      </clipPath>
      <clipPath clipPathUnits="userSpaceOnUse" id="clipPath8">
        <path d="M118 20 L118 199 L259 199 L259 20 Z" />
      </clipPath>
      <clipPath clipPathUnits="userSpaceOnUse" id="clipPath9">
        <path d="M119 21 L119 37 L259 37 L259 21 Z" />
      </clipPath>
      <clipPath clipPathUnits="userSpaceOnUse" id="clipPath10">
        <path d="M118 49 L118 98 L259 98 L259 49 Z" />
      </clipPath>
      <clipPath clipPathUnits="userSpaceOnUse" id="clipPath11">
        <path d="M120 51 L120 97 L258 97 L258 51 Z" />
      </clipPath>
      <clipPath clipPathUnits="userSpaceOnUse" id="clipPath12">
        <path d="M118 110 L118 189 L259 189 L259 110 Z" />
      </clipPath>
      <clipPath clipPathUnits="userSpaceOnUse" id="clipPath13">
        <path d="M120 112 L120 188 L258 188 L258 112 Z" />
      </clipPath>
      <clipPath clipPathUnits="userSpaceOnUse" id="clipPath14">
        <path d="M220 270 L220 524 L377 524 L377 270 Z" />
      </clipPath>
      <clipPath clipPathUnits="userSpaceOnUse" id="clipPath15">
        <path d="M221 271 L221 287 L377 287 L377 271 Z" />
      </clipPath>
      <clipPath clipPathUnits="userSpaceOnUse" id="clipPath16">
        <path d="M220 299 L220 333 L377 333 L377 299 Z" />
      </clipPath>
      <clipPath clipPathUnits="userSpaceOnUse" id="clipPath17">
        <path d="M222 301 L222 332 L376 332 L376 301 Z" />
      </clipPath>
      <clipPath clipPathUnits="userSpaceOnUse" id="clipPath18">
        <path d="M220 345 L220 514 L377 514 L377 345 Z" />
      </clipPath>
      <clipPath clipPathUnits="userSpaceOnUse" id="clipPath19">
        <path d="M222 347 L222 513 L376 513 L376 347 Z" />
      </clipPath>
    </defs>
    <g style="fill:blue; stroke:blue;">
      <line x1="195" x2="299" y1="201" style="clip-path:url(#clipPath1); fill:none;" y2="270" />
      <line x1="140" x2="150" y1="368" style="clip-path:url(#clipPath1); fill:none; stroke:rgb(0,0,130);" y2="368" />
      <line x1="155" x2="165" y1="368" style="clip-path:url(#clipPath1); fill:none; stroke:rgb(0,0,130);" y2="368" />
      <line x1="170" x2="180" y1="368" style="clip-path:url(#clipPath1); fill:none; stroke:rgb(0,0,130);" y2="368" />
      <line x1="185" x2="195" y1="368" style="clip-path:url(#clipPath1); fill:none; stroke:rgb(0,0,130);" y2="368" />
      <line x1="200" x2="210" y1="368" style="clip-path:url(#clipPath1); fill:none; stroke:rgb(0,0,130);" y2="368" />
      <line x1="215" x2="220" y1="368" style="clip-path:url(#clipPath1); fill:none; stroke:rgb(0,0,130);" y2="368" />
      <line x1="129" x2="129" y1="270" style="clip-path:url(#clipPath1); fill:none; stroke:rgb(0,0,130);" y2="201" />
      <line x1="299" x2="292" y1="270" style="clip-path:url(#clipPath1); fill:none;" y2="259" />
      <line x1="299" x2="286" y1="270" style="clip-path:url(#clipPath1); fill:none;" y2="268" />
      <text x="239" y="263" style="clip-path:url(#clipPath1); font-family:sans-serif; stroke:none;">0..1
      </text>
      <line x1="220" x2="208" y1="368" style="clip-path:url(#clipPath1); fill:none; font-family:sans-serif; stroke:rgb(0,0,130);" y2="363" />
      <line x1="220" x2="208" y1="368" style="clip-path:url(#clipPath1); fill:none; font-family:sans-serif; stroke:rgb(0,0,130);" y2="373" />
      <polygon points=" 129 270 125 262 129 254 133 262" style="fill:white; clip-path:url(#clipPath1); font-family:sans-serif; stroke:none;" />
      <polygon points=" 129 270 125 262 129 254 133 262" style="fill:none; clip-path:url(#clipPath1); font-family:sans-serif; stroke:rgb(0,0,130);" />
      <line x1="133" x2="129" y1="262" style="clip-path:url(#clipPath1); fill:none; font-family:sans-serif; stroke:rgb(0,0,130);" y2="270" />
      <line x1="129" x2="124" y1="201" style="clip-path:url(#clipPath1); fill:none; font-family:sans-serif; stroke:rgb(0,0,130);" y2="213" />
      <line x1="129" x2="134" y1="201" style="clip-path:url(#clipPath1); fill:none; font-family:sans-serif; stroke:rgb(0,0,130);" y2="213" />
      <rect x="23" y="273" width="117" style="clip-path:url(#clipPath1); fill:navy; font-family:sans-serif; stroke:none;" height="193" />
      <rect x="20" y="270" width="117" style="clip-path:url(#clipPath1); fill:white; font-family:sans-serif; stroke:none;" height="193" />
      <rect x="20" y="270" width="117" style="clip-path:url(#clipPath1); fill:none; font-family:sans-serif; stroke:black;" height="193" />
    </g>
    <g style="font-weight:bold; font-family:sans-serif;">
      <text x="29" y="283" style="clip-path:url(#clipPath3); stroke:none;">CRpnCalculator
      </text>
    </g>
    <g style="font-family:sans-serif;">
      <line x1="20" x2="137" y1="292" style="clip-path:url(#clipPath2); fill:none;" y2="292" />
    </g>
    <g style="font-family:sans-serif;">
      <text x="26" y="313" style="clip-path:url(#clipPath5); stroke:none;">-stack:CLifoBuffer
      </text>
    </g>
    <g style="font-family:sans-serif;">
      <line x1="20" x2="137" y1="323" style="clip-path:url(#clipPath2); fill:none;" y2="323" />
    </g>
    <g style="font-family:sans-serif;">
      <text x="26" y="344" style="clip-path:url(#clipPath7); stroke:none;">+CRpnCalculator
      </text>
      <text x="26" y="359" style="clip-path:url(#clipPath7); stroke:none;">+~CRpnCalculator
      </text>
      <text x="26" y="374" style="clip-path:url(#clipPath7); stroke:none;">+pushValue:bool
      </text>
      <text x="26" y="389" style="clip-path:url(#clipPath7); stroke:none;">+popResult:bool
      </text>
      <text x="26" y="404" style="clip-path:url(#clipPath7); stroke:none;">+add:void
      </text>
      <text x="26" y="419" style="clip-path:url(#clipPath7); stroke:none;">+substract:void
      </text>
      <text x="26" y="434" style="clip-path:url(#clipPath7); stroke:none;">+multiply:void
      </text>
      <text x="26" y="449" style="clip-path:url(#clipPath7); stroke:none;">+divide:void
      </text>
    </g>
    <g style="fill:navy; font-family:sans-serif; stroke:navy;">
      <rect x="121" y="23" width="140" style="clip-path:url(#clipPath1); stroke:none;" height="178" />
      <rect x="118" y="20" width="140" style="clip-path:url(#clipPath1); fill:white; stroke:none;" height="178" />
      <rect x="118" y="20" width="140" style="clip-path:url(#clipPath1); fill:none; stroke:black;" height="178" />
    </g>
    <g style="font-weight:bold; font-family:sans-serif;">
      <text x="152" y="33" style="clip-path:url(#clipPath9); stroke:none;">CLifoBuffer
      </text>
    </g>
    <g style="font-family:sans-serif;">
      <line x1="118" x2="258" y1="42" style="clip-path:url(#clipPath8); fill:none;" y2="42" />
    </g>
    <g style="font-family:sans-serif;">
      <text x="124" y="63" style="clip-path:url(#clipPath11); stroke:none;">-m_size:int
      </text>
      <text x="124" y="78" style="clip-path:url(#clipPath11); stroke:none;">-m_tos:int
      </text>
      <text x="124" y="93" style="clip-path:url(#clipPath11); stroke:none;">-m_pBuffer:CFraction*
      </text>
    </g>
    <g style="font-family:sans-serif;">
      <line x1="118" x2="258" y1="103" style="clip-path:url(#clipPath8); fill:none;" y2="103" />
    </g>
    <g style="font-family:sans-serif;">
      <text x="124" y="124" style="clip-path:url(#clipPath13); stroke:none;">+CLifoBuffer
      </text>
      <text x="124" y="139" style="clip-path:url(#clipPath13); stroke:none;">+~CLifoBuffer
      </text>
      <text x="124" y="154" style="clip-path:url(#clipPath13); stroke:none;">+print:void
      </text>
      <text x="124" y="169" style="clip-path:url(#clipPath13); stroke:none;">+push:bool
      </text>
      <text x="124" y="184" style="clip-path:url(#clipPath13); stroke:none;">+pop:bool
      </text>
    </g>
    <g style="fill:navy; font-family:sans-serif; stroke:navy;">
      <rect x="223" y="273" width="156" style="clip-path:url(#clipPath1); stroke:none;" height="253" />
      <rect x="220" y="270" width="156" style="clip-path:url(#clipPath1); fill:white; stroke:none;" height="253" />
      <rect x="220" y="270" width="156" style="clip-path:url(#clipPath1); fill:none; stroke:black;" height="253" />
    </g>
    <g style="font-weight:bold; font-family:sans-serif;">
      <text x="268" y="283" style="clip-path:url(#clipPath15); stroke:none;">CFraction
      </text>
    </g>
    <g style="font-family:sans-serif;">
      <line x1="220" x2="376" y1="292" style="clip-path:url(#clipPath14); fill:none;" y2="292" />
    </g>
    <g style="font-family:sans-serif;">
      <text x="226" y="313" style="clip-path:url(#clipPath17); stroke:none;">-m_numerator:long
      </text>
      <text x="226" y="328" style="clip-path:url(#clipPath17); stroke:none;">-m_denominator:long
      </text>
    </g>
    <g style="font-family:sans-serif;">
      <line x1="220" x2="376" y1="338" style="clip-path:url(#clipPath14); fill:none;" y2="338" />
    </g>
    <g style="font-family:sans-serif;">
      <text x="226" y="359" style="clip-path:url(#clipPath19); stroke:none;">+CFraction
      </text>
      <text x="226" y="374" style="clip-path:url(#clipPath19); stroke:none;">+set:void
      </text>
      <text x="226" y="389" style="clip-path:url(#clipPath19); stroke:none;">+toDouble:double
      </text>
      <text x="226" y="404" style="clip-path:url(#clipPath19); stroke:none;">+print:void
      </text>
      <text x="226" y="419" style="clip-path:url(#clipPath19); stroke:none;">+operator++:CFraction&amp;
      </text>
      <text x="226" y="434" style="clip-path:url(#clipPath19); stroke:none;">+operator++:CFraction
      </text>
      <text x="226" y="449" style="clip-path:url(#clipPath19); stroke:none;">+operator+:CFraction
      </text>
      <text x="226" y="464" style="clip-path:url(#clipPath19); stroke:none;">+operator-:CFraction
      </text>
      <text x="226" y="479" style="clip-path:url(#clipPath19); stroke:none;">+operator*:CFraction
      </text>
      <text x="226" y="494" style="clip-path:url(#clipPath19); stroke:none;">+operator/:CFraction
      </text>
      <text x="226" y="509" style="clip-path:url(#clipPath19); stroke:none;">-shorten:void
      </text>
    </g>
  </g>
</svg>
