<?xml version="1.0" encoding="UTF-8"?>

<!DOCTYPE svg PUBLIC '-//W3C//DTD SVG 20001102//EN' 'http://www.w3.org/TR/2000/CR-SVG-20001102/DTD/svg-20001102.dtd'>
<svg style="fill-opacity:1; color-rendering:auto; color-interpolation:sRGB; text-rendering:auto; stroke:black; stroke-linecap:square; stroke-miterlimit:10; shape-rendering:auto; stroke-opacity:1; fill:black; stroke-dasharray:none; font-weight:normal; stroke-width:1; font-family:&apos;sansserif&apos;; font-style:normal; stroke-linejoin:miter; font-size:12; stroke-dashoffset:0; image-rendering:auto;" width="571" height="481">
  <!--Generated by the Batik Graphics2D SVG Generator-->
  <defs id="genericDefs" />
  <g>
    <defs id="defs1">
      <clipPath clipPathUnits="userSpaceOnUse" id="clipPath1">
        <path d="M0 0 L571 0 L571 481 L0 481 L0 0 Z" />
      </clipPath>
      <clipPath clipPathUnits="userSpaceOnUse" id="clipPath2">
        <path d="M20 40 L20 112 L101 112 L101 40 Z" />
      </clipPath>
      <clipPath clipPathUnits="userSpaceOnUse" id="clipPath3">
        <path d="M24 40 L24 56 L97 56 L97 40 Z" />
      </clipPath>
      <clipPath clipPathUnits="userSpaceOnUse" id="clipPath4">
        <path d="M258 30 L258 288 L558 288 L558 30 Z" />
      </clipPath>
      <clipPath clipPathUnits="userSpaceOnUse" id="clipPath5">
        <path d="M259 31 L259 47 L558 47 L558 31 Z" />
      </clipPath>
      <clipPath clipPathUnits="userSpaceOnUse" id="clipPath6">
        <path d="M258 59 L258 123 L558 123 L558 59 Z" />
      </clipPath>
      <clipPath clipPathUnits="userSpaceOnUse" id="clipPath7">
        <path d="M260 61 L260 122 L557 122 L557 61 Z" />
      </clipPath>
      <clipPath clipPathUnits="userSpaceOnUse" id="clipPath8">
        <path d="M258 135 L258 229 L558 229 L558 135 Z" />
      </clipPath>
      <clipPath clipPathUnits="userSpaceOnUse" id="clipPath9">
        <path d="M260 137 L260 228 L557 228 L557 137 Z" />
      </clipPath>
      <clipPath clipPathUnits="userSpaceOnUse" id="clipPath10">
        <path d="M343 321 L343 468 L426 468 L426 321 Z" />
      </clipPath>
      <clipPath clipPathUnits="userSpaceOnUse" id="clipPath11">
        <path d="M344 322 L344 353 L426 353 L426 322 Z" />
      </clipPath>
      <clipPath clipPathUnits="userSpaceOnUse" id="clipPath12">
        <path d="M343 365 L343 429 L426 429 L426 365 Z" />
      </clipPath>
      <clipPath clipPathUnits="userSpaceOnUse" id="clipPath13">
        <path d="M345 367 L345 428 L425 428 L425 367 Z" />
      </clipPath>
    </defs>
    <g style="fill:rgb(0,0,130); stroke:rgb(0,0,130);">
      <line x1="384" x2="384" y1="290" style="clip-path:url(#clipPath1); fill:none;" y2="300" />
      <line x1="384" x2="384" y1="305" style="clip-path:url(#clipPath1); fill:none;" y2="315" />
      <line x1="384" x2="384" y1="320" style="clip-path:url(#clipPath1); fill:none;" y2="321" />
      <line x1="384" x2="389" y1="321" style="clip-path:url(#clipPath1); fill:none;" y2="309" />
      <line x1="384" x2="379" y1="321" style="clip-path:url(#clipPath1); fill:none;" y2="309" />
      <rect x="23" y="43" width="80" style="clip-path:url(#clipPath1); fill:navy; stroke:none;" height="71" />
      <rect x="23" y="23" width="32" style="clip-path:url(#clipPath1); fill:navy; stroke:none;" height="20" />
      <rect x="20" y="40" width="80" style="clip-path:url(#clipPath1); fill:white; stroke:none;" height="71" />
      <rect x="20" y="20" width="32" style="clip-path:url(#clipPath1); fill:white; stroke:none;" height="20" />
      <rect x="20" y="40" width="80" style="clip-path:url(#clipPath1); fill:none; stroke:black;" height="71" />
      <rect x="20" y="20" width="32" style="clip-path:url(#clipPath1); fill:none; stroke:black;" height="20" />
    </g>
    <g style="font-weight:bold; font-family:sans-serif;">
      <text x="40" y="52" style="clip-path:url(#clipPath3); stroke:none;">model
      </text>
    </g>
    <g>
      <line x1="20" x2="100" y1="61" style="clip-path:url(#clipPath2); fill:none;" y2="61" />
      <line x1="20" x2="100" y1="84" style="clip-path:url(#clipPath2); fill:none;" y2="84" />
    </g>
    <g style="fill:navy; stroke:navy;">
      <rect x="261" y="33" width="299" style="clip-path:url(#clipPath1); stroke:none;" height="257" />
      <rect x="258" y="30" width="299" style="clip-path:url(#clipPath1); fill:white; stroke:none;" height="257" />
      <rect x="258" y="30" width="299" style="clip-path:url(#clipPath1); fill:none; stroke:black;" height="257" />
    </g>
    <g style="font-weight:bold; font-family:sans-serif;">
      <text x="383" y="43" style="clip-path:url(#clipPath5); stroke:none;">CMatrix
      </text>
    </g>
    <g>
      <line x1="258" x2="557" y1="52" style="clip-path:url(#clipPath4); fill:none;" y2="52" />
    </g>
    <g style="font-family:sans-serif;">
      <text x="264" y="73" style="clip-path:url(#clipPath7); stroke:none;">-m_pData:matrixdata_t*
      </text>
      <text x="264" y="88" style="clip-path:url(#clipPath7); stroke:none;">-m_noColumns:unsigned short
      </text>
      <text x="264" y="103" style="clip-path:url(#clipPath7); stroke:none;">-m_count:int
      </text>
      <line x1="264" x2="337" y1="105" style="clip-path:url(#clipPath7); fill:none;" y2="105" />
      <text x="264" y="118" style="clip-path:url(#clipPath7); stroke:none;">-m_noRows:unsigned short
      </text>
    </g>
    <g>
      <line x1="258" x2="557" y1="128" style="clip-path:url(#clipPath4); fill:none;" y2="128" />
    </g>
    <g style="font-family:sans-serif;">
      <text x="264" y="149" style="clip-path:url(#clipPath9); stroke:none;">+CMatrix
      </text>
      <text x="264" y="164" style="clip-path:url(#clipPath9); stroke:none;">+CMatrix
      </text>
      <text x="264" y="179" style="clip-path:url(#clipPath9); stroke:none;">+~CMatrix
      </text>
      <text x="264" y="194" style="clip-path:url(#clipPath9); stroke:none;">+print:void
      </text>
      <text x="264" y="209" style="clip-path:url(#clipPath9); stroke:none;">+set:bool
      </text>
      <text x="264" y="224" style="clip-path:url(#clipPath9); stroke:none;">-getIndex:unsigned int
      </text>
    </g>
    <g style="fill:navy; stroke:navy;">
      <rect x="346" y="324" width="82" style="clip-path:url(#clipPath1); stroke:none;" height="146" />
      <rect x="343" y="321" width="82" style="clip-path:url(#clipPath1); fill:white; stroke:none;" height="146" />
      <rect x="343" y="321" width="82" style="clip-path:url(#clipPath1); fill:none; stroke:black;" height="146" />
    </g>
    <g style="font-family:sans-serif;">
      <text x="368" y="334" style="clip-path:url(#clipPath11); stroke:none;">enum
      </text>
      <text x="348" y="349" style="clip-path:url(#clipPath11); font-weight:bold; stroke:none;">matrixInit t
      </text>
    </g>
    <g>
      <line x1="343" x2="425" y1="358" style="clip-path:url(#clipPath10); fill:none;" y2="358" />
    </g>
    <g style="font-family:sans-serif;">
      <text x="349" y="379" style="clip-path:url(#clipPath13); stroke:none;">+ZERO:int
      </text>
      <text x="349" y="394" style="clip-path:url(#clipPath13); stroke:none;">+ONE:int
      </text>
      <text x="349" y="409" style="clip-path:url(#clipPath13); stroke:none;">+UNIT:int
      </text>
      <text x="349" y="424" style="clip-path:url(#clipPath13); stroke:none;">+INDEX:int
      </text>
    </g>
    <g>
      <line x1="343" x2="425" y1="434" style="clip-path:url(#clipPath10); fill:none;" y2="434" />
    </g>
  </g>
</svg>
