<?xml version="1.0" encoding="UTF-8"?>

<!DOCTYPE svg PUBLIC '-//W3C//DTD SVG 20001102//EN' 'http://www.w3.org/TR/2000/CR-SVG-20001102/DTD/svg-20001102.dtd'>
<svg style="fill-opacity:1; color-rendering:auto; color-interpolation:sRGB; text-rendering:auto; stroke:black; stroke-linecap:square; stroke-miterlimit:10; shape-rendering:auto; stroke-opacity:1; fill:black; stroke-dasharray:none; font-weight:normal; stroke-width:1; font-family:&apos;sansserif&apos;; font-style:normal; stroke-linejoin:miter; font-size:12; stroke-dashoffset:0; image-rendering:auto;" width="531" height="481">
  <!--Generated by the Batik Graphics2D SVG Generator-->
  <defs id="genericDefs" />
  <g>
    <defs id="defs1">
      <clipPath clipPathUnits="userSpaceOnUse" id="clipPath1">
        <path d="M0 0 L531 0 L531 481 L0 481 L0 0 Z" />
      </clipPath>
      <clipPath clipPathUnits="userSpaceOnUse" id="clipPath2">
        <path d="M20 40 L20 112 L101 112 L101 40 Z" />
      </clipPath>
      <clipPath clipPathUnits="userSpaceOnUse" id="clipPath3">
        <path d="M24 40 L24 56 L97 56 L97 40 Z" />
      </clipPath>
      <clipPath clipPathUnits="userSpaceOnUse" id="clipPath4">
        <path d="M258 96 L258 288 L518 288 L518 96 Z" />
      </clipPath>
      <clipPath clipPathUnits="userSpaceOnUse" id="clipPath5">
        <path d="M259 97 L259 113 L518 113 L518 97 Z" />
      </clipPath>
      <clipPath clipPathUnits="userSpaceOnUse" id="clipPath6">
        <path d="M258 125 L258 174 L518 174 L518 125 Z" />
      </clipPath>
      <clipPath clipPathUnits="userSpaceOnUse" id="clipPath7">
        <path d="M260 127 L260 173 L517 173 L517 127 Z" />
      </clipPath>
      <clipPath clipPathUnits="userSpaceOnUse" id="clipPath8">
        <path d="M258 186 L258 250 L518 250 L518 186 Z" />
      </clipPath>
      <clipPath clipPathUnits="userSpaceOnUse" id="clipPath9">
        <path d="M260 188 L260 249 L517 249 L517 188 Z" />
      </clipPath>
      <clipPath clipPathUnits="userSpaceOnUse" id="clipPath10">
        <path d="M343 321 L343 468 L426 468 L426 321 Z" />
      </clipPath>
      <clipPath clipPathUnits="userSpaceOnUse" id="clipPath11">
        <path d="M344 322 L344 353 L426 353 L426 322 Z" />
      </clipPath>
      <clipPath clipPathUnits="userSpaceOnUse" id="clipPath12">
        <path d="M343 365 L343 429 L426 429 L426 365 Z" />
      </clipPath>
      <clipPath clipPathUnits="userSpaceOnUse" id="clipPath13">
        <path d="M345 367 L345 428 L425 428 L425 367 Z" />
      </clipPath>
    </defs>
    <g style="fill:rgb(0,0,130); stroke:rgb(0,0,130);">
      <line x1="384" x2="384" y1="290" style="clip-path:url(#clipPath1); fill:none;" y2="300" />
      <line x1="384" x2="384" y1="305" style="clip-path:url(#clipPath1); fill:none;" y2="315" />
      <line x1="384" x2="384" y1="320" style="clip-path:url(#clipPath1); fill:none;" y2="321" />
      <line x1="384" x2="389" y1="321" style="clip-path:url(#clipPath1); fill:none;" y2="309" />
      <line x1="384" x2="379" y1="321" style="clip-path:url(#clipPath1); fill:none;" y2="309" />
      <rect x="23" y="43" width="80" style="clip-path:url(#clipPath1); fill:navy; stroke:none;" height="71" />
      <rect x="23" y="23" width="32" style="clip-path:url(#clipPath1); fill:navy; stroke:none;" height="20" />
      <rect x="20" y="40" width="80" style="clip-path:url(#clipPath1); fill:white; stroke:none;" height="71" />
      <rect x="20" y="20" width="32" style="clip-path:url(#clipPath1); fill:white; stroke:none;" height="20" />
      <rect x="20" y="40" width="80" style="clip-path:url(#clipPath1); fill:none; stroke:black;" height="71" />
      <rect x="20" y="20" width="32" style="clip-path:url(#clipPath1); fill:none; stroke:black;" height="20" />
    </g>
    <g style="font-weight:bold; font-family:sans-serif;">
      <text x="40" y="52" style="clip-path:url(#clipPath3); stroke:none;">model
      </text>
    </g>
    <g>
      <line x1="20" x2="100" y1="61" style="clip-path:url(#clipPath2); fill:none;" y2="61" />
      <line x1="20" x2="100" y1="84" style="clip-path:url(#clipPath2); fill:none;" y2="84" />
    </g>
    <g style="fill:navy; stroke:navy;">
      <rect x="261" y="99" width="259" style="clip-path:url(#clipPath1); stroke:none;" height="191" />
      <rect x="258" y="96" width="259" style="clip-path:url(#clipPath1); fill:white; stroke:none;" height="191" />
      <rect x="258" y="96" width="259" style="clip-path:url(#clipPath1); fill:none; stroke:black;" height="191" />
    </g>
    <g style="font-weight:bold; font-family:sans-serif;">
      <text x="363" y="109" style="clip-path:url(#clipPath5); stroke:none;">CMatrix
      </text>
    </g>
    <g>
      <line x1="258" x2="517" y1="118" style="clip-path:url(#clipPath4); fill:none;" y2="118" />
    </g>
    <g style="font-family:sans-serif;">
      <text x="264" y="139" style="clip-path:url(#clipPath7); stroke:none;">-m_pData:matrixdata_t*
      </text>
      <text x="264" y="154" style="clip-path:url(#clipPath7); stroke:none;">-m_noColumns:unsigned short
      </text>
      <text x="264" y="169" style="clip-path:url(#clipPath7); stroke:none;">-m_noRows:unsigned short
      </text>
    </g>
    <g>
      <line x1="258" x2="517" y1="179" style="clip-path:url(#clipPath4); fill:none;" y2="179" />
    </g>
    <g style="font-family:sans-serif;">
      <text x="264" y="200" style="clip-path:url(#clipPath9); stroke:none;">+CMatrix
      </text>
      <text x="264" y="215" style="clip-path:url(#clipPath9); stroke:none;">+print:void
      </text>
      <text x="264" y="230" style="clip-path:url(#clipPath9); stroke:none;">+~CMatrix
      </text>
      <text x="264" y="245" style="clip-path:url(#clipPath9); stroke:none;">-getIndex:unsigned int
      </text>
    </g>
    <g style="fill:navy; stroke:navy;">
      <rect x="346" y="324" width="82" style="clip-path:url(#clipPath1); stroke:none;" height="146" />
      <rect x="343" y="321" width="82" style="clip-path:url(#clipPath1); fill:white; stroke:none;" height="146" />
      <rect x="343" y="321" width="82" style="clip-path:url(#clipPath1); fill:none; stroke:black;" height="146" />
    </g>
    <g style="font-family:sans-serif;">
      <text x="368" y="334" style="clip-path:url(#clipPath11); stroke:none;">enum
      </text>
      <text x="348" y="349" style="clip-path:url(#clipPath11); font-weight:bold; stroke:none;">matrixInit t
      </text>
    </g>
    <g>
      <line x1="343" x2="425" y1="358" style="clip-path:url(#clipPath10); fill:none;" y2="358" />
    </g>
    <g style="font-family:sans-serif;">
      <text x="349" y="379" style="clip-path:url(#clipPath13); stroke:none;">+ZERO:int
      </text>
      <text x="349" y="394" style="clip-path:url(#clipPath13); stroke:none;">+ONE:int
      </text>
      <text x="349" y="409" style="clip-path:url(#clipPath13); stroke:none;">+UNIT:int
      </text>
      <text x="349" y="424" style="clip-path:url(#clipPath13); stroke:none;">+INDEX:int
      </text>
    </g>
    <g>
      <line x1="343" x2="425" y1="434" style="clip-path:url(#clipPath10); fill:none;" y2="434" />
    </g>
  </g>
</svg>
