<?xml version="1.0" encoding="UTF-8"?>

<!DOCTYPE svg PUBLIC '-//W3C//DTD SVG 20001102//EN' 'http://www.w3.org/TR/2000/CR-SVG-20001102/DTD/svg-20001102.dtd'>
<svg style="fill-opacity:1; color-rendering:auto; color-interpolation:sRGB; text-rendering:auto; stroke:black; stroke-linecap:square; stroke-miterlimit:10; shape-rendering:auto; stroke-opacity:1; fill:black; stroke-dasharray:none; font-weight:normal; stroke-width:1; font-family:&apos;sansserif&apos;; font-style:normal; stroke-linejoin:miter; font-size:12; stroke-dashoffset:0; image-rendering:auto;" width="442" height="298">
  <!--Generated by the Batik Graphics2D SVG Generator-->
  <defs id="genericDefs" />
  <g>
    <defs id="defs1">
      <clipPath clipPathUnits="userSpaceOnUse" id="clipPath1">
        <path d="M0 0 L442 0 L442 298 L0 298 L0 0 Z" />
      </clipPath>
      <clipPath clipPathUnits="userSpaceOnUse" id="clipPath2">
        <path d="M10 60 L10 138 L91 138 L91 60 Z" />
      </clipPath>
      <clipPath clipPathUnits="userSpaceOnUse" id="clipPath3">
        <path d="M10 65 L10 118 L91 118 L91 65 Z" />
      </clipPath>
      <clipPath clipPathUnits="userSpaceOnUse" id="clipPath4">
        <path d="M10 117 L10 138 L91 138 L91 117 Z" />
      </clipPath>
      <clipPath clipPathUnits="userSpaceOnUse" id="clipPath5">
        <path d="M176 13 L176 29 L262 29 L262 13 Z" />
      </clipPath>
      <clipPath clipPathUnits="userSpaceOnUse" id="clipPath6">
        <path d="M318 248 L318 264 L410 264 L410 248 Z" />
      </clipPath>
      <clipPath clipPathUnits="userSpaceOnUse" id="clipPath7">
        <path d="M253 141 L253 157 L398 157 L398 141 Z" />
      </clipPath>
      <clipPath clipPathUnits="userSpaceOnUse" id="clipPath8">
        <path d="M173 266 L173 282 L259 282 L259 266 Z" />
      </clipPath>
      <clipPath clipPathUnits="userSpaceOnUse" id="clipPath9">
        <path d="M278 92 L278 108 L401 108 L401 92 Z" />
      </clipPath>
    </defs>
    <g style="fill:navy; stroke:navy;">
      <polygon style="clip-path:url(#clipPath3); stroke:none;" points=" 52 84 52 89 66 89 66 91 52 91 52 102 66 116 66 117 64 117 51 104 38 117 36 117 36 116 50 102 50 91 36 91 36 89 50 89 50 84 52 84" />
      <circle style="clip-path:url(#clipPath3); stroke:none;" r="8" cx="51" cy="76" />
      <polygon style="fill:white; clip-path:url(#clipPath3); stroke:none;" points=" 49 81 49 86 63 86 63 88 49 88 49 99 63 113 63 114 61 114 48 101 35 114 33 114 33 113 47 99 47 88 33 88 33 86 47 86 47 81 49 81" />
      <circle style="clip-path:url(#clipPath3); fill:white; stroke:none;" r="8" cx="48" cy="73" />
      <polygon style="fill:none; clip-path:url(#clipPath3); stroke:black;" points=" 49 81 49 86 63 86 63 88 49 88 49 99 63 113 63 114 61 114 48 101 35 114 33 114 33 113 47 99 47 88 33 88 33 86 47 86 47 81 49 81" />
      <circle style="clip-path:url(#clipPath3); fill:none; stroke:black;" r="8" cx="48" cy="73" />
    </g>
    <g style="font-family:sans-serif;">
      <text x="14" y="129" style="clip-path:url(#clipPath4); stroke:none;">Programmer
      </text>
    </g>
    <g style="fill:navy; stroke:navy;">
      <ellipse style="clip-path:url(#clipPath1); stroke:none;" rx="60" cx="221" ry="10.5" cy="23.5" />
      <ellipse style="clip-path:url(#clipPath1); fill:white; stroke:none;" rx="60" cx="218" ry="10.5" cy="20.5" />
      <ellipse style="clip-path:url(#clipPath1); fill:none; stroke:black;" rx="60" cx="218" ry="10.5" cy="20.5" />
    </g>
    <g style="font-family:sans-serif;">
      <text x="180" y="25" style="clip-path:url(#clipPath5); stroke:none;">create matrix
      </text>
    </g>
    <g style="fill:navy; stroke:navy;">
      <ellipse style="clip-path:url(#clipPath1); stroke:none;" rx="64.5" cx="366.5" ry="10.5" cy="258.5" />
      <ellipse style="clip-path:url(#clipPath1); fill:white; stroke:none;" rx="64.5" cx="363.5" ry="10.5" cy="255.5" />
      <ellipse style="clip-path:url(#clipPath1); fill:none; stroke:black;" rx="64.5" cx="363.5" ry="10.5" cy="255.5" />
    </g>
    <g style="font-family:sans-serif;">
      <text x="322" y="260" style="clip-path:url(#clipPath6); stroke:none;">mutiply matrix
      </text>
    </g>
    <g style="fill:navy; stroke:navy;">
      <ellipse style="clip-path:url(#clipPath1); stroke:none;" rx="102" cx="328" ry="10.5" cy="151.5" />
      <ellipse style="clip-path:url(#clipPath1); fill:white; stroke:none;" rx="102" cx="325" ry="10.5" cy="148.5" />
      <ellipse style="clip-path:url(#clipPath1); fill:none; stroke:black;" rx="102" cx="325" ry="10.5" cy="148.5" />
    </g>
    <g style="font-family:sans-serif;">
      <text x="257" y="153" style="clip-path:url(#clipPath7); stroke:none;">set values inside matrix
      </text>
    </g>
    <g style="fill:navy; stroke:navy;">
      <ellipse style="clip-path:url(#clipPath1); stroke:none;" rx="60" cx="218" ry="10.5" cy="276.5" />
      <ellipse style="clip-path:url(#clipPath1); fill:white; stroke:none;" rx="60" cx="215" ry="10.5" cy="273.5" />
      <ellipse style="clip-path:url(#clipPath1); fill:none; stroke:black;" rx="60" cx="215" ry="10.5" cy="273.5" />
    </g>
    <g style="font-family:sans-serif;">
      <text x="177" y="278" style="clip-path:url(#clipPath8); stroke:none;">delete matrix
      </text>
    </g>
    <g style="fill:navy; stroke:navy;">
      <ellipse style="clip-path:url(#clipPath1); stroke:none;" rx="86.5" cx="342.5" ry="10.5" cy="102.5" />
      <ellipse style="clip-path:url(#clipPath1); fill:white; stroke:none;" rx="86.5" cx="339.5" ry="10.5" cy="99.5" />
      <ellipse style="clip-path:url(#clipPath1); fill:none; stroke:black;" rx="86.5" cx="339.5" ry="10.5" cy="99.5" />
    </g>
    <g style="font-family:sans-serif;">
      <text x="282" y="104" style="clip-path:url(#clipPath9); stroke:none;">print matrix content
      </text>
    </g>
    <g style="fill:rgb(0,64,64); stroke:rgb(0,64,64);">
      <line x1="90" x2="253" y1="101" style="clip-path:url(#clipPath1); fill:none;" y2="101" />
      <line x1="29" x2="211" y1="137" style="clip-path:url(#clipPath1); fill:none;" y2="263" />
      <line x1="90" x2="223" y1="122" style="clip-path:url(#clipPath1); fill:none;" y2="148" />
      <line x1="49" x2="359" y1="137" style="clip-path:url(#clipPath1); fill:none;" y2="245" />
      <line x1="90" x2="158" y1="75" style="clip-path:url(#clipPath1); fill:none;" y2="24" />
    </g>
  </g>
</svg>
