<?xml version="1.0" encoding="UTF-8"?>

<!DOCTYPE svg PUBLIC '-//W3C//DTD SVG 20001102//EN' 'http://www.w3.org/TR/2000/CR-SVG-20001102/DTD/svg-20001102.dtd'>
<svg style="fill-opacity:1; color-rendering:auto; color-interpolation:sRGB; text-rendering:auto; stroke:black; stroke-linecap:square; stroke-miterlimit:10; shape-rendering:auto; stroke-opacity:1; fill:black; stroke-dasharray:none; font-weight:normal; stroke-width:1; font-family:&apos;sansserif&apos;; font-style:normal; stroke-linejoin:miter; font-size:12; stroke-dashoffset:0; image-rendering:auto;" width="727" height="867">
  <!--Generated by the Batik Graphics2D SVG Generator-->
  <defs id="genericDefs" />
  <g>
    <defs id="defs1">
      <clipPath clipPathUnits="userSpaceOnUse" id="clipPath1">
        <path d="M0 0 L727 0 L727 867 L0 867 L0 0 Z" />
      </clipPath>
      <clipPath clipPathUnits="userSpaceOnUse" id="clipPath2">
        <path d="M20 355 L20 451 L211 451 L211 355 Z" />
      </clipPath>
      <clipPath clipPathUnits="userSpaceOnUse" id="clipPath3">
        <path d="M21 356 L21 372 L211 372 L211 356 Z" />
      </clipPath>
      <clipPath clipPathUnits="userSpaceOnUse" id="clipPath4">
        <path d="M20 407 L20 441 L211 441 L211 407 Z" />
      </clipPath>
      <clipPath clipPathUnits="userSpaceOnUse" id="clipPath5">
        <path d="M22 409 L22 440 L210 440 L210 409 Z" />
      </clipPath>
      <clipPath clipPathUnits="userSpaceOnUse" id="clipPath6">
        <path d="M469 720 L469 854 L618 854 L618 720 Z" />
      </clipPath>
      <clipPath clipPathUnits="userSpaceOnUse" id="clipPath7">
        <path d="M470 721 L470 737 L618 737 L618 721 Z" />
      </clipPath>
      <clipPath clipPathUnits="userSpaceOnUse" id="clipPath8">
        <path d="M469 749 L469 783 L618 783 L618 749 Z" />
      </clipPath>
      <clipPath clipPathUnits="userSpaceOnUse" id="clipPath9">
        <path d="M471 751 L471 782 L617 782 L617 751 Z" />
      </clipPath>
      <clipPath clipPathUnits="userSpaceOnUse" id="clipPath10">
        <path d="M469 795 L469 844 L618 844 L618 795 Z" />
      </clipPath>
      <clipPath clipPathUnits="userSpaceOnUse" id="clipPath11">
        <path d="M471 797 L471 843 L617 843 L617 797 Z" />
      </clipPath>
      <clipPath clipPathUnits="userSpaceOnUse" id="clipPath12">
        <path d="M495 355 L495 639 L693 639 L693 355 Z" />
      </clipPath>
      <clipPath clipPathUnits="userSpaceOnUse" id="clipPath13">
        <path d="M496 356 L496 372 L693 372 L693 356 Z" />
      </clipPath>
      <clipPath clipPathUnits="userSpaceOnUse" id="clipPath14">
        <path d="M495 384 L495 493 L693 493 L693 384 Z" />
      </clipPath>
      <clipPath clipPathUnits="userSpaceOnUse" id="clipPath15">
        <path d="M497 386 L497 492 L692 492 L692 386 Z" />
      </clipPath>
      <clipPath clipPathUnits="userSpaceOnUse" id="clipPath16">
        <path d="M495 505 L495 629 L693 629 L693 505 Z" />
      </clipPath>
      <clipPath clipPathUnits="userSpaceOnUse" id="clipPath17">
        <path d="M497 507 L497 628 L692 628 L692 507 Z" />
      </clipPath>
      <clipPath clipPathUnits="userSpaceOnUse" id="clipPath18">
        <path d="M419 20 L419 214 L617 214 L617 20 Z" />
      </clipPath>
      <clipPath clipPathUnits="userSpaceOnUse" id="clipPath19">
        <path d="M420 21 L420 37 L617 37 L617 21 Z" />
      </clipPath>
      <clipPath clipPathUnits="userSpaceOnUse" id="clipPath20">
        <path d="M419 49 L419 98 L617 98 L617 49 Z" />
      </clipPath>
      <clipPath clipPathUnits="userSpaceOnUse" id="clipPath21">
        <path d="M421 51 L421 97 L616 97 L616 51 Z" />
      </clipPath>
      <clipPath clipPathUnits="userSpaceOnUse" id="clipPath22">
        <path d="M419 110 L419 204 L617 204 L617 110 Z" />
      </clipPath>
      <clipPath clipPathUnits="userSpaceOnUse" id="clipPath23">
        <path d="M421 112 L421 203 L616 203 L616 112 Z" />
      </clipPath>
      <clipPath clipPathUnits="userSpaceOnUse" id="clipPath24">
        <path d="M233 355 L233 489 L413 489 L413 355 Z" />
      </clipPath>
      <clipPath clipPathUnits="userSpaceOnUse" id="clipPath25">
        <path d="M234 356 L234 372 L413 372 L413 356 Z" />
      </clipPath>
      <clipPath clipPathUnits="userSpaceOnUse" id="clipPath26">
        <path d="M233 384 L233 418 L413 418 L413 384 Z" />
      </clipPath>
      <clipPath clipPathUnits="userSpaceOnUse" id="clipPath27">
        <path d="M235 386 L235 417 L412 417 L412 386 Z" />
      </clipPath>
      <clipPath clipPathUnits="userSpaceOnUse" id="clipPath28">
        <path d="M233 430 L233 479 L413 479 L413 430 Z" />
      </clipPath>
      <clipPath clipPathUnits="userSpaceOnUse" id="clipPath29">
        <path d="M235 432 L235 478 L412 478 L412 432 Z" />
      </clipPath>
      <clipPath clipPathUnits="userSpaceOnUse" id="clipPath30">
        <path d="M139 20 L139 274 L337 274 L337 20 Z" />
      </clipPath>
      <clipPath clipPathUnits="userSpaceOnUse" id="clipPath31">
        <path d="M140 21 L140 37 L337 37 L337 21 Z" />
      </clipPath>
      <clipPath clipPathUnits="userSpaceOnUse" id="clipPath32">
        <path d="M139 49 L139 98 L337 98 L337 49 Z" />
      </clipPath>
      <clipPath clipPathUnits="userSpaceOnUse" id="clipPath33">
        <path d="M141 51 L141 97 L336 97 L336 51 Z" />
      </clipPath>
      <clipPath clipPathUnits="userSpaceOnUse" id="clipPath34">
        <path d="M139 110 L139 264 L337 264 L337 110 Z" />
      </clipPath>
      <clipPath clipPathUnits="userSpaceOnUse" id="clipPath35">
        <path d="M141 112 L141 263 L336 263 L336 112 Z" />
      </clipPath>
    </defs>
    <g style="fill:rgb(0,64,64); stroke:rgb(0,64,64);">
      <line x1="268" x2="268" y1="355" style="clip-path:url(#clipPath1); fill:none;" y2="276" />
      <line x1="533" x2="533" y1="216" style="clip-path:url(#clipPath1); fill:none; stroke:rgb(0,0,130);" y2="216" />
      <line x1="533" x2="525" y1="216" style="clip-path:url(#clipPath1); fill:none; stroke:rgb(0,0,130);" y2="222" />
      <line x1="521" x2="513" y1="225" style="clip-path:url(#clipPath1); fill:none; stroke:rgb(0,0,130);" y2="231" />
      <line x1="509" x2="501" y1="234" style="clip-path:url(#clipPath1); fill:none; stroke:rgb(0,0,130);" y2="239" />
      <line x1="497" x2="488" y1="242" style="clip-path:url(#clipPath1); fill:none; stroke:rgb(0,0,130);" y2="248" />
      <line x1="484" x2="476" y1="251" style="clip-path:url(#clipPath1); fill:none; stroke:rgb(0,0,130);" y2="257" />
      <line x1="472" x2="464" y1="260" style="clip-path:url(#clipPath1); fill:none; stroke:rgb(0,0,130);" y2="266" />
      <line x1="460" x2="452" y1="269" style="clip-path:url(#clipPath1); fill:none; stroke:rgb(0,0,130);" y2="275" />
      <line x1="448" x2="440" y1="278" style="clip-path:url(#clipPath1); fill:none; stroke:rgb(0,0,130);" y2="283" />
      <line x1="436" x2="428" y1="286" style="clip-path:url(#clipPath1); fill:none; stroke:rgb(0,0,130);" y2="292" />
      <line x1="424" x2="416" y1="295" style="clip-path:url(#clipPath1); fill:none; stroke:rgb(0,0,130);" y2="301" />
      <line x1="411" x2="403" y1="304" style="clip-path:url(#clipPath1); fill:none; stroke:rgb(0,0,130);" y2="310" />
      <line x1="399" x2="391" y1="313" style="clip-path:url(#clipPath1); fill:none; stroke:rgb(0,0,130);" y2="319" />
      <line x1="387" x2="379" y1="322" style="clip-path:url(#clipPath1); fill:none; stroke:rgb(0,0,130);" y2="327" />
      <line x1="375" x2="367" y1="330" style="clip-path:url(#clipPath1); fill:none; stroke:rgb(0,0,130);" y2="336" />
      <line x1="363" x2="355" y1="339" style="clip-path:url(#clipPath1); fill:none; stroke:rgb(0,0,130);" y2="345" />
      <line x1="351" x2="343" y1="348" style="clip-path:url(#clipPath1); fill:none; stroke:rgb(0,0,130);" y2="354" />
      <line x1="419" x2="415" y1="118" style="clip-path:url(#clipPath1); fill:none; stroke:rgb(0,0,130);" y2="118" />
      <line x1="410" x2="400" y1="118" style="clip-path:url(#clipPath1); fill:none; stroke:rgb(0,0,130);" y2="118" />
      <line x1="395" x2="385" y1="118" style="clip-path:url(#clipPath1); fill:none; stroke:rgb(0,0,130);" y2="118" />
      <line x1="380" x2="370" y1="118" style="clip-path:url(#clipPath1); fill:none; stroke:rgb(0,0,130);" y2="118" />
      <line x1="365" x2="355" y1="118" style="clip-path:url(#clipPath1); fill:none; stroke:rgb(0,0,130);" y2="118" />
      <line x1="350" x2="340" y1="118" style="clip-path:url(#clipPath1); fill:none; stroke:rgb(0,0,130);" y2="118" />
      <line x1="604" x2="715" y1="216" style="clip-path:url(#clipPath1); fill:none; stroke:rgb(0,0,130);" y2="356" />
      <line x1="715" x2="715" y1="356" style="clip-path:url(#clipPath1); fill:none; stroke:rgb(0,0,130);" y2="647" />
      <line x1="715" x2="584" y1="647" style="clip-path:url(#clipPath1); fill:none; stroke:rgb(0,0,130);" y2="720" />
      <line x1="590" x2="590" y1="216" style="clip-path:url(#clipPath1); fill:none; stroke:rgb(0,0,130);" y2="355" />
      <line x1="476" x2="476" y1="216" style="clip-path:url(#clipPath1); fill:none; stroke:rgb(0,0,130);" y2="233" />
      <line x1="476" x2="188" y1="233" style="clip-path:url(#clipPath1); fill:none; stroke:rgb(0,0,130);" y2="355" />
      <line x1="495" x2="490" y1="423" style="clip-path:url(#clipPath1); fill:none; stroke:rgb(0,0,130);" y2="423" />
      <line x1="485" x2="475" y1="423" style="clip-path:url(#clipPath1); fill:none; stroke:rgb(0,0,130);" y2="423" />
      <line x1="470" x2="460" y1="423" style="clip-path:url(#clipPath1); fill:none; stroke:rgb(0,0,130);" y2="423" />
      <line x1="455" x2="445" y1="423" style="clip-path:url(#clipPath1); fill:none; stroke:rgb(0,0,130);" y2="423" />
      <line x1="440" x2="430" y1="423" style="clip-path:url(#clipPath1); fill:none; stroke:rgb(0,0,130);" y2="423" />
      <line x1="425" x2="415" y1="423" style="clip-path:url(#clipPath1); fill:none; stroke:rgb(0,0,130);" y2="423" />
      <line x1="548" x2="548" y1="641" style="clip-path:url(#clipPath1); fill:none; stroke:blue;" y2="720" />
      <line x1="542" x2="310" y1="355" style="clip-path:url(#clipPath1); fill:none; stroke:blue;" y2="276" />
      <line x1="506" x2="324" y1="720" style="clip-path:url(#clipPath1); fill:none; stroke:rgb(0,0,130);" y2="491" />
      <line x1="163" x2="163" y1="355" style="clip-path:url(#clipPath1); fill:none; stroke:rgb(0,0,130);" y2="355" />
      <line x1="163" x2="163" y1="350" style="clip-path:url(#clipPath1); fill:none; stroke:rgb(0,0,130);" y2="340" />
      <line x1="163" x2="163" y1="335" style="clip-path:url(#clipPath1); fill:none; stroke:rgb(0,0,130);" y2="325" />
      <line x1="163" x2="163" y1="320" style="clip-path:url(#clipPath1); fill:none; stroke:rgb(0,0,130);" y2="310" />
      <line x1="163" x2="163" y1="305" style="clip-path:url(#clipPath1); fill:none; stroke:rgb(0,0,130);" y2="295" />
      <line x1="163" x2="163" y1="290" style="clip-path:url(#clipPath1); fill:none; stroke:rgb(0,0,130);" y2="280" />
      <polygon style="fill:white; clip-path:url(#clipPath1); stroke:none;" points=" 268 276 274 294 262 294" />
      <polygon style="fill:none; clip-path:url(#clipPath1);" points=" 268 276 274 294 262 294" />
      <line x1="262" x2="268" y1="294" style="clip-path:url(#clipPath1); fill:none;" y2="276" />
      <line x1="341" x2="354" y1="355" style="clip-path:url(#clipPath1); fill:none; stroke:rgb(0,0,130);" y2="352" />
      <line x1="341" x2="348" y1="355" style="clip-path:url(#clipPath1); fill:none; stroke:rgb(0,0,130);" y2="344" />
      <line x1="339" x2="351" y1="118" style="clip-path:url(#clipPath1); fill:none; stroke:rgb(0,0,130);" y2="123" />
      <line x1="339" x2="351" y1="118" style="clip-path:url(#clipPath1); fill:none; stroke:rgb(0,0,130);" y2="113" />
      <polygon style="fill:white; clip-path:url(#clipPath1); stroke:none;" points=" 604 216 612 220 614 229 606 225" />
      <polygon style="fill:none; clip-path:url(#clipPath1); stroke:rgb(0,0,130);" points=" 604 216 612 220 614 229 606 225" />
      <line x1="606" x2="604" y1="225" style="clip-path:url(#clipPath1); fill:none; stroke:rgb(0,0,130);" y2="216" />
      <line x1="584" x2="597" y1="720" style="clip-path:url(#clipPath1); fill:none; stroke:rgb(0,0,130);" y2="719" />
      <line x1="584" x2="592" y1="720" style="clip-path:url(#clipPath1); fill:none; stroke:rgb(0,0,130);" y2="710" />
      <polygon style="fill:white; clip-path:url(#clipPath1); stroke:none;" points=" 590 216 594 224 590 232 586 224" />
      <polygon style="fill:none; clip-path:url(#clipPath1); stroke:rgb(0,0,130);" points=" 590 216 594 224 590 232 586 224" />
      <line x1="586" x2="590" y1="224" style="clip-path:url(#clipPath1); fill:none; stroke:rgb(0,0,130);" y2="216" />
      <line x1="590" x2="595" y1="355" style="clip-path:url(#clipPath1); fill:none; stroke:rgb(0,0,130);" y2="343" />
      <line x1="590" x2="585" y1="355" style="clip-path:url(#clipPath1); fill:none; stroke:rgb(0,0,130);" y2="343" />
      <polygon style="fill:white; clip-path:url(#clipPath1); stroke:none;" points=" 476 216 480 224 476 232 472 224" />
      <polygon style="fill:none; clip-path:url(#clipPath1); stroke:rgb(0,0,130);" points=" 476 216 480 224 476 232 472 224" />
      <line x1="472" x2="476" y1="224" style="clip-path:url(#clipPath1); fill:none; stroke:rgb(0,0,130);" y2="216" />
      <line x1="188" x2="201" y1="355" style="clip-path:url(#clipPath1); fill:none; stroke:rgb(0,0,130);" y2="355" />
      <line x1="188" x2="197" y1="355" style="clip-path:url(#clipPath1); fill:none; stroke:rgb(0,0,130);" y2="346" />
      <line x1="415" x2="427" y1="423" style="clip-path:url(#clipPath1); fill:none; stroke:rgb(0,0,130);" y2="428" />
      <line x1="415" x2="427" y1="423" style="clip-path:url(#clipPath1); fill:none; stroke:rgb(0,0,130);" y2="418" />
      <line x1="548" x2="553" y1="720" style="clip-path:url(#clipPath1); fill:none; stroke:blue;" y2="708" />
      <line x1="548" x2="543" y1="720" style="clip-path:url(#clipPath1); fill:none; stroke:blue;" y2="708" />
      <text x="516" y="713" style="clip-path:url(#clipPath1); fill:blue; font-family:sans-serif; stroke:none;">0..1
      </text>
      <line x1="310" x2="320" y1="276" style="clip-path:url(#clipPath1); fill:none; font-family:sans-serif; stroke:blue;" y2="285" />
      <line x1="310" x2="323" y1="276" style="clip-path:url(#clipPath1); fill:none; font-family:sans-serif; stroke:blue;" y2="275" />
      <text x="278" y="288" style="clip-path:url(#clipPath1); fill:blue; font-family:sans-serif; stroke:none;">0..1
      </text>
      <polygon points=" 506 720 498 716 496 707 504 711" style="fill:white; clip-path:url(#clipPath1); font-family:sans-serif; stroke:none;" />
      <polygon points=" 506 720 498 716 496 707 504 711" style="fill:none; clip-path:url(#clipPath1); font-family:sans-serif; stroke:rgb(0,0,130);" />
      <line x1="504" x2="506" y1="711" style="clip-path:url(#clipPath1); fill:none; font-family:sans-serif; stroke:rgb(0,0,130);" y2="720" />
      <line x1="324" x2="328" y1="491" style="clip-path:url(#clipPath1); fill:none; font-family:sans-serif; stroke:rgb(0,0,130);" y2="504" />
      <line x1="324" x2="335" y1="491" style="clip-path:url(#clipPath1); fill:none; font-family:sans-serif; stroke:rgb(0,0,130);" y2="497" />
      <line x1="163" x2="158" y1="276" style="clip-path:url(#clipPath1); fill:none; font-family:sans-serif; stroke:rgb(0,0,130);" y2="288" />
      <line x1="163" x2="168" y1="276" style="clip-path:url(#clipPath1); fill:none; font-family:sans-serif; stroke:rgb(0,0,130);" y2="288" />
      <rect x="23" y="358" width="190" style="clip-path:url(#clipPath1); fill:navy; font-family:sans-serif; stroke:none;" height="95" />
      <rect x="20" y="355" width="190" style="clip-path:url(#clipPath1); fill:white; font-family:sans-serif; stroke:none;" height="95" />
      <rect x="20" y="355" width="190" style="clip-path:url(#clipPath1); fill:none; font-family:sans-serif; stroke:black;" height="95" />
    </g>
    <g style="font-weight:bold; font-family:sans-serif;">
      <text x="77" y="368" style="clip-path:url(#clipPath3); stroke:none;">CGPSSensor
      </text>
    </g>
    <g style="font-family:sans-serif;">
      <line x1="20" x2="210" y1="377" style="clip-path:url(#clipPath2); fill:none;" y2="377" />
      <line x1="20" x2="210" y1="400" style="clip-path:url(#clipPath2); fill:none;" y2="400" />
    </g>
    <g style="font-family:sans-serif;">
      <text x="26" y="421" style="clip-path:url(#clipPath5); stroke:none;">+CGPSSensor
      </text>
      <text x="26" y="436" style="clip-path:url(#clipPath5); stroke:none;">+getCurrentPosition:CWaypoint
      </text>
    </g>
    <g style="fill:navy; font-family:sans-serif; stroke:navy;">
      <rect x="472" y="723" width="148" style="clip-path:url(#clipPath1); stroke:none;" height="133" />
      <rect x="469" y="720" width="148" style="clip-path:url(#clipPath1); fill:white; stroke:none;" height="133" />
      <rect x="469" y="720" width="148" style="clip-path:url(#clipPath1); fill:none; stroke:black;" height="133" />
    </g>
    <g style="font-weight:bold; font-family:sans-serif;">
      <text x="500" y="733" style="clip-path:url(#clipPath7); stroke:none;">CPoiDatabase
      </text>
    </g>
    <g style="font-family:sans-serif;">
      <line x1="469" x2="617" y1="742" style="clip-path:url(#clipPath6); fill:none;" y2="742" />
    </g>
    <g style="font-family:sans-serif;">
      <text x="475" y="763" style="clip-path:url(#clipPath9); stroke:none;">-m_POI:CPOI[10]
      </text>
      <text x="475" y="778" style="clip-path:url(#clipPath9); stroke:none;">-m_noPoi:int
      </text>
    </g>
    <g style="font-family:sans-serif;">
      <line x1="469" x2="617" y1="788" style="clip-path:url(#clipPath6); fill:none;" y2="788" />
    </g>
    <g style="font-family:sans-serif;">
      <text x="475" y="809" style="clip-path:url(#clipPath11); stroke:none;">+CPoiDatabase
      </text>
      <text x="475" y="824" style="clip-path:url(#clipPath11); stroke:none;">+addPoi:void
      </text>
      <text x="475" y="839" style="clip-path:url(#clipPath11); stroke:none;">+getPointerToPoi:CPOI*
      </text>
    </g>
    <g style="fill:navy; font-family:sans-serif; stroke:navy;">
      <rect x="498" y="358" width="197" style="clip-path:url(#clipPath1); stroke:none;" height="283" />
      <rect x="495" y="355" width="197" style="clip-path:url(#clipPath1); fill:white; stroke:none;" height="283" />
      <rect x="495" y="355" width="197" style="clip-path:url(#clipPath1); fill:none; stroke:black;" height="283" />
    </g>
    <g style="font-weight:bold; font-family:sans-serif;">
      <text x="571" y="368" style="clip-path:url(#clipPath13); stroke:none;">CRoute
      </text>
    </g>
    <g style="font-family:sans-serif;">
      <line x1="495" x2="692" y1="377" style="clip-path:url(#clipPath12); fill:none;" y2="377" />
    </g>
    <g style="font-family:sans-serif;">
      <text x="501" y="398" style="clip-path:url(#clipPath15); stroke:none;">-m_pWaypoint:CWaypoint*
      </text>
      <text x="501" y="413" style="clip-path:url(#clipPath15); stroke:none;">-m_maxWp:unsigned int
      </text>
      <text x="501" y="428" style="clip-path:url(#clipPath15); stroke:none;">-m_nextWp:unsigned int
      </text>
      <text x="501" y="443" style="clip-path:url(#clipPath15); stroke:none;">-m_pPoi:CPOI* *
      </text>
      <text x="501" y="458" style="clip-path:url(#clipPath15); stroke:none;">-m_maxPoi:unsigned int
      </text>
      <text x="501" y="473" style="clip-path:url(#clipPath15); stroke:none;">-m_nextPoi:unsigned int
      </text>
      <text x="501" y="488" style="clip-path:url(#clipPath15); stroke:none;">-m_pPoiDatabase:CPoiDatabase*
      </text>
    </g>
    <g style="font-family:sans-serif;">
      <line x1="495" x2="692" y1="498" style="clip-path:url(#clipPath12); fill:none;" y2="498" />
    </g>
    <g style="font-family:sans-serif;">
      <text x="501" y="519" style="clip-path:url(#clipPath17); stroke:none;">+CRoute
      </text>
      <text x="501" y="534" style="clip-path:url(#clipPath17); stroke:none;">+CRoute
      </text>
      <text x="501" y="549" style="clip-path:url(#clipPath17); stroke:none;">+~CRoute
      </text>
      <text x="501" y="564" style="clip-path:url(#clipPath17); stroke:none;">+connectToPoiDatabase:void
      </text>
      <text x="501" y="579" style="clip-path:url(#clipPath17); stroke:none;">+addWaypoint:void
      </text>
      <text x="501" y="594" style="clip-path:url(#clipPath17); stroke:none;">+addPoi:void
      </text>
      <text x="501" y="609" style="clip-path:url(#clipPath17); stroke:none;">+getDistanceNextPoi:double
      </text>
      <text x="501" y="624" style="clip-path:url(#clipPath17); stroke:none;">+print:void
      </text>
    </g>
    <g style="fill:navy; font-family:sans-serif; stroke:navy;">
      <rect x="422" y="23" width="197" style="clip-path:url(#clipPath1); stroke:none;" height="193" />
      <rect x="419" y="20" width="197" style="clip-path:url(#clipPath1); fill:white; stroke:none;" height="193" />
      <rect x="419" y="20" width="197" style="clip-path:url(#clipPath1); fill:none; stroke:black;" height="193" />
    </g>
    <g style="font-weight:bold; font-family:sans-serif;">
      <text x="456" y="33" style="clip-path:url(#clipPath19); stroke:none;">CNavigationSystem
      </text>
    </g>
    <g style="font-family:sans-serif;">
      <line x1="419" x2="616" y1="42" style="clip-path:url(#clipPath18); fill:none;" y2="42" />
    </g>
    <g style="font-family:sans-serif;">
      <text x="425" y="63" style="clip-path:url(#clipPath21); stroke:none;">-m_GPSSensor:CGPSSensor
      </text>
      <text x="425" y="78" style="clip-path:url(#clipPath21); stroke:none;">-m_route:CRoute
      </text>
      <text x="425" y="93" style="clip-path:url(#clipPath21); stroke:none;">-m_PoiDatabase:CPoiDatabase
      </text>
    </g>
    <g style="font-family:sans-serif;">
      <line x1="419" x2="616" y1="103" style="clip-path:url(#clipPath18); fill:none;" y2="103" />
    </g>
    <g style="font-family:sans-serif;">
      <text x="425" y="124" style="clip-path:url(#clipPath23); stroke:none;">+CNavigationSystem
      </text>
      <text x="425" y="139" style="clip-path:url(#clipPath23); stroke:none;">+run:void
      </text>
      <text x="425" y="154" style="clip-path:url(#clipPath23); stroke:none;">-addPOIsToDatabase:void
      </text>
      <text x="425" y="169" style="clip-path:url(#clipPath23); stroke:none;">-enterRoute:void
      </text>
      <text x="425" y="184" style="clip-path:url(#clipPath23); stroke:none;">-printRoute:void
      </text>
      <text x="425" y="199" style="clip-path:url(#clipPath23); stroke:none;">-printDistanceCurPosNextPoi:void
      </text>
    </g>
    <g style="fill:navy; font-family:sans-serif; stroke:navy;">
      <rect x="236" y="358" width="179" style="clip-path:url(#clipPath1); stroke:none;" height="133" />
      <rect x="233" y="355" width="179" style="clip-path:url(#clipPath1); fill:white; stroke:none;" height="133" />
      <rect x="233" y="355" width="179" style="clip-path:url(#clipPath1); fill:none; stroke:black;" height="133" />
    </g>
    <g style="font-weight:bold; font-family:sans-serif;">
      <text x="308" y="368" style="clip-path:url(#clipPath25); stroke:none;">CPOI
      </text>
    </g>
    <g style="font-family:sans-serif;">
      <line x1="233" x2="412" y1="377" style="clip-path:url(#clipPath24); fill:none;" y2="377" />
    </g>
    <g style="font-family:sans-serif;">
      <text x="239" y="398" style="clip-path:url(#clipPath27); stroke:none;">-m_type:t_poi
      </text>
      <text x="239" y="413" style="clip-path:url(#clipPath27); stroke:none;">-m_description:std::string
      </text>
    </g>
    <g style="font-family:sans-serif;">
      <line x1="233" x2="412" y1="423" style="clip-path:url(#clipPath24); fill:none;" y2="423" />
    </g>
    <g style="font-family:sans-serif;">
      <text x="239" y="444" style="clip-path:url(#clipPath29); stroke:none;">+print:void
      </text>
      <text x="239" y="459" style="clip-path:url(#clipPath29); stroke:none;">+CPOI
      </text>
      <text x="239" y="474" style="clip-path:url(#clipPath29); stroke:none;">+getAllDataByReference:void
      </text>
    </g>
    <g style="fill:navy; font-family:sans-serif; stroke:navy;">
      <rect x="142" y="23" width="197" style="clip-path:url(#clipPath1); stroke:none;" height="253" />
      <rect x="139" y="20" width="197" style="clip-path:url(#clipPath1); fill:white; stroke:none;" height="253" />
      <rect x="139" y="20" width="197" style="clip-path:url(#clipPath1); fill:none; stroke:black;" height="253" />
    </g>
    <g style="font-weight:bold; font-family:sans-serif;">
      <text x="204" y="33" style="clip-path:url(#clipPath31); stroke:none;">CWaypoint
      </text>
    </g>
    <g style="font-family:sans-serif;">
      <line x1="139" x2="336" y1="42" style="clip-path:url(#clipPath30); fill:none;" y2="42" />
    </g>
    <g style="font-family:sans-serif;">
      <text x="145" y="63" style="clip-path:url(#clipPath33); stroke:none;">#m_name:std::string
      </text>
      <text x="145" y="78" style="clip-path:url(#clipPath33); stroke:none;">#m_latitude:double
      </text>
      <text x="145" y="93" style="clip-path:url(#clipPath33); stroke:none;">#m_longitude:double
      </text>
    </g>
    <g style="font-family:sans-serif;">
      <line x1="139" x2="336" y1="103" style="clip-path:url(#clipPath30); fill:none;" y2="103" />
    </g>
    <g style="font-family:sans-serif;">
      <text x="145" y="124" style="clip-path:url(#clipPath35); stroke:none;">+CWaypoint
      </text>
      <text x="145" y="139" style="clip-path:url(#clipPath35); stroke:none;">+set:void
      </text>
      <text x="145" y="154" style="clip-path:url(#clipPath35); stroke:none;">+getName:std::string
      </text>
      <text x="145" y="169" style="clip-path:url(#clipPath35); stroke:none;">+getLatitude:double
      </text>
      <text x="145" y="184" style="clip-path:url(#clipPath35); stroke:none;">+getLongitude:double
      </text>
      <text x="145" y="199" style="clip-path:url(#clipPath35); stroke:none;">+getAllDataByReference:void
      </text>
      <text x="145" y="214" style="clip-path:url(#clipPath35); stroke:none;">+calculateDistance:double
      </text>
      <text x="145" y="229" style="clip-path:url(#clipPath35); stroke:none;">+print:void
      </text>
      <text x="145" y="244" style="clip-path:url(#clipPath35); stroke:none;">-transformLongitude2degmmss:void
      </text>
      <text x="145" y="259" style="clip-path:url(#clipPath35); stroke:none;">-transformLatitude2degmmss:void
      </text>
    </g>
  </g>
</svg>
