<?xml version="1.0" encoding="UTF-8"?>

<!DOCTYPE svg PUBLIC '-//W3C//DTD SVG 20001102//EN' 'http://www.w3.org/TR/2000/CR-SVG-20001102/DTD/svg-20001102.dtd'>
<svg style="fill-opacity:1; color-rendering:auto; color-interpolation:sRGB; text-rendering:auto; stroke:black; stroke-linecap:square; stroke-miterlimit:10; shape-rendering:auto; stroke-opacity:1; fill:black; stroke-dasharray:none; font-weight:normal; stroke-width:1; font-family:&apos;sansserif&apos;; font-style:normal; stroke-linejoin:miter; font-size:12; stroke-dashoffset:0; image-rendering:auto;" width="1000" height="541">
  <!--Generated by the Batik Graphics2D SVG Generator-->
  <defs id="genericDefs" />
  <g>
    <defs id="defs1">
      <clipPath clipPathUnits="userSpaceOnUse" id="clipPath1">
        <path d="M0 0 L1000 0 L1000 541 L0 541 L0 0 Z" />
      </clipPath>
      <clipPath clipPathUnits="userSpaceOnUse" id="clipPath2">
        <path d="M354 57 L354 70 L367 70 L367 57 Z" />
      </clipPath>
      <clipPath clipPathUnits="userSpaceOnUse" id="clipPath3">
        <path d="M330 120 L330 158 L387 158 L387 120 Z" />
      </clipPath>
      <clipPath clipPathUnits="userSpaceOnUse" id="clipPath4">
        <path d="M330 120 L330 144 L387 144 L387 120 Z" />
      </clipPath>
      <clipPath clipPathUnits="userSpaceOnUse" id="clipPath5">
        <path d="M334 120 L334 141 L383 141 L383 120 Z" />
      </clipPath>
      <clipPath clipPathUnits="userSpaceOnUse" id="clipPath6">
        <path d="M290 300 L290 343 L462 343 L462 300 Z" />
      </clipPath>
      <clipPath clipPathUnits="userSpaceOnUse" id="clipPath7">
        <path d="M290 300 L290 339 L462 339 L462 300 Z" />
      </clipPath>
      <clipPath clipPathUnits="userSpaceOnUse" id="clipPath8">
        <path d="M294 300 L294 321 L458 321 L458 300 Z" />
      </clipPath>
      <clipPath clipPathUnits="userSpaceOnUse" id="clipPath9">
        <path d="M290 320 L290 339 L462 339 L462 320 Z" />
      </clipPath>
      <clipPath clipPathUnits="userSpaceOnUse" id="clipPath10">
        <path d="M292 322 L292 338 L461 338 L461 322 Z" />
      </clipPath>
      <clipPath clipPathUnits="userSpaceOnUse" id="clipPath11">
        <path d="M290 440 L290 483 L426 483 L426 440 Z" />
      </clipPath>
      <clipPath clipPathUnits="userSpaceOnUse" id="clipPath12">
        <path d="M290 440 L290 479 L426 479 L426 440 Z" />
      </clipPath>
      <clipPath clipPathUnits="userSpaceOnUse" id="clipPath13">
        <path d="M294 440 L294 461 L422 461 L422 440 Z" />
      </clipPath>
      <clipPath clipPathUnits="userSpaceOnUse" id="clipPath14">
        <path d="M290 460 L290 479 L426 479 L426 460 Z" />
      </clipPath>
      <clipPath clipPathUnits="userSpaceOnUse" id="clipPath15">
        <path d="M292 462 L292 478 L425 478 L425 462 Z" />
      </clipPath>
      <clipPath clipPathUnits="userSpaceOnUse" id="clipPath16">
        <path d="M874 94 L874 185 L972 185 L972 94 Z" />
      </clipPath>
    </defs>
    <g>
      <circle style="clip-path:url(#clipPath2); stroke:none;" r="6" cx="360" cy="63" />
    </g>
    <g style="fill:navy; stroke:navy;">
      <rect x="333" y="123" width="57" style="clip-path:url(#clipPath1); stroke:none;" rx="7.5" ry="7.5" height="38" />
      <rect x="330" y="120" width="57" style="clip-path:url(#clipPath1); fill:white; stroke:none;" rx="7.5" ry="7.5" height="38" />
      <rect x="330" y="120" width="57" style="clip-path:url(#clipPath1); fill:none; stroke:black;" rx="7.5" ry="7.5" height="38" />
    </g>
    <g style="font-family:sans-serif;">
      <text x="338" y="132" style="clip-path:url(#clipPath5); stroke:none;">IS_IDLE
      </text>
    </g>
    <g>
      <line x1="330" x2="386" y1="140" style="clip-path:url(#clipPath4); fill:none;" y2="140" />
    </g>
    <g style="fill:navy; stroke:navy;">
      <rect x="293" y="303" width="172" style="clip-path:url(#clipPath1); stroke:none;" rx="7.5" ry="7.5" height="43" />
      <rect x="290" y="300" width="172" style="clip-path:url(#clipPath1); fill:white; stroke:none;" rx="7.5" ry="7.5" height="43" />
      <rect x="290" y="300" width="172" style="clip-path:url(#clipPath1); fill:none; stroke:black;" rx="7.5" ry="7.5" height="43" />
    </g>
    <g style="font-family:sans-serif;">
      <text x="315" y="312" style="clip-path:url(#clipPath8); stroke:none;">IS_WAITINGPAYMENT
      </text>
    </g>
    <g>
      <line x1="290" x2="461" y1="320" style="clip-path:url(#clipPath7); fill:none;" y2="320" />
    </g>
    <g style="font-family:sans-serif;">
      <text x="296" y="334" style="clip-path:url(#clipPath10); stroke:none;">entry()/showRemainingPrice
      </text>
    </g>
    <g style="fill:navy; stroke:navy;">
      <rect x="293" y="443" width="136" style="clip-path:url(#clipPath1); stroke:none;" rx="7.5" ry="7.5" height="43" />
      <rect x="290" y="440" width="136" style="clip-path:url(#clipPath1); fill:white; stroke:none;" rx="7.5" ry="7.5" height="43" />
      <rect x="290" y="440" width="136" style="clip-path:url(#clipPath1); fill:none; stroke:black;" rx="7.5" ry="7.5" height="43" />
    </g>
    <g style="font-family:sans-serif;">
      <text x="298" y="452" style="clip-path:url(#clipPath13); stroke:none;">IS_PROVIDINGSNACK
      </text>
    </g>
    <g>
      <line x1="290" x2="425" y1="460" style="clip-path:url(#clipPath12); fill:none;" y2="460" />
    </g>
    <g style="font-family:sans-serif;">
      <text x="296" y="474" style="clip-path:url(#clipPath15); stroke:none;">entry()/provideSnack
      </text>
    </g>
    <g>
      <line x1="428" x2="920" y1="465" style="clip-path:url(#clipPath1); fill:none;" y2="470" />
      <line x1="920" x2="820" y1="470" style="clip-path:url(#clipPath1); fill:none;" y2="70" />
      <line x1="820" x2="389" y1="70" style="clip-path:url(#clipPath1); fill:none;" y2="130" />
      <line x1="428" x2="760" y1="455" style="clip-path:url(#clipPath1); fill:none;" y2="460" />
      <line x1="760" x2="760" y1="460" style="clip-path:url(#clipPath1); fill:none;" y2="130" />
      <line x1="760" x2="389" y1="130" style="clip-path:url(#clipPath1); fill:none;" y2="140" />
      <line x1="428" x2="448" y1="475" style="clip-path:url(#clipPath1); fill:none;" y2="475" />
      <line x1="448" x2="448" y1="475" style="clip-path:url(#clipPath1); fill:none;" y2="505" />
      <line x1="448" x2="418" y1="505" style="clip-path:url(#clipPath1); fill:none;" y2="505" />
      <line x1="418" x2="418" y1="505" style="clip-path:url(#clipPath1); fill:none;" y2="485" />
      <line x1="290" x2="240" y1="310" style="clip-path:url(#clipPath1); fill:none;" y2="310" />
      <line x1="240" x2="240" y1="310" style="clip-path:url(#clipPath1); fill:none;" y2="150" />
      <line x1="240" x2="330" y1="150" style="clip-path:url(#clipPath1); fill:none;" y2="145" />
      <line x1="464" x2="484" y1="335" style="clip-path:url(#clipPath1); fill:none;" y2="335" />
      <line x1="484" x2="484" y1="335" style="clip-path:url(#clipPath1); fill:none;" y2="365" />
      <line x1="484" x2="454" y1="365" style="clip-path:url(#clipPath1); fill:none;" y2="365" />
      <line x1="454" x2="454" y1="365" style="clip-path:url(#clipPath1); fill:none;" y2="345" />
      <line x1="336" x2="336" y1="345" style="clip-path:url(#clipPath1); fill:none;" y2="440" />
      <line x1="382" x2="382" y1="345" style="clip-path:url(#clipPath1); fill:none;" y2="440" />
      <line x1="330" x2="290" y1="155" style="clip-path:url(#clipPath1); fill:none;" y2="155" />
      <line x1="290" x2="290" y1="155" style="clip-path:url(#clipPath1); fill:none;" y2="210" />
      <line x1="290" x2="350" y1="210" style="clip-path:url(#clipPath1); fill:none;" y2="210" />
      <line x1="350" x2="350" y1="210" style="clip-path:url(#clipPath1); fill:none;" y2="160" />
      <line x1="362" x2="362" y1="160" style="clip-path:url(#clipPath1); fill:none;" y2="300" />
      <line x1="389" x2="409" y1="150" style="clip-path:url(#clipPath1); fill:none;" y2="150" />
      <line x1="409" x2="409" y1="150" style="clip-path:url(#clipPath1); fill:none;" y2="180" />
      <line x1="409" x2="379" y1="180" style="clip-path:url(#clipPath1); fill:none;" y2="180" />
      <line x1="379" x2="379" y1="180" style="clip-path:url(#clipPath1); fill:none;" y2="160" />
      <line x1="360" x2="360" y1="69" style="clip-path:url(#clipPath1); fill:none;" y2="120" />
      <line x1="389" x2="402" y1="130" style="clip-path:url(#clipPath1); fill:none;" y2="133" />
      <line x1="389" x2="400" y1="130" style="clip-path:url(#clipPath1); fill:none;" y2="123" />
      <text x="884" y="257" style="clip-path:url(#clipPath1); font-family:sans-serif; stroke:none;">ev_Timeout
      </text>
      <line x1="389" x2="401" y1="140" style="clip-path:url(#clipPath1); fill:none; font-family:sans-serif;" y2="145" />
      <line x1="389" x2="401" y1="140" style="clip-path:url(#clipPath1); fill:none; font-family:sans-serif;" y2="135" />
      <text x="774" y="294" style="clip-path:url(#clipPath1); font-family:sans-serif; stroke:none;">ev_OpenTray
      </text>
      <line x1="418" x2="413" y1="485" style="clip-path:url(#clipPath1); fill:none; font-family:sans-serif;" y2="497" />
      <line x1="418" x2="423" y1="485" style="clip-path:url(#clipPath1); fill:none; font-family:sans-serif;" y2="497" />
      <text x="346" y="527" style="clip-path:url(#clipPath1); font-family:sans-serif; stroke:none;">ev_ENterMoney/returnMoney()
      </text>
      <line x1="330" x2="318" y1="145" style="clip-path:url(#clipPath1); fill:none; font-family:sans-serif;" y2="141" />
      <line x1="330" x2="318" y1="145" style="clip-path:url(#clipPath1); fill:none; font-family:sans-serif;" y2="151" />
      <text x="64" y="252" style="clip-path:url(#clipPath1); font-family:sans-serif; stroke:none;">ev_Cancel/returnMoney()
      </text>
      <line x1="454" x2="449" y1="345" style="clip-path:url(#clipPath1); fill:none; font-family:sans-serif;" y2="357" />
      <line x1="454" x2="459" y1="345" style="clip-path:url(#clipPath1); fill:none; font-family:sans-serif;" y2="357" />
      <text x="373" y="387" style="clip-path:url(#clipPath1); font-family:sans-serif; stroke:none;">ev_EnterMoney[notEnoughMoney(
      </text>
      <text x="373" y="402" style="clip-path:url(#clipPath1); font-family:sans-serif; stroke:none;">)]
      </text>
      <line x1="336" x2="341" y1="440" style="clip-path:url(#clipPath1); fill:none; font-family:sans-serif;" y2="428" />
      <line x1="336" x2="331" y1="440" style="clip-path:url(#clipPath1); fill:none; font-family:sans-serif;" y2="428" />
      <text x="350" y="389" style="clip-path:url(#clipPath1); font-family:sans-serif; stroke:none;">ev_EnterMoney[overpaid()]/retur
      </text>
      <text x="350" y="404" style="clip-path:url(#clipPath1); font-family:sans-serif; stroke:none;">nChange()
      </text>
      <line x1="382" x2="387" y1="440" style="clip-path:url(#clipPath1); fill:none; font-family:sans-serif;" y2="428" />
      <line x1="382" x2="377" y1="440" style="clip-path:url(#clipPath1); fill:none; font-family:sans-serif;" y2="428" />
      <text x="396" y="396" style="clip-path:url(#clipPath1); font-family:sans-serif; stroke:none;">ev_EnterMoney[exactMatch()]
      </text>
      <line x1="350" x2="345" y1="160" style="clip-path:url(#clipPath1); fill:none; font-family:sans-serif;" y2="172" />
      <line x1="350" x2="355" y1="160" style="clip-path:url(#clipPath1); fill:none; font-family:sans-serif;" y2="172" />
      <text x="94" y="132" style="clip-path:url(#clipPath1); font-family:sans-serif; stroke:none;">ev_PressButton[!trayIsNotEmpty()
      </text>
      <text x="94" y="147" style="clip-path:url(#clipPath1); font-family:sans-serif; stroke:none;">]/showMessage()
      </text>
      <line x1="362" x2="367" y1="300" style="clip-path:url(#clipPath1); fill:none; font-family:sans-serif;" y2="288" />
      <line x1="362" x2="357" y1="300" style="clip-path:url(#clipPath1); fill:none; font-family:sans-serif;" y2="288" />
      <text x="376" y="234" style="clip-path:url(#clipPath1); font-family:sans-serif; stroke:none;">ev_PressButton[trayIsNotEmpty()]
      </text>
      <line x1="379" x2="374" y1="160" style="clip-path:url(#clipPath1); fill:none; font-family:sans-serif;" y2="172" />
      <line x1="379" x2="384" y1="160" style="clip-path:url(#clipPath1); fill:none; font-family:sans-serif;" y2="172" />
      <text x="423" y="159" style="clip-path:url(#clipPath1); font-family:sans-serif; stroke:none;">ev_EnterMoney/returnMoney()
      </text>
      <line x1="360" x2="365" y1="120" style="clip-path:url(#clipPath1); fill:none; font-family:sans-serif;" y2="108" />
      <line x1="360" x2="355" y1="120" style="clip-path:url(#clipPath1); fill:none; font-family:sans-serif;" y2="108" />
      <polygon points=" 873 93 975 93 990 108 990 189 873 189" style="fill:navy; clip-path:url(#clipPath1); font-family:sans-serif; stroke:none;" />
      <polygon points=" 870 90 972 90 987 105 987 186 870 186" style="fill:white; clip-path:url(#clipPath1); font-family:sans-serif; stroke:none;" />
      <line x1="870" x2="972" y1="90" style="clip-path:url(#clipPath1); fill:none; font-family:sans-serif;" y2="90" />
      <line x1="972" x2="987" y1="90" style="clip-path:url(#clipPath1); fill:none; font-family:sans-serif;" y2="105" />
      <line x1="987" x2="987" y1="105" style="clip-path:url(#clipPath1); fill:none; font-family:sans-serif;" y2="186" />
      <line x1="987" x2="870" y1="186" style="clip-path:url(#clipPath1); fill:none; font-family:sans-serif;" y2="186" />
      <line x1="870" x2="870" y1="186" style="clip-path:url(#clipPath1); fill:none; font-family:sans-serif;" y2="90" />
      <line x1="972" x2="972" y1="90" style="clip-path:url(#clipPath1); fill:none; font-family:sans-serif;" y2="105" />
      <line x1="972" x2="987" y1="105" style="clip-path:url(#clipPath1); fill:none; font-family:sans-serif;" y2="105" />
    </g>
    <g style="font-family:sans-serif;">
      <text x="878" y="106" style="clip-path:url(#clipPath16); stroke:none;">Events:
      </text>
      <text x="878" y="121" style="clip-path:url(#clipPath16); stroke:none;">
      </text>
      <text x="878" y="136" style="clip-path:url(#clipPath16); stroke:none;">ev_EnterMoney
      </text>
      <text x="878" y="151" style="clip-path:url(#clipPath16); stroke:none;">ev_PressButton
      </text>
      <text x="878" y="166" style="clip-path:url(#clipPath16); stroke:none;">ev_Cancel
      </text>
      <text x="878" y="181" style="clip-path:url(#clipPath16); stroke:none;">ev_OpenTray(?)
      </text>
    </g>
  </g>
</svg>
