<?xml version="1.0" encoding="UTF-8"?>

<!DOCTYPE svg PUBLIC '-//W3C//DTD SVG 20001102//EN' 'http://www.w3.org/TR/2000/CR-SVG-20001102/DTD/svg-20001102.dtd'>
<svg style="fill-opacity:1; color-rendering:auto; color-interpolation:sRGB; text-rendering:auto; stroke:black; stroke-linecap:square; stroke-miterlimit:10; shape-rendering:auto; stroke-opacity:1; fill:black; stroke-dasharray:none; font-weight:normal; stroke-width:1; font-family:&apos;sansserif&apos;; font-style:normal; stroke-linejoin:miter; font-size:12; stroke-dashoffset:0; image-rendering:auto;" width="875" height="517">
  <!--Generated by the Batik Graphics2D SVG Generator-->
  <defs id="genericDefs" />
  <g>
    <defs id="defs1">
      <clipPath clipPathUnits="userSpaceOnUse" id="clipPath1">
        <path d="M0 0 L875 0 L875 517 L0 517 L0 0 Z" />
      </clipPath>
      <clipPath clipPathUnits="userSpaceOnUse" id="clipPath2">
        <path d="M254 40 L254 507 L761 507 L761 40 Z" />
      </clipPath>
      <clipPath clipPathUnits="userSpaceOnUse" id="clipPath3">
        <path d="M254 40 L254 56 L761 56 L761 40 Z" />
      </clipPath>
      <clipPath clipPathUnits="userSpaceOnUse" id="clipPath4">
        <path d="M185 211 L185 289 L249 289 L249 211 Z" />
      </clipPath>
      <clipPath clipPathUnits="userSpaceOnUse" id="clipPath5">
        <path d="M185 216 L185 269 L249 269 L249 216 Z" />
      </clipPath>
      <clipPath clipPathUnits="userSpaceOnUse" id="clipPath6">
        <path d="M185 268 L185 289 L249 289 L249 268 Z" />
      </clipPath>
      <clipPath clipPathUnits="userSpaceOnUse" id="clipPath7">
        <path d="M791 231 L791 309 L865 309 L865 231 Z" />
      </clipPath>
      <clipPath clipPathUnits="userSpaceOnUse" id="clipPath8">
        <path d="M791 236 L791 289 L865 289 L865 236 Z" />
      </clipPath>
      <clipPath clipPathUnits="userSpaceOnUse" id="clipPath9">
        <path d="M791 288 L791 309 L865 309 L865 288 Z" />
      </clipPath>
      <clipPath clipPathUnits="userSpaceOnUse" id="clipPath10">
        <path d="M46 353 L46 369 L173 369 L173 353 Z" />
      </clipPath>
      <clipPath clipPathUnits="userSpaceOnUse" id="clipPath11">
        <path d="M413 103 L413 119 L523 119 L523 103 Z" />
      </clipPath>
      <clipPath clipPathUnits="userSpaceOnUse" id="clipPath12">
        <path d="M446 183 L446 199 L523 199 L523 183 Z" />
      </clipPath>
      <clipPath clipPathUnits="userSpaceOnUse" id="clipPath13">
        <path d="M417 293 L417 309 L498 309 L498 293 Z" />
      </clipPath>
      <clipPath clipPathUnits="userSpaceOnUse" id="clipPath14">
        <path d="M585 333 L585 349 L709 349 L709 333 Z" />
      </clipPath>
      <clipPath clipPathUnits="userSpaceOnUse" id="clipPath15">
        <path d="M581 203 L581 219 L685 219 L685 203 Z" />
      </clipPath>
    </defs>
    <g style="fill:rgb(200,200,200); stroke:rgb(200,200,200);">
      <rect x="254" y="40" width="506" style="clip-path:url(#clipPath1); stroke:none;" height="466" />
      <rect x="254" y="40" width="506" style="clip-path:url(#clipPath1); fill:none; stroke:black;" height="466" />
    </g>
    <g style="font-family:sans-serif;">
      <text x="466" y="52" style="clip-path:url(#clipPath3); stroke:none;">Snackmachine
      </text>
    </g>
    <g style="fill:navy; stroke:navy;">
      <polygon style="clip-path:url(#clipPath5); stroke:none;" points=" 219 235 219 240 233 240 233 242 219 242 219 253 233 267 233 268 231 268 218 255 205 268 203 268 203 267 217 253 217 242 203 242 203 240 217 240 217 235 219 235" />
      <circle style="clip-path:url(#clipPath5); stroke:none;" r="8" cx="218" cy="227" />
      <polygon style="fill:white; clip-path:url(#clipPath5); stroke:none;" points=" 216 232 216 237 230 237 230 239 216 239 216 250 230 264 230 265 228 265 215 252 202 265 200 265 200 264 214 250 214 239 200 239 200 237 214 237 214 232 216 232" />
      <circle style="clip-path:url(#clipPath5); fill:white; stroke:none;" r="8" cx="215" cy="224" />
      <polygon style="fill:none; clip-path:url(#clipPath5); stroke:black;" points=" 216 232 216 237 230 237 230 239 216 239 216 250 230 264 230 265 228 265 215 252 202 265 200 265 200 264 214 250 214 239 200 239 200 237 214 237 214 232 216 232" />
      <circle style="clip-path:url(#clipPath5); fill:none; stroke:black;" r="8" cx="215" cy="224" />
    </g>
    <g style="font-family:sans-serif;">
      <text x="189" y="280" style="clip-path:url(#clipPath6); stroke:none;">Customer
      </text>
    </g>
    <g style="fill:navy; stroke:navy;">
      <polygon style="clip-path:url(#clipPath8); stroke:none;" points=" 830 255 830 260 844 260 844 262 830 262 830 273 844 287 844 288 842 288 829 275 816 288 814 288 814 287 828 273 828 262 814 262 814 260 828 260 828 255 830 255" />
      <circle style="clip-path:url(#clipPath8); stroke:none;" r="8" cx="829" cy="247" />
      <polygon style="fill:white; clip-path:url(#clipPath8); stroke:none;" points=" 827 252 827 257 841 257 841 259 827 259 827 270 841 284 841 285 839 285 826 272 813 285 811 285 811 284 825 270 825 259 811 259 811 257 825 257 825 252 827 252" />
      <circle style="clip-path:url(#clipPath8); fill:white; stroke:none;" r="8" cx="826" cy="244" />
      <polygon style="fill:none; clip-path:url(#clipPath8); stroke:black;" points=" 827 252 827 257 841 257 841 259 827 259 827 270 841 284 841 285 839 285 826 272 813 285 811 285 811 284 825 270 825 259 811 259 811 257 825 257 825 252 827 252" />
      <circle style="clip-path:url(#clipPath8); fill:none; stroke:black;" r="8" cx="826" cy="244" />
    </g>
    <g style="font-family:sans-serif;">
      <text x="795" y="300" style="clip-path:url(#clipPath9); stroke:none;">ShopOwner
      </text>
    </g>
    <g style="fill:navy; stroke:navy;">
      <ellipse style="clip-path:url(#clipPath1); stroke:none;" rx="89" cx="112" ry="10.5" cy="363.5" />
      <ellipse style="clip-path:url(#clipPath1); fill:white; stroke:none;" rx="89" cx="109" ry="10.5" cy="360.5" />
      <ellipse style="clip-path:url(#clipPath1); fill:none; stroke:black;" rx="89" cx="109" ry="10.5" cy="360.5" />
    </g>
    <g style="font-family:sans-serif;">
      <text x="50" y="365" style="clip-path:url(#clipPath10); stroke:none;">Charge student card
      </text>
    </g>
    <g style="fill:navy; stroke:navy;">
      <ellipse style="clip-path:url(#clipPath1); stroke:none;" rx="77" cx="470" ry="10.5" cy="113.5" />
      <ellipse style="clip-path:url(#clipPath1); fill:white; stroke:none;" rx="77" cx="467" ry="10.5" cy="110.5" />
      <ellipse style="clip-path:url(#clipPath1); fill:none; stroke:black;" rx="77" cx="467" ry="10.5" cy="110.5" />
    </g>
    <g style="font-family:sans-serif;">
      <text x="417" y="115" style="clip-path:url(#clipPath11); stroke:none;">Choose the snack
      </text>
    </g>
    <g style="fill:navy; stroke:navy;">
      <ellipse style="clip-path:url(#clipPath1); stroke:none;" rx="53.5" cx="486.5" ry="10.5" cy="193.5" />
      <ellipse style="clip-path:url(#clipPath1); fill:white; stroke:none;" rx="53.5" cx="483.5" ry="10.5" cy="190.5" />
      <ellipse style="clip-path:url(#clipPath1); fill:none; stroke:black;" rx="53.5" cx="483.5" ry="10.5" cy="190.5" />
    </g>
    <g style="font-family:sans-serif;">
      <text x="450" y="195" style="clip-path:url(#clipPath12); stroke:none;">Buy a snack
      </text>
    </g>
    <g style="fill:navy; stroke:navy;">
      <ellipse style="clip-path:url(#clipPath1); stroke:none;" rx="56.5" cx="459.5" ry="10.5" cy="303.5" />
      <ellipse style="clip-path:url(#clipPath1); fill:white; stroke:none;" rx="56.5" cx="456.5" ry="10.5" cy="300.5" />
      <ellipse style="clip-path:url(#clipPath1); fill:none; stroke:black;" rx="56.5" cx="456.5" ry="10.5" cy="300.5" />
    </g>
    <g style="font-family:sans-serif;">
      <text x="421" y="305" style="clip-path:url(#clipPath13); stroke:none;">Enter money
      </text>
    </g>
    <g style="fill:navy; stroke:navy;">
      <ellipse style="clip-path:url(#clipPath1); stroke:none;" rx="87" cx="650" ry="10.5" cy="343.5" />
      <ellipse style="clip-path:url(#clipPath1); fill:white; stroke:none;" rx="87" cx="647" ry="10.5" cy="340.5" />
      <ellipse style="clip-path:url(#clipPath1); fill:none; stroke:black;" rx="87" cx="647" ry="10.5" cy="340.5" />
    </g>
    <g style="font-family:sans-serif;">
      <text x="589" y="345" style="clip-path:url(#clipPath14); stroke:none;">Pay by student card
      </text>
    </g>
    <g style="fill:navy; stroke:navy;">
      <ellipse style="clip-path:url(#clipPath1); stroke:none;" rx="73" cx="636" ry="10.5" cy="213.5" />
      <ellipse style="clip-path:url(#clipPath1); fill:white; stroke:none;" rx="73" cx="633" ry="10.5" cy="210.5" />
      <ellipse style="clip-path:url(#clipPath1); fill:none; stroke:black;" rx="73" cx="633" ry="10.5" cy="210.5" />
    </g>
    <g style="font-family:sans-serif;">
      <text x="585" y="215" style="clip-path:url(#clipPath15); stroke:none;">Get snack status
      </text>
    </g>
    <g style="fill:rgb(0,64,64); stroke:rgb(0,64,64);">
      <line x1="709" x2="791" y1="214" style="clip-path:url(#clipPath1); fill:none;" y2="245" />
      <line x1="560" x2="554" y1="340" style="clip-path:url(#clipPath1); fill:none;" y2="335" />
      <line x1="550" x2="542" y1="332" style="clip-path:url(#clipPath1); fill:none;" y2="325" />
      <line x1="538" x2="531" y1="322" style="clip-path:url(#clipPath1); fill:none;" y2="316" />
      <line x1="527" x2="519" y1="313" style="clip-path:url(#clipPath1); fill:none;" y2="306" />
      <line x1="485" x2="485" y1="180" style="clip-path:url(#clipPath1); fill:none;" y2="175" />
      <line x1="485" x2="485" y1="170" style="clip-path:url(#clipPath1); fill:none;" y2="160" />
      <line x1="485" x2="485" y1="155" style="clip-path:url(#clipPath1); fill:none;" y2="145" />
      <line x1="485" x2="485" y1="140" style="clip-path:url(#clipPath1); fill:none;" y2="130" />
      <line x1="485" x2="485" y1="125" style="clip-path:url(#clipPath1); fill:none;" y2="124" />
      <line x1="473" x2="473" y1="204" style="clip-path:url(#clipPath1); fill:none;" y2="210" />
      <line x1="473" x2="473" y1="215" style="clip-path:url(#clipPath1); fill:none;" y2="225" />
      <line x1="473" x2="473" y1="230" style="clip-path:url(#clipPath1); fill:none;" y2="240" />
      <line x1="473" x2="473" y1="245" style="clip-path:url(#clipPath1); fill:none;" y2="255" />
      <line x1="473" x2="473" y1="260" style="clip-path:url(#clipPath1); fill:none;" y2="270" />
      <line x1="473" x2="473" y1="275" style="clip-path:url(#clipPath1); fill:none;" y2="285" />
      <line x1="473" x2="473" y1="290" style="clip-path:url(#clipPath1); fill:none;" y2="290" />
      <line x1="216" x2="106" y1="288" style="clip-path:url(#clipPath1); fill:none;" y2="350" />
      <line x1="216" x2="437" y1="211" style="clip-path:url(#clipPath1); fill:none;" y2="124" />
      <line x1="248" x2="400" y1="276" style="clip-path:url(#clipPath1); fill:none;" y2="300" />
      <line x1="248" x2="430" y1="223" style="clip-path:url(#clipPath1); fill:none;" y2="196" />
      <line x1="516" x2="522" y1="304" style="clip-path:url(#clipPath1); fill:none;" y2="315" />
      <line x1="516" x2="528" y1="304" style="clip-path:url(#clipPath1); fill:none;" y2="308" />
      <text x="546" y="315" style="clip-path:url(#clipPath1); font-family:sans-serif; stroke:none;">&lt;&lt;extend&gt;&gt;
      </text>
      <line x1="485" x2="480" y1="124" style="clip-path:url(#clipPath1); fill:none; font-family:sans-serif;" y2="136" />
      <line x1="485" x2="490" y1="124" style="clip-path:url(#clipPath1); fill:none; font-family:sans-serif;" y2="136" />
      <text x="396" y="154" style="clip-path:url(#clipPath1); font-family:sans-serif; stroke:none;">&lt;&lt;include&gt;&gt;
      </text>
      <line x1="473" x2="478" y1="290" style="clip-path:url(#clipPath1); fill:none; font-family:sans-serif;" y2="278" />
      <line x1="473" x2="468" y1="290" style="clip-path:url(#clipPath1); fill:none; font-family:sans-serif;" y2="278" />
      <text x="384" y="249" style="clip-path:url(#clipPath1); font-family:sans-serif; stroke:none;">&lt;&lt;include&gt;&gt;
      </text>
    </g>
  </g>
</svg>
