<?xml version="1.0" encoding="UTF-8"?>

<!DOCTYPE svg PUBLIC '-//W3C//DTD SVG 20001102//EN' 'http://www.w3.org/TR/2000/CR-SVG-20001102/DTD/svg-20001102.dtd'>
<svg style="fill-opacity:1; color-rendering:auto; color-interpolation:sRGB; text-rendering:auto; stroke:black; stroke-linecap:square; stroke-miterlimit:10; shape-rendering:auto; stroke-opacity:1; fill:black; stroke-dasharray:none; font-weight:normal; stroke-width:1; font-family:&apos;sansserif&apos;; font-style:normal; stroke-linejoin:miter; font-size:12; stroke-dashoffset:0; image-rendering:auto;" width="851" height="532">
  <!--Generated by the Batik Graphics2D SVG Generator-->
  <defs id="genericDefs" />
  <g>
    <defs id="defs1">
      <clipPath clipPathUnits="userSpaceOnUse" id="clipPath1">
        <path d="M0 0 L851 0 L851 532 L0 532 L0 0 Z" />
      </clipPath>
      <clipPath clipPathUnits="userSpaceOnUse" id="clipPath2">
        <path d="M640 310 L640 519 L838 519 L838 310 Z" />
      </clipPath>
      <clipPath clipPathUnits="userSpaceOnUse" id="clipPath3">
        <path d="M641 311 L641 327 L838 327 L838 311 Z" />
      </clipPath>
      <clipPath clipPathUnits="userSpaceOnUse" id="clipPath4">
        <path d="M640 339 L640 403 L838 403 L838 339 Z" />
      </clipPath>
      <clipPath clipPathUnits="userSpaceOnUse" id="clipPath5">
        <path d="M642 341 L642 402 L837 402 L837 341 Z" />
      </clipPath>
      <clipPath clipPathUnits="userSpaceOnUse" id="clipPath6">
        <path d="M640 415 L640 509 L838 509 L838 415 Z" />
      </clipPath>
      <clipPath clipPathUnits="userSpaceOnUse" id="clipPath7">
        <path d="M642 417 L642 508 L837 508 L837 417 Z" />
      </clipPath>
      <clipPath clipPathUnits="userSpaceOnUse" id="clipPath8">
        <path d="M707 98 L707 245 L790 245 L790 98 Z" />
      </clipPath>
      <clipPath clipPathUnits="userSpaceOnUse" id="clipPath9">
        <path d="M708 99 L708 130 L790 130 L790 99 Z" />
      </clipPath>
      <clipPath clipPathUnits="userSpaceOnUse" id="clipPath10">
        <path d="M707 142 L707 206 L790 206 L790 142 Z" />
      </clipPath>
      <clipPath clipPathUnits="userSpaceOnUse" id="clipPath11">
        <path d="M709 144 L709 205 L789 205 L789 144 Z" />
      </clipPath>
      <clipPath clipPathUnits="userSpaceOnUse" id="clipPath12">
        <path d="M190 310 L190 450 L392 450 L392 310 Z" />
      </clipPath>
      <clipPath clipPathUnits="userSpaceOnUse" id="clipPath13">
        <path d="M191 311 L191 327 L392 327 L392 311 Z" />
      </clipPath>
      <clipPath clipPathUnits="userSpaceOnUse" id="clipPath14">
        <path d="M190 339 L190 373 L392 373 L392 339 Z" />
      </clipPath>
      <clipPath clipPathUnits="userSpaceOnUse" id="clipPath15">
        <path d="M192 341 L192 372 L391 372 L391 341 Z" />
      </clipPath>
      <clipPath clipPathUnits="userSpaceOnUse" id="clipPath16">
        <path d="M190 385 L190 434 L392 434 L392 385 Z" />
      </clipPath>
      <clipPath clipPathUnits="userSpaceOnUse" id="clipPath17">
        <path d="M192 387 L192 433 L391 433 L391 387 Z" />
      </clipPath>
    </defs>
    <g style="fill:rgb(0,0,130); stroke:rgb(0,0,130);">
      <line x1="749" x2="749" y1="310" style="clip-path:url(#clipPath1); fill:none;" y2="310" />
      <line x1="749" x2="749" y1="305" style="clip-path:url(#clipPath1); fill:none;" y2="295" />
      <line x1="749" x2="749" y1="290" style="clip-path:url(#clipPath1); fill:none;" y2="280" />
      <line x1="749" x2="749" y1="275" style="clip-path:url(#clipPath1); fill:none;" y2="265" />
      <line x1="749" x2="749" y1="260" style="clip-path:url(#clipPath1); fill:none;" y2="250" />
      <line x1="640" x2="394" y1="381" style="clip-path:url(#clipPath1); fill:none;" y2="381" />
      <line x1="749" x2="744" y1="247" style="clip-path:url(#clipPath1); fill:none;" y2="259" />
      <line x1="749" x2="754" y1="247" style="clip-path:url(#clipPath1); fill:none;" y2="259" />
      <polygon style="clip-path:url(#clipPath1); stroke:none;" points=" 640 381 632 385 624 381 632 377" />
      <polygon style="fill:none; clip-path:url(#clipPath1);" points=" 640 381 632 385 624 381 632 377" />
      <line x1="632" x2="640" y1="377" style="clip-path:url(#clipPath1); fill:none;" y2="381" />
      <line x1="394" x2="406" y1="381" style="clip-path:url(#clipPath1); fill:none;" y2="386" />
      <line x1="394" x2="406" y1="381" style="clip-path:url(#clipPath1); fill:none;" y2="376" />
      <text x="624" y="374" style="clip-path:url(#clipPath1); font-family:sans-serif; stroke:none;">1
      </text>
      <text x="402" y="374" style="clip-path:url(#clipPath1); font-family:sans-serif; stroke:none;">1..*
      </text>
      <rect x="643" y="313" width="197" style="clip-path:url(#clipPath1); fill:navy; font-family:sans-serif; stroke:none;" height="208" />
      <rect x="640" y="310" width="197" style="clip-path:url(#clipPath1); fill:white; font-family:sans-serif; stroke:none;" height="208" />
      <rect x="640" y="310" width="197" style="clip-path:url(#clipPath1); fill:none; font-family:sans-serif; stroke:black;" height="208" />
    </g>
    <g style="font-weight:bold; font-family:sans-serif;">
      <text x="714" y="323" style="clip-path:url(#clipPath3); stroke:none;">CMatrix
      </text>
    </g>
    <g style="font-family:sans-serif;">
      <line x1="640" x2="837" y1="332" style="clip-path:url(#clipPath2); fill:none;" y2="332" />
    </g>
    <g style="font-family:sans-serif;">
      <text x="646" y="353" style="clip-path:url(#clipPath5); stroke:none;">-m_pData:matrixdata_t*
      </text>
      <text x="646" y="368" style="clip-path:url(#clipPath5); stroke:none;">-m_noColumns:unsigned short
      </text>
      <text x="646" y="383" style="clip-path:url(#clipPath5); stroke:none;">-m_noRows:unsigned short
      </text>
      <text x="646" y="398" style="clip-path:url(#clipPath5); stroke:none;">-m_count:int=0
      </text>
      <line x1="646" x2="737" y1="400" style="clip-path:url(#clipPath5); fill:none;" y2="400" />
    </g>
    <g style="font-family:sans-serif;">
      <line x1="640" x2="837" y1="408" style="clip-path:url(#clipPath2); fill:none;" y2="408" />
    </g>
    <g style="font-family:sans-serif;">
      <text x="646" y="429" style="clip-path:url(#clipPath7); stroke:none;">+CMatrix(noRows:unsigned short,noColumns:unsigned short,init:matrixInit_t)
      </text>
      <text x="646" y="444" style="clip-path:url(#clipPath7); stroke:none;">+CMatrix(origin:CMatrixconst &amp;)
      </text>
      <text x="646" y="459" style="clip-path:url(#clipPath7); stroke:none;">+~CMatrix()
      </text>
      <text x="646" y="474" style="clip-path:url(#clipPath7); stroke:none;">+print():void
      </text>
      <text x="646" y="489" style="clip-path:url(#clipPath7); stroke:none;">+set(row:unsigned short,column:unsigned short,value:matrixdata_t):bool
      </text>
      <text x="646" y="504" style="clip-path:url(#clipPath7); stroke:none;">-getIndex(row:unsigned short,column:unsigned short):unsigned int
      </text>
    </g>
    <g style="fill:navy; font-family:sans-serif; stroke:navy;">
      <rect x="710" y="101" width="82" style="clip-path:url(#clipPath1); stroke:none;" height="146" />
      <rect x="707" y="98" width="82" style="clip-path:url(#clipPath1); fill:white; stroke:none;" height="146" />
      <rect x="707" y="98" width="82" style="clip-path:url(#clipPath1); fill:none; stroke:black;" height="146" />
    </g>
    <g style="font-family:sans-serif;">
      <text x="732" y="111" style="clip-path:url(#clipPath9); stroke:none;">enum
      </text>
      <text x="712" y="126" style="clip-path:url(#clipPath9); font-weight:bold; stroke:none;">matrixInit t
      </text>
    </g>
    <g style="font-family:sans-serif;">
      <line x1="707" x2="789" y1="135" style="clip-path:url(#clipPath8); fill:none;" y2="135" />
    </g>
    <g style="font-family:sans-serif;">
      <text x="713" y="156" style="clip-path:url(#clipPath11); stroke:none;">+ZERO:int
      </text>
      <text x="713" y="171" style="clip-path:url(#clipPath11); stroke:none;">+ONE:int
      </text>
      <text x="713" y="186" style="clip-path:url(#clipPath11); stroke:none;">+UNIT:int
      </text>
      <text x="713" y="201" style="clip-path:url(#clipPath11); stroke:none;">+INDEX:int
      </text>
    </g>
    <g style="font-family:sans-serif;">
      <line x1="707" x2="789" y1="211" style="clip-path:url(#clipPath8); fill:none;" y2="211" />
    </g>
    <g style="fill:navy; font-family:sans-serif; stroke:navy;">
      <rect x="193" y="313" width="201" style="clip-path:url(#clipPath1); stroke:none;" height="139" />
      <rect x="190" y="310" width="201" style="clip-path:url(#clipPath1); fill:white; stroke:none;" height="139" />
      <rect x="190" y="310" width="201" style="clip-path:url(#clipPath1); fill:none; stroke:black;" height="139" />
    </g>
    <g style="font-weight:bold; font-family:sans-serif;">
      <text x="251" y="323" style="clip-path:url(#clipPath13); stroke:none;">CCoordinate
      </text>
    </g>
    <g style="font-family:sans-serif;">
      <line x1="190" x2="391" y1="332" style="clip-path:url(#clipPath12); fill:none;" y2="332" />
    </g>
    <g style="font-family:sans-serif;">
      <text x="196" y="353" style="clip-path:url(#clipPath15); stroke:none;">-m_x:int
      </text>
      <text x="196" y="368" style="clip-path:url(#clipPath15); stroke:none;">-m_y:int
      </text>
    </g>
    <g style="font-family:sans-serif;">
      <line x1="190" x2="391" y1="378" style="clip-path:url(#clipPath12); fill:none;" y2="378" />
    </g>
    <g style="font-family:sans-serif;">
      <text x="196" y="399" style="clip-path:url(#clipPath17); stroke:none;">+CCoordinate(x:int,y:int)
      </text>
      <text x="196" y="414" style="clip-path:url(#clipPath17); stroke:none;">+print():void
      </text>
      <text x="196" y="429" style="clip-path:url(#clipPath17); stroke:none;">+set(x:int,y:int):bool
      </text>
    </g>
    <g style="fill:navy; font-family:sans-serif; stroke:navy;">
      <rect x="193" y="313" width="201" style="clip-path:url(#clipPath1); stroke:none;" height="139" />
      <rect x="190" y="310" width="201" style="clip-path:url(#clipPath1); fill:white; stroke:none;" height="139" />
      <rect x="190" y="310" width="201" style="clip-path:url(#clipPath1); fill:none; stroke:black;" height="139" />
    </g>
    <g style="font-weight:bold; font-family:sans-serif;">
      <text x="251" y="323" style="clip-path:url(#clipPath13); stroke:none;">CCoordinate
      </text>
    </g>
    <g style="font-family:sans-serif;">
      <line x1="190" x2="391" y1="332" style="clip-path:url(#clipPath12); fill:none;" y2="332" />
    </g>
    <g style="font-family:sans-serif;">
      <text x="196" y="353" style="clip-path:url(#clipPath15); stroke:none;">-m_x:int
      </text>
      <text x="196" y="368" style="clip-path:url(#clipPath15); stroke:none;">-m_y:int
      </text>
    </g>
    <g style="font-family:sans-serif;">
      <line x1="190" x2="391" y1="378" style="clip-path:url(#clipPath12); fill:none;" y2="378" />
    </g>
    <g style="font-family:sans-serif;">
      <text x="196" y="399" style="clip-path:url(#clipPath17); stroke:none;">+CCoordinate(x:int,y:int)
      </text>
      <text x="196" y="414" style="clip-path:url(#clipPath17); stroke:none;">+print():void
      </text>
      <text x="196" y="429" style="clip-path:url(#clipPath17); stroke:none;">+set(x:int,y:int):bool
      </text>
    </g>
  </g>
</svg>
