<?xml version="1.0" encoding="UTF-8"?>

<!DOCTYPE svg PUBLIC '-//W3C//DTD SVG 20001102//EN' 'http://www.w3.org/TR/2000/CR-SVG-20001102/DTD/svg-20001102.dtd'>
<svg style="fill-opacity:1; color-rendering:auto; color-interpolation:sRGB; text-rendering:auto; stroke:black; stroke-linecap:square; stroke-miterlimit:10; shape-rendering:auto; stroke-opacity:1; fill:black; stroke-dasharray:none; font-weight:normal; stroke-width:1; font-family:&apos;sansserif&apos;; font-style:normal; stroke-linejoin:miter; font-size:12; stroke-dashoffset:0; image-rendering:auto;" width="635" height="557">
  <!--Generated by the Batik Graphics2D SVG Generator-->
  <defs id="genericDefs" />
  <g>
    <defs id="defs1">
      <clipPath clipPathUnits="userSpaceOnUse" id="clipPath1">
        <path d="M0 0 L635 0 L635 557 L0 557 L0 0 Z" />
      </clipPath>
      <clipPath clipPathUnits="userSpaceOnUse" id="clipPath2">
        <path d="M20 20 L20 214 L159 214 L159 20 Z" />
      </clipPath>
      <clipPath clipPathUnits="userSpaceOnUse" id="clipPath3">
        <path d="M21 21 L21 37 L159 37 L159 21 Z" />
      </clipPath>
      <clipPath clipPathUnits="userSpaceOnUse" id="clipPath4">
        <path d="M20 49 L20 98 L159 98 L159 49 Z" />
      </clipPath>
      <clipPath clipPathUnits="userSpaceOnUse" id="clipPath5">
        <path d="M22 51 L22 97 L158 97 L158 51 Z" />
      </clipPath>
      <clipPath clipPathUnits="userSpaceOnUse" id="clipPath6">
        <path d="M20 110 L20 204 L159 204 L159 110 Z" />
      </clipPath>
      <clipPath clipPathUnits="userSpaceOnUse" id="clipPath7">
        <path d="M22 112 L22 203 L158 203 L158 112 Z" />
      </clipPath>
      <clipPath clipPathUnits="userSpaceOnUse" id="clipPath8">
        <path d="M144 305 L144 544 L342 544 L342 305 Z" />
      </clipPath>
      <clipPath clipPathUnits="userSpaceOnUse" id="clipPath9">
        <path d="M145 306 L145 322 L342 322 L342 306 Z" />
      </clipPath>
      <clipPath clipPathUnits="userSpaceOnUse" id="clipPath10">
        <path d="M144 334 L144 413 L342 413 L342 334 Z" />
      </clipPath>
      <clipPath clipPathUnits="userSpaceOnUse" id="clipPath11">
        <path d="M146 336 L146 412 L341 412 L341 336 Z" />
      </clipPath>
      <clipPath clipPathUnits="userSpaceOnUse" id="clipPath12">
        <path d="M144 425 L144 534 L342 534 L342 425 Z" />
      </clipPath>
      <clipPath clipPathUnits="userSpaceOnUse" id="clipPath13">
        <path d="M146 427 L146 533 L341 533 L341 427 Z" />
      </clipPath>
      <clipPath clipPathUnits="userSpaceOnUse" id="clipPath14">
        <path d="M424 305 L424 469 L622 469 L622 305 Z" />
      </clipPath>
      <clipPath clipPathUnits="userSpaceOnUse" id="clipPath15">
        <path d="M425 306 L425 322 L622 322 L622 306 Z" />
      </clipPath>
      <clipPath clipPathUnits="userSpaceOnUse" id="clipPath16">
        <path d="M424 334 L424 368 L622 368 L622 334 Z" />
      </clipPath>
      <clipPath clipPathUnits="userSpaceOnUse" id="clipPath17">
        <path d="M426 336 L426 367 L621 367 L621 336 Z" />
      </clipPath>
      <clipPath clipPathUnits="userSpaceOnUse" id="clipPath18">
        <path d="M424 380 L424 459 L622 459 L622 380 Z" />
      </clipPath>
      <clipPath clipPathUnits="userSpaceOnUse" id="clipPath19">
        <path d="M426 382 L426 458 L621 458 L621 382 Z" />
      </clipPath>
      <clipPath clipPathUnits="userSpaceOnUse" id="clipPath20">
        <path d="M311 20 L311 214 L482 214 L482 20 Z" />
      </clipPath>
      <clipPath clipPathUnits="userSpaceOnUse" id="clipPath21">
        <path d="M312 21 L312 37 L482 37 L482 21 Z" />
      </clipPath>
      <clipPath clipPathUnits="userSpaceOnUse" id="clipPath22">
        <path d="M311 49 L311 113 L482 113 L482 49 Z" />
      </clipPath>
      <clipPath clipPathUnits="userSpaceOnUse" id="clipPath23">
        <path d="M313 51 L313 112 L481 112 L481 51 Z" />
      </clipPath>
      <clipPath clipPathUnits="userSpaceOnUse" id="clipPath24">
        <path d="M311 125 L311 204 L482 204 L482 125 Z" />
      </clipPath>
      <clipPath clipPathUnits="userSpaceOnUse" id="clipPath25">
        <path d="M313 127 L313 203 L481 203 L481 127 Z" />
      </clipPath>
    </defs>
    <g style="fill:blue; stroke:blue;">
      <line x1="311" x2="161" y1="85" style="clip-path:url(#clipPath1); fill:none;" y2="85" />
      <line x1="311" x2="161" y1="150" style="clip-path:url(#clipPath1); fill:none;" y2="150" />
      <line x1="210" x2="210" y1="305" style="clip-path:url(#clipPath1); fill:none; stroke:rgb(0,0,130);" y2="305" />
      <line x1="210" x2="202" y1="305" style="clip-path:url(#clipPath1); fill:none; stroke:rgb(0,0,130);" y2="299" />
      <line x1="198" x2="190" y1="296" style="clip-path:url(#clipPath1); fill:none; stroke:rgb(0,0,130);" y2="290" />
      <line x1="186" x2="178" y1="287" style="clip-path:url(#clipPath1); fill:none; stroke:rgb(0,0,130);" y2="281" />
      <line x1="174" x2="166" y1="278" style="clip-path:url(#clipPath1); fill:none; stroke:rgb(0,0,130);" y2="272" />
      <line x1="162" x2="154" y1="269" style="clip-path:url(#clipPath1); fill:none; stroke:rgb(0,0,130);" y2="263" />
      <line x1="150" x2="142" y1="260" style="clip-path:url(#clipPath1); fill:none; stroke:rgb(0,0,130);" y2="254" />
      <line x1="138" x2="130" y1="251" style="clip-path:url(#clipPath1); fill:none; stroke:rgb(0,0,130);" y2="245" />
      <line x1="126" x2="118" y1="242" style="clip-path:url(#clipPath1); fill:none; stroke:rgb(0,0,130);" y2="236" />
      <line x1="114" x2="106" y1="234" style="clip-path:url(#clipPath1); fill:none; stroke:rgb(0,0,130);" y2="228" />
      <line x1="102" x2="94" y1="225" style="clip-path:url(#clipPath1); fill:none; stroke:rgb(0,0,130);" y2="219" />
      <line x1="344" x2="345" y1="388" style="clip-path:url(#clipPath1); fill:none; stroke:rgb(0,0,130);" y2="388" />
      <line x1="350" x2="360" y1="388" style="clip-path:url(#clipPath1); fill:none; stroke:rgb(0,0,130);" y2="388" />
      <line x1="365" x2="375" y1="388" style="clip-path:url(#clipPath1); fill:none; stroke:rgb(0,0,130);" y2="388" />
      <line x1="380" x2="390" y1="388" style="clip-path:url(#clipPath1); fill:none; stroke:rgb(0,0,130);" y2="388" />
      <line x1="395" x2="405" y1="388" style="clip-path:url(#clipPath1); fill:none; stroke:rgb(0,0,130);" y2="388" />
      <line x1="410" x2="420" y1="388" style="clip-path:url(#clipPath1); fill:none; stroke:rgb(0,0,130);" y2="388" />
      <line x1="277" x2="397" y1="305" style="clip-path:url(#clipPath1); fill:none; stroke:rgb(0,0,130);" y2="216" />
      <line x1="161" x2="173" y1="85" style="clip-path:url(#clipPath1); fill:none;" y2="90" />
      <line x1="161" x2="173" y1="85" style="clip-path:url(#clipPath1); fill:none;" y2="80" />
      <text x="169" y="78" style="clip-path:url(#clipPath1); font-family:sans-serif; stroke:none;">0..1
      </text>
      <line x1="161" x2="173" y1="150" style="clip-path:url(#clipPath1); fill:none; font-family:sans-serif;" y2="155" />
      <line x1="161" x2="173" y1="150" style="clip-path:url(#clipPath1); fill:none; font-family:sans-serif;" y2="145" />
      <text x="169" y="143" style="clip-path:url(#clipPath1); font-family:sans-serif; stroke:none;">0..1
      </text>
      <line x1="90" x2="97" y1="216" style="clip-path:url(#clipPath1); fill:none; font-family:sans-serif; stroke:rgb(0,0,130);" y2="227" />
      <line x1="90" x2="103" y1="216" style="clip-path:url(#clipPath1); fill:none; font-family:sans-serif; stroke:rgb(0,0,130);" y2="219" />
      <line x1="424" x2="412" y1="388" style="clip-path:url(#clipPath1); fill:none; font-family:sans-serif; stroke:rgb(0,0,130);" y2="383" />
      <line x1="424" x2="412" y1="388" style="clip-path:url(#clipPath1); fill:none; font-family:sans-serif; stroke:rgb(0,0,130);" y2="393" />
      <polygon points=" 277 305 281 297 290 295 286 303" style="fill:white; clip-path:url(#clipPath1); font-family:sans-serif; stroke:none;" />
      <polygon points=" 277 305 281 297 290 295 286 303" style="fill:none; clip-path:url(#clipPath1); font-family:sans-serif; stroke:rgb(0,0,130);" />
      <line x1="286" x2="277" y1="303" style="clip-path:url(#clipPath1); fill:none; font-family:sans-serif; stroke:rgb(0,0,130);" y2="305" />
      <line x1="397" x2="384" y1="216" style="clip-path:url(#clipPath1); fill:none; font-family:sans-serif; stroke:rgb(0,0,130);" y2="219" />
      <line x1="397" x2="390" y1="216" style="clip-path:url(#clipPath1); fill:none; font-family:sans-serif; stroke:rgb(0,0,130);" y2="227" />
      <text x="342" y="228" style="clip-path:url(#clipPath1); fill:rgb(0,0,130); font-family:sans-serif; stroke:none;">1..*
      </text>
      <rect x="23" y="23" width="138" style="clip-path:url(#clipPath1); fill:navy; font-family:sans-serif; stroke:none;" height="193" />
      <rect x="20" y="20" width="138" style="clip-path:url(#clipPath1); fill:white; font-family:sans-serif; stroke:none;" height="193" />
      <rect x="20" y="20" width="138" style="clip-path:url(#clipPath1); fill:none; font-family:sans-serif; stroke:black;" height="193" />
    </g>
    <g style="font-weight:bold; font-family:sans-serif;">
      <text x="59" y="33" style="clip-path:url(#clipPath3); stroke:none;">CAccount
      </text>
    </g>
    <g style="font-family:sans-serif;">
      <line x1="20" x2="158" y1="42" style="clip-path:url(#clipPath2); fill:none;" y2="42" />
    </g>
    <g style="font-family:sans-serif;">
      <text x="26" y="63" style="clip-path:url(#clipPath5); stroke:none;">-m_ID:int
      </text>
      <text x="26" y="78" style="clip-path:url(#clipPath5); stroke:none;">-m_balance:float
      </text>
      <text x="26" y="93" style="clip-path:url(#clipPath5); stroke:none;">-m_owner:std::string
      </text>
    </g>
    <g style="font-family:sans-serif;">
      <line x1="20" x2="158" y1="103" style="clip-path:url(#clipPath2); fill:none;" y2="103" />
    </g>
    <g style="font-family:sans-serif;">
      <text x="26" y="124" style="clip-path:url(#clipPath7); stroke:none;">+CAccount
      </text>
      <text x="26" y="139" style="clip-path:url(#clipPath7); stroke:none;">+withdraw:void
      </text>
      <text x="26" y="154" style="clip-path:url(#clipPath7); stroke:none;">+deposit:void
      </text>
      <text x="26" y="169" style="clip-path:url(#clipPath7); stroke:none;">+getOwner:std::string
      </text>
      <text x="26" y="184" style="clip-path:url(#clipPath7); stroke:none;">+getID:int
      </text>
      <text x="26" y="199" style="clip-path:url(#clipPath7); stroke:none;">+getBalance:float
      </text>
    </g>
    <g style="fill:navy; font-family:sans-serif; stroke:navy;">
      <rect x="147" y="308" width="197" style="clip-path:url(#clipPath1); stroke:none;" height="238" />
      <rect x="144" y="305" width="197" style="clip-path:url(#clipPath1); fill:white; stroke:none;" height="238" />
      <rect x="144" y="305" width="197" style="clip-path:url(#clipPath1); fill:none; stroke:black;" height="238" />
    </g>
    <g style="font-weight:bold; font-family:sans-serif;">
      <text x="223" y="318" style="clip-path:url(#clipPath9); stroke:none;">CBank
      </text>
    </g>
    <g style="font-family:sans-serif;">
      <line x1="144" x2="341" y1="327" style="clip-path:url(#clipPath8); fill:none;" y2="327" />
    </g>
    <g style="font-family:sans-serif;">
      <text x="150" y="348" style="clip-path:url(#clipPath11); stroke:none;">-m_CustomersMap:std::map&lt;std::string,CCustomer&gt;
      </text>
      <text x="150" y="363" style="clip-path:url(#clipPath11); stroke:none;">-m_TransactionsVector:std::vector&lt;CTransaction&gt;
      </text>
      <text x="150" y="378" style="clip-path:url(#clipPath11); stroke:none;">-m_AccountsMap:std::map&lt;int,CAccount&gt;
      </text>
      <text x="150" y="393" style="clip-path:url(#clipPath11); stroke:none;">-m_generator:std::default_random_engine
      </text>
      <text x="150" y="408" style="clip-path:url(#clipPath11); stroke:none;">-m_distribution:std::uniform_int_distribution&lt;int&gt;
      </text>
    </g>
    <g style="font-family:sans-serif;">
      <line x1="144" x2="341" y1="418" style="clip-path:url(#clipPath8); fill:none;" y2="418" />
    </g>
    <g style="font-family:sans-serif;">
      <text x="150" y="439" style="clip-path:url(#clipPath13); stroke:none;">+CBank
      </text>
      <text x="150" y="454" style="clip-path:url(#clipPath13); stroke:none;">+addCustomer:void
      </text>
      <text x="150" y="469" style="clip-path:url(#clipPath13); stroke:none;">+addAccount:void
      </text>
      <text x="150" y="484" style="clip-path:url(#clipPath13); stroke:none;">+deleteAccount:void
      </text>
      <text x="150" y="499" style="clip-path:url(#clipPath13); stroke:none;">+deleteCustomer:void
      </text>
      <text x="150" y="514" style="clip-path:url(#clipPath13); stroke:none;">+performTransaction:void
      </text>
      <text x="150" y="529" style="clip-path:url(#clipPath13); stroke:none;">+generateReport:void
      </text>
    </g>
    <g style="fill:navy; font-family:sans-serif; stroke:navy;">
      <rect x="427" y="308" width="197" style="clip-path:url(#clipPath1); stroke:none;" height="163" />
      <rect x="424" y="305" width="197" style="clip-path:url(#clipPath1); fill:white; stroke:none;" height="163" />
      <rect x="424" y="305" width="197" style="clip-path:url(#clipPath1); fill:none; stroke:black;" height="163" />
    </g>
    <g style="font-weight:bold; font-family:sans-serif;">
      <text x="487" y="318" style="clip-path:url(#clipPath15); stroke:none;">CCustomer
      </text>
    </g>
    <g style="font-family:sans-serif;">
      <line x1="424" x2="621" y1="327" style="clip-path:url(#clipPath14); fill:none;" y2="327" />
    </g>
    <g style="font-family:sans-serif;">
      <text x="430" y="348" style="clip-path:url(#clipPath17); stroke:none;">-m_name:std::string
      </text>
      <text x="430" y="363" style="clip-path:url(#clipPath17); stroke:none;">-m_associatedAccountIDs:std::set&lt;int&gt;
      </text>
    </g>
    <g style="font-family:sans-serif;">
      <line x1="424" x2="621" y1="373" style="clip-path:url(#clipPath14); fill:none;" y2="373" />
    </g>
    <g style="font-family:sans-serif;">
      <text x="430" y="394" style="clip-path:url(#clipPath19); stroke:none;">+CCustomer
      </text>
      <text x="430" y="409" style="clip-path:url(#clipPath19); stroke:none;">+openAccount:void
      </text>
      <text x="430" y="424" style="clip-path:url(#clipPath19); stroke:none;">+deleteAccount:void
      </text>
      <text x="430" y="439" style="clip-path:url(#clipPath19); stroke:none;">+getAssociatedAccountIDs:std::set&lt;int&gt;
      </text>
      <text x="430" y="454" style="clip-path:url(#clipPath19); stroke:none;">+getName:std::string
      </text>
    </g>
    <g style="fill:navy; font-family:sans-serif; stroke:navy;">
      <rect x="314" y="23" width="170" style="clip-path:url(#clipPath1); stroke:none;" height="193" />
      <rect x="311" y="20" width="170" style="clip-path:url(#clipPath1); fill:white; stroke:none;" height="193" />
      <rect x="311" y="20" width="170" style="clip-path:url(#clipPath1); fill:none; stroke:black;" height="193" />
    </g>
    <g style="font-weight:bold; font-family:sans-serif;">
      <text x="354" y="33" style="clip-path:url(#clipPath21); stroke:none;">CTransaction
      </text>
    </g>
    <g style="font-family:sans-serif;">
      <line x1="311" x2="481" y1="42" style="clip-path:url(#clipPath20); fill:none;" y2="42" />
    </g>
    <g style="font-family:sans-serif;">
      <text x="317" y="63" style="clip-path:url(#clipPath23); stroke:none;">-m_fromAccount:CAccount*
      </text>
      <text x="317" y="78" style="clip-path:url(#clipPath23); stroke:none;">-m_toAccount:CAccount*
      </text>
      <text x="317" y="93" style="clip-path:url(#clipPath23); stroke:none;">-m_amount:float
      </text>
      <text x="317" y="108" style="clip-path:url(#clipPath23); stroke:none;">-m_date:std::string
      </text>
    </g>
    <g style="font-family:sans-serif;">
      <line x1="311" x2="481" y1="118" style="clip-path:url(#clipPath20); fill:none;" y2="118" />
    </g>
    <g style="font-family:sans-serif;">
      <text x="317" y="139" style="clip-path:url(#clipPath25); stroke:none;">+CTransaction
      </text>
      <text x="317" y="154" style="clip-path:url(#clipPath25); stroke:none;">+getFromAccount:CAccount
      </text>
      <text x="317" y="169" style="clip-path:url(#clipPath25); stroke:none;">+getToAccount:CAccount
      </text>
      <text x="317" y="184" style="clip-path:url(#clipPath25); stroke:none;">+getAmount:float
      </text>
      <text x="317" y="199" style="clip-path:url(#clipPath25); stroke:none;">+getDate:std::string
      </text>
    </g>
  </g>
</svg>
